<?xml version="1.0" encoding="UTF-8"?>
<!DOCTYPE svg PUBLIC "-//W3C//DTD SVG 1.1//EN" "http://www.w3.org/Graphics/SVG/1.1/DTD/svg11.dtd">
<!-- Creator: CorelDRAW X8 -->
<svg xmlns="http://www.w3.org/2000/svg" xml:space="preserve" width="1.11111in" height="1.11111in" version="1.1" style="shape-rendering:geometricPrecision; text-rendering:geometricPrecision; image-rendering:optimizeQuality; fill-rule:evenodd; clip-rule:evenodd"
viewBox="0 0 160 160"
 xmlns:xlink="http://www.w3.org/1999/xlink">
 <defs>
  <style type="text/css">
   <![CDATA[
    .fil1 {fill:#1A161A;fill-rule:nonzero}
    .fil0 {fill:white;fill-rule:nonzero}
   ]]>
  </style>
 </defs>
 <g id="Layer_x0020_1">
  <metadata id="CorelCorpID_0Corel-Layer"/>
  <g id="_2323590673040">
   <g>
    <path class="fil0" d="M160 80c0,44 -36,80 -80,80 -44,0 -80,-36 -80,-80 0,-44 36,-80 80,-80 44,0 80,36 80,80z"/>
   </g>
   <g>
    <g>
     <path class="fil1" d="M121 56c-1,0 -1,1 -1,1 2,13 -6,27 -9,31 -1,1 -1,2 -1,3 -3,21 -8,35 -12,35 -3,0 -12,-6 -12,-25 0,-4 -3,-7 -5,-8 -2,0 -3,0 -5,0 -2,1 -5,4 -5,8 0,19 -9,25 -12,25 -4,0 -9,-14 -11,-35 -1,-1 -1,-2 -2,-3 -3,-4 -16,-25 -5,-39 11,-13 20,-9 32,-4 0,0 1,1 2,1 -3,1 -6,2 -10,2 0,0 -1,0 -1,1 0,1 1,2 1,2 5,0 10,-2 14,-4 0,0 0,0 0,0 2,0 4,-1 5,-2 8,-3 14,-6 21,-4 1,0 2,-1 2,-1 0,-1 0,-2 -1,-2 -8,-2 -16,1 -23,4 -1,1 -3,2 -4,2 -2,0 -4,-1 -5,-2 -11,-5 -23,-10 -35,5 -12,15 1,36 5,42 0,1 1,2 1,2 1,14 6,38 14,38 4,0 15,-7 15,-28 0,0 0,0 0,0 0,-3 2,-4 4,-5 0,0 1,0 1,0 2,1 4,2 4,5l0 0 0 0c0,0 0,0 0,0 1,21 11,28 15,28 9,0 13,-24 14,-38 1,0 1,-1 1,-2 3,-4 12,-19 10,-32 -1,-1 -1,-1 -2,-1z"/>
    </g>
    <g>
     <path class="fil1" d="M126 44c-5,0 -9,-4 -9,-9 0,-1 -1,-2 -2,-2 -1,0 -1,1 -1,2 0,5 -5,9 -10,9 0,0 -1,1 -1,2 0,0 1,1 1,1 5,0 10,4 10,9 0,1 0,2 1,2 1,0 2,-1 2,-2 0,-5 4,-9 9,-9 1,0 1,-1 1,-1 0,-1 0,-2 -1,-2zm-11 7l0 0c-1,-3 -3,-4 -5,-5 2,-2 4,-3 5,-5 1,2 3,3 5,5 -2,1 -4,2 -5,5z"/>
    </g>
    <g>
     <path class="fil1" d="M95 68c-1,0 -1,1 -1,1 0,5 -4,10 -9,10 -1,0 -2,0 -2,1 0,1 1,2 2,2 5,0 9,4 9,9 0,1 0,1 1,1 1,0 2,0 2,-1 0,-5 4,-9 9,-9 1,0 1,-1 1,-2 0,-1 0,-1 -1,-1 -5,0 -9,-5 -9,-10 0,0 -1,-1 -2,-1zm5 12l0 0c-2,1 -4,3 -5,5 -1,-2 -3,-4 -5,-5 2,-1 4,-3 5,-5 1,2 3,4 5,5z"/>
    </g>
    <g>
     <path class="fil1" d="M62 57c0,-1 -1,-2 -2,-2 0,0 -1,1 -1,2 0,5 -4,9 -9,9 -1,0 -2,1 -2,1 0,1 1,2 2,2 5,0 9,4 9,9 0,1 1,2 1,2 1,0 2,-1 2,-2 0,-5 4,-9 9,-9 1,0 1,-1 1,-2 0,0 0,-1 -1,-1 -5,0 -9,-4 -9,-9zm-2 15l0 0c-1,-2 -3,-3 -5,-5 2,-1 4,-2 5,-5 1,3 3,4 5,5 -2,2 -4,3 -5,5z"/>
    </g>
   </g>
  </g>
 </g>
</svg>
