<?xml version="1.0" encoding="UTF-8"?>
<!DOCTYPE svg PUBLIC "-//W3C//DTD SVG 1.1//EN" "http://www.w3.org/Graphics/SVG/1.1/DTD/svg11.dtd">
<!-- Creator: CorelDRAW X8 -->
<svg xmlns="http://www.w3.org/2000/svg" xml:space="preserve" width="1.11111in" height="1.11111in" version="1.1" style="shape-rendering:geometricPrecision; text-rendering:geometricPrecision; image-rendering:optimizeQuality; fill-rule:evenodd; clip-rule:evenodd"
viewBox="0 0 160 160"
 xmlns:xlink="http://www.w3.org/1999/xlink">
 <defs>
  <style type="text/css">
   <![CDATA[
    .fil1 {fill:#1A161A;fill-rule:nonzero}
    .fil0 {fill:white;fill-rule:nonzero}
   ]]>
  </style>
 </defs>
 <g id="Layer_x0020_1">
  <metadata id="CorelCorpID_0Corel-Layer"/>
  <g id="_2324002073536">
   <g>
    <path class="fil0" d="M160 80c0,44 -36,80 -80,80 -44,0 -80,-36 -80,-80 0,-44 36,-80 80,-80 44,0 80,36 80,80z"/>
   </g>
   <g>
    <g>
     <path class="fil1" d="M76 117l-33 0c-4,0 -7,-4 -7,-8l0 -50 81 0 0 12c0,1 1,2 2,2 1,0 1,-1 1,-2l0 -13 0 -4c0,-5 -4,-10 -10,-10l-4 0c-1,-3 -4,-6 -8,-6 -3,0 -6,3 -7,6l-7 0c-1,-3 -4,-6 -7,-6 -4,0 -7,3 -8,6l-7 0c0,-3 -3,-6 -7,-6 -4,0 -7,3 -7,6l-5 0c-5,0 -10,5 -10,10l0 4 0 51c0,6 5,10 10,10l33 0c1,0 2,0 2,-1 0,-1 -1,-1 -2,-1zm-40 -63l0 0c0,-4 3,-7 7,-7l5 0c0,4 3,6 7,6 1,0 1,0 1,-1 0,-1 0,-2 -1,-2 -3,0 -5,-2 -5,-4l0 0c0,-3 2,-5 5,-5 2,0 4,1 4,3l-4 0c-1,0 -2,1 -2,2 0,0 1,1 2,1l6 0c0,0 0,0 0,0 0,0 0,0 0,0l8 0c1,4 4,6 8,6 0,0 1,0 1,-1 0,-1 -1,-2 -1,-2 -3,0 -5,-2 -5,-4 0,-3 2,-5 5,-5 2,0 3,1 4,3l-5 0c0,0 -1,1 -1,2 0,0 1,1 1,1l7 0c0,0 0,0 0,0 0,0 0,0 0,0l8 0c1,4 4,6 7,6 1,0 2,0 2,-1 0,-1 -1,-2 -2,-2 -2,0 -4,-2 -4,-4 0,-3 2,-5 4,-5 2,0 4,1 5,3l-5 0c-1,0 -1,1 -1,2 0,0 0,1 1,1l6 0c0,0 0,0 0,0 0,0 0,0 0,0l6 0c4,0 7,3 7,7l0 2 -81 0 0 -2z"/>
    </g>
    <g>
     <path class="fil1" d="M126 82c-7,-8 -14,-6 -20,-3l0 -7 3 0c1,0 2,-1 2,-2 0,-1 -1,-1 -2,-1l-3 0 0 -4c0,-1 -1,-2 -2,-2 0,0 -1,1 -1,2l0 4 -16 0 0 -4c0,-1 0,-2 -1,-2 -1,0 -1,1 -1,2l0 4 -16 0 0 -4c0,-1 -1,-2 -2,-2 0,0 -1,1 -1,2l0 4 -16 0 0 -4c0,-1 0,-2 -1,-2 -1,0 -2,1 -2,2l0 4 -3 0c-1,0 -2,0 -2,1 0,1 1,2 2,2l3 0 0 15 -3 0c-1,0 -2,0 -2,1 0,1 1,1 2,1l3 0 0 15 -3 0c-1,0 -2,1 -2,2 0,1 1,1 2,1l3 0 0 4c0,1 1,2 2,2 1,0 1,-1 1,-2l0 -4 16 0 0 4c0,1 1,2 1,2 1,0 2,-1 2,-2l0 -4 11 0c0,1 0,1 0,1 1,1 1,1 1,1 2,16 5,24 9,24 3,0 9,-5 10,-18 0,0 0,0 0,0 0,-1 0,-2 1,-2 1,-1 1,-1 1,0 1,0 2,1 2,2 0,0 0,0 0,0 0,13 6,18 10,18 4,0 7,-8 8,-24 1,0 1,0 1,-1 2,-3 10,-16 3,-26zm-60 22l0 0 -16 0 0 -15 16 0 0 15zm0 -17l0 0 -16 0 0 -15 16 0 0 15zm37 -15l0 0 0 8c0,0 -1,0 -1,1 -1,-1 -2,-1 -3,-2 -4,-1 -8,-3 -12,-3l0 -4 16 0zm-34 0l0 0 16 0 0 5c-3,1 -5,2 -7,5 -2,2 -2,3 -3,5l-6 0 0 -15zm0 32l0 0 0 -15 6 0c-1,6 1,11 3,15l-9 0zm51 3l0 0c0,0 0,1 0,2 -2,14 -5,21 -6,21 -2,0 -7,-4 -7,-15 0,-2 -2,-4 -4,-5 -1,-1 -2,-1 -3,0 -2,1 -3,3 -3,5 -1,11 -6,15 -7,15 -2,0 -5,-7 -6,-21 0,-1 -1,-2 -1,-2 -2,-3 -10,-15 -3,-23 6,-7 11,-5 18,-2 -2,0 -3,1 -4,1 -1,0 -2,0 -2,1 0,1 1,1 2,1 3,0 5,0 8,-1 0,0 0,0 0,-1 1,0 2,0 3,-1 7,-3 12,-5 18,2 7,8 -1,20 -3,23z"/>
    </g>
   </g>
  </g>
 </g>
</svg>
