<?xml version="1.0" encoding="UTF-8"?>
<!DOCTYPE svg PUBLIC "-//W3C//DTD SVG 1.1//EN" "http://www.w3.org/Graphics/SVG/1.1/DTD/svg11.dtd">
<!-- Creator: CorelDRAW X8 -->
<svg xmlns="http://www.w3.org/2000/svg" xml:space="preserve" width="1.11111in" height="1.11111in" version="1.1" style="shape-rendering:geometricPrecision; text-rendering:geometricPrecision; image-rendering:optimizeQuality; fill-rule:evenodd; clip-rule:evenodd"
viewBox="0 0 280 280"
 xmlns:xlink="http://www.w3.org/1999/xlink">
 <defs>
  <style type="text/css">
   <![CDATA[
    .fil1 {fill:#1A161A;fill-rule:nonzero}
    .fil0 {fill:white;fill-rule:nonzero}
   ]]>
  </style>
 </defs>
 <g id="Layer_x0020_1">
  <metadata id="CorelCorpID_0Corel-Layer"/>
  <g id="_2323888713456">
   <g>
    <path class="fil0" d="M280 140c0,78 -62,140 -140,140 -77,0 -140,-62 -140,-140 0,-77 63,-140 140,-140 78,0 140,63 140,140z"/>
   </g>
   <g>
    <g>
     <path class="fil1" d="M88 105c-2,0 -3,2 -3,3l0 66c0,2 1,3 3,3l108 0c1,0 2,-1 2,-3l0 -66c0,-1 -1,-3 -2,-3 -2,0 -3,2 -3,3l0 64 -103 0 0 -64c0,-1 -1,-3 -2,-3z"/>
    </g>
    <g>
     <path class="fil1" d="M226 212c0,0 0,0 0,0 0,-1 0,-1 0,-1 0,0 0,0 -1,0l-12 -23 0 -104c0,-6 -5,-11 -11,-11l-6 0c-2,0 -3,1 -3,2 0,2 1,3 3,3l6 0c3,0 6,3 6,6l0 103 -132 0 0 -103c0,-3 2,-6 5,-6l7 0c1,0 2,-1 2,-3 0,-1 -1,-2 -2,-2l-7 0c-6,0 -10,5 -10,11l0 104 -13 23c0,0 0,0 0,0 0,0 0,0 0,1 0,0 0,0 0,0 0,0 0,0 0,0l0 8c0,6 4,10 10,10l148 0c5,0 10,-4 10,-10l0 -8c0,0 0,0 0,0zm-151 -20l0 0 134 0 10 18 -155 0 11 -18zm146 28l0 0c0,3 -3,5 -5,5l-148 0c-3,0 -5,-2 -5,-5l0 -5 158 0 0 5z"/>
    </g>
    <g>
     <path class="fil1" d="M105 121c3,27 8,41 16,41 6,0 16,-8 17,-30 0,0 0,0 0,-1 0,-2 1,-3 3,-4 0,0 1,0 1,0 2,1 3,2 3,4l0 0 0 0c0,1 0,1 0,1 1,22 11,30 18,30 7,0 12,-14 16,-41 0,-1 0,-1 0,-2 5,-6 19,-29 6,-46 -14,-16 -27,-10 -39,-5 -1,1 -3,1 -4,2 -2,-1 -3,-1 -5,-2 -12,-5 -25,-11 -38,5 -13,17 0,40 5,46 0,1 1,1 1,2zm-2 -45l0 0c5,-6 10,-9 15,-9 5,0 11,3 17,6 -3,0 -5,1 -7,1 -2,0 -3,1 -3,2 0,2 1,3 3,3 5,0 10,-2 15,-4 0,0 0,0 0,0 2,-1 3,-1 5,-2 12,-6 22,-10 33,3 11,15 -3,36 -6,40 -1,2 -1,3 -1,4 -3,25 -9,37 -11,37 -3,0 -12,-6 -13,-26 0,-4 -2,-7 -5,-9 -2,-1 -4,-1 -6,0 -4,2 -6,5 -6,9 -1,20 -9,26 -12,26 -3,0 -8,-12 -11,-37 0,-1 -1,-2 -2,-4 -3,-4 -17,-25 -5,-40z"/>
    </g>
   </g>
  </g>
 </g>
</svg>
