<?xml version="1.0" encoding="UTF-8"?>
<!DOCTYPE svg PUBLIC "-//W3C//DTD SVG 1.1//EN" "http://www.w3.org/Graphics/SVG/1.1/DTD/svg11.dtd">
<!-- Creator: CorelDRAW X8 -->
<svg xmlns="http://www.w3.org/2000/svg" xml:space="preserve" width="1.11111in" height="1.11111in" version="1.1" style="shape-rendering:geometricPrecision; text-rendering:geometricPrecision; image-rendering:optimizeQuality; fill-rule:evenodd; clip-rule:evenodd"
viewBox="0 0 556 556"
 xmlns:xlink="http://www.w3.org/1999/xlink">
 <defs>
  <style type="text/css">
   <![CDATA[
    .fil1 {fill:#1A161A;fill-rule:nonzero}
    .fil0 {fill:white;fill-rule:nonzero}
   ]]>
  </style>
 </defs>
 <g id="Layer_x0020_1">
  <metadata id="CorelCorpID_0Corel-Layer"/>
  <g id="_2324002082720">
   <g>
    <path class="fil0" d="M556 278c0,153 -125,278 -278,278 -154,0 -278,-125 -278,-278 0,-154 124,-278 278,-278 153,0 278,124 278,278z"/>
   </g>
   <g>
    <g>
     <path class="fil1" d="M397 304c-3,-1 -6,1 -6,4 -6,19 -17,36 -22,42 -1,3 -3,6 -3,9 -8,61 -20,95 -29,95 -9,0 -31,-17 -32,-67 -1,-13 -9,-19 -15,-22 -4,-2 -9,-2 -13,0 -5,3 -14,9 -14,22 -1,50 -23,67 -33,67 -8,0 -21,-34 -28,-95 -1,-3 -2,-6 -4,-9 -4,-6 -15,-23 -21,-43 -1,-2 -3,-4 -6,-3 -3,1 -4,4 -4,6 7,22 18,39 23,46 1,1 2,3 2,5 6,47 17,103 38,103 16,0 42,-21 43,-76 0,-1 0,-1 0,-1 0,-6 3,-10 9,-13 1,-1 3,-1 4,0 5,3 8,7 8,13 0,0 0,0 0,0 0,0 0,0 0,1 2,55 28,76 43,76 22,0 33,-56 39,-103 0,-2 1,-4 2,-5 4,-7 16,-24 22,-46 1,-2 0,-5 -3,-6z"/>
    </g>
    <g>
     <path class="fil1" d="M416 176c-1,-2 -3,-2 -5,-1l-38 20 -18 -54c0,-2 -2,-3 -3,-3 -2,-1 -4,0 -5,1l-34 36 -25 -42c-2,-4 -7,-4 -9,0l-24 42 -34 -36c-1,-1 -3,-2 -5,-1 -2,0 -3,1 -4,3l-17 54 -38 -20c-2,-1 -4,-1 -6,1 -1,1 -2,3 -2,5l17 78c-8,2 -14,9 -14,17 0,10 9,18 19,18l225 0c11,0 19,-8 19,-18 0,-8 -5,-15 -13,-17l16 -78c1,-2 0,-4 -2,-5zm-67 -24l0 0 15 48 -28 14 -17 -30 30 -32zm-130 0l0 0 30 32 -17 30 -28 -14 15 -48zm186 124l0 0c0,4 -4,8 -9,8l-225 0c-4,0 -8,-4 -8,-8 0,-5 4,-8 8,-8l1 0 224 0 0 0c5,0 9,3 9,8zm-13 -18l0 0 -216 0 -14 -69 69 36c3,2 6,1 7,-2l46 -78 46 78c1,3 4,4 6,2l70 -36 -14 69z"/>
    </g>
   </g>
  </g>
 </g>
</svg>
