<?xml version="1.0" encoding="UTF-8"?>
<!DOCTYPE svg PUBLIC "-//W3C//DTD SVG 1.1//EN" "http://www.w3.org/Graphics/SVG/1.1/DTD/svg11.dtd">
<!-- Creator: CorelDRAW X8 -->
<svg xmlns="http://www.w3.org/2000/svg" xml:space="preserve" width="1.11111in" height="1.11111in" version="1.1" style="shape-rendering:geometricPrecision; text-rendering:geometricPrecision; image-rendering:optimizeQuality; fill-rule:evenodd; clip-rule:evenodd"
viewBox="0 0 160 160"
 xmlns:xlink="http://www.w3.org/1999/xlink">
 <defs>
  <style type="text/css">
   <![CDATA[
    .fil1 {fill:#1A161A;fill-rule:nonzero}
    .fil0 {fill:white;fill-rule:nonzero}
   ]]>
  </style>
 </defs>
 <g id="Layer_x0020_1">
  <metadata id="CorelCorpID_0Corel-Layer"/>
  <g id="_2324002082432">
   <g>
    <path class="fil0" d="M160 80c0,44 -36,80 -80,80 -44,0 -80,-36 -80,-80 0,-44 36,-80 80,-80 44,0 80,36 80,80z"/>
   </g>
   <g>
    <g>
     <path class="fil1" d="M123 44c-10,-14 -21,-9 -31,-4 -1,0 -2,1 -4,1 -1,0 -2,-1 -4,-1 -10,-5 -20,-10 -30,4 -5,5 -6,13 -4,21 0,1 1,1 2,1 0,0 0,0 0,0 1,0 1,-1 1,-2 -2,-7 -1,-13 3,-18 9,-12 17,-8 27,-4 1,1 1,1 2,1 -3,1 -5,1 -8,1 -1,0 -1,1 -1,2 0,1 0,1 1,1 4,0 8,-1 12,-3 0,0 0,0 0,0 2,0 3,-1 5,-2 9,-4 18,-8 27,4 10,12 -2,30 -4,33 -1,1 -1,2 -2,3 -2,18 -6,31 -9,31 -3,0 -11,-5 -11,-22 0,-4 -3,-6 -5,-7 0,0 -1,0 -1,1 -1,1 -1,2 0,2 1,1 3,2 3,4 0,0 0,0 0,0 0,0 0,0 0,0 1,19 10,25 14,25 7,0 11,-21 12,-33 0,-1 1,-1 1,-2 4,-5 15,-24 4,-37z"/>
    </g>
    <g>
     <path class="fil1" d="M83 70l-50 0c0,0 -1,1 -1,2l0 46c0,1 1,2 1,2l6 0 0 8c0,1 0,1 1,1 0,1 0,1 1,1 0,0 0,-1 0,-1l14 -9 28 0c0,0 1,-1 1,-2l0 -46c0,-1 -1,-2 -1,-2zm-2 47l0 0 -27 0c0,0 0,0 -1,0l-11 8 0 -7c0,0 -1,-1 -1,-1l-6 0 0 -44 46 0 0 44z"/>
    </g>
    <g>
     <path class="fil1" d="M66 85l6 0c1,0 1,-1 1,-1 0,-1 0,-2 -1,-2l-6 0c-1,0 -2,1 -2,2 0,0 1,1 2,1z"/>
    </g>
    <g>
     <path class="fil1" d="M44 85l15 0c0,0 1,-1 1,-1 0,-1 -1,-2 -1,-2l-15 0c-1,0 -1,1 -1,2 0,0 0,1 1,1z"/>
    </g>
    <g>
     <path class="fil1" d="M72 94l-13 0c-1,0 -2,0 -2,1 0,1 1,2 2,2l13 0c1,0 1,-1 1,-2 0,-1 0,-1 -1,-1z"/>
    </g>
    <g>
     <path class="fil1" d="M44 97l7 0c1,0 2,-1 2,-2 0,-1 -1,-1 -2,-1l-7 0c-1,0 -1,0 -1,1 0,1 0,2 1,2z"/>
    </g>
    <g>
     <path class="fil1" d="M44 108l20 0c1,0 2,0 2,-1 0,-1 -1,-2 -2,-2l-20 0c-1,0 -1,1 -1,2 0,1 0,1 1,1z"/>
    </g>
   </g>
  </g>
 </g>
</svg>
