<?xml version="1.0" encoding="UTF-8"?>
<!DOCTYPE svg PUBLIC "-//W3C//DTD SVG 1.1//EN" "http://www.w3.org/Graphics/SVG/1.1/DTD/svg11.dtd">
<!-- Creator: CorelDRAW X8 -->
<svg xmlns="http://www.w3.org/2000/svg" xml:space="preserve" width="1.11111in" height="1.11111in" version="1.1" style="shape-rendering:geometricPrecision; text-rendering:geometricPrecision; image-rendering:optimizeQuality; fill-rule:evenodd; clip-rule:evenodd"
viewBox="0 0 280 280"
 xmlns:xlink="http://www.w3.org/1999/xlink">
 <defs>
  <style type="text/css">
   <![CDATA[
    .fil1 {fill:#1A161A;fill-rule:nonzero}
    .fil0 {fill:white;fill-rule:nonzero}
   ]]>
  </style>
 </defs>
 <g id="Layer_x0020_1">
  <metadata id="CorelCorpID_0Corel-Layer"/>
  <g id="_2324002081280">
   <g>
    <path class="fil0" d="M280 140c0,78 -62,140 -140,140 -77,0 -140,-62 -140,-140 0,-77 63,-140 140,-140 78,0 140,63 140,140z"/>
   </g>
   <g>
    <g>
     <path class="fil1" d="M212 67l-143 0c-7,0 -13,6 -13,13l0 37 0 42 0 25 0 9c0,7 6,12 13,12l53 0 0 14 -4 0c-8,0 -14,6 -14,14 0,1 1,3 2,3l68 0c2,0 3,-2 3,-3 0,-8 -6,-14 -14,-14l-4 0 0 -14 53 0c7,0 12,-5 12,-12l0 -9 0 -69 0 -35c0,-7 -5,-13 -12,-13zm-10 102l0 0c0,5 0,9 1,12l-7 0c1,-3 2,-7 2,-12 0,0 0,0 0,0 0,-2 1,-3 2,-4 1,1 2,2 2,4 0,0 0,0 0,0 0,0 0,0 0,0zm5 0l0 0c0,-5 -3,-7 -5,-8 -1,-1 -3,-1 -5,0 -1,1 -4,3 -4,8 0,5 -1,9 -2,12l-9 0c-2,-8 -4,-18 -4,-21 0,-2 0,-3 -1,-4 -1,-1 -2,-4 -4,-8 0,0 0,-1 -1,-1 -2,-7 -4,-16 1,-23 0,0 0,0 0,0 7,-11 13,-8 21,-4 -2,0 -3,1 -4,1 -1,0 -2,1 -2,2 0,2 1,3 2,3 1,0 1,0 2,0 3,-1 6,-2 9,-3 0,0 0,0 0,0l0 0c0,0 0,0 0,0 0,0 0,0 0,0 1,-1 3,-2 4,-2 1,-1 1,-1 2,-1 0,-1 0,-1 1,-1 0,0 1,0 1,0 0,-1 1,-1 1,-1 0,0 1,0 1,0 0,0 0,0 1,-1 0,0 0,0 1,0 0,0 0,0 1,0 0,0 0,0 1,0 0,0 0,0 1,0 0,0 0,0 0,0 1,0 1,0 1,0 1,0 1,0 1,0 1,0 1,0 1,0 0,0 0,0 0,0l0 64 -10 0c-1,-3 -2,-7 -2,-12zm-64 0l0 0c0,5 1,9 2,12l-7 0c1,-3 1,-7 1,-12 0,0 0,0 0,0 0,-2 1,-3 2,-4 1,1 2,2 2,4 0,0 0,0 0,0 0,0 0,0 0,0zm5 0l0 0c0,-5 -3,-7 -4,-8 -2,-1 -4,-1 -5,0 -2,1 -5,3 -5,8 0,5 0,9 -2,12l-9 0c-2,-8 -3,-18 -4,-21 0,-2 0,-3 -1,-4 0,-1 -2,-3 -3,-7 -3,-7 -6,-18 -1,-25 0,0 0,0 0,0 1,-1 1,-2 2,-2 0,0 0,-1 0,-1 1,0 1,0 1,-1 0,0 0,0 1,0 0,-1 0,-1 0,-1 1,0 1,0 1,0 0,-1 0,-1 1,-1 0,0 0,0 0,0 0,0 1,-1 1,-1 0,0 0,0 0,0 1,0 1,0 1,0 0,0 1,0 1,0 0,0 0,0 0,0 1,0 1,0 1,0 0,0 0,-1 1,-1 0,0 0,0 0,1 0,0 1,0 1,0 0,0 0,0 1,0 0,0 0,0 0,0 0,0 1,0 1,0 0,0 0,0 0,0 1,0 1,0 1,0 0,0 1,1 1,1 0,0 0,0 1,0 0,0 0,0 0,0 0,0 1,0 1,1 0,0 0,0 1,0 0,0 0,0 0,0 1,0 1,0 1,1 0,0 1,0 1,0 0,0 0,0 0,0 0,0 0,0 -1,0 0,0 0,0 0,0 -1,1 -2,1 -3,1 -1,0 -2,1 -2,2 0,2 1,3 2,3 4,0 7,-1 9,-2 1,-1 2,-1 2,-1 0,0 0,0 0,0 0,0 0,0 0,0 2,-1 3,-2 4,-2 1,-1 1,-1 2,-1 0,0 0,0 0,0 1,-1 1,-1 1,-1 1,0 1,0 1,0 0,0 1,0 1,-1 0,0 0,0 0,0 1,0 1,0 1,0 0,0 1,0 1,0 0,-1 0,-1 1,-1 0,0 0,0 0,0 0,0 1,0 1,0 0,0 0,0 0,0 1,0 1,0 1,0 0,0 1,0 1,0 0,0 0,0 1,0 0,0 0,0 0,0 0,0 1,0 1,0 0,0 0,0 0,0 1,0 1,0 1,0 0,0 0,0 1,0 0,0 0,0 0,0 1,0 1,0 1,1 0,0 0,0 1,0 0,0 0,0 0,0 0,1 1,1 1,1 0,0 0,0 1,0 0,1 0,1 0,1 0,0 1,1 1,1 0,0 0,0 1,1 0,0 0,0 0,0 0,1 0,1 1,1 0,0 0,0 -1,0 0,0 0,1 0,1 0,0 0,1 0,1 0,0 0,0 -1,1 0,0 0,0 0,1 0,0 0,0 0,0 0,1 0,1 0,1 0,1 -1,1 -1,1 0,1 0,1 0,1 0,1 0,1 0,1 0,0 0,1 0,1 0,0 0,1 0,1 0,0 0,1 0,1 0,0 0,0 0,1 0,0 0,0 0,1 0,0 0,0 0,0 0,1 0,2 0,2 0,0 0,0 0,0 0,1 0,1 0,2 0,0 0,0 0,1 1,0 1,0 1,1 0,0 0,0 0,0 0,1 0,1 0,1 0,1 0,1 0,1 0,0 0,1 0,1 1,0 1,0 1,1 0,0 0,0 0,1 0,0 0,0 0,0 0,1 0,1 1,1 0,0 0,1 0,1 0,0 0,0 0,0 -2,4 -3,6 -4,7 0,1 -1,2 -1,4 0,3 -1,13 -3,21l-10 0c-1,-3 -2,-7 -2,-12zm-67 9l0 0c0,0 0,-1 0,-1 0,-1 0,-2 0,-3 0,0 0,-1 0,-1 0,-1 1,-3 1,-4 0,0 0,0 0,0 0,-2 0,-3 1,-4 2,1 2,2 2,4 0,0 0,0 0,0 0,0 0,0 0,0 0,1 0,3 0,4 1,0 1,1 1,1 0,1 0,2 0,3 0,0 0,1 0,1 0,1 1,2 1,3l-7 0c0,-1 1,-2 1,-3zm11 3l0 0c0,0 0,0 0,-1 0,0 0,0 0,-1 -1,0 -1,-1 -1,-2 0,0 0,-1 0,-1 0,-1 0,-2 0,-2 0,-1 0,-1 0,-1 -1,-2 -1,-3 -1,-4 0,-5 -2,-7 -4,-8 -2,-1 -4,-1 -5,0 -2,1 -4,3 -4,8 -1,1 -1,2 -1,4 0,0 0,0 0,1 0,1 0,1 0,2 0,0 0,1 0,1 0,1 -1,2 -1,2 0,1 0,1 0,1 0,1 0,1 0,1l-12 0 -2 0 0 -22 0 -41c0,0 0,0 0,0 1,0 2,0 2,-1 0,0 0,0 0,0 1,0 1,0 2,0 0,0 0,0 0,0 1,0 1,0 2,0 0,0 0,0 0,0 1,0 1,0 2,0 0,0 0,0 0,0 1,0 1,0 2,0 0,0 0,0 0,0 1,1 2,1 2,1 0,0 0,0 0,0 1,1 2,1 3,1 0,0 0,0 0,0 0,1 1,1 1,1 -1,0 -2,1 -3,1 -2,0 -3,1 -3,2 0,2 1,3 3,3 3,0 6,-1 8,-2 1,-1 2,-1 3,-1 0,0 0,0 0,0 1,-1 2,-2 4,-2 0,-1 1,-1 1,-1 0,0 0,0 1,0 0,-1 0,-1 1,-1 0,0 0,0 0,0 0,0 1,0 1,-1 0,0 0,0 1,0 0,0 0,0 0,0 1,0 1,0 1,0 0,-1 0,-1 1,-1 0,0 0,0 0,0 1,0 1,0 1,0 0,0 0,0 1,0 0,0 0,0 0,0 1,0 1,0 1,0 0,0 0,0 1,0 0,-1 0,0 0,0 0,0 1,0 1,0 0,0 0,0 0,0 1,0 1,0 1,0 0,0 1,0 1,0 0,0 0,0 0,0 1,0 1,0 1,0 0,1 0,1 1,1 0,0 0,0 0,0 0,0 1,1 1,1 0,0 0,0 0,0 1,0 1,1 1,1 0,0 1,0 1,0 0,1 0,1 0,1 1,0 1,1 1,1 0,0 0,0 0,0 0,0 0,0 0,0 0,1 0,1 0,1 0,1 -1,1 -1,1 0,1 0,1 0,1 0,0 0,1 0,1 -1,0 -1,1 -1,1 0,0 0,1 0,1 0,0 0,1 0,1 0,0 0,1 0,1 0,0 0,1 -1,1 0,0 0,1 0,1 0,0 0,0 0,1 0,0 0,1 0,1 0,0 0,0 0,1 0,0 0,1 0,1 0,0 0,0 0,1 0,0 0,1 0,1 1,0 1,1 1,1 0,0 0,1 0,1 0,1 0,1 0,1 0,0 0,1 0,1 0,0 0,1 0,1 0,0 0,1 1,1 0,0 0,0 0,1 0,0 0,0 0,1 0,0 0,0 0,0 0,1 0,1 1,1 0,1 0,1 0,1 0,0 0,1 0,1 0,0 0,1 0,1 0,0 1,0 1,0 -2,3 -3,5 -4,6 0,1 -1,2 -1,4 0,3 -1,13 -3,21l-10 0zm18 -21l0 0c0,0 1,-1 1,-1 0,-1 1,-2 1,-3 1,1 2,2 2,3 0,0 0,1 0,1 1,4 2,13 4,21l-11 0c2,-8 3,-18 3,-21zm58 0l0 0c0,0 0,-1 1,-1 0,-1 1,-2 2,-4 0,2 1,3 2,4 0,0 0,1 0,1 0,3 1,13 3,21l-11 0c2,-8 3,-18 3,-21zm-107 -80l0 0c0,-4 4,-8 8,-8l143 0c4,0 7,4 7,8l0 32c0,0 0,0 0,0 0,0 -1,-1 -2,-1 0,0 0,0 0,0 -1,0 -1,0 -2,0 0,0 0,0 0,1 -1,0 -1,0 -2,0 0,0 0,0 0,0 -1,0 -2,0 -2,0 0,0 0,0 -1,1 0,0 -1,0 -1,0 0,0 -1,0 -1,0 0,1 -1,1 -1,1 0,0 -1,0 -1,0 0,1 -1,1 -1,1 -1,0 -1,0 -1,0 0,1 -1,1 -1,1 0,0 0,0 0,0 -1,0 -1,0 -1,0 -1,1 -1,1 -2,2 -1,-1 -2,-1 -3,-2 0,0 -1,0 -1,-1 0,0 -1,0 -1,0 0,0 -1,0 -1,0 0,-1 0,-1 0,-1 -1,0 -1,0 -2,0 0,0 0,0 0,0 0,-1 -1,-1 -1,-1 0,0 -1,0 -1,0 0,0 -1,0 -1,-1 0,0 0,0 -1,0 0,0 0,0 -1,0 0,0 0,0 0,0 -1,0 -1,0 -1,0 -1,0 -1,0 -1,0 0,-1 -1,-1 -1,-1 0,0 -1,0 -1,0 0,0 -1,0 -1,0 0,0 0,1 -1,1 0,0 0,0 -1,0 0,0 0,0 0,0 -1,0 -1,0 -1,0 -1,0 -1,0 -1,1 -1,0 -1,0 -1,0 -1,0 -1,0 -1,0 0,1 -1,1 -1,1 0,0 -1,1 -1,1 0,0 -1,0 -1,1 0,0 0,0 -1,0 0,1 0,1 -1,2 0,0 0,0 0,0 0,0 0,0 0,0 0,0 0,0 -1,0 0,0 0,0 0,0 0,-1 -1,-1 -1,-2 0,0 -1,0 -1,0 0,-1 -1,-1 -1,-1 0,0 0,-1 -1,-1 0,0 0,0 -1,0 0,-1 0,-1 0,-1 -1,0 -1,0 -2,0 0,0 0,-1 0,-1 -1,0 -1,0 -1,0 -1,0 -1,0 -1,0 0,0 -1,0 -2,-1 0,0 0,0 0,0 0,0 -1,0 -1,0 0,0 0,0 0,0 -1,0 -1,0 -1,0 0,0 -1,0 -1,1 0,0 -1,0 -1,0 0,0 -1,0 -1,0 0,0 0,0 -1,0 0,0 0,0 -1,0 0,0 0,1 0,1 -1,0 -1,0 -1,0 -1,0 -1,0 -1,0 0,0 -1,1 -1,1 0,0 0,0 0,0 -2,1 -4,1 -5,2 -1,1 -2,1 -3,2 -1,-1 -2,-1 -2,-2 -1,0 -1,0 -2,-1 0,0 0,0 -1,0 0,0 0,0 -1,0 0,-1 0,-1 0,-1 -1,0 -1,0 -1,0 0,0 -1,0 -1,-1 0,0 0,0 -1,0 0,0 0,0 -1,0 0,0 0,0 0,-1 -1,0 -1,0 -1,0 -1,0 -1,0 -1,0 0,0 -1,0 -1,0 0,0 -1,0 -1,0 0,0 0,0 -1,0 0,-1 0,-1 -1,-1 0,0 0,0 0,0 -1,0 -1,0 -1,0 -1,0 -1,0 -1,1 0,0 -1,0 -1,0 0,0 -1,0 -1,0 0,0 -1,0 -1,0 0,0 0,0 -1,0 0,1 0,1 -1,1 0,0 0,0 0,0 -1,1 -1,1 -2,1 0,0 0,0 0,1 -1,0 -1,1 -2,1 0,0 0,0 0,1 -1,0 -1,0 -2,1 0,-1 0,-1 -1,-1 0,0 0,-1 0,-1 -1,-1 -3,-2 -4,-3 0,0 0,0 0,0 -1,0 -1,0 -2,-1 0,0 0,0 0,0 -1,0 -1,0 -1,0 -1,0 -1,0 -1,0 0,0 -1,0 -1,0 0,-1 -1,-1 -1,-1 0,0 -1,0 -1,0 0,0 0,0 -1,0 0,0 0,0 -1,1 0,0 0,0 0,0 -1,0 -1,0 -1,0 -1,0 -1,0 -1,0 -1,0 -1,0 -1,0 0,0 -1,0 -1,0 0,1 -1,1 -1,1 0,0 0,0 -1,0 0,0 0,0 -1,1 0,0 0,0 0,0 -1,0 -1,0 -1,0 0,0 -1,0 -1,1 -1,0 -2,1 -3,1 0,0 0,0 0,0 -1,1 -2,1 -3,2 0,-1 -1,-1 -2,-2 -1,0 -1,0 -2,0 0,-1 0,-1 0,-1 0,0 0,0 -1,0 0,0 0,0 0,0 -1,0 -1,-1 -1,-1 0,0 0,0 -1,0 0,0 0,0 -1,0 0,-1 0,-1 0,-1 0,0 -1,0 -1,0 0,0 0,0 0,0 -1,0 -1,0 -2,-1 0,0 0,0 0,0 0,0 -1,0 -1,0 0,0 0,0 0,0 -1,0 -1,0 -1,0 -1,0 -1,0 -1,0 0,0 -1,-1 -1,-1 0,0 0,0 0,0 -1,0 -1,0 -2,0 0,0 0,0 0,0 0,0 -1,0 -1,1 0,0 0,0 -1,0 0,0 0,0 0,0 -1,0 -1,0 -1,0 0,0 -1,0 -1,0 0,0 0,0 0,0 -1,0 -1,1 -1,1l0 -33zm110 151l0 0 -62 0c1,-4 5,-7 9,-7l6 0 33 0 6 0c4,0 7,3 8,7zm-17 -12l0 0 -27 0 0 -14 27 0 0 14zm65 -26l0 0c0,4 -3,7 -7,7l-55 0 -33 0 -55 0c-4,0 -8,-3 -8,-7l0 -7 2 0 13 0 14 0 14 0 17 0 13 0 14 0 13 0 19 0 13 0 14 0 12 0 0 7z"/>
    </g>
    <g>
     <path class="fil1" d="M75 88l19 0c1,0 3,-1 3,-2 0,-2 -2,-3 -3,-3l-19 0c-2,0 -3,1 -3,3 0,1 1,2 3,2z"/>
    </g>
    <g>
     <path class="fil1" d="M75 104l35 0c1,0 2,-2 2,-3 0,-1 -1,-3 -2,-3l-35 0c-2,0 -3,2 -3,3 0,1 1,3 3,3z"/>
    </g>
    <g>
     <path class="fil1" d="M122 101c0,1 1,3 3,3l27 0c1,0 2,-2 2,-3 0,-1 -1,-3 -2,-3l-27 0c-2,0 -3,2 -3,3z"/>
    </g>
    <g>
     <path class="fil1" d="M109 88l32 0c2,0 3,-1 3,-2 0,-2 -1,-3 -3,-3l-32 0c-1,0 -3,1 -3,3 0,1 2,2 3,2z"/>
    </g>
   </g>
  </g>
 </g>
</svg>
