<?xml version="1.0" encoding="UTF-8"?>
<!DOCTYPE svg PUBLIC "-//W3C//DTD SVG 1.1//EN" "http://www.w3.org/Graphics/SVG/1.1/DTD/svg11.dtd">
<!-- Creator: CorelDRAW X8 -->
<svg xmlns="http://www.w3.org/2000/svg" xml:space="preserve" width="1.11111in" height="1.11111in" version="1.1" style="shape-rendering:geometricPrecision; text-rendering:geometricPrecision; image-rendering:optimizeQuality; fill-rule:evenodd; clip-rule:evenodd"
viewBox="0 0 1118 1118"
 xmlns:xlink="http://www.w3.org/1999/xlink">
 <defs>
  <style type="text/css">
   <![CDATA[
    .fil1 {fill:#1A161A;fill-rule:nonzero}
    .fil0 {fill:white;fill-rule:nonzero}
   ]]>
  </style>
 </defs>
 <g id="Layer_x0020_1">
  <metadata id="CorelCorpID_0Corel-Layer"/>
  <g id="_2323888694736">
   <g>
    <path class="fil0" d="M1118 559c0,308 -251,559 -559,559 -309,0 -559,-251 -559,-559 0,-309 250,-559 559,-559 308,0 559,250 559,559z"/>
   </g>
   <g>
    <g>
     <path class="fil1" d="M845 453c-51,-65 -102,-59 -141,-46 -6,2 -9,8 -7,13 2,5 8,8 13,7 37,-12 76,-16 119,39 59,74 -12,184 -27,205 -4,5 -6,11 -7,18 -15,122 -41,188 -57,188 -20,0 -63,-33 -65,-132 -1,-20 -11,-35 -29,-45 -8,-4 -18,-4 -26,0 -18,10 -28,25 -28,45 -3,99 -46,132 -65,132 -17,0 -43,-66 -58,-188 0,-6 -5,-10 -11,-9 -6,1 -10,6 -9,11 12,94 34,206 78,206 31,0 82,-41 85,-152 0,0 0,0 0,0 0,-12 6,-21 17,-27 3,-1 6,-1 8,0 11,6 17,15 17,27 0,0 0,0 0,0 0,0 0,0 0,0 3,111 54,152 86,152 43,0 66,-112 77,-206 1,-3 2,-6 4,-9 23,-32 92,-145 26,-229z"/>
    </g>
    <g>
     <path class="fil1" d="M586 648c25,-2 44,-23 44,-49 0,-4 -1,-8 -2,-12 17,-8 28,-25 28,-44 0,-9 -3,-18 -7,-26 8,-8 12,-20 12,-32 0,-15 -6,-26 -14,-33 5,-6 11,-17 11,-33 0,-24 -19,-45 -41,-45l-106 0c3,-15 6,-38 3,-63 -4,-49 -28,-83 -59,-84 -26,-1 -37,5 -39,6 -4,2 -5,7 -4,11 3,15 11,57 8,73 -7,29 -31,55 -51,79 -20,22 -35,39 -35,55l0 160c0,21 17,37 37,37l211 0c2,0 3,0 4,0zm-232 -37l0 0 0 -160c0,-8 15,-25 30,-42 21,-24 48,-54 55,-87 5,-19 -2,-56 -6,-74 5,0 12,-1 22,-1 19,1 36,28 39,65 3,32 -3,59 -6,69 -1,4 0,7 1,9 2,3 5,4 9,4l119 0c10,0 21,11 21,25 0,15 -7,21 -9,23 -4,3 -6,8 -6,13 1,4 3,8 8,10 4,3 10,9 10,20 0,9 -5,18 -12,23 -2,2 -4,4 -4,7 0,3 1,6 3,8 5,6 8,13 8,20 0,13 -10,25 -23,28 -3,0 -6,2 -7,5 -2,3 -2,7 0,10 2,4 4,9 4,13 0,15 -12,28 -27,29 0,0 0,0 -1,0l-211 0c-9,0 -17,-8 -17,-17z"/>
    </g>
    <g>
     <path class="fil1" d="M270 433c-21,0 -38,16 -38,37l0 141c0,21 17,37 38,37 21,0 37,-16 37,-37l0 -141c0,-21 -16,-37 -37,-37zm17 178l0 0c0,9 -8,17 -17,17 -10,0 -17,-8 -17,-17l0 -141c0,-9 7,-17 17,-17 9,0 17,8 17,17l0 141z"/>
    </g>
   </g>
  </g>
 </g>
</svg>
