<?xml version="1.0" encoding="UTF-8"?>
<!DOCTYPE svg PUBLIC "-//W3C//DTD SVG 1.1//EN" "http://www.w3.org/Graphics/SVG/1.1/DTD/svg11.dtd">
<!-- Creator: CorelDRAW X8 -->
<svg xmlns="http://www.w3.org/2000/svg" xml:space="preserve" width="1.11111in" height="1.11111in" version="1.1" style="shape-rendering:geometricPrecision; text-rendering:geometricPrecision; image-rendering:optimizeQuality; fill-rule:evenodd; clip-rule:evenodd"
viewBox="0 0 556 556"
 xmlns:xlink="http://www.w3.org/1999/xlink">
 <defs>
  <style type="text/css">
   <![CDATA[
    .fil1 {fill:#1A161A;fill-rule:nonzero}
    .fil0 {fill:white;fill-rule:nonzero}
   ]]>
  </style>
 </defs>
 <g id="Layer_x0020_1">
  <metadata id="CorelCorpID_0Corel-Layer"/>
  <g id="_2324002079968">
   <g>
    <path class="fil0" d="M556 278c0,153 -125,278 -278,278 -154,0 -278,-125 -278,-278 0,-154 124,-278 278,-278 153,0 278,124 278,278z"/>
   </g>
   <g>
    <g>
     <path class="fil1" d="M368 371c-3,0 -5,2 -5,5l0 23 -187 0 0 -247c0,-8 7,-15 15,-15l157 0c8,0 15,7 15,15l0 11c0,2 2,5 5,5 3,0 5,-3 5,-5l0 -11c0,-14 -11,-25 -25,-25l-157 0c-14,0 -25,11 -25,25l0 283c0,14 11,25 25,25l157 0c14,0 25,-11 25,-25l0 -59c0,-3 -2,-5 -5,-5zm-20 79l0 0 -157 0c-8,0 -15,-7 -15,-15l0 -26 187 0 0 26c0,8 -7,15 -15,15z"/>
    </g>
    <g>
     <path class="fil1" d="M298 152l-57 0c-2,0 -5,2 -5,5 0,3 3,5 5,5l57 0c2,0 5,-2 5,-5 0,-3 -3,-5 -5,-5z"/>
    </g>
    <g>
     <path class="fil1" d="M231 426c-1,1 -2,2 -2,4 0,1 1,2 2,3 1,1 2,2 3,2 1,0 3,-1 4,-2 1,-1 1,-2 1,-3 0,-2 0,-3 -1,-4 -2,-2 -6,-2 -7,0z"/>
    </g>
    <g>
     <path class="fil1" d="M270 425c-3,0 -6,2 -6,5 0,2 3,5 6,5 2,0 5,-3 5,-5 0,-3 -3,-5 -5,-5z"/>
    </g>
    <g>
     <path class="fil1" d="M301 426c-1,1 -1,2 -1,4 0,1 0,2 1,3 1,1 3,2 4,2 1,0 2,-1 3,-2 1,-1 2,-2 2,-3 0,-2 -1,-3 -2,-4 -1,-2 -5,-2 -7,0z"/>
    </g>
    <g>
     <path class="fil1" d="M363 191c-17,-8 -36,-16 -55,8 -19,24 1,56 7,65 0,1 1,1 1,2 7,59 19,59 23,59 10,0 25,-12 26,-44 0,-1 0,-1 0,-1 0,-1 0,-3 3,-5 4,2 4,4 4,5 0,0 0,0 0,0 0,0 0,0 0,1 1,32 16,44 26,44 4,0 16,0 23,-59 0,-1 1,-1 1,-2 6,-9 26,-41 7,-65 -19,-24 -38,-16 -55,-8 -2,1 -4,2 -6,2 -1,0 -3,-1 -5,-2zm15 9l0 0c17,-7 29,-13 43,5 15,19 -3,48 -7,54 -2,1 -2,3 -3,6 -4,32 -10,48 -13,49 -4,0 -15,-8 -16,-34 0,-6 -3,-11 -9,-14 -3,-1 -6,-1 -9,0 -6,3 -9,8 -9,14 -1,26 -12,34 -16,34 -3,-1 -9,-17 -13,-49 -1,-3 -1,-5 -3,-6 -4,-6 -22,-35 -7,-54 7,-9 13,-12 20,-12 6,0 12,2 18,5 -2,0 -3,0 -5,0 -3,0 -5,3 -5,6 0,2 2,5 5,5 11,0 20,-5 29,-9z"/>
    </g>
    <g>
     <path class="fil1" d="M432 294c-3,0 -5,3 -5,5l0 40 -75 0c-2,0 -3,0 -3,1l-38 26 0 -22c0,-3 -2,-5 -5,-5l-20 0 0 -148 10 0c3,0 5,-2 5,-5 0,-2 -2,-5 -5,-5l-15 0c-3,0 -5,3 -5,5l0 158c0,3 2,5 5,5l20 0 0 27c0,2 1,4 3,4 0,1 1,1 2,1 1,0 2,0 3,-1l44 -31 79 0c3,0 5,-2 5,-5l0 -45c0,-2 -2,-5 -5,-5z"/>
    </g>
   </g>
  </g>
 </g>
</svg>
