<?xml version="1.0" encoding="UTF-8"?>
<!DOCTYPE svg PUBLIC "-//W3C//DTD SVG 1.1//EN" "http://www.w3.org/Graphics/SVG/1.1/DTD/svg11.dtd">
<!-- Creator: CorelDRAW X8 -->
<svg xmlns="http://www.w3.org/2000/svg" xml:space="preserve" width="1.11111in" height="1.11111in" version="1.1" style="shape-rendering:geometricPrecision; text-rendering:geometricPrecision; image-rendering:optimizeQuality; fill-rule:evenodd; clip-rule:evenodd"
viewBox="0 0 222 222"
 xmlns:xlink="http://www.w3.org/1999/xlink">
 <defs>
  <style type="text/css">
   <![CDATA[
    .fil1 {fill:#1A161A;fill-rule:nonzero}
    .fil0 {fill:white;fill-rule:nonzero}
   ]]>
  </style>
 </defs>
 <g id="Layer_x0020_1">
  <metadata id="CorelCorpID_0Corel-Layer"/>
  <g id="_2324002090016">
   <g>
    <path class="fil0" d="M222 111c0,62 -49,111 -111,111 -61,0 -111,-49 -111,-111 0,-61 50,-111 111,-111 62,0 111,50 111,111z"/>
   </g>
   <g>
    <g>
     <path class="fil1" d="M146 144c-1,-1 -2,0 -2,1 -4,24 -9,32 -12,32 -5,0 -15,-7 -15,-31 0,-6 -4,-8 -7,-10 -2,-1 -4,-1 -6,0 -2,2 -6,4 -6,10 -1,24 -11,31 -15,31 -5,0 -11,-18 -14,-44 0,-1 -1,-2 -2,-4 -3,-5 -20,-30 -6,-48 10,-13 20,-12 28,-9 1,1 2,0 3,-1 0,-1 0,-2 -2,-3 -9,-3 -20,-4 -32,11 -15,19 1,45 6,53 1,0 1,1 1,2 2,18 7,47 18,47 6,0 18,-8 19,-35 0,0 0,0 0,0 0,-3 2,-5 4,-6 1,0 2,0 2,0 2,1 5,3 5,6 0,0 0,0 0,0 0,27 13,35 19,35 3,0 10,0 16,-35 0,-1 -1,-2 -2,-2z"/>
    </g>
    <g>
     <path class="fil1" d="M138 48c-25,0 -45,20 -45,45 0,25 20,46 45,46 25,0 45,-21 45,-46 0,-25 -20,-45 -45,-45zm0 87l0 0c-23,0 -41,-19 -41,-42 0,-22 18,-41 41,-41 23,0 41,19 41,41 0,23 -18,42 -41,42z"/>
    </g>
    <g>
     <path class="fil1" d="M138 60c-18,0 -33,15 -33,33 0,18 15,33 33,33 18,0 33,-15 33,-33 0,-18 -15,-33 -33,-33zm0 62l0 0c-16,0 -29,-13 -29,-29 0,-16 13,-29 29,-29 16,0 29,13 29,29 0,16 -13,29 -29,29z"/>
    </g>
    <g>
     <path class="fil1" d="M138 73c-11,0 -21,9 -21,20 0,12 10,21 21,21 11,0 21,-9 21,-21 0,-11 -10,-20 -21,-20zm0 37l0 0c-9,0 -17,-8 -17,-17 0,-9 8,-16 17,-16 9,0 17,7 17,16 0,9 -8,17 -17,17z"/>
    </g>
    <g>
     <path class="fil1" d="M145 87c-1,-1 -3,-1 -3,0l-4 3 -4 -3c0,-1 -2,-1 -2,0 -1,1 -1,2 0,3l3 3 -3 4c-1,1 -1,2 0,3 0,0 0,0 1,0 1,0 1,0 1,0l4 -4 4 4c0,0 1,0 1,0 1,0 1,0 2,0 0,-1 0,-2 0,-3l-4 -4 4 -3c0,-1 0,-2 0,-3z"/>
    </g>
   </g>
  </g>
 </g>
</svg>
