<?xml version="1.0" encoding="UTF-8"?>
<!DOCTYPE svg PUBLIC "-//W3C//DTD SVG 1.1//EN" "http://www.w3.org/Graphics/SVG/1.1/DTD/svg11.dtd">
<!-- Creator: CorelDRAW X8 -->
<svg xmlns="http://www.w3.org/2000/svg" xml:space="preserve" width="1.11111in" height="1.11111in" version="1.1" style="shape-rendering:geometricPrecision; text-rendering:geometricPrecision; image-rendering:optimizeQuality; fill-rule:evenodd; clip-rule:evenodd"
viewBox="0 0 160 160"
 xmlns:xlink="http://www.w3.org/1999/xlink">
 <defs>
  <style type="text/css">
   <![CDATA[
    .fil1 {fill:#1A161A;fill-rule:nonzero}
    .fil0 {fill:white;fill-rule:nonzero}
   ]]>
  </style>
 </defs>
 <g id="Layer_x0020_1">
  <metadata id="CorelCorpID_0Corel-Layer"/>
  <g id="_2324002092768">
   <g>
    <path class="fil0" d="M160 80c0,44 -36,80 -80,80 -44,0 -80,-36 -80,-80 0,-44 36,-80 80,-80 44,0 80,36 80,80z"/>
   </g>
   <g>
    <g>
     <path class="fil1" d="M97 95c0,0 0,0 0,1 -1,0 -1,1 -1,2 -3,19 -6,29 -9,29 -3,0 -10,-5 -10,-20 0,-4 -3,-6 -5,-7 -1,0 -2,0 -3,0 -2,1 -5,3 -5,7 0,15 -7,20 -10,20 -3,0 -6,-10 -9,-29 0,-1 0,-2 -1,-2 -2,-4 -13,-21 -4,-32 7,-9 13,-8 22,-5 0,0 1,0 2,-1 0,0 0,-1 -1,-2 -8,-3 -16,-5 -25,6 -10,13 0,30 4,35 0,1 0,1 0,2 2,14 6,31 12,31 5,0 13,-6 13,-23 0,0 0,0 0,0 0,-2 2,-4 3,-4 0,0 1,0 1,0 1,0 3,2 3,4 0,0 0,0 0,0 0,17 8,23 13,23 6,0 10,-17 12,-31 0,-1 0,-1 0,-2 0,0 1,0 1,-1 0,0 0,-1 -1,-2 0,0 -1,0 -2,1z"/>
    </g>
    <g>
     <path class="fil1" d="M122 46c-6,-5 -15,-5 -21,-2 0,1 -1,1 -1,1 -2,-8 -10,-10 -10,-10 -1,-1 -2,0 -2,1 0,0 0,1 1,1 1,0 6,2 8,7 0,0 0,0 0,0 -6,-3 -15,-3 -21,2 -4,2 -9,8 -7,20 3,13 8,20 14,24 6,2 11,0 14,-1 1,-1 3,-1 4,0 1,1 4,2 8,2 2,0 4,0 6,-1 6,-4 11,-11 14,-24 2,-12 -4,-18 -7,-20zm4 19l0 0c-3,12 -7,19 -12,22 -5,2 -9,1 -12,-1 -1,0 -2,0 -3,0 -1,0 -2,0 -3,0 -3,2 -7,3 -12,1 -5,-3 -9,-10 -12,-22 -2,-9 2,-14 6,-17 6,-4 13,-4 17,-1 3,1 5,1 8,0 4,-3 11,-3 17,1 4,3 8,8 6,17z"/>
    </g>
    <g>
     <path class="fil1" d="M93 51c-4,-2 -9,-1 -13,1 -2,2 -5,6 -3,13 0,2 1,5 2,7 0,0 1,1 1,1 1,0 1,0 1,0 1,-1 1,-2 1,-2 -1,-2 -2,-4 -2,-7 -1,-4 0,-7 2,-9 3,-2 7,-3 10,-1 0,0 1,0 2,-1 0,-1 0,-2 -1,-2z"/>
    </g>
   </g>
  </g>
 </g>
</svg>
