<?xml version="1.0" encoding="UTF-8"?>
<!DOCTYPE svg PUBLIC "-//W3C//DTD SVG 1.1//EN" "http://www.w3.org/Graphics/SVG/1.1/DTD/svg11.dtd">
<!-- Creator: CorelDRAW X8 -->
<svg xmlns="http://www.w3.org/2000/svg" xml:space="preserve" width="1.11111in" height="1.11111in" version="1.1" style="shape-rendering:geometricPrecision; text-rendering:geometricPrecision; image-rendering:optimizeQuality; fill-rule:evenodd; clip-rule:evenodd"
viewBox="0 0 280 280"
 xmlns:xlink="http://www.w3.org/1999/xlink">
 <defs>
  <style type="text/css">
   <![CDATA[
    .fil1 {fill:#1A161A;fill-rule:nonzero}
    .fil0 {fill:white;fill-rule:nonzero}
   ]]>
  </style>
 </defs>
 <g id="Layer_x0020_1">
  <metadata id="CorelCorpID_0Corel-Layer"/>
  <g id="_2323881547840">
   <g>
    <path class="fil0" d="M280 140c0,78 -62,140 -140,140 -77,0 -140,-62 -140,-140 0,-77 63,-140 140,-140 78,0 140,63 140,140z"/>
   </g>
   <g>
    <path class="fil1" d="M223 127l-16 0c2,-11 1,-23 -7,-33 -17,-25 -35,-16 -52,-8 -2,1 -4,2 -7,3 -2,-1 -4,-2 -6,-3 -17,-8 -35,-17 -52,8 -8,10 -9,22 -7,33l-14 0 0 -8c0,-1 -1,-2 -2,-2 -1,0 -3,1 -3,2l0 20c0,2 2,3 3,3 1,0 2,-1 2,-3l0 -7 15 0c3,13 10,25 13,30 1,0 1,1 1,2 3,28 9,62 21,62 9,0 23,-13 23,-45 0,0 0,0 0,0 0,-5 3,-8 5,-9 1,0 2,0 3,0 2,1 5,4 5,9l0 0 0 0c0,0 0,0 0,0 0,32 14,45 23,45 12,0 18,-34 21,-62 0,-1 0,-2 1,-2 3,-5 10,-17 13,-30l17 0c1,0 3,-1 3,-3 0,-1 -2,-2 -3,-2zm-136 -30l0 0c7,-11 15,-14 22,-14 8,0 15,4 24,8 0,0 1,1 2,1 -4,2 -8,3 -13,3 -1,0 -2,1 -2,2 0,2 1,3 2,3 7,0 14,-3 21,-5 0,0 0,0 0,0 2,-2 5,-3 7,-4 17,-8 31,-15 46,6 7,9 8,20 6,30l-21 0 0 -2c0,-7 -6,-12 -13,-12l-37 0 -33 0c-3,0 -5,2 -5,5l0 9 -12 0c-2,-10 -1,-21 6,-30zm11 44l0 0 0 -9 30 0 0 9 -30 0zm9 -18l0 0c2,0 3,-1 3,-3l0 -2 7 0 0 2c0,2 1,3 2,3 1,0 3,-1 3,-3l0 -2 6 0 0 9 -30 0 0 -9 7 0 0 2c0,2 1,3 2,3zm26 18l0 0 0 -23 7 0 0 2c0,2 1,3 3,3 1,0 2,-1 2,-3l0 -2 7 0 0 2c0,2 1,3 2,3 2,0 3,-1 3,-3l0 -2 7 0 0 2c0,2 1,3 2,3 2,0 3,-1 3,-3l0 -2c4,0 6,3 6,7l0 8c0,4 -3,8 -7,8l-35 0zm56 18l0 0c-1,1 -2,3 -2,5 -4,37 -11,56 -16,56 -6,0 -18,-10 -18,-40 0,-7 -5,-11 -8,-12 -2,-2 -5,-2 -7,0 -3,1 -8,5 -8,12 0,30 -13,40 -18,40 -5,0 -12,-19 -16,-56 0,-2 -1,-4 -2,-5 -2,-4 -8,-14 -12,-27l11 0 0 9c0,3 2,5 5,5l33 0 37 0c7,0 13,-6 13,-13l0 -1 20 0c-4,13 -10,23 -12,27z"/>
   </g>
  </g>
 </g>
</svg>
