<?xml version="1.0" encoding="UTF-8"?>
<!DOCTYPE svg PUBLIC "-//W3C//DTD SVG 1.1//EN" "http://www.w3.org/Graphics/SVG/1.1/DTD/svg11.dtd">
<!-- Creator: CorelDRAW X8 -->
<svg xmlns="http://www.w3.org/2000/svg" xml:space="preserve" width="1.11111in" height="1.11111in" version="1.1" style="shape-rendering:geometricPrecision; text-rendering:geometricPrecision; image-rendering:optimizeQuality; fill-rule:evenodd; clip-rule:evenodd"
viewBox="0 0 1118 1118"
 xmlns:xlink="http://www.w3.org/1999/xlink">
 <defs>
  <style type="text/css">
   <![CDATA[
    .fil1 {fill:#1A161A;fill-rule:nonzero}
    .fil0 {fill:white;fill-rule:nonzero}
   ]]>
  </style>
 </defs>
 <g id="Layer_x0020_1">
  <metadata id="CorelCorpID_0Corel-Layer"/>
  <g id="_2324002087488">
   <g>
    <path class="fil0" d="M1118 559c0,308 -251,559 -559,559 -309,0 -559,-251 -559,-559 0,-309 250,-559 559,-559 308,0 559,250 559,559z"/>
   </g>
   <g>
    <g>
     <path class="fil1" d="M683 748c-5,-1 -11,2 -12,8 -18,97 -39,132 -51,132 -22,0 -69,-37 -72,-145 0,-28 -19,-41 -30,-47 -9,-5 -19,-5 -28,0 -11,6 -30,19 -30,47 -3,108 -51,145 -72,145 -22,0 -48,-87 -63,-205 -1,-7 -3,-14 -7,-20 -16,-23 -94,-142 -30,-223 47,-59 89,-56 128,-44 6,2 11,-1 13,-6 2,-5 -1,-11 -6,-13 -42,-13 -96,-19 -151,50 -71,91 5,213 29,248 2,3 4,6 4,10 13,102 37,223 83,223 34,0 89,-45 92,-164 0,0 0,-1 0,-1 0,-16 11,-25 20,-29 2,-2 6,-2 8,0 9,4 20,13 20,29 0,0 0,0 0,0 0,0 0,1 0,1 3,119 58,164 92,164 19,0 46,-15 71,-149 1,-5 -2,-10 -8,-11z"/>
    </g>
    <g>
     <path class="fil1" d="M892 439l-21 0c-2,-8 -4,-16 -7,-24l19 -10c5,-3 8,-8 10,-13 1,-6 0,-12 -3,-16l-16 -29c-6,-10 -19,-14 -29,-8l-19 11c-5,-7 -11,-12 -17,-18l10 -18c6,-11 3,-24 -7,-29l-29 -17c-10,-6 -23,-2 -29,8l-11 18c-8,-3 -16,-5 -24,-6l0 -22c0,-11 -9,-21 -21,-21l-33 0c-12,0 -22,10 -22,21l0 22c-8,1 -16,3 -24,6l-10 -18c-6,-10 -19,-14 -29,-8l-29 17c-10,5 -14,18 -8,29l11 18c-6,6 -12,11 -18,18l-18 -11c-10,-6 -23,-2 -29,8l-17 29c-3,4 -3,10 -2,16 2,5 5,10 10,13l19 10c-3,8 -5,16 -7,24l-21 0c-12,0 -21,10 -21,21l0 34c0,11 9,21 21,21l21 0c2,8 4,16 7,24l-19 11c-10,5 -14,18 -8,29l17 28c3,5 7,9 13,10 5,2 11,1 16,-2l18 -11c6,7 12,12 18,18l-11 18c-3,5 -3,11 -2,17 2,5 5,10 10,12l29 17c5,3 10,4 16,2 5,-1 10,-5 13,-10l10 -18c8,3 16,5 24,6l0 22c0,11 10,21 22,21l33 0c12,0 21,-10 21,-21l0 -22c8,-1 16,-3 24,-6l11 18c3,5 7,9 13,10 5,2 11,1 16,-2l29 -17c5,-2 8,-7 10,-12 1,-6 0,-12 -3,-17l-10 -18c6,-6 12,-11 17,-18l19 11c5,3 10,4 16,2 5,-1 10,-5 13,-10l16 -28c6,-11 3,-24 -7,-29l-19 -11c3,-8 5,-16 7,-24l21 0c12,0 21,-10 21,-21l0 -34c0,-11 -9,-21 -21,-21zm1 55l0 0c0,0 -1,1 -1,1l-30 0c-5,0 -9,3 -10,8 -2,13 -5,25 -10,37 -2,4 0,10 5,12l25 15c1,0 1,1 1,1l-17 29 -1 0 -26 -14c-4,-3 -10,-2 -13,2 -8,10 -17,19 -27,27 -4,3 -5,8 -2,13l15 26 -1 1 -28 16c-1,1 -1,1 -2,0l-14 -26c-3,-4 -8,-6 -13,-4 -12,5 -24,8 -36,10 -5,1 -9,5 -9,10l0 30c0,0 -1,0 -1,0l-33 0c-1,0 -1,0 -1,0l0 -30c0,-5 -4,-9 -9,-10 -12,-2 -24,-5 -36,-10 -2,-1 -3,-1 -4,-1 -4,0 -7,2 -9,5l-15 26 -1 0 -29 -16c0,0 0,-1 0,-1l15 -26c2,-5 1,-10 -3,-13 -9,-8 -18,-17 -26,-27 -4,-4 -9,-5 -13,-2l-26 14 -1 0 -17 -29c0,0 0,-1 0,-1l26 -15c4,-2 6,-8 4,-12 -4,-12 -8,-24 -9,-37 -1,-5 -5,-8 -10,-8l-30 0c-1,0 -1,-1 -1,-1l0 -34c0,0 0,-1 1,-1l30 0c5,0 9,-3 10,-8 1,-12 5,-25 9,-37 2,-4 0,-10 -4,-12l-26 -15c0,0 0,-1 0,-1l17 -29c0,-1 0,-1 1,0l26 14c4,3 9,2 13,-2 8,-10 17,-19 26,-27 4,-3 5,-8 3,-13l-15 -26c0,0 0,-1 0,-1l29 -16c0,-1 1,-1 1,0l15 26c3,4 8,6 13,4 12,-5 24,-8 36,-10 5,0 9,-5 9,-10l0 -30c0,0 0,0 1,0l33 0c0,0 1,0 1,0l0 30c0,5 4,10 9,10 12,2 24,5 36,10 5,2 10,0 13,-4l14 -26c1,-1 1,-1 2,0l28 16c1,0 1,1 1,1l-15 26c-3,5 -2,10 2,13 10,8 19,17 27,27 3,4 9,5 13,2l26 -14c0,-1 1,-1 1,0l17 29c0,0 0,1 -1,1l-25 15c-5,2 -7,8 -5,12 5,12 8,24 10,37 1,5 5,8 10,8l30 0c0,0 1,1 1,1l0 34z"/>
    </g>
    <g>
     <path class="fil1" d="M681 360c-64,0 -116,53 -116,117 0,64 52,117 116,117 65,0 117,-53 117,-117 0,-64 -52,-117 -117,-117zm0 213l0 0c-53,0 -96,-43 -96,-96 0,-53 43,-96 96,-96 54,0 97,43 97,96 0,53 -43,96 -97,96z"/>
    </g>
   </g>
  </g>
 </g>
</svg>
