<?xml version="1.0" encoding="UTF-8"?>
<!DOCTYPE svg PUBLIC "-//W3C//DTD SVG 1.1//EN" "http://www.w3.org/Graphics/SVG/1.1/DTD/svg11.dtd">
<!-- Creator: CorelDRAW X8 -->
<svg xmlns="http://www.w3.org/2000/svg" xml:space="preserve" width="1.11111in" height="1.11111in" version="1.1" style="shape-rendering:geometricPrecision; text-rendering:geometricPrecision; image-rendering:optimizeQuality; fill-rule:evenodd; clip-rule:evenodd"
viewBox="0 0 556 556"
 xmlns:xlink="http://www.w3.org/1999/xlink">
 <defs>
  <style type="text/css">
   <![CDATA[
    .fil1 {fill:#1A161A;fill-rule:nonzero}
    .fil0 {fill:white;fill-rule:nonzero}
   ]]>
  </style>
 </defs>
 <g id="Layer_x0020_1">
  <metadata id="CorelCorpID_0Corel-Layer"/>
  <g id="_2324002087328">
   <g>
    <path class="fil0" d="M556 278c0,153 -125,278 -278,278 -154,0 -278,-125 -278,-278 0,-154 124,-278 278,-278 153,0 278,124 278,278z"/>
   </g>
   <g>
    <g>
     <path class="fil1" d="M321 383c31,-37 74,-98 74,-152 0,-61 -50,-111 -111,-111 -61,0 -110,50 -110,111 0,54 42,115 73,152 -21,7 -36,19 -36,33 0,21 32,37 73,37 41,0 73,-16 73,-37 0,-14 -14,-26 -36,-33zm-37 -253l0 0c56,0 101,45 101,101 0,72 -83,159 -101,178 -18,-19 -100,-106 -100,-178 0,-56 45,-101 100,-101zm0 313l0 0c-37,0 -63,-14 -63,-27 0,-9 13,-19 34,-24 14,16 24,26 26,27 1,1 2,2 3,2 1,0 3,-1 4,-2 1,-1 12,-11 26,-27 20,5 33,15 33,24 0,13 -26,27 -63,27z"/>
    </g>
    <g>
     <path class="fil1" d="M288 281c0,0 0,0 0,0 1,34 17,46 27,46 5,0 17,0 25,-62 0,0 0,-1 1,-1 7,-10 28,-44 7,-70 -20,-26 -40,-16 -58,-8 -2,1 -4,2 -6,2 -2,0 -4,-1 -6,-2 -18,-8 -38,-18 -58,8 -20,26 1,60 8,70 0,0 0,1 0,1 8,62 21,62 25,62 10,0 26,-12 27,-46 0,0 0,0 0,0 0,-1 0,-4 4,-6 4,2 4,5 4,6zm-9 -15l0 0c-6,3 -9,8 -9,15 -1,28 -13,36 -17,36 -4,-1 -10,-18 -15,-53 0,-2 -1,-4 -2,-6 -4,-6 -25,-37 -8,-58 7,-9 14,-13 22,-13 6,0 13,3 20,6 -2,1 -4,1 -6,1 -3,0 -5,2 -5,5 0,3 2,5 5,5 11,0 21,-5 30,-9 18,-8 31,-14 47,5 16,21 -4,52 -9,58 -1,2 -2,4 -2,6 -4,34 -11,52 -15,53 -4,0 -16,-8 -17,-36 0,-7 -3,-12 -9,-15 -3,-2 -7,-2 -10,0z"/>
    </g>
   </g>
  </g>
 </g>
</svg>
