<?xml version="1.0" encoding="UTF-8"?>
<!DOCTYPE svg PUBLIC "-//W3C//DTD SVG 1.1//EN" "http://www.w3.org/Graphics/SVG/1.1/DTD/svg11.dtd">
<!-- Creator: CorelDRAW X8 -->
<svg xmlns="http://www.w3.org/2000/svg" xml:space="preserve" width="1.11111in" height="1.11111in" version="1.1" style="shape-rendering:geometricPrecision; text-rendering:geometricPrecision; image-rendering:optimizeQuality; fill-rule:evenodd; clip-rule:evenodd"
viewBox="0 0 222 222"
 xmlns:xlink="http://www.w3.org/1999/xlink">
 <defs>
  <style type="text/css">
   <![CDATA[
    .fil1 {fill:#1A161A;fill-rule:nonzero}
    .fil0 {fill:white;fill-rule:nonzero}
   ]]>
  </style>
 </defs>
 <g id="Layer_x0020_1">
  <metadata id="CorelCorpID_0Corel-Layer"/>
  <g id="_2324002091008">
   <g>
    <path class="fil0" d="M222 111c0,62 -49,111 -111,111 -61,0 -111,-49 -111,-111 0,-61 50,-111 111,-111 62,0 111,50 111,111z"/>
   </g>
   <g>
    <g>
     <path class="fil1" d="M174 145l-6 -22c3,-5 4,-10 4,-15 0,-10 -5,-20 -13,-27 -1,-1 -3,-1 -3,0 -1,1 -1,2 0,3 8,6 12,15 12,24 0,5 -1,10 -4,14 0,0 0,1 0,1l6 20 -23 -5c0,0 0,0 -1,0 -6,3 -12,4 -19,4 0,-18 -17,-33 -39,-33 -1,0 -2,1 -3,1 0,-1 0,-1 0,-2 0,-9 4,-18 12,-24 1,-1 1,-2 0,-3 0,-1 -2,-1 -3,0 -8,7 -13,17 -13,27 0,1 0,1 0,2 -18,3 -32,16 -32,32 0,5 1,9 3,13l-5 18c0,1 0,2 1,2 0,1 1,1 1,1 0,0 0,0 1,0l21 -4c5,2 11,3 17,3 20,0 37,-13 39,-29 7,0 14,-1 20,-4l25 5c0,0 0,0 1,0 0,0 1,0 1,0 0,-1 1,-2 0,-2zm-86 26l0 0c-6,0 -11,-1 -16,-3 -1,-1 -1,-1 -2,-1l-18 4 4 -16c0,0 0,-1 0,-1 -2,-4 -3,-8 -3,-12 0,-16 16,-29 35,-29 19,0 35,13 35,29 0,16 -16,29 -35,29z"/>
    </g>
    <g>
     <path class="fil1" d="M152 113l-26 0c-1,0 -2,1 -2,2 0,1 1,2 2,2l26 0c1,0 2,-1 2,-2 0,-1 -1,-2 -2,-2z"/>
    </g>
    <g>
     <path class="fil1" d="M152 125l-18 0c-1,0 -2,1 -2,2 0,1 1,2 2,2l18 0c1,0 2,-1 2,-2 0,-1 -1,-2 -2,-2z"/>
    </g>
    <g>
     <path class="fil1" d="M105 129l-35 0c-1,0 -2,1 -2,2 0,1 1,2 2,2l35 0c1,0 2,-1 2,-2 0,-1 -1,-2 -2,-2z"/>
    </g>
    <g>
     <path class="fil1" d="M105 141l-35 0c-1,0 -2,1 -2,2 0,2 1,2 2,2l35 0c1,0 2,0 2,-2 0,-1 -1,-2 -2,-2z"/>
    </g>
    <g>
     <path class="fil1" d="M96 154l-26 0c-1,0 -2,1 -2,2 0,1 1,2 2,2l26 0c1,0 2,-1 2,-2 0,-1 -1,-2 -2,-2z"/>
    </g>
    <g>
     <path class="fil1" d="M103 79c2,17 6,26 10,26 5,0 11,-5 12,-19 0,0 0,0 0,0 0,-1 0,-2 2,-3 1,1 1,2 1,3 0,0 0,0 0,0 1,14 7,19 12,19 4,0 8,-9 10,-26 0,0 0,0 0,-1 3,-4 12,-18 3,-29 -8,-10 -16,-6 -24,-3 -1,0 -2,1 -3,1 0,0 -1,-1 -2,-1 -8,-3 -16,-7 -24,3 -9,11 0,25 3,29 0,1 0,1 0,1zm0 -27l0 0c3,-4 6,-5 9,-5 3,0 6,1 9,2 -1,0 -2,0 -3,0 -1,0 -2,1 -2,2 0,2 1,2 2,2 4,0 9,-1 13,-3 7,-4 13,-6 19,2 7,9 -1,22 -3,24 -1,1 -1,2 -1,3 -2,14 -5,22 -6,22 -2,0 -7,-4 -8,-15 0,-3 -1,-5 -4,-7 -1,0 -2,0 -3,0 -3,2 -4,4 -4,7 -1,11 -6,15 -8,15 -1,0 -4,-8 -6,-22 0,-1 0,-2 -1,-3 -2,-2 -10,-15 -3,-24z"/>
    </g>
   </g>
  </g>
 </g>
</svg>
