<?xml version="1.0" encoding="UTF-8"?>
<!DOCTYPE svg PUBLIC "-//W3C//DTD SVG 1.1//EN" "http://www.w3.org/Graphics/SVG/1.1/DTD/svg11.dtd">
<!-- Creator: CorelDRAW X8 -->
<svg xmlns="http://www.w3.org/2000/svg" xml:space="preserve" width="1.11111in" height="1.11111in" version="1.1" style="shape-rendering:geometricPrecision; text-rendering:geometricPrecision; image-rendering:optimizeQuality; fill-rule:evenodd; clip-rule:evenodd"
viewBox="0 0 556 556"
 xmlns:xlink="http://www.w3.org/1999/xlink">
 <defs>
  <style type="text/css">
   <![CDATA[
    .fil1 {fill:#1A161A;fill-rule:nonzero}
    .fil0 {fill:white;fill-rule:nonzero}
   ]]>
  </style>
 </defs>
 <g id="Layer_x0020_1">
  <metadata id="CorelCorpID_0Corel-Layer"/>
  <g id="_2324002095744">
   <g>
    <path class="fil0" d="M556 278c0,153 -125,278 -278,278 -154,0 -278,-125 -278,-278 0,-154 124,-278 278,-278 153,0 278,124 278,278z"/>
   </g>
   <g>
    <g>
     <path class="fil1" d="M276 415l-120 0c-7,0 -13,-6 -13,-14l0 -225c0,-8 6,-15 13,-15l42 0 0 5c0,8 6,15 15,15l79 0c9,0 15,-7 15,-15l0 -5 42 0c7,0 13,7 13,15l0 57c0,3 2,5 5,5 3,0 5,-2 5,-5l0 -57c0,-14 -10,-25 -23,-25l-42 0 0 -5c0,-8 -6,-15 -15,-15l-20 0c-2,-8 -10,-15 -20,-15 -9,0 -17,7 -19,15l-20 0c-9,0 -15,7 -15,15l0 5 -42 0c-13,0 -23,11 -23,25l0 225c0,13 10,25 23,25l120 0c3,0 5,-3 5,-5 0,-3 -2,-6 -5,-6zm-68 -269l0 0c0,-2 2,-5 5,-5l25 0c2,0 5,-2 5,-5 0,-5 4,-10 9,-10 6,0 10,5 10,10 0,3 3,5 5,5l25 0c3,0 5,3 5,5l0 20c0,3 -2,5 -5,5l-79 0c-3,0 -5,-2 -5,-5l0 -20z"/>
    </g>
    <g>
     <path class="fil1" d="M442 268c-26,-34 -52,-21 -75,-10 -2,1 -5,2 -8,4 -3,-2 -6,-3 -9,-4 -23,-11 -49,-24 -74,10 -25,35 1,81 10,94 1,1 1,2 1,3 7,56 17,85 31,85 13,0 33,-17 34,-63 0,0 0,0 0,0 0,-4 2,-8 6,-10 1,0 1,0 2,0 4,2 6,6 6,10 0,0 0,0 0,0 0,0 0,0 0,0 1,46 21,63 34,63 13,0 24,-29 30,-85 0,-1 1,-2 1,-3 9,-13 36,-59 11,-94zm-19 88l0 0c-1,3 -2,5 -3,8 -6,52 -16,76 -20,76 -6,0 -23,-13 -24,-53 0,-11 -7,-17 -12,-19 -3,-2 -7,-2 -11,0 -4,2 -11,8 -11,19 -1,40 -18,53 -24,53 -5,0 -15,-24 -21,-76 0,-3 -1,-5 -2,-8 -6,-8 -33,-52 -11,-82 10,-13 20,-18 30,-18 10,0 20,5 32,11 -5,1 -9,2 -14,2 -3,0 -5,2 -5,5 0,3 2,5 5,5 14,0 27,-6 40,-12 23,-11 41,-20 62,7 22,30 -5,74 -11,82z"/>
    </g>
    <g>
     <path class="fil1" d="M183 199c-9,0 -17,8 -17,18 0,9 8,17 17,17 10,0 18,-8 18,-17 0,-10 -8,-18 -18,-18zm0 25l0 0c-4,0 -7,-3 -7,-7 0,-4 3,-8 7,-8 4,0 8,4 8,8 0,4 -4,7 -8,7z"/>
    </g>
    <g>
     <path class="fil1" d="M183 249c-9,0 -17,8 -17,17 0,10 8,18 17,18 10,0 18,-8 18,-18 0,-9 -8,-17 -18,-17zm0 25l0 0c-4,0 -7,-3 -7,-8 0,-4 3,-7 7,-7 4,0 8,3 8,7 0,5 -4,8 -8,8z"/>
    </g>
    <g>
     <path class="fil1" d="M183 299c-9,0 -17,8 -17,17 0,10 8,18 17,18 10,0 18,-8 18,-18 0,-9 -8,-17 -18,-17zm0 25l0 0c-4,0 -7,-4 -7,-8 0,-4 3,-7 7,-7 4,0 8,3 8,7 0,4 -4,8 -8,8z"/>
    </g>
    <g>
     <path class="fil1" d="M183 349c-9,0 -17,8 -17,17 0,10 8,18 17,18 10,0 18,-8 18,-18 0,-9 -8,-17 -18,-17zm0 25l0 0c-4,0 -7,-4 -7,-8 0,-4 3,-7 7,-7 4,0 8,3 8,7 0,4 -4,8 -8,8z"/>
    </g>
    <g>
     <path class="fil1" d="M223 222l25 0c2,0 5,-3 5,-5 0,-3 -3,-5 -5,-5l-25 0c-3,0 -5,2 -5,5 0,2 2,5 5,5z"/>
    </g>
    <g>
     <path class="fil1" d="M273 212c-3,0 -5,2 -5,5 0,2 2,5 5,5l61 0c3,0 5,-3 5,-5 0,-3 -2,-5 -5,-5l-61 0z"/>
    </g>
    <g>
     <path class="fil1" d="M255 261l-32 0c-3,0 -5,3 -5,5 0,3 2,6 5,6l32 0c3,0 5,-3 5,-6 0,-2 -2,-5 -5,-5z"/>
    </g>
    <g>
     <path class="fil1" d="M223 321l23 0c3,0 5,-2 5,-5 0,-2 -2,-5 -5,-5l-23 0c-3,0 -5,3 -5,5 0,3 2,5 5,5z"/>
    </g>
    <g>
     <path class="fil1" d="M223 371l43 0c3,0 5,-2 5,-5 0,-3 -2,-5 -5,-5l-43 0c-3,0 -5,2 -5,5 0,3 2,5 5,5z"/>
    </g>
   </g>
  </g>
 </g>
</svg>
