<?xml version="1.0" encoding="UTF-8"?>
<!DOCTYPE svg PUBLIC "-//W3C//DTD SVG 1.1//EN" "http://www.w3.org/Graphics/SVG/1.1/DTD/svg11.dtd">
<!-- Creator: CorelDRAW X8 -->
<svg xmlns="http://www.w3.org/2000/svg" xml:space="preserve" width="1.11111in" height="1.11111in" version="1.1" style="shape-rendering:geometricPrecision; text-rendering:geometricPrecision; image-rendering:optimizeQuality; fill-rule:evenodd; clip-rule:evenodd"
viewBox="0 0 222 222"
 xmlns:xlink="http://www.w3.org/1999/xlink">
 <defs>
  <style type="text/css">
   <![CDATA[
    .fil1 {fill:#1A161A;fill-rule:nonzero}
    .fil0 {fill:white;fill-rule:nonzero}
   ]]>
  </style>
 </defs>
 <g id="Layer_x0020_1">
  <metadata id="CorelCorpID_0Corel-Layer"/>
  <g id="_2323881527040">
   <g>
    <path class="fil0" d="M222 111c0,62 -49,111 -111,111 -61,0 -111,-49 -111,-111 0,-61 50,-111 111,-111 62,0 111,50 111,111z"/>
   </g>
   <g>
    <g>
     <path class="fil1" d="M82 118c-1,17 -1,37 7,39 5,1 16,-5 20,-24 0,0 0,0 0,0 0,-2 1,-3 3,-4 1,0 1,0 2,0 1,2 2,3 2,5 0,0 0,0 0,0 -4,20 4,29 10,30 0,0 0,0 0,0 8,0 15,-18 20,-33 0,-1 0,-1 1,-2 5,-5 20,-22 12,-39 -8,-14 -19,-14 -29,-11l2 -10 9 1c1,0 1,0 2,-1 0,0 0,-1 0,-2l-13 -20c-1,0 -1,0 -2,0 0,0 -1,0 -1,0l-20 13c-1,1 -1,2 -1,2 0,1 1,2 2,2l8 2 -1 9c-9,-5 -18,-9 -30,1 -15,13 -6,34 -3,41 0,0 0,1 0,1zm37 -56l0 0 -6 -1 14 -10 10 14 -6 -1c-1,0 -2,1 -2,2l-3 14c-1,0 -2,0 -4,1 -1,-1 -2,-2 -3,-3 -1,0 -1,0 -1,0l3 -14c0,-1 -1,-2 -2,-2zm-32 17l0 0c12,-10 20,-4 29,2 0,0 0,0 0,0 -2,1 -4,1 -6,0 -2,0 -3,1 -3,2 0,1 1,2 2,2 4,1 9,1 13,0 0,0 0,0 0,0 2,-1 4,-1 6,-2 11,-2 20,-5 27,9 8,15 -8,31 -11,34 -1,1 -2,2 -2,3 -6,20 -13,31 -16,31 -3,-1 -9,-8 -6,-25 0,-3 -1,-6 -4,-9 -1,-1 -3,-1 -5,-1 -3,1 -6,4 -6,7 0,0 0,0 0,0 -4,17 -12,21 -15,21 -3,-1 -5,-14 -4,-34 0,-2 0,-3 -1,-4 -2,-4 -10,-25 2,-36z"/>
    </g>
    <g>
     <path class="fil1" d="M174 135l-8 0c-8,0 -15,6 -17,13 -5,17 -20,28 -37,28 -17,0 -33,-11 -37,-28 -3,-7 -10,-13 -18,-13l-7 0c-1,0 -2,1 -2,2 0,2 1,3 2,3l7 0c6,0 12,4 14,10 5,18 22,30 41,30 18,0 35,-12 41,-30 1,-6 7,-10 13,-10l8 0c1,0 2,-1 2,-3 0,-1 -1,-2 -2,-2z"/>
    </g>
   </g>
  </g>
 </g>
</svg>
