<?xml version="1.0" encoding="UTF-8"?>
<!DOCTYPE svg PUBLIC "-//W3C//DTD SVG 1.1//EN" "http://www.w3.org/Graphics/SVG/1.1/DTD/svg11.dtd">
<!-- Creator: CorelDRAW X8 -->
<svg xmlns="http://www.w3.org/2000/svg" xml:space="preserve" width="1.11111in" height="1.11111in" version="1.1" style="shape-rendering:geometricPrecision; text-rendering:geometricPrecision; image-rendering:optimizeQuality; fill-rule:evenodd; clip-rule:evenodd"
viewBox="0 0 222 222"
 xmlns:xlink="http://www.w3.org/1999/xlink">
 <defs>
  <style type="text/css">
   <![CDATA[
    .fil1 {fill:#1A161A;fill-rule:nonzero}
    .fil0 {fill:white;fill-rule:nonzero}
   ]]>
  </style>
 </defs>
 <g id="Layer_x0020_1">
  <metadata id="CorelCorpID_0Corel-Layer"/>
  <g id="_2324002125632">
   <g>
    <path class="fil0" d="M222 111c0,62 -49,111 -111,111 -61,0 -111,-49 -111,-111 0,-61 50,-111 111,-111 62,0 111,50 111,111z"/>
   </g>
   <g>
    <g>
     <path class="fil1" d="M137 80c0,1 -1,2 0,3 0,1 1,1 2,1 0,0 0,0 1,0 1,-1 1,-2 0,-3 0,-1 -2,-1 -3,-1z"/>
    </g>
    <g>
     <path class="fil1" d="M153 88c0,-1 -1,-2 -2,-2 -1,0 -2,1 -2,2 0,2 1,2 2,2 0,0 0,0 0,0 1,0 2,-1 2,-2z"/>
    </g>
    <g>
     <path class="fil1" d="M138 75c0,-1 -1,-2 -2,-2 -1,0 -2,1 -2,2 0,1 1,2 2,2 0,0 0,0 0,0 2,0 2,-1 2,-2z"/>
    </g>
    <g>
     <path class="fil1" d="M143 89c0,0 0,0 0,0 0,0 1,0 1,0 1,0 2,-1 2,-1 0,-1 0,-3 -1,-3 -1,-1 -2,0 -3,1 0,1 0,2 1,3z"/>
    </g>
    <g>
     <path class="fil1" d="M157 84c-1,1 -1,2 0,3 0,1 1,1 1,1 1,0 1,0 1,0 1,-1 2,-2 1,-3 -1,-1 -2,-1 -3,-1z"/>
    </g>
    <g>
     <path class="fil1" d="M79 68c0,0 0,0 0,0 0,0 0,1 0,1 0,0 0,0 0,0 0,0 0,0 0,0 0,0 0,0 0,0 0,0 0,0 1,1 0,0 0,0 0,0 0,0 0,0 0,0 0,0 0,0 1,0 0,0 0,0 0,0 0,0 0,0 0,0 0,0 0,0 0,0 8,-2 17,2 25,6 1,0 2,0 2,1 -3,1 -7,2 -11,2 -1,0 -2,1 -2,2 0,1 1,2 2,2 7,0 13,-2 17,-4 0,0 0,0 1,0 2,-1 4,-2 6,-3 6,-3 12,-6 17,-6 0,0 0,0 0,0 0,0 1,-1 1,-1 0,0 0,0 0,0 0,0 0,0 0,0 0,0 0,0 0,0 0,0 0,0 0,0 1,0 1,-1 1,-1 0,0 0,0 0,0 0,0 0,0 0,0 0,0 0,0 0,0 0,-1 0,-1 0,-1 0,0 0,0 0,0 0,0 0,0 0,0 -1,0 -1,0 -1,-1 0,0 0,0 0,0 0,0 0,0 0,0 0,0 0,0 0,0 0,0 0,0 -1,0 0,0 0,0 0,0 0,0 0,0 0,0 0,0 0,0 -1,0 -6,1 -12,3 -18,6 -2,1 -3,2 -5,3 -2,-1 -4,-2 -6,-3 -9,-4 -18,-8 -28,-6 0,0 0,0 0,0 0,0 0,0 0,0 0,0 0,0 -1,0 0,0 0,0 0,1 0,0 0,0 0,0 0,0 0,0 0,0 0,0 0,0 0,0 0,1 0,1 0,1 0,0 0,0 0,0 0,0 0,0 0,0z"/>
    </g>
    <g>
     <path class="fil1" d="M79 97c0,0 0,2 1,2 0,1 1,1 1,1 1,0 1,-1 2,-1 0,-1 0,-2 -1,-3 -1,-1 -2,0 -3,1z"/>
    </g>
    <g>
     <path class="fil1" d="M68 105c-1,1 -1,2 -1,3 0,1 1,1 2,1 0,0 0,0 0,0 2,0 2,-1 2,-2 -1,-1 -2,-2 -3,-2z"/>
    </g>
    <g>
     <path class="fil1" d="M88 83c0,-1 -1,-2 -2,-2 -2,0 -2,1 -2,2 0,1 1,2 2,2 0,0 0,0 0,0 1,0 2,-1 2,-2z"/>
    </g>
    <g>
     <path class="fil1" d="M74 102c0,1 -1,2 0,3 0,0 1,0 2,0 0,0 1,0 1,0 1,-1 1,-2 0,-3 0,-1 -2,-1 -3,0z"/>
    </g>
    <g>
     <path class="fil1" d="M84 77c1,0 1,0 1,0 1,0 2,-2 1,-3 0,-1 -1,-1 -2,-1 -1,0 -2,2 -2,3 1,0 1,1 2,1z"/>
    </g>
    <g>
     <path class="fil1" d="M84 93c0,0 0,0 1,0 0,0 1,-1 1,-2 1,-1 0,-2 -1,-2 -1,-1 -2,0 -2,1 -1,1 0,2 1,3z"/>
    </g>
    <g>
     <path class="fil1" d="M123 97l0 0c1,0 1,0 1,0 1,0 2,-1 2,-2 0,-1 0,-2 -1,-2 -1,-1 -2,0 -3,1 0,1 0,2 1,3z"/>
    </g>
    <g>
     <path class="fil1" d="M120 115c0,0 0,0 0,0 -1,0 -2,1 -2,2 0,2 1,2 2,2 0,0 0,0 0,0 0,0 0,0 0,0 0,0 0,0 0,0 1,0 2,0 2,-2 0,-1 -1,-2 -2,-2z"/>
    </g>
    <g>
     <path class="fil1" d="M128 117c0,0 1,-1 1,-1 1,-1 1,-2 0,-3 -1,-1 -2,-1 -3,0l0 0c0,1 -1,2 0,3 1,0 1,1 2,1z"/>
    </g>
    <g>
     <path class="fil1" d="M113 117c0,0 1,-1 1,-1 1,-1 1,-2 0,-3 -1,-1 -2,0 -3,0 -1,1 -1,3 0,3 1,1 1,1 2,1z"/>
    </g>
    <g>
     <path class="fil1" d="M109 102c0,0 1,0 1,0 1,0 1,0 2,-1 0,-1 0,-2 -1,-3 -1,0 -2,0 -3,1 0,1 0,2 1,3z"/>
    </g>
    <g>
     <path class="fil1" d="M117 97c1,-1 1,-2 1,-3 0,-1 -2,-1 -3,-1 -1,0 -1,1 -1,3 0,0 1,1 2,1 0,0 1,0 1,0z"/>
    </g>
    <g>
     <path class="fil1" d="M131 110c0,0 1,0 1,0 1,0 1,-1 2,-2 0,-1 -1,-2 -2,-2 -1,-1 -2,0 -2,1 -1,1 0,3 1,3z"/>
    </g>
    <g>
     <path class="fil1" d="M107 108c0,1 1,2 2,2 0,0 0,0 0,0 1,0 2,-1 2,-3 -1,-1 -2,-1 -3,-1 -1,0 -2,1 -1,2z"/>
    </g>
    <g>
     <path class="fil1" d="M130 102c1,0 1,0 1,0 1,-1 1,-2 1,-3 -1,-1 -2,-1 -3,-1 -1,1 -1,2 -1,3 1,1 1,1 2,1z"/>
    </g>
    <g>
     <path class="fil1" d="M166 115c4,-11 7,-24 -1,-35 0,0 0,0 0,-1 0,0 0,0 0,0 0,0 0,0 0,0 -1,0 -1,0 -1,0 0,0 0,0 0,0 0,0 0,0 -1,0 0,0 0,0 0,0 0,0 0,0 0,0 0,0 -1,0 -1,0 0,0 0,0 0,0 0,0 0,0 0,0 0,0 0,0 0,0 0,0 0,0 0,1 0,0 0,0 -1,0 0,0 0,0 0,0 0,0 0,0 0,1 0,0 0,0 0,0 0,0 0,0 0,0 0,0 0,0 0,0 0,0 0,1 1,1 0,0 0,0 0,0 6,10 4,22 0,31 0,0 -1,0 -2,0 -5,0 -9,2 -11,6l-10 -6 1 -1 -8 0 4 7 1 -2 10 5c-1,2 -1,3 -1,5 0,5 2,9 6,11 -3,23 -9,40 -13,40 -5,0 -15,-8 -16,-32 0,-6 -4,-9 -6,-10 -2,-1 -4,-1 -6,0 -3,1 -7,4 -7,10 0,24 -11,32 -15,32 -5,0 -11,-19 -14,-45 0,-1 -1,-3 -2,-4 -2,-3 -7,-11 -10,-21 0,0 0,0 0,0 0,0 0,0 0,0 0,0 0,0 0,0 -1,0 -1,0 -1,-1 0,0 0,0 0,0 0,0 0,0 0,0 0,0 0,0 0,0 -1,0 -1,0 -1,0 0,0 0,0 0,0 0,0 0,0 -1,0 0,0 0,0 0,0 0,0 0,0 0,0 0,0 0,0 0,0 0,0 0,0 0,0 0,1 0,1 -1,1 0,0 0,0 0,0 0,0 0,0 0,0 0,1 0,1 0,1 0,0 0,0 0,0 0,0 0,0 0,0 0,0 0,0 0,0 3,11 9,19 11,22 0,1 1,2 1,3 2,18 7,48 18,48 6,0 19,-9 19,-36 0,0 0,0 0,0 0,-3 3,-5 5,-6 0,-1 1,-1 2,0 2,1 4,3 4,6l0 0c0,0 0,0 0,0 1,27 14,36 20,36 9,0 14,-24 17,-42 1,0 2,1 4,1 7,0 13,-7 13,-14 0,-5 -3,-10 -7,-12zm-6 21l0 0c-6,0 -10,-4 -10,-9 0,-5 4,-10 10,-10 5,0 9,5 9,10 0,5 -4,9 -9,9z"/>
    </g>
    <g>
     <path class="fil1" d="M70 89l-1 2 8 0 -5 -7 -1 2 -9 -5c1,-3 1,-6 1,-8 0,-5 -1,-9 -4,-13 0,0 -1,-1 -2,-1 -4,2 -8,5 -12,10 -5,6 -6,14 -4,23 1,1 1,2 2,2 0,0 0,0 0,0 7,-1 13,-4 17,-10l10 5zm-25 1l0 0c-2,-8 -1,-14 3,-19 3,-4 6,-6 9,-7 2,2 2,5 2,9 0,8 -6,15 -14,17z"/>
    </g>
    <g>
     <path class="fil1" d="M147 71l0 8 7 -4 -2 -1 3 -4c1,0 2,0 3,0 4,0 7,-2 9,-5 1,-1 1,-2 0,-2 0,-1 0,-1 -1,-1 -4,-6 -9,-9 -15,-8 -1,0 -2,1 -2,1 -1,2 -1,3 -1,5 0,3 1,5 3,7l-2 5 -2 -1zm5 -13l0 0c3,0 7,1 11,6 -1,1 -3,2 -5,2 -3,0 -6,-3 -6,-6 0,-1 0,-1 0,-2z"/>
    </g>
   </g>
  </g>
 </g>
</svg>
