<?xml version="1.0" encoding="UTF-8"?>
<!DOCTYPE svg PUBLIC "-//W3C//DTD SVG 1.1//EN" "http://www.w3.org/Graphics/SVG/1.1/DTD/svg11.dtd">
<!-- Creator: CorelDRAW X8 -->
<svg xmlns="http://www.w3.org/2000/svg" xml:space="preserve" width="1.11111in" height="1.11111in" version="1.1" style="shape-rendering:geometricPrecision; text-rendering:geometricPrecision; image-rendering:optimizeQuality; fill-rule:evenodd; clip-rule:evenodd"
viewBox="0 0 1118 1118"
 xmlns:xlink="http://www.w3.org/1999/xlink">
 <defs>
  <style type="text/css">
   <![CDATA[
    .fil1 {fill:#1A161A;fill-rule:nonzero}
    .fil0 {fill:white;fill-rule:nonzero}
   ]]>
  </style>
 </defs>
 <g id="Layer_x0020_1">
  <metadata id="CorelCorpID_0Corel-Layer"/>
  <g id="_2324002105312">
   <g>
    <path class="fil0" d="M1118 559c0,308 -251,559 -559,559 -309,0 -559,-251 -559,-559 0,-309 250,-559 559,-559 308,0 559,250 559,559z"/>
   </g>
   <g>
    <g>
     <path class="fil1" d="M858 546c-43,-57 -86,-50 -126,-33l0 -118c0,0 0,0 0,0 0,-1 0,-2 0,-3 -1,0 -1,0 -1,-1 0,-1 -1,-2 -2,-3l-80 -80c-1,-1 -2,-1 -3,-2 0,0 -1,0 -1,0 -1,0 -2,-1 -2,-1 -1,0 -1,0 -1,0l-313 0c-6,0 -10,5 -10,10l0 445 -42 0 0 -496 373 0 0 14c0,5 5,10 10,10 6,0 11,-5 11,-10l0 -24c0,-6 -5,-10 -11,-10l-393 0c-5,0 -10,4 -10,10l0 516c0,6 5,10 10,10l52 0 0 52c0,5 4,10 10,10l232 0c12,48 28,72 46,72 25,0 66,-34 69,-127 0,0 0,0 0,0 0,-9 4,-16 12,-20 1,-1 2,-1 3,0 9,4 13,11 13,20l0 0c0,0 0,0 0,0 2,93 43,127 68,127 29,0 50,-57 63,-171 0,-2 1,-5 2,-7 18,-27 72,-120 21,-190zm-161 -161l0 0 -45 0 0 -45 45 45zm-358 436l0 0 0 -496 293 0 0 70c0,6 4,11 10,11l70 0 0 116c-2,1 -3,1 -5,2 -6,3 -12,6 -17,8 -6,-2 -12,-5 -18,-8 -46,-22 -99,-47 -150,22 -52,70 2,163 20,190 2,2 2,5 3,7 3,30 7,56 12,78l-218 0zm481 -96l0 0c-3,5 -5,10 -5,16 -13,104 -33,153 -43,153 -12,0 -46,-26 -48,-107 0,-22 -14,-33 -23,-38 -7,-4 -16,-4 -23,0 -8,5 -23,16 -23,38 -2,81 -36,107 -48,107 -10,0 -30,-49 -42,-153 -1,-6 -3,-11 -6,-16 -11,-17 -66,-106 -21,-167 20,-27 40,-37 60,-37 20,0 42,10 66,22 -10,2 -19,4 -29,4 -5,0 -10,5 -10,10 0,6 5,11 10,11 21,0 40,-7 59,-15 0,0 0,0 0,0 7,-3 15,-7 22,-10 47,-23 84,-41 125,15 45,61 -9,150 -21,167z"/>
    </g>
    <g>
     <path class="fil1" d="M394 391l167 0c5,0 10,-5 10,-11 0,-5 -5,-10 -10,-10l-167 0c-5,0 -10,5 -10,10 0,6 5,11 10,11z"/>
    </g>
    <g>
     <path class="fil1" d="M394 462l268 0c6,0 10,-5 10,-10 0,-6 -4,-11 -10,-11l-268 0c-5,0 -10,5 -10,11 0,5 5,10 10,10z"/>
    </g>
    <g>
     <path class="fil1" d="M394 533l100 0c6,0 10,-5 10,-10 0,-6 -4,-10 -10,-10l-100 0c-5,0 -10,4 -10,10 0,5 5,10 10,10z"/>
    </g>
    <g>
     <path class="fil1" d="M394 604l70 0c6,0 10,-5 10,-10 0,-6 -4,-10 -10,-10l-70 0c-5,0 -10,4 -10,10 0,5 5,10 10,10z"/>
    </g>
    <g>
     <path class="fil1" d="M394 675l75 0c6,0 10,-4 10,-10 0,-6 -4,-10 -10,-10l-75 0c-5,0 -10,4 -10,10 0,6 5,10 10,10z"/>
    </g>
    <g>
     <path class="fil1" d="M500 726l-106 0c-5,0 -10,5 -10,10 0,6 5,10 10,10l106 0c5,0 10,-4 10,-10 0,-5 -5,-10 -10,-10z"/>
    </g>
   </g>
  </g>
 </g>
</svg>
