<?xml version="1.0" encoding="UTF-8"?>
<!DOCTYPE svg PUBLIC "-//W3C//DTD SVG 1.1//EN" "http://www.w3.org/Graphics/SVG/1.1/DTD/svg11.dtd">
<!-- Creator: CorelDRAW X8 -->
<svg xmlns="http://www.w3.org/2000/svg" xml:space="preserve" width="1.11111in" height="1.11111in" version="1.1" style="shape-rendering:geometricPrecision; text-rendering:geometricPrecision; image-rendering:optimizeQuality; fill-rule:evenodd; clip-rule:evenodd"
viewBox="0 0 1118 1118"
 xmlns:xlink="http://www.w3.org/1999/xlink">
 <defs>
  <style type="text/css">
   <![CDATA[
    .fil1 {fill:#1A161A;fill-rule:nonzero}
    .fil0 {fill:white;fill-rule:nonzero}
   ]]>
  </style>
 </defs>
 <g id="Layer_x0020_1">
  <metadata id="CorelCorpID_0Corel-Layer"/>
  <g id="_2324002099200">
   <g>
    <path class="fil0" d="M1118 559c0,308 -251,559 -559,559 -309,0 -559,-251 -559,-559 0,-309 250,-559 559,-559 308,0 559,250 559,559z"/>
   </g>
   <g>
    <path class="fil1" d="M881 403c-49,-72 -99,-46 -143,-23 -5,3 -10,6 -15,9 -6,-3 -11,-6 -16,-9 -44,-23 -93,-49 -141,21 -48,-70 -98,-44 -141,-21 -5,3 -11,6 -16,9 -5,-3 -10,-6 -15,-9 -44,-23 -94,-49 -143,23 -48,72 2,168 19,196 1,2 2,4 3,7 12,117 32,177 59,177 24,0 62,-36 65,-131 0,0 0,-1 0,-1 0,-9 4,-16 11,-21 1,0 2,0 2,0 8,5 12,12 12,21 0,0 0,1 0,1 2,95 41,130 65,130 27,0 47,-59 59,-176 0,-3 1,-5 2,-7 5,-8 11,-20 18,-35 6,15 13,27 17,35 2,2 3,4 3,7 12,117 32,177 59,177 24,0 63,-36 65,-131 0,0 0,-1 0,-1 0,-9 4,-16 12,-21 0,0 1,0 1,0 8,5 12,12 12,21 0,0 0,1 0,1 2,95 41,130 65,130 27,0 47,-59 59,-176 1,-3 1,-5 3,-7 16,-28 67,-124 19,-196zm-350 185l0 0c-3,5 -5,10 -5,16 -11,106 -30,156 -39,158 -11,0 -43,-26 -45,-111 0,-22 -13,-34 -21,-38 -8,-5 -16,-5 -23,0 -8,4 -22,16 -22,38 -2,85 -33,111 -44,111 -10,-2 -28,-52 -39,-158 -1,-6 -3,-11 -5,-16 -11,-18 -63,-110 -20,-174 19,-28 37,-38 55,-38 19,0 39,11 61,22l1 1c-9,3 -18,5 -27,5 -5,0 -10,5 -10,10 0,6 5,10 10,10 20,0 38,-6 56,-15 0,0 0,0 0,0 7,-3 14,-7 20,-11 44,-23 78,-41 117,16 1,3 2,5 3,7 -12,27 -12,57 -7,84l-77 0 0 -10c0,-22 -18,-40 -40,-40l-41 0c-22,0 -41,18 -41,40l0 10 -35 0c-6,0 -11,5 -11,11 0,5 5,10 11,10l35 0 0 10c0,22 19,40 41,40l41 0c22,0 40,-18 40,-40l0 -10 82 0c1,3 2,7 3,10 -9,25 -20,45 -24,52zm-162 -93l0 0c0,-11 9,-20 20,-20l41 0c11,0 20,9 20,20l0 41c0,11 -9,20 -20,20l-41 0c-11,0 -20,-9 -20,-20l0 -41zm475 93l0 0c-3,5 -4,10 -5,16 -11,106 -29,156 -39,158 -11,0 -43,-26 -45,-111 0,-22 -13,-34 -21,-38 -7,-5 -16,-5 -23,0 -8,4 -21,16 -21,38 -2,85 -34,111 -45,111 -9,-2 -28,-52 -39,-158 -1,-6 -2,-11 -5,-16 -5,-8 -19,-32 -28,-62l89 0 0 10c0,22 18,40 40,40l41 0c22,0 41,-18 41,-40l0 -11 38 0c6,0 10,-4 10,-10 0,-6 -4,-10 -10,-10l-38 0 0 -10c0,-22 -19,-40 -41,-40l-41 0c-22,0 -40,18 -40,40l0 10 -94 0c-6,-30 -6,-63 13,-91 19,-28 37,-38 56,-38 19,0 38,11 60,22 1,1 1,1 2,1 -9,3 -18,5 -27,5 -6,0 -10,5 -10,10 0,6 4,10 10,10 27,0 52,-13 76,-26 43,-23 78,-41 116,16 43,64 -9,156 -20,174zm-81 -52l0 0c0,11 -9,20 -20,20l-41 0c-11,0 -20,-9 -20,-20l0 -41c0,-11 9,-20 20,-20l41 0c11,0 20,9 20,20l0 41z"/>
   </g>
  </g>
 </g>
</svg>
