<?xml version="1.0" encoding="utf-8"?>
<!-- Generator: Adobe Illustrator 16.0.0, SVG Export Plug-In . SVG Version: 6.00 Build 0)  -->
<!DOCTYPE svg PUBLIC "-//W3C//DTD SVG 1.1//EN" "http://www.w3.org/Graphics/SVG/1.1/DTD/svg11.dtd">
<svg version="1.1" xmlns="http://www.w3.org/2000/svg" xmlns:xlink="http://www.w3.org/1999/xlink" x="0px" y="0px" width="500px"
	 height="500px" viewBox="0 0 500 500" enable-background="new 0 0 500 500" xml:space="preserve">
<g id="BACKGROUND">
	<rect fill-rule="evenodd" clip-rule="evenodd" fill="#FFFFFF" width="500" height="500"/>
</g>
<g id="OBJECTS">
	<g>
		<g>
			<g>
				<g>
					<g>
						<path fill-rule="evenodd" clip-rule="evenodd" fill="#C5DFE1" d="M67.038,240.492c0-7.021,3.445-11.66,7.822-13.737
							c1.693-0.803,3.535-1.215,5.379-1.225c1.842-0.011,3.684,0.385,5.38,1.195c4.241,2.027,7.531,6.583,7.531,13.767v23.609
							h-4.203v-23.609c0-5.325-2.243-8.608-5.134-9.99c-1.114-0.532-2.332-0.792-3.557-0.785c-1.223,0.007-2.457,0.286-3.605,0.831
							c-3.026,1.437-5.409,4.777-5.409,9.944H67.038z"/>
						<rect x="86.821" y="247.702" fill-rule="evenodd" clip-rule="evenodd" fill="#C5DFE1" width="8.675" height="19.017"/>
					</g>
					<g>
						<rect x="79.248" y="272.516" fill-rule="evenodd" clip-rule="evenodd" fill="#C5DFE1" width="23.365" height="90.178"/>
						<path fill-rule="evenodd" clip-rule="evenodd" fill="#C5DFE1" d="M51.79,253.245h78.281v8.92
							c0,21.527-17.613,39.141-39.141,39.141l0,0c-21.527,0-39.141-17.613-39.141-39.141V253.245z"/>
						<path fill-rule="evenodd" clip-rule="evenodd" fill="#FFFFFF" d="M59.671,262.165v-1.039h62.519v1.039
							c0,8.588-3.521,16.403-9.188,22.071c-5.668,5.667-13.483,9.188-22.071,9.188c-8.589,0-16.403-3.521-22.071-9.188
							C63.192,278.568,59.671,270.753,59.671,262.165L59.671,262.165z M60.722,262.177c0.003,8.294,3.405,15.841,8.88,21.316
							c5.478,5.478,13.03,8.88,21.328,8.88s15.851-3.402,21.328-8.88c5.475-5.476,8.877-13.022,8.88-21.316H60.722z"/>
						<rect x="57.006" y="317" fill-rule="evenodd" clip-rule="evenodd" fill="#C5DFE1" width="67.85" height="90.177"/>
						<path fill-rule="evenodd" clip-rule="evenodd" fill="#FFFFFF" d="M65.413,324.881h51.562v74.415
							c-17.362-0.001-34.725-0.001-52.087,0v-74.415H65.413L65.413,324.881z M115.923,325.932H65.938v72.313h49.986V325.932z"/>
					</g>
				</g>
				<g>
					<path fill-rule="evenodd" clip-rule="evenodd" fill="#C5DFE1" d="M51.785,66.169h124.149v112.176H48.632V66.169H51.785
						L51.785,66.169z M169.629,72.474H54.938v99.566h114.691V72.474z"/>
					<rect x="110.182" y="69.321" fill-rule="evenodd" clip-rule="evenodd" fill="#C5DFE1" width="4.203" height="105.871"/>
					<rect x="51.785" y="120.155" fill-rule="evenodd" clip-rule="evenodd" fill="#C5DFE1" width="120.996" height="4.203"/>
					<rect x="121.847" y="84.445" fill-rule="evenodd" clip-rule="evenodd" fill="#C5DFE1" width="7.118" height="35.71"/>
					<rect x="131.411" y="84.445" fill-rule="evenodd" clip-rule="evenodd" fill="#C5DFE1" width="7.118" height="35.71"/>
					<rect x="140.976" y="84.445" fill-rule="evenodd" clip-rule="evenodd" fill="#C5DFE1" width="7.117" height="35.71"/>
					<rect x="150.539" y="84.445" fill-rule="evenodd" clip-rule="evenodd" fill="#C5DFE1" width="7.118" height="35.71"/>
					<rect x="78.586" y="111.804" fill-rule="evenodd" clip-rule="evenodd" fill="#C5DFE1" width="26.468" height="8.352"/>
					<path fill-rule="evenodd" clip-rule="evenodd" fill="#C5DFE1" d="M63.389,94.454h1.241v-2.891h4.115v2.891h1.241
						c0.694,0,1.261,0.568,1.261,1.262v24.439h-9.119V95.716C62.127,95.022,62.695,94.454,63.389,94.454z"/>
					<rect x="68.021" y="147.724" fill-rule="evenodd" clip-rule="evenodd" fill="#C5DFE1" width="36.254" height="24.912"/>
					<rect x="121.847" y="152.173" fill-rule="evenodd" clip-rule="evenodd" fill="#C5DFE1" width="4.203" height="20.463"/>
					<rect x="127.208" y="152.173" fill-rule="evenodd" clip-rule="evenodd" fill="#C5DFE1" width="4.203" height="20.463"/>
					<rect x="132.569" y="152.173" fill-rule="evenodd" clip-rule="evenodd" fill="#C5DFE1" width="4.204" height="20.463"/>
					<rect x="137.93" y="152.173" fill-rule="evenodd" clip-rule="evenodd" fill="#C5DFE1" width="4.203" height="20.463"/>
					<rect x="143.291" y="152.173" fill-rule="evenodd" clip-rule="evenodd" fill="#C5DFE1" width="4.204" height="20.463"/>
					<rect x="148.651" y="152.173" fill-rule="evenodd" clip-rule="evenodd" fill="#C5DFE1" width="4.203" height="20.463"/>
					<rect x="154.012" y="152.173" fill-rule="evenodd" clip-rule="evenodd" fill="#C5DFE1" width="4.204" height="20.463"/>
					<rect x="159.373" y="152.173" fill-rule="evenodd" clip-rule="evenodd" fill="#C5DFE1" width="4.203" height="20.463"/>
				</g>
				<g>
					<g>
						<path fill-rule="evenodd" clip-rule="evenodd" fill="#C5DFE1" d="M345.829,259.49c0,147.687,0,147.687,0,147.687h88.968
							v-98.754l-36.031-48.933H345.829z"/>
						<polygon fill-rule="evenodd" clip-rule="evenodd" fill="#C5DFE1" points="357.062,244.255 359.425,244.255 359.425,234.412 
							357.34,234.412 357.34,224.236 362.678,224.236 362.678,234.412 360.592,234.412 360.592,244.255 362.955,244.255 
							362.955,261.158 357.062,261.158 						"/>
						<polygon fill-rule="evenodd" clip-rule="evenodd" fill="#C5DFE1" points="368.627,244.255 370.99,244.255 370.99,234.412 
							368.905,234.412 368.905,224.236 374.243,224.236 374.243,234.412 372.158,234.412 372.158,244.255 374.521,244.255 
							374.521,261.158 368.627,261.158 						"/>
						<polygon fill-rule="evenodd" clip-rule="evenodd" fill="#C5DFE1" points="433.886,290.823 434.627,290.262 422.584,273.885 
							417.525,277.545 422.119,284.012 417.004,287.349 406.494,272.279 411.234,268.689 415.824,275.149 423.222,269.798 
							436.967,288.489 437.813,287.849 446.83,300.543 442.592,303.307 						"/>
					</g>
					<path fill-rule="evenodd" clip-rule="evenodd" fill="#FFFFFF" d="M354.866,268.527V398.14h70.894v-86.751l-31.561-42.861
						H354.866L354.866,268.527z M353.605,398.771V267.267h41.227c10.73,14.57,21.461,29.141,32.189,43.713v88.422h-73.416V398.771z"
						/>
				</g>
				<g>
					<path fill-rule="evenodd" clip-rule="evenodd" fill="#BEDCE1" d="M383.635,70.737c-8.18,0-15.586,3.314-20.946,8.676
						c-5.36,5.36-8.677,12.766-8.677,20.947c0,8.18,3.316,15.586,8.677,20.946s12.767,8.677,20.946,8.677
						c8.181,0,15.587-3.316,20.947-8.677c5.361-5.36,8.677-12.767,8.677-20.946c0-8.182-3.315-15.587-8.677-20.947
						C399.222,74.052,391.815,70.737,383.635,70.737L383.635,70.737z M359.459,76.183c6.188-6.188,14.734-10.014,24.176-10.014
						s17.99,3.826,24.178,10.014s10.014,14.736,10.014,24.178s-3.826,17.988-10.014,24.176s-14.736,10.016-24.178,10.016
						s-17.988-3.828-24.176-10.016s-10.016-14.734-10.016-24.176S353.271,82.37,359.459,76.183z"/>
					<path fill-rule="evenodd" clip-rule="evenodd" fill="#BEDCE1" d="M395.576,80.158c0.743-1.015,2.17-1.234,3.185-0.49
						c1.015,0.743,1.234,2.17,0.49,3.185l-13.778,18.854c-0.164,0.224-0.36,0.409-0.578,0.554l-11.336,7.717
						c-1.039,0.709-2.457,0.441-3.167-0.598c-0.71-1.04-0.441-2.458,0.598-3.168l11.039-7.516L395.576,80.158z"/>
				</g>
			</g>
			<g>
				<g>
					<g>
						<polygon fill-rule="evenodd" clip-rule="evenodd" fill="#3C6F80" points="157.214,117.641 251.825,123.041 288.791,179.009 
							242.899,431.313 238.764,430.561 284.26,180.431 250.57,127.694 158.261,121.702 						"/>
						<circle fill-rule="evenodd" clip-rule="evenodd" fill="#3C6F80" cx="252.083" cy="126.092" r="5.449"/>
						<circle fill-rule="evenodd" clip-rule="evenodd" fill="#3C6F80" cx="286.874" cy="179.668" r="6.784"/>
					</g>
					<g>
						<circle fill-rule="evenodd" clip-rule="evenodd" fill="#3C6F80" cx="125.403" cy="111.62" r="18.239"/>
						<path fill-rule="evenodd" clip-rule="evenodd" fill="#3C6F80" d="M174.023,101.573c0.8,0.344,1.624,0.645,2.471,0.954
							c3.299,1.205,7.028,2.567,6.596,6.174c-0.729,6.088-10.745,33.146-10.773,33.224l0.003,0.002
							c-0.072,0.188-1.182,2.918-5.332,2.416c-4.365-0.527-4.568-2.043-4.569-2.047l-4.135,0.66
							c0.002,0.014,0.682,4.645,8.208,5.555c7.599,0.918,9.75-5.117,9.757-5.135l0.007-0.01
							c0.029-0.079,10.216-27.594,11.003-34.169c0.826-6.901-4.559-8.868-9.323-10.609c-0.807-0.294-1.592-0.581-2.259-0.868
							L174.023,101.573z"/>
						<path fill-rule="evenodd" clip-rule="evenodd" fill="#4C879A" d="M179.471,95.839c-16.236-6.656-39.833-14.501-39.833-14.501
							l-15.411,2.214l-13.676,48.703l10.958,13.705l40.58,4.058L179.471,95.839z"/>
						<polygon fill-rule="evenodd" clip-rule="evenodd" fill="#E0EDF0" points="173.969,99.774 141.751,89.798 127.354,141.301 
							159.284,144.578 						"/>
						<path fill-rule="evenodd" clip-rule="evenodd" fill="#3C6F80" d="M129.74,116.954c-3.542,13.012-6.083,22.346-7.904,29.039
							l-0.328-0.033l-10.958-13.705l5.443-19.383l1.134-4.039l7.099-25.281l15.201-2.184c-3.338,12.263-6.174,22.684-8.584,31.538
							C130.464,114.294,130.097,115.643,129.74,116.954z"/>
						<path fill-rule="evenodd" clip-rule="evenodd" fill="#FFFFFF" d="M135.453,126.845c10.581-1.113,21.514-3.751,32.672-9.24
							l3.868-11.801l1.608-4.908l0.368-1.121l-32.218-9.977l-2.713,9.706l-3.266,11.683l-1.258,4.498l-3.221,11.522
							C132.674,127.11,134.061,126.991,135.453,126.845z"/>
					</g>
				</g>
				<g>
					<path fill-rule="evenodd" clip-rule="evenodd" fill="#E2EFF1" d="M269.617,469.829c100.104,0,181.75-12.389,181.75-27.58
						c0-15.19-81.646-27.58-181.75-27.58c-100.105,0-181.752,12.39-181.752,27.58C87.865,457.44,169.512,469.829,269.617,469.829z"
						/>
					<path fill-rule="evenodd" clip-rule="evenodd" fill="#C2DBDF" d="M174.199,424.791c-11.121,1.779-17.794,14.234,9.341,25.8
						c27.135,11.566,72.954,11.566,94.75,6.229c21.798-5.338,10.677-6.229,37.367-11.566s9.342-11.565-11.566-12.011
						C283.185,432.798,174.199,424.791,174.199,424.791L174.199,424.791z M341.682,443.919c18.238-8.452,30.026-10.009,30.693-5.338
						c0.668,4.671-17.57,18.238-30.026,18.461C329.893,457.264,330.338,449.479,341.682,443.919z"/>
					<g>
						<g>
							<g>
								<path fill-rule="evenodd" clip-rule="evenodd" fill="#EDCBAB" d="M324.08,404.305c-0.401,0.38-0.064,15.5,0.51,24.333
									c1.315,20.237-43.135,8.889-31.887,3.168c6.697-3.406,17.715-6.091,17.715-6.091s-1.693-24.871,2.203-25.946
									C316.516,398.694,324.08,404.305,324.08,404.305z"/>
								<path fill-rule="evenodd" clip-rule="evenodd" fill="#4E1F00" d="M301.436,428.313c-0.07,0.118-2.025,2.585,2.082,2.868
									c5.814,0.401,18.579-1.505,21.091-2.777c-0.274,1.784,0.644,6.238,0.518,6.025c-0.126-0.212,1.249,5.618-19.545,8.449
									s-20.117-5.492-16.526-8.725c3.59-3.231,7.512-4.279,12.547-6.12C301.547,428.126,301.491,428.22,301.436,428.313z"/>
							</g>
							<g>
								<path fill-rule="evenodd" clip-rule="evenodd" fill="#EDCBAB" d="M361.056,407.051c-0.294,0.468,3.792,15.03,6.544,23.442
									c6.305,19.275-39.57,19.333-30.099,10.997c5.642-4.965,15.646-10.305,15.646-10.305s-7.823-23.669-4.317-25.679
									S361.056,407.051,361.056,407.051z"/>
								<path fill-rule="evenodd" clip-rule="evenodd" fill="#4E1F00" d="M345.091,435.936c-0.038,0.133-1.318,3.007,2.729,2.261
									c5.732-1.057,17.623-6.076,19.738-7.933c0.179,1.796,2.174,5.882,2,5.707c-0.175-0.174,2.606,5.131-16.831,13.043
									c-19.438,7.911-20.851-0.319-18.177-4.342c2.674-4.023,6.213-6.013,10.632-9.048
									C345.152,435.727,345.121,435.831,345.091,435.936z"/>
							</g>
							<path fill-rule="evenodd" clip-rule="evenodd" fill="#4C879A" d="M298.719,284.136c-4.395,64.87,11.42,136.686,11.42,136.686
								l15.277-0.671l3.035-141.476L298.719,284.136z"/>
							<path fill-rule="evenodd" clip-rule="evenodd" fill="#3C6F80" d="M297.949,308.062c0,7.343,0.198,14.652,0.547,21.815
								c11.186,6.691,18.102,7.792,18.102,7.792l6.469,82.585l2.35-0.104l2.42-112.818
								C319.097,301.426,305.881,298.416,297.949,308.062z"/>
							<path fill-rule="evenodd" clip-rule="evenodd" fill="#4C879A" d="M309.975,277.115
								c8.156,64.558,41.092,149.528,41.092,149.528l14.904-3.175L351.473,298.85L309.975,277.115z"/>
							<path fill-rule="evenodd" clip-rule="evenodd" fill="#EDCBAB" d="M223.712,204.345l-1.334-3.226
								c0,0-14.791-8.786-15.57-19.017c-0.778-10.232,8.674-11.344,13.123-6.451c4.448,4.894,7.506,7.785,7.506,7.785
								s1.668-4.062,3.88-5.973c0.733-0.635,2.12-1.131,2.737-1.033c2.397,0.377-0.652,5.709-0.287,8.459
								c0.474,3.57-0.162,6.472-0.166,8.334c-0.007,2.891,2.86,5.042,1.12,8.006C231.72,206.346,223.712,204.345,223.712,204.345z"
								/>
							<path fill-rule="evenodd" clip-rule="evenodd" fill="#BEDCE1" d="M303.404,201.453c-1.779,1.335-40.836,21.486-45.062,20.597
								c-4.226-0.891-22.731-27.937-22.731-27.937l-14.013,10.009c0,0,17.66,36.166,29.894,39.279
								c12.232,3.114,52.357-9.252,52.357-9.252L303.404,201.453z"/>
							<path fill-rule="evenodd" clip-rule="evenodd" fill="#E0EDF0" d="M302.625,201.93c-5.849,3.348-40.326,20.952-44.282,20.12
								c-4.226-0.891-22.731-27.937-22.731-27.937l-11.8,8.429c5.608,10.41,17.698,30.982,26.791,33.297
								c12.233,3.114,52.357-9.252,52.357-9.252L302.625,201.93z"/>
							<path fill-rule="evenodd" clip-rule="evenodd" fill="#4C879A" d="M296.555,204.567c-9.342,17.349-8.452,44.483-6.006,62.722
								c2.447,18.239,6.896,32.251,3.781,43.372c-3.113,11.121,7.563,17.349,30.249,20.908
								c22.687,3.559,44.929-16.904,48.043-22.242s-24.911-91.638-33.808-102.758C329.918,195.448,305.006,197.672,296.555,204.567z
								"/>
							<path fill-rule="evenodd" clip-rule="evenodd" fill="#3C6F80" d="M296.555,204.567c-0.919,1.705-1.737,3.508-2.466,5.385
								l0.687,0.621l-1.156,0.634c-1.12,3.104-2.007,6.401-2.693,9.815l5.184,11.348l26.246-17.794l-5.561-5.56l11.565-3.781
								c0,0-1.942-3.063-4.181-5.941C313.869,197.707,301.909,200.198,296.555,204.567z"/>
							<path fill-rule="evenodd" clip-rule="evenodd" fill="#3C6F80" d="M289.897,261.826c0.198,1.892,0.417,3.719,0.651,5.463
								c2.447,18.239,6.896,32.251,3.781,43.372c-1.721,6.145,0.771,10.795,7.171,14.328c-0.338-7.572-0.814-15.172-1.343-20.729
								c-0.665-6.99-2.433-6.775,3.439-8.407c4.629-1.286,12.275-3.515,17.869-8.215c6.375-5.355,8.582-17.021,8.52-17.836
								c-1.483-19.275-33.113-16.625-33.205-33.324c-0.096-17.56,4.394-30.113,4.131-30.539
								C296.795,199.261,290.246,225.563,289.897,261.826z"/>
							<path fill-rule="evenodd" clip-rule="evenodd" fill="#BEDCE1" d="M297.666,353.588l-14.68-14.012
								c0,0,3.337-27.58,3.337-74.733c0-37.809,6.8-65.766,11.03-58.904c0.263,0.426-4.227,12.979-4.131,30.539
								c0.111,20.357,1.148,44.351,3.377,67.782C298.166,320.729,299.278,355.127,297.666,353.588z"/>
							<path fill-rule="evenodd" clip-rule="evenodd" fill="#E0EDF0" d="M312.568,212.797c12.9,70.729,17.35,146.797,17.35,146.797
								l51.156-21.797c-6.841-28.149-22.551-104.827-41.17-131.422c-2.972-4.245-10.656-6.728-14.316-8.56
								c-10.934-5.471-9.905,3.859-9.905,3.859L312.568,212.797z"/>
							<path fill-rule="evenodd" clip-rule="evenodd" fill="#BEDCE1" d="M337.651,315.241c16.389-2.822,28.367-14.657,28.367-14.657
								s7.55,19.947,2.763,31.649c-3.434,8.393-17.166,14.353-24.383,4.133C342.132,333.158,339.93,325.738,337.651,315.241z"/>
							<path fill-rule="evenodd" clip-rule="evenodd" fill="#BEDCE1" d="M319.014,252.994c1.642,11.646,3.069,23.01,4.302,33.718
								c19.878-32.443,18.969-61.639,18.969-61.639S325.862,230.261,319.014,252.994z"/>
							<path fill-rule="evenodd" clip-rule="evenodd" fill="#7C7F80" d="M278.326,251.478c-0.043-13.741,2.278-22.25,5.094-26.007
								c1.373-1.832,2.938-2.696,4.528-2.641c1.601,0.06,3.074,1.039,4.259,2.894c2.361,3.699,3.787,11.479,2.555,22.739
								l-2.919-0.311c1.153-10.549-0.053-17.636-2.107-20.854c-0.636-0.996-1.286-1.517-1.884-1.537h-0.006
								c-0.611-0.022-1.325,0.459-2.08,1.467c-2.495,3.328-4.549,11.206-4.509,24.249H278.326z"/>
							<path fill-rule="evenodd" clip-rule="evenodd" fill="#7C7F80" d="M286.359,223.673c0.791-5.332,2.517-11.918,5.598-17.394
								c2.406-4.279,5.644-7.897,9.916-9.786c5.828-2.576,10.156-3.506,13.236-2.824c3.457,0.767,5.307,3.309,5.84,7.591
								c1.015,8.132-12.533,46.188-16.444,52.212l-2.46-1.598c2.355-3.627,8.44-22.132,12.395-32.939
								c2.45-6.694,4.11-13.151,3.591-17.318c-0.364-2.923-1.491-4.628-3.553-5.085c-2.439-0.54-6.175,0.332-11.421,2.651
								c-3.619,1.6-6.417,4.764-8.537,8.533c-2.881,5.122-4.504,11.336-5.252,16.383L286.359,223.673z"/>
							<path fill-rule="evenodd" clip-rule="evenodd" fill="#4C879A" d="M290.771,203.233l4.67,4.226l-6.895,3.781l8.23,18.016
								l26.244-17.793l-5.561-5.561l11.566-3.781c0,0-5.783-9.119-8.896-10.677c-3.495-1.747-9.889-1.509-16.332,1.811
								C298.342,196.065,290.516,203.002,290.771,203.233z"/>
							<path fill-rule="evenodd" clip-rule="evenodd" fill="#EDCBAB" d="M328.668,172.259c-2.531,8.342-5.134,15.701-6.926,20.541
								c-2.99,8.078-21.108,29.45-22.865,28.486c-1.81-0.993-0.588-7.508,0.146-11.146c1.836-9.086-5.008-16.669-9.575-25.216
								L328.668,172.259z"/>
							<path fill-rule="evenodd" clip-rule="evenodd" fill="#DF9D6D" d="M328.668,172.259c-2.531,8.342-5.134,15.701-6.926,20.541
								c-0.616,1.666-1.878,3.898-3.506,6.384c-4.441,2.239-11.744,3.472-19.54,3.368c-1.617-5.979-6.006-11.561-9.248-17.627
								L328.668,172.259z"/>
							<path fill-rule="evenodd" clip-rule="evenodd" fill="#4E1F00" d="M273.645,123.83c-5.115,1.112-9.342,3.781-7.34,22.909
								s2.002,19.128,2.002,19.128s13.79-36.477,13.79-37.812C282.097,126.722,277.871,121.606,273.645,123.83z"/>
							<path fill-rule="evenodd" clip-rule="evenodd" fill="#EDCBAB" d="M273.811,128.836
								c-4.321,20.743-19.513,59.099,11.126,66.475c14.311,3.444,31.944,1.37,36.694-3.975c7.117-8.007,7.563-8.675,7.563-8.675
								s12.455,2.225,17.127-7.562c4.67-9.786-4.449-10.454-9.119-8.007c-4.672,2.446,8.451-27.136,1.557-34.031
								C331.862,126.167,300.279,111.71,273.811,128.836z"/>
							<path fill-rule="evenodd" clip-rule="evenodd" fill="#DF9D6D" d="M286.627,167.017c4.671,0.333,9.676-0.223,10.231-1.391
								s0.723,3.28-3.059,5.004C290.02,172.354,287.572,168.406,286.627,167.017z"/>
							<path fill-rule="evenodd" clip-rule="evenodd" fill="#DF9D6D" d="M273.811,128.836c-0.169,0.813-0.408,1.753-0.698,2.797
								c6.845,5.806,24.538,9.017,36.7,8.14c13.9-1,13.9-1,13.9-1s-2.224,8.451,0.891,15.124c3.113,6.673,6.449,13.79,6.672,15.792
								c0.206,1.854,7.941-27.845,5.91-37.996C327.94,124.485,298.627,112.778,273.811,128.836z"/>
							<path fill-rule="evenodd" clip-rule="evenodd" fill="#DF9D6D" d="M334.943,174.362c2.67-2.781,7.674-5.561,9.564-2.559
								c1.891,3.003-7.896,7.674-9.564,7.563c-1.668-0.111,1.669-1.224,1.225-2.892
								C335.723,174.807,334.943,174.362,334.943,174.362z"/>
							<path fill-rule="evenodd" clip-rule="evenodd" fill="#6E412D" d="M275.368,95.028c-9.12,8.896-13.123,30.693,6.228,36.922
								c19.351,6.228,46.486,3.336,46.486,3.336s-4.672,12.232-1.113,18.461c3.56,6.228,4.672,22.465,4.672,22.465
								s17.57-16.682,21.574-33.141s-9.564-20.463-9.564-20.463s9.23-3.559,8.563-5.783s-7.673,2.447-7.673,2.447
								s2.446-6.896,0.333-8.342c-2.112-1.445-4.894,10.01-4.894,10.01c-3.218-15.59-14.712-23.229-30.469-21.889
								C293.258,100.434,273.457,110.045,275.368,95.028z"/>
							<path fill-rule="evenodd" clip-rule="evenodd" fill="#6E412D" d="M280.262,171.651c4.781,1.885,12.344,2.911,19.239,1.208
								c6.895-1.704,7.673-2.411,7.673-2.411s-1.038,5.482-3.207,10.602c-2.357,5.563-13.996,5.211-14.346,4.38
								c-1.854-4.392-0.686-10.536-0.686-10.536S280.039,172.966,280.262,171.651z"/>
							<path fill-rule="evenodd" clip-rule="evenodd" fill="#D68176" d="M304.295,180.251c-3.039,7.612-13.002,9.521-14.791,4.888
								C292.194,181.484,297.152,178.44,304.295,180.251z"/>
							<path fill-rule="evenodd" clip-rule="evenodd" fill="#6E412D" d="M289.36,168.849c-0.434-0.074-0.838-0.16-1.262-0.279
								c-0.981-0.289-1.776-0.624-2.484-1.391c-0.342-0.409-0.517-0.769-0.606-1.297c-0.07-0.574,0.012-1.006,0.211-1.545
								c0.486-1.194,3.241-8.027,4.539-8.166c0.032,0.189-2.883,7.795-3.16,8.663c-0.084,0.272-0.133,0.512-0.079,0.796
								c0.049,0.209,0.128,0.339,0.272,0.496c0.473,0.462,1.123,0.678,1.745,0.852c0.368,0.096,0.724,0.168,1.097,0.231
								c1.563,0.21,4.27-0.087,4.137,1.052C293.947,169.818,290.131,168.944,289.36,168.849z"/>
							<path fill-rule="evenodd" clip-rule="evenodd" fill="#6E412D" d="M280.775,146.854c1.963,0.385,3.01,2.934,2.34,5.695
								s-2.804,4.689-4.766,4.307c-1.963-0.384-3.011-2.934-2.341-5.695S278.813,146.472,280.775,146.854z"/>
							<path fill-rule="evenodd" clip-rule="evenodd" fill="#6E412D" d="M308.912,150.524c1.962,0.385,3.01,2.934,2.34,5.695
								s-2.805,4.689-4.767,4.307c-1.963-0.384-3.011-2.934-2.341-5.695S306.949,150.142,308.912,150.524z"/>
							<path fill-rule="evenodd" clip-rule="evenodd" fill="#6E412D" d="M303.894,141.624c-0.333,2.669,2.892,3.113,7.896,4.115
								c5.005,1,2.892-1.779-1.445-3.893S305.117,139.622,303.894,141.624z"/>
							<path fill-rule="evenodd" clip-rule="evenodd" fill="#6E412D" d="M285.303,138.374c0.27,2.709-2.334,2.764-6.372,3.157
								s-2.333-2.13,1.167-3.718C283.598,136.228,284.315,136.224,285.303,138.374z"/>
							<path fill-rule="evenodd" clip-rule="evenodd" fill="#6E412D" d="M343.93,171.762c-2.02-1.513-5.855,0.897-7.364,2.312
								c-0.463,0.434-0.763,0.716-0.956,0.9c3.279,0.736,0.193,4.356-1.467,4.239c0.271-0.415,2.017-2.176,1.742-2.823l-0.01-0.004
								c-0.008,0.008-0.004,0.004-0.012,0.012c-0.934-0.097-0.748-0.186-2.038,0.045l-0.43-1.646
								c2.189-2.44,3.684-3.826,7.112-4.312C341.115,170.398,344.438,170.255,343.93,171.762z"/>
							<path fill-rule="evenodd" clip-rule="evenodd" fill="#E0EDF0" d="M337.54,315.464c16.062-2.259,26.602-10.038,26.602-10.038
								s6.418,15.34,1.727,24.704c-3.364,6.717-15.842,12.109-22.915,3.931C340.732,331.493,339.773,323.865,337.54,315.464z"/>
							<path fill-rule="evenodd" clip-rule="evenodd" fill="#FFFFFF" d="M304.189,175.13c-5.017,1.148-9.196,1.653-13.898-0.092
								c5.791,0.34,8.899-0.512,14.126-2.185c0.614-0.096,1.181-0.942,1.333-0.314S304.805,175.034,304.189,175.13z"/>
							<path fill-rule="evenodd" clip-rule="evenodd" fill="#4C879A" d="M280.014,245.591c-2.172,0.047-3.955,2.413-3.982,5.287
								s1.712,5.167,3.884,5.121c2.172-0.047,3.954-2.414,3.981-5.287C283.924,247.838,282.186,245.545,280.014,245.591z"/>
							<path fill-rule="evenodd" clip-rule="evenodd" fill="#4C879A" d="M293.254,242.922c-2.172,0.046-3.981,2.413-4.041,5.287
								c-0.061,2.874,1.652,5.167,3.824,5.12c2.173-0.046,3.982-2.413,4.043-5.286C297.14,245.169,295.427,242.876,293.254,242.922z
								"/>
							<path fill-rule="evenodd" clip-rule="evenodd" fill="#BEDCE1" d="M279.992,247.797c-1.251,0.026-2.278,1.39-2.294,3.046
								s0.986,2.977,2.237,2.95c1.252-0.026,2.279-1.39,2.295-3.046S281.244,247.77,279.992,247.797z"/>
							<path fill-rule="evenodd" clip-rule="evenodd" fill="#BEDCE1" d="M293.174,245.128c-1.251,0.026-2.278,1.39-2.294,3.046
								s0.986,2.977,2.237,2.95c1.252-0.026,2.279-1.391,2.295-3.046C295.428,246.422,294.426,245.101,293.174,245.128z"/>
							<path fill-rule="evenodd" clip-rule="evenodd" fill="#FFFFFF" d="M345.266,329.019c-0.801-2.893-1.506-6.705-2.402-10.909
								c-0.24-1.127-0.494-2.282-0.767-3.456c-1.463,0.315-2.983,0.59-4.557,0.811c1.543,5.805,2.478,11.24,3.641,14.893
								c0.366,1.148,0.754,2.121,1.19,2.873c0.186,0.317,0.378,0.596,0.582,0.831c3.218,3.72,7.553,4.632,11.641,3.889
								c-2.695-0.376-5.297-1.72-7.415-4.392C346.43,332.613,345.824,331.04,345.266,329.019z"/>
							<path fill-rule="evenodd" clip-rule="evenodd" fill="#8A5A46" d="M282.908,103.351c6.785,7.131,21.866,11.828,30.129,13.625
								c10.231,2.224,26.69,3.113,26.69,3.113l-0.1-0.696c-0.36-1.44-0.796-2.808-1.303-4.101
								c-4.519-0.797-28.625-5.329-37.076-12.774c-0.75-0.66-1.44-1.272-2.077-1.839
								C293.123,101.909,287.297,103.325,282.908,103.351z"/>
							<circle fill-rule="evenodd" clip-rule="evenodd" fill="#FFFFFF" cx="281.51" cy="150.005" r="1.057"/>
							<circle fill-rule="evenodd" clip-rule="evenodd" fill="#FFFFFF" cx="309.646" cy="153.897" r="1.056"/>
							<path fill-rule="evenodd" clip-rule="evenodd" fill="#3C6F80" d="M348.093,351.85c2.153,18.699,5.837,37.837,9.469,54.021
								c1.514,6.745,3.019,12.979,4.398,18.452l3.484-0.742l0.526-0.112l-8.782-75.495L348.093,351.85z"/>
							<path fill-rule="evenodd" clip-rule="evenodd" fill="#4E1F00" d="M328.082,135.286c0,0-4.672,12.232-1.113,18.461
								c1.814,3.175,2.993,8.951,3.713,13.852c0.691,4.711,0.959,8.613,0.959,8.613s4.312-4.094,9.149-10.226
								c3.575-4.53,7.438-10.175,10.061-16.103c-4.424-0.665-7.829-2.365-10.448-4.553c-1.246-1.041-2.314-2.191-3.229-3.395
								c-3.927-5.155-5.047-11.254-5.348-13.644c-0.083-0.657-0.103-1.034-0.103-1.034s-0.762-0.021-2.125-0.092
								c-5.846-0.297-22.748-1.459-38.094-5.427c-0.609-0.157-1.216-0.319-1.819-0.486c-16.915-4.666-17.005-18.511-14.382-25.636
								c0.018-0.191,0.039-0.389,0.065-0.59c-6.799,6.633-10.755,20.437-4.308,29.612c0.945,1.346,2.113,2.592,3.53,3.701
								c1.73,1.354,3.83,2.507,6.343,3.386c0.218,0.076,0.438,0.15,0.662,0.223C300.946,138.178,328.082,135.286,328.082,135.286z"
								/>
						</g>
						<path fill-rule="evenodd" clip-rule="evenodd" fill="#DF9D6D" d="M223.567,185.874c-1.034,0.443-1.985,0.908-2.971,1.452
							c-1.175,0.661-2.219,1.327-3.292,2.145c-0.851,0.692-1.565,1.349-2.208,2.241c-0.134,0.203-0.791,1.307-1.048,1.298
							c-0.31-0.157,0.089-1.434,0.152-1.682c0.355-1.226,1.099-2.163,1.956-3.085c1.039-1.09,2.066-1.905,3.314-2.742
							c1.055-0.686,2.045-1.238,3.199-1.737c0.179-0.075,0.357-0.147,0.539-0.216c1.272-0.431,3.412-1.402,3.317,0.287
							c0.11,1.402-0.672,1.148-2.489,1.844C223.882,185.743,223.725,185.808,223.567,185.874z"/>
					</g>
					<g>
						<path fill-rule="evenodd" clip-rule="evenodd" fill="#3C6F80" d="M186.338,392.572c34.773-24.776,95.327-5.625,96.815,36.362
							c1.298,36.627-108.249,30.126-115.474-2.413C165.421,416.349,170.618,403.773,186.338,392.572z"/>
						<path fill-rule="evenodd" clip-rule="evenodd" fill="#4C879A" d="M158.099,217.29c-52.491,15.447-61.833,20.002-54.271,42.518
							c7.562,22.517,66.281-6.495,95.196-15.679c28.915-9.184,15.569-33.688,3.559-35.903S158.099,217.29,158.099,217.29z"/>
						<path fill-rule="evenodd" clip-rule="evenodd" fill="#3C6F80" d="M108.296,265.599c16.103,10.361,65.11-13.333,90.729-21.47
							c12.226-3.884,16.896-10.506,17.306-17.024c-2.174-1.952-4.651-3.308-7.075-3.754c-12.011-2.215-44.484,9.064-44.484,9.064
							C120.467,245.453,106.903,250.731,108.296,265.599z"/>
						<path fill-rule="evenodd" clip-rule="evenodd" fill="#7C7F80" d="M106.593,237.41c-6.142,5.548-6.227,12.091-2.765,22.397
							c1.763,5.249,6.308,7.695,12.606,8.247c4.19,0.366,5.931-3.488,6.385-7.021C123.665,254.469,114.934,229.877,106.593,237.41z"
							/>
						<g>
							<path fill-rule="evenodd" clip-rule="evenodd" fill="#EDCBAB" d="M296.006,378.959c4.041,8.621,4.849,12.932,4.849,12.932
								s-5.118,5.657,13.2,15.895c18.32,10.237,23.438,2.963,20.475-2.964c-2.963-5.927-18.857-18.05-18.857-18.05
								s-4.85-12.123-8.082-14.548C304.357,369.8,296.006,378.959,296.006,378.959z"/>
							<path fill-rule="evenodd" clip-rule="evenodd" fill="#8A5A46" d="M325.142,394.858c0.444,2.731-0.66,4.986-2.725,6.189
								c-6.851,3.995-16.603-6.891-22.019-10.931c0.585,2.004-2.172,1.755,0.697,6.983c1.444,2.632,4.977,6.224,12.959,10.685
								c18.32,10.237,23.438,2.964,20.475-2.964c-1.357-2.715-5.428-6.729-9.44-10.283
								C325.105,394.644,325.123,394.75,325.142,394.858z"/>
						</g>
						<g>
							<path fill-rule="evenodd" clip-rule="evenodd" fill="#EDCBAB" d="M265.713,400.695c4.041,8.621,4.85,12.932,4.85,12.932
								s-5.119,5.657,13.201,15.895c18.318,10.237,23.438,2.963,20.474-2.964c-2.963-5.927-18.858-18.05-18.858-18.05
								s-4.849-12.123-8.082-14.547C274.064,391.536,265.713,400.695,265.713,400.695z"/>
							<path fill-rule="evenodd" clip-rule="evenodd" fill="#8A5A46" d="M294.85,416.595c0.444,2.731-0.66,4.986-2.725,6.189
								c-6.852,3.995-16.604-6.891-22.018-10.931c0.551,1.891-2.512,2.093,1.106,7.668c1.661,2.559,5.239,5.914,12.55,10
								c18.318,10.237,23.438,2.963,20.474-2.964c-1.356-2.715-5.427-6.729-9.44-10.283
								C294.814,416.38,294.832,416.486,294.85,416.595z"/>
						</g>
						<g>
							<polygon fill-rule="evenodd" clip-rule="evenodd" fill="#FFFFFF" points="236.863,313.933 237.308,334.84 231.027,334.963 
								230.583,314.056 							"/>
							<polygon fill-rule="evenodd" clip-rule="evenodd" fill="#7C7F80" points="282.682,330.614 283.126,351.521 276.846,351.645 
								276.401,330.737 							"/>
						</g>
						<path fill-rule="evenodd" clip-rule="evenodd" fill="#477D8F" d="M223.428,300.262c-5.565,3.891-7.448,9.794,10.365,17.218
							c17.813,7.425,59.367,24.601,68.485,20.503c9.117-4.099,1.441-13.452-2.189-14.577
							C296.457,322.281,231.265,297.13,223.428,300.262z"/>
						<path fill-rule="evenodd" clip-rule="evenodd" fill="#999D9E" d="M221.023,309.559c1.918,2.393,5.862,5.042,12.769,7.921
							c16.127,6.723,51.712,21.436,65.069,21.118c4.817-0.115,0.998-4.448-4.316-6.482
							C276.539,325.226,230.392,309.634,221.023,309.559z"/>
						<path fill-rule="evenodd" clip-rule="evenodd" fill="#4C879A" d="M122.734,267.064c-5.338,4.448-7.563,7.117-2.669,25.801
							c4.893,18.684,25.801,71.175,38.256,78.736c12.456,7.563,76.958-20.907,81.406-33.362
							c4.449-12.456-32.473-92.972-43.594-98.31C185.012,234.591,122.734,267.064,122.734,267.064z"/>
						<path fill-rule="evenodd" clip-rule="evenodd" fill="#3C6F80" d="M196.638,364.625c20.097-7.88,40.646-19.547,43.089-26.386
							c1.219-3.414-0.673-11.947-4.288-22.639c-3.823-2.391-6.725-4.234-8.196-5.24c-8.452-5.783-14.68-8.897-19.128-20.463
							c-2.664-6.927,5.042-9.865,10.984-13.496c-5.475-11.345-11.133-21.697-15.776-28.504
							c-12.805,5.12-74.612,18.646-74.612,18.646c2.384,10.902,28.358,7.214,27.413,11.242
							c-3.039,12.952,3.051,34.397,10.177,51.703c9.341,22.687,4.003,25.801,25.356,33.362
							C193.228,363.407,194.896,363.999,196.638,364.625z"/>
						<path fill-rule="evenodd" clip-rule="evenodd" fill="#EDCBAB" d="M272.999,310.124c11.511,2.702,14.022,9.094,15.355,13.029
							c2.243,6.624-6.584,2.23-9.927,0.186c0.838,2.839,1.2,5.521-0.274,4.942c-3.114-1.223-5.338-6.339-7.896-8.341
							c-0.238-0.316-0.401-0.605-0.503-0.87l-0.03-0.007l0.009-0.05c-0.221-0.625-0.081-1.101,0.283-1.448
							C270.566,314.909,271.809,309.69,272.999,310.124z"/>
						<path fill-rule="evenodd" clip-rule="evenodd" fill="#7C7F80" d="M118.612,271.523c-1.909,3.492-1.826,8.821,1.453,21.342
							c4.893,18.684,25.801,71.175,38.256,78.736c2.556,1.552,7.307,1.585,13.278,0.552c0.023-0.11,0.047-0.22,0.068-0.33
							c2.225-11.565-28.025-71.174-36.699-90.524C132.523,275.845,124.328,261.069,118.612,271.523z"/>
						<path fill-rule="evenodd" clip-rule="evenodd" fill="#E5AE4D" d="M245.688,302.139l27.406,6.871l-2.703,15.817
							c0,0-35.969-7.192-41.247-9.937s-28.823-32.101-30.222-41.637c-0.523-3.567,2.152-4.978,3.648-5.28
							C223.357,263.779,245.098,301.991,245.688,302.139z"/>
						<path fill-rule="evenodd" clip-rule="evenodd" fill="#D09A4D" d="M271.321,319.382l-0.931,5.445
							c0,0-35.969-7.192-41.247-9.937c-5.149-2.677-27.681-30.681-30.077-40.9c0.947-0.496,1.79,2.209,2.28,1.991
							c13.892-6.196,40.65,33.525,41.226,33.72L271.321,319.382z"/>
						<path fill-rule="evenodd" clip-rule="evenodd" fill="#6E412D" d="M154.315,190.725c-5.748,5.133-16.424,13.345-20.119,34.08
							c-2.478,13.901-2.459,30.479-9.238,42.907c5.341,3.156,13.932,4.771,23.08,4.978c21.419,0.483,45.896-6.757,38.903-20.033
							L154.315,190.725z"/>
						<path fill-rule="evenodd" clip-rule="evenodd" fill="#623421" d="M132.813,270.783c4.494,1.157,9.76,1.783,15.225,1.906
							c21.419,0.483,45.896-6.757,38.903-20.033l-21.177-40.2c-6.978,16.472-12.216,25.42-17.813,28.618
							c0,0-1.557,2.002-4.894,12.456C140.846,260.461,135.898,267.097,132.813,270.783z"/>
						<path fill-rule="evenodd" clip-rule="evenodd" fill="#4C879A" d="M170.777,364.261c12.678-7.117,50.045-25.801,50.045-25.801
							l8.229-4.67c0,0,68.505,15.569,65.392,30.693c-3.113,15.125-42.928,42.482-48.043,42.927
							C241.285,407.855,169.666,376.05,170.777,364.261z"/>
						<path fill-rule="evenodd" clip-rule="evenodd" fill="#3C6F80" d="M181.472,358.519c16.045-8.405,39.35-20.059,39.35-20.059
							l8.229-4.67c0,0,68.505,15.569,65.392,30.693c-2.131,10.352-21.453,26.433-35.076,35.694
							c-4.906-5.682-9.985-13.027-16.916-17.439c-16.403-10.441-37.549-15.196-50.795-19.888
							C187.242,361.288,183.971,359.914,181.472,358.519z"/>
						<path fill-rule="evenodd" clip-rule="evenodd" fill="#7C7F80" d="M206.786,332.256c7.948,17.578,26.455,21.029,50.446,25.172
							c23.99,4.144,35.447,25.926,38.099,30.3c2.651,4.373,18.351-8.548,18.351-8.548s-17.705-28.56-33.288-39.72
							s-47.113-17.37-47.113-17.37L206.786,332.256z"/>
						<path fill-rule="evenodd" clip-rule="evenodd" fill="#6A6B6C" d="M210.396,338.404c9.226,12.333,25.952,15.417,46.836,19.023
							c23.99,4.144,35.447,25.926,38.099,30.3c1.259,2.075,5.455,0.255,9.519-2.229c-5.342-8.086-17.045-26.103-30.906-36.029
							s-47.559-8.918-47.559-8.918L210.396,338.404z"/>
						<path fill-rule="evenodd" clip-rule="evenodd" fill="#6A6B6C" d="M189.426,339.771c4.496,24.311,22.484,25.636,45.265,34.223
							c22.782,8.587,29.931,29.362,31.711,34.157c1.779,4.795,19.631-4.938,19.631-4.938c-15.026-39.269-28.922-55.339-68.21-71.21
							L189.426,339.771z"/>
						<path fill-rule="evenodd" clip-rule="evenodd" fill="#7C7F80" d="M276.106,407.778c4.957-1.855,9.927-4.565,9.927-4.565
							c-14.964-39.106-28.811-55.206-67.728-71.013l-5.568,1.194l-6.634-3.622c3.33,24.008,16.119,27.405,37.65,38.37
							C262.783,377.833,274.48,402.477,276.106,407.778z"/>
						<path fill-rule="evenodd" clip-rule="evenodd" fill="#E5AE4D" d="M187.681,342.465c1.374,3.108,19.859,0.988,25.992-0.043
							c17.679-2.975,32.175-13.024,29.162-19.085c-2.021-4.066-6.912-7.282-8.938-11.509c-11.126-23.217-25.167-45.036-40.21-44.959
							C158.038,267.055,184.37,334.972,187.681,342.465z"/>
						<path fill-rule="evenodd" clip-rule="evenodd" fill="#D09A4D" d="M187.681,342.465c1.374,3.108,19.859,0.988,25.992-0.043
							c17.679-2.975,32.175-13.024,29.162-19.085c-1.125-2.263-3.138-4.262-5.051-6.318c-12.751,7.441-30.825,8.077-23.553,4.129
							c32.415-17.596-1.787-3.574-9.787-7.34c-7.562-3.559-12.233-13.789-19.128-29.581c-4.08,4.563-7.283,9.188-9.714,13.791
							C177.505,317.032,185.904,338.444,187.681,342.465z"/>
						<path fill-rule="evenodd" clip-rule="evenodd" fill="#EDCBAB" d="M167.879,250.111c3.544,6.328,7.943,11.213,9.376,15.348
							c2.508,7.24,13.119,13.252,19.838,15.755c9.315,3.471,6.414-2.33,3.864-8.45c-2.999-7.2,2.335-16.016,5.404-24.896
							L167.879,250.111z"/>
						<path fill-rule="evenodd" clip-rule="evenodd" fill="#DF9D6D" d="M167.879,250.111c3.544,6.328,7.943,11.213,9.376,15.348
							c0.915,2.641,2.908,5.118,5.396,7.321c0.717,0.054,1.445,0.082,2.186,0.082c4.993,0,10.402-0.423,15.591-1.712
							c-1.696-6.884,3.09-15.055,5.933-23.283L167.879,250.111z"/>
						<path fill-rule="evenodd" clip-rule="evenodd" fill="#EDCBAB" d="M152.365,240.511c-2.749-2.062-6.329-2.238-8.707-0.388
							c-6.535,5.087-1.64,17.648,12.402,15.271c0,0,10.47,11.907,25.663,11.907c15.192,0,34.25-3.917,39.178-24.242
							c4.927-20.324-4.893-45.354-26.654-49.46C172.484,189.493,144.358,200.271,152.365,240.511z"/>
						<path fill-rule="evenodd" clip-rule="evenodd" fill="#DF9D6D" d="M214.75,255.522c2.758-3.242,4.906-7.328,6.15-12.463
							c4.927-20.324-4.893-45.354-26.654-49.46c-21.667-4.089-49.637,6.583-41.979,46.389c13.357-0.973,18.854-12.605,25.429-25.319
							c6.673-12.9,14.902-16.236,24.911-10.231c10.009,6.006,21.13,32.474,13.345,48.266
							C215.469,253.686,215.069,254.627,214.75,255.522z"/>
						<path fill-rule="evenodd" clip-rule="evenodd" fill="#8A5A46" d="M192.091,196.884c-13.755,5.954-18.477,11.702-21.352,20.735
							c-2.874,9.033-12.523,19.709-15.397,21.352c-2.874,1.643-2.874,1.643-2.874,1.643s-11.702-17.861-6.775-37.57
							s28.332-23.815,37.365-23.609c9.033,0.205,11.497,3.489,11.497,3.489s11.702-4.721,21.762,4.313
							c6.651,5.973,11.732,28.872,20.234,43.923c7.231,12.803,14.388,9.313,10.937,13.133c-8.644,9.567-17.66,14.942-33.776,12.301
							c0,0,8.37-9.067,5.702-26.723C216.887,213.158,206.677,198.202,192.091,196.884z"/>
						<path fill-rule="evenodd" clip-rule="evenodd" fill="#6E412D" d="M192.091,196.884c-13.755,5.954-18.477,11.702-21.352,20.735
							c-2.874,9.033-12.523,19.709-15.397,21.352c-2.874,1.643-2.874,1.643-2.874,1.643s-0.492-0.752-1.232-2.116
							c5.069-5.066,10.184-15.244,16.956-31.897c4.725-11.62,21.13-16.946,24.689-12.178c1.583,2.12,3.593-0.103,6.242-0.279
							c5.116-0.34,11.176,1.05,14.109,3.671c10.454,9.342,12.618,26.379,13.679,36.811c1.061,10.433,5.29,14.399,10.175,18.558
							c-6.133,3.606-13.392,5.047-23.374,3.41c0,0,8.37-9.067,5.702-26.723C216.887,213.158,206.677,198.202,192.091,196.884z"/>
						<path fill-rule="evenodd" clip-rule="evenodd" fill="#6E412D" d="M202.387,244.801c-4.363,1.319-11.264,1.624-17.555-0.507
							c-6.291-2.131-7.001-2.842-7.001-2.842s3.552,19.077,11.264,18.57c7.712-0.508,5.378-12.989,5.378-12.989
							S202.589,246.019,202.387,244.801z"/>
						<path fill-rule="evenodd" clip-rule="evenodd" fill="#D68176" d="M180.458,250.638c1.85,4.803,4.701,9.644,8.636,9.385
							c2.612-0.172,4.071-1.719,4.859-3.688C191.499,252.774,186.974,249.583,180.458,250.638z"/>
						<path fill-rule="evenodd" clip-rule="evenodd" fill="#6E412D" d="M201.917,220.856c-1.791,0.351-2.747,2.677-2.135,5.196
							c0.611,2.521,2.559,4.279,4.35,3.93c1.791-0.351,2.746-2.677,2.135-5.196C205.655,222.266,203.708,220.507,201.917,220.856z"
							/>
						<path fill-rule="evenodd" clip-rule="evenodd" fill="#6E412D" d="M176.347,225.524c-1.791,0.35-2.747,2.677-2.136,5.196
							s2.559,4.279,4.35,3.93c1.791-0.351,2.747-2.677,2.135-5.196C180.084,226.934,178.137,225.175,176.347,225.524z"/>
						<path fill-rule="evenodd" clip-rule="evenodd" fill="#6E412D" d="M180.823,216.084c0.305,2.435-2.638,2.841-7.204,3.754
							c-4.566,0.913-2.639-1.623,1.319-3.552C178.896,214.358,179.707,214.257,180.823,216.084z"/>
						<path fill-rule="evenodd" clip-rule="evenodd" fill="#6E412D" d="M198.396,214.336c-0.246,2.472,2.129,2.521,5.814,2.881
							s2.129-1.943-1.064-3.392C199.951,212.377,199.296,212.374,198.396,214.336z"/>
						<g>
							<polygon fill-rule="evenodd" clip-rule="evenodd" fill="#7C7F80" points="188.82,348.63 189.265,369.537 182.985,369.66 
								182.54,348.753 							"/>
							<polygon fill-rule="evenodd" clip-rule="evenodd" fill="#7C7F80" points="234.639,365.312 235.083,386.219 228.803,386.342 
								228.358,365.435 							"/>
						</g>
						<path fill-rule="evenodd" clip-rule="evenodd" fill="#7C7F80" d="M168.896,365.573c-3.171,3.714-4.744,9.396-1.233,14.258
							c4.739,6.561,50.993,23.575,70.727,28.039c14.321,3.238,24.2-12.29,4.196-20.493
							C229.835,382.147,174.71,358.766,168.896,365.573z"/>
						<path fill-rule="evenodd" clip-rule="evenodd" fill="#4C879A" d="M175.385,334.96c-5.565,3.89-7.448,9.793,10.365,17.218
							c17.813,7.424,59.367,24.601,68.485,20.502c9.117-4.098,1.441-13.452-2.189-14.576
							C248.415,356.979,183.223,331.827,175.385,334.96z"/>
						<path fill-rule="evenodd" clip-rule="evenodd" fill="#999D9E" d="M172.849,344.09c1.867,2.436,5.833,5.142,12.9,8.088
							c15.868,6.613,50.57,20.963,64.406,21.121c1.454,0.017,0.864-2.799-2.061-4.336c-15.154-7.961-58.413-22.959-72.263-27.018
							C173.903,341.381,170.677,341.254,172.849,344.09z"/>
						<path fill-rule="evenodd" clip-rule="evenodd" fill="#EDCBAB" d="M223.882,337.957c13.34,3.923,14.042,5.636,16.503,14.502
							c1.287,4.634-0.298,5.505-1.301,6.188c-1.444,0.985-3.115,0.241-5.327-1.477c-2.14-1.662-4.583-2.667-8.229-4.287
							c-2.06-0.915-5.595-2.936-6.985-3.139C218.544,349.745,222.326,337.29,223.882,337.957z"/>
						<path fill-rule="evenodd" clip-rule="evenodd" fill="#E5AE4D" d="M180.947,275.224c5.338,3.15,8.445,18.002,10.29,27.847
							s3.021,15.191,3.021,15.191l32.618,20.133l-5.331,13.266c0,0-39.08-13.105-43.738-16.806
							c-4.658-3.7-13.536-37.144-13.091-46.771C165.161,278.456,173.064,272.152,180.947,275.224z"/>
						<path fill-rule="evenodd" clip-rule="evenodd" fill="#999D9E" d="M123.169,279.609c-1.244,2.275-1.19,5.746,0.946,13.903
							c3.188,12.171,26.927,68.786,31.816,71.754c4.89,2.969,4.76,1.032,8.649,0.359c0.015-0.071-0.687,3.589,0.045-0.215
							c0.731-3.803-25.152-66.828-30.803-79.434C132.23,282.425,126.892,272.8,123.169,279.609z"/>
						<path fill-rule="evenodd" clip-rule="evenodd" fill="#7C7F80" d="M163.298,353.911c7.272,0,13.679,7.09,14.31,15.836
							c0.631,8.746-4.752,15.837-12.024,15.837c-7.272,0-13.679-7.091-14.31-15.837
							C150.642,361.001,156.025,353.911,163.298,353.911z"/>
						<path fill-rule="evenodd" clip-rule="evenodd" fill="#999D9E" d="M163.665,358.998c4.936,0,9.285,4.813,9.713,10.749
							c0.428,5.938-3.226,10.75-8.162,10.75s-9.285-4.813-9.713-10.75C155.074,363.811,158.729,358.998,163.665,358.998z"/>
						<g>
							<path fill-rule="evenodd" clip-rule="evenodd" fill="#FFFFFF" d="M181.926,244.32c5.737,2.754,5.088,1.585,10.556,2.943
								c-4.859,1.243-6.842,0.806-11.464-0.838c-0.582-0.251-0.849-0.926-0.599-1.507S181.345,244.069,181.926,244.32z"/>
						</g>
						<path fill-rule="evenodd" clip-rule="evenodd" fill="#DF9D6D" d="M153.365,247.315c-2.669-2.78-7.673-5.561-9.564-2.558
							s7.896,7.674,9.564,7.563c1.668-0.111-1.668-1.224-1.223-2.892S153.365,247.315,153.365,247.315z"/>
						<path fill-rule="evenodd" clip-rule="evenodd" fill="#6E412D" d="M144.38,244.715c2.02-1.513,5.855,0.898,7.364,2.312
							c0.463,0.435,0.762,0.717,0.955,0.901c-3.278,0.735-0.192,4.356,1.467,4.238c-0.27-0.414-2.017-2.176-1.742-2.823l0.009-0.003
							c0.009,0.008,0.005,0.004,0.013,0.012c0.933-0.097,0.749-0.186,2.038,0.045l0.43-1.647c-2.189-2.439-3.684-3.825-7.112-4.311
							C147.194,243.353,143.871,243.209,144.38,244.715z"/>
						<path fill-rule="evenodd" clip-rule="evenodd" fill="#DF9D6D" d="M187.205,238.969c4.671,0.334,9.676-0.223,10.231-1.39
							c0.556-1.168,0.723,3.28-3.058,5.004S188.15,240.358,187.205,238.969z"/>
						<g>
							<path fill-rule="evenodd" clip-rule="evenodd" fill="#935B47" d="M194.084,240.925c0.396-0.067,0.765-0.146,1.152-0.255
								c0.895-0.265,1.621-0.569,2.267-1.269c0.312-0.374,0.471-0.702,0.553-1.184c0.063-0.523-0.011-0.918-0.193-1.409
								c-0.444-1.091-2.957-7.325-4.141-7.452c-0.029,0.173,2.63,7.113,2.883,7.905c0.077,0.248,0.122,0.467,0.072,0.726
								c-0.044,0.191-0.116,0.31-0.248,0.453c-0.431,0.421-1.024,0.618-1.593,0.776c-0.335,0.088-0.659,0.153-1.001,0.212
								c-1.425,0.191-3.896-0.079-3.773,0.959C189.899,241.81,193.382,241.012,194.084,240.925z"/>
						</g>
						<circle fill-rule="evenodd" clip-rule="evenodd" fill="#FFFFFF" cx="204.552" cy="222.958" r="1.057"/>
						<circle fill-rule="evenodd" clip-rule="evenodd" fill="#FFFFFF" cx="178.584" cy="227.74" r="1.057"/>
						<path fill-rule="evenodd" clip-rule="evenodd" fill="#DF9D6D" d="M278.692,411.472c2.806-0.641,5.213-1.573,7.224-2.549
							c-0.345-0.269-0.537-0.415-0.537-0.415s-0.7-1.751-1.746-4.056c-1.821,0.908-4.461,2.154-7.136,3.179
							c-0.13,0.05-0.261,0.099-0.391,0.147c-2.461,0.922-4.919,1.633-6.764,1.696c0.333,0.959,0.581,1.752,0.765,2.379
							c0.198,0.148,0.402,0.306,0.612,0.471C273.664,412.349,276.32,412.015,278.692,411.472z"/>
						<path fill-rule="evenodd" clip-rule="evenodd" fill="#DF9D6D" d="M301.479,389.679c5.525-1.01,10.08-3.097,13.168-5.341
							c-0.527-1.21-1.222-2.749-2-4.332c-1.549,1.218-4.633,3.557-7.797,5.492c-1.249,0.764-2.51,1.465-3.695,2.009
							c-0.48,0.222-0.949,0.417-1.4,0.579c0.234,0.688,0.422,1.283,0.572,1.785C300.715,389.812,301.1,389.748,301.479,389.679z"/>
						<path fill-rule="evenodd" clip-rule="evenodd" fill="#DF9D6D" d="M227.197,349.572c-0.343-0.265-0.631-0.53-0.871-0.8
							c-1.768-1.989-0.845-4.215,0.871-8.238c0.186-0.436,0.381-0.892,0.583-1.372c-0.346-0.113-0.704-0.229-1.073-0.347
							l-0.678,1.688l-2.874,7.151l-0.317,0.79l0,0.002l-1.047,2.604c0.538,0.264,1.09,0.543,1.625,0.811
							c0.771,0.388,1.507,0.754,2.115,1.023c3.646,1.62,6.089,2.625,8.229,4.287c1.687,1.311,3.059,2.055,4.256,1.896
							c-1.42-2.971-2.291-4.773-7.188-7.411c-0.001-0.001-0.003-0.002-0.005-0.003c-0.389-0.209-0.803-0.424-1.244-0.645
							C228.594,350.517,227.809,350.045,227.197,349.572z"/>
						<path fill-rule="evenodd" clip-rule="evenodd" fill="#DF9D6D" d="M273.196,319.889c-0.205-2.941,0.179-6.132,0.705-9.54
							c-0.294-0.078-0.595-0.152-0.902-0.225c-0.03-0.011-0.062-0.019-0.092-0.022l-1.562,9.136l-0.251,1.472
							c1.042,1.086,2.05,2.58,3.112,3.973C273.623,323.169,273.313,321.569,273.196,319.889z"/>
						<path fill-rule="evenodd" clip-rule="evenodd" fill="#DF9D6D" d="M277.763,321.512c0.072,0.197,0.287,0.76,0.792,1.904
							c0.708,0.429,1.636,0.947,2.643,1.443c2.931,1.445,6.532,2.699,7.348,0.973c-0.584-0.379-1.162-0.728-1.73-1.046
							c-2.021-1.135-3.912-1.903-5.439-2.416c-2.197-0.737-3.643-0.943-3.643-0.943S277.741,321.453,277.763,321.512z"/>
						<path fill-rule="evenodd" clip-rule="evenodd" fill="#D09A4D" d="M209.55,342.668c-4.037-1.732-8.076-3.521-11.737-5.19
							c-6.679-3.047-12.098-5.696-13.942-6.877c-0.304-0.195-0.616-0.482-0.934-0.854c0-0.001-0.001-0.002-0.002-0.003
							c-5.14-6.031-11.817-34.297-13.846-52.012c-2.497,2.435-4.175,6.063-4.373,10.352c-0.439,9.502,8.202,42.197,12.906,46.61
							c0.063,0.059,0.125,0.112,0.186,0.161c1.129,0.896,4.282,2.347,8.411,4.028c1.04,0.424,2.141,0.862,3.288,1.31
							c3.123,1.221,6.581,2.512,10.036,3.77c2.039,0.743,4.078,1.475,6.045,2.174c2.731,0.971,5.327,1.878,7.601,2.666
							c4.937,1.711,8.357,2.858,8.357,2.858l0.245-0.61l1.047-2.604l0-0.002l0.11-0.274c-0.768-0.297-1.557-0.606-2.363-0.928
							c-0.004-0.001-0.008-0.003-0.013-0.005c-0.356-0.142-0.717-0.285-1.08-0.431c-1.992-0.8-4.074-1.657-6.19-2.546
							c-0.724-0.304-1.453-0.612-2.183-0.923c-0.313-0.133-0.626-0.267-0.939-0.4C209.971,342.848,209.761,342.758,209.55,342.668z"
							/>
						<path fill-rule="evenodd" clip-rule="evenodd" fill="#999D9E" d="M178.884,371.472c-1.896,2.22-2.836,5.617-0.737,8.523
							c2.833,3.923,47.391,20.323,59.189,22.991c8.562,1.937,14.468-7.347,2.508-12.252
							C232.221,387.608,182.359,367.401,178.884,371.472z"/>
						<path fill-rule="evenodd" clip-rule="evenodd" fill="#999D9E" d="M104.734,246.507c-0.81,3.021-0.229,6.612,1.322,11.233
							c1.294,3.852,4.63,5.647,9.252,6.052c7.123,0.623,2.731-13.355,0.326-16.926C111.769,241.128,106.787,238.852,104.734,246.507
							z"/>
						<path fill-rule="evenodd" clip-rule="evenodd" fill="#4C879A" d="M190.211,397.214c-11.121,7.117-24.466,27.58-2.225,41.814
							c22.242,14.235,52.046,12.456,64.057,2.225c12.012-10.231-7.117-27.136-19.127-31.584
							C220.905,405.221,190.211,397.214,190.211,397.214z"/>
					</g>
					<g>
						<path fill-rule="evenodd" clip-rule="evenodd" fill="#7C7F80" d="M201.473,258.499c40.258,15.458,44.039,19.685,42.371,20.574
							s-42.927-18.795-42.927-18.795c-1.887,0.354-4.501,0.57-6.662-0.303c-1.987-0.804-3.661-2.563-2.522-5.23
							C193.43,250.771,201.665,252.355,201.473,258.499z"/>
						<path fill-rule="evenodd" clip-rule="evenodd" fill="#9DA0A0" d="M192.78,255.502c-0.204,1.426,1.149,2.864,3.022,3.212
							c1.873,0.349,3.556-0.524,3.76-1.95s-1.149-2.863-3.022-3.212C194.667,253.204,192.983,254.077,192.78,255.502z"/>
						<g>
							<g>
								<path fill-rule="evenodd" clip-rule="evenodd" fill="#EDCBAB" d="M250.403,271.403c-3.559,0.667-2.001,0-2.001,0
									s-13.346-6.45-16.682-7.34c-3.336-0.89-23.799,10.898-23.354,13.122c0.445,2.225,1.335,2.892,5.116,1.558
									c3.781-1.335,7.118-2.002,7.118-2.002s6.895,11.565,10.454,12.678c3.559,1.112,24.021-4.448,24.021-4.448L250.403,271.403z"
									/>
								<path fill-rule="evenodd" clip-rule="evenodd" fill="#DF9D6D" d="M247.707,281.777c-0.317,1.371-7.54,2.843-11.793,2.896
									c-0.23,0.002-0.452,0.001-0.663-0.005c-4.115-0.11-11.899-8.563-11.899-8.563s-0.298,0.06-1.142,0.287c0,0,0,0,0,0
									c-0.393,0.105-0.903,0.248-1.557,0.438c0.046,0.076,0.121,0.2,0.222,0.365c0.764,1.245,3.004,4.818,5.364,7.797
									c1.716,2.164,3.494,4.015,4.814,4.427c1.228,0.384,4.467-0.026,8.184-0.729c3.605-0.681,7.66-1.637,10.764-2.409
									l-1.511-11.129C248.236,277.737,247.898,280.947,247.707,281.777z"/>
							</g>
							<path fill-rule="evenodd" clip-rule="evenodd" fill="#E0EDF0" d="M328.879,210.351c-12.208,3.59-20.547,33.031-30.965,44.263
								c-0.961,1.035-44.726,14.103-50.07,15.79l2.447,18.017c0,0,52.269-4.004,59.164-7.118
								c6.895-3.113,32.992-38.033,35.438-50.044S339.556,209.016,328.879,210.351z"/>
							<path fill-rule="evenodd" clip-rule="evenodd" fill="#BEDCE1" d="M253.266,284.174c3.913-1.228,16.398-2.106,20.912-2.533
								c4.792-0.453,30.614-2.563,32.062-3.097c6.051-2.227,16.365-17.774,21.812-23.047l-0.006,0.006
								c0.415-0.378,0.191-0.206,0.672-0.516c-0.16,0.36-0.167,0.433-0.407,0.743c-4.775,6.158-14.573,22.173-21.245,24.862
								c-2.176,0.877-26.244,3.391-31.473,4.009c-1.541,0.182-20.383,2.625-20.445,2.587c-0.832,0.52-1.928,0.266-2.447-0.566
								C252.18,285.789,252.434,284.693,253.266,284.174z"/>
						</g>
					</g>
				</g>
			</g>
		</g>
	</g>
</g>
</svg>
