<?xml version="1.0" encoding="UTF-8"?>
<!DOCTYPE svg PUBLIC "-//W3C//DTD SVG 1.1//EN" "http://www.w3.org/Graphics/SVG/1.1/DTD/svg11.dtd">
<!-- Creator: CorelDRAW X8 -->
<svg xmlns="http://www.w3.org/2000/svg" xml:space="preserve" width="1.11111in" height="1.11111in" version="1.1" style="shape-rendering:geometricPrecision; text-rendering:geometricPrecision; image-rendering:optimizeQuality; fill-rule:evenodd; clip-rule:evenodd"
viewBox="0 0 160 160"
 xmlns:xlink="http://www.w3.org/1999/xlink">
 <defs>
  <style type="text/css">
   <![CDATA[
    .fil1 {fill:#1A161A;fill-rule:nonzero}
    .fil0 {fill:white;fill-rule:nonzero}
   ]]>
  </style>
 </defs>
 <g id="Layer_x0020_1">
  <metadata id="CorelCorpID_0Corel-Layer"/>
  <g id="_2324002103072">
   <g>
    <path class="fil0" d="M160 80c0,44 -36,80 -80,80 -44,0 -80,-36 -80,-80 0,-44 36,-80 80,-80 44,0 80,36 80,80z"/>
   </g>
   <g>
    <g>
     <path class="fil1" d="M111 96c0,0 -1,0 -1,1 -4,24 -8,33 -11,33 -4,0 -13,-7 -14,-27 0,-4 -3,-7 -5,-8 -1,0 -3,0 -4,0 -2,1 -6,4 -6,8 0,20 -9,27 -13,27 -4,0 -9,-16 -11,-37 -1,-2 -1,-3 -2,-4 -3,-4 -17,-25 -5,-40 11,-14 21,-9 33,-4 0,0 1,0 1,-1 1,-1 0,-2 0,-2 -11,-5 -24,-11 -36,5 -13,16 1,38 5,44 0,1 1,1 1,2 2,15 6,40 14,40 5,0 16,-7 16,-29 0,0 0,0 0,-1 0,-3 2,-4 4,-5 1,0 1,0 2,0 2,1 4,2 4,5 0,1 0,1 0,1 0,22 11,29 16,29 6,0 10,-12 14,-36 0,0 -1,-1 -2,-1z"/>
    </g>
    <g>
     <path class="fil1" d="M127 51c0,0 0,0 0,0 0,0 0,0 0,0 0,0 0,0 0,0 0,-1 0,-1 0,-1l-13 -13c0,0 -1,0 -1,0 0,0 0,0 0,0 0,0 0,0 0,0 0,0 0,0 0,0l-26 0c0,0 0,0 0,0 0,0 0,0 -1,0 0,0 0,0 0,0 0,0 0,0 0,0l-13 13c0,0 0,0 0,1 0,0 0,0 0,0 0,0 0,0 0,0 0,0 0,0 0,0l0 26c0,0 0,0 0,0 0,0 0,0 0,0 0,0 0,1 0,1 0,0 0,0 0,0l13 13c0,0 0,0 0,0 1,0 1,0 1,0l26 0c0,0 0,0 0,0 0,0 1,0 1,0l13 -13c0,0 0,0 0,0 0,0 0,-1 0,-1 0,0 0,0 0,0 0,0 0,0 0,0l0 -26zm-34 30l0 0 14 0 3 7 -21 0 4 -7zm14 -3l0 0 -15 0 -6 -7 0 -14 6 -7 15 0 4 3 3 4 0 14 -3 4 -4 3zm-31 -3l0 0 0 -22 7 4 0 14 -7 4zm31 -28l0 0 -14 0 -4 -7 21 0 -3 7zm10 10l0 0 7 -4 0 22 -7 -4 0 -14zm6 -6l0 0 -8 3 -2 -3 -3 -3 3 -7 10 10zm-36 -10l0 0 3 7 -6 6 -7 -3 10 -10zm-10 36l0 0 7 -3 6 6 -3 7 -10 -10zm36 10l0 0 -3 -7 3 -3 2 -3 8 3 -10 10z"/>
    </g>
   </g>
  </g>
 </g>
</svg>
