<?xml version="1.0" encoding="UTF-8"?>
<!DOCTYPE svg PUBLIC "-//W3C//DTD SVG 1.1//EN" "http://www.w3.org/Graphics/SVG/1.1/DTD/svg11.dtd">
<!-- Creator: CorelDRAW X8 -->
<svg xmlns="http://www.w3.org/2000/svg" xml:space="preserve" width="1.11111in" height="1.11111in" version="1.1" style="shape-rendering:geometricPrecision; text-rendering:geometricPrecision; image-rendering:optimizeQuality; fill-rule:evenodd; clip-rule:evenodd"
viewBox="0 0 1118 1118"
 xmlns:xlink="http://www.w3.org/1999/xlink">
 <defs>
  <style type="text/css">
   <![CDATA[
    .fil1 {fill:#1A161A;fill-rule:nonzero}
    .fil0 {fill:white;fill-rule:nonzero}
   ]]>
  </style>
 </defs>
 <g id="Layer_x0020_1">
  <metadata id="CorelCorpID_0Corel-Layer"/>
  <g id="_2324002079872">
   <g>
    <path class="fil0" d="M1118 559c0,308 -251,559 -559,559 -309,0 -559,-251 -559,-559 0,-309 250,-559 559,-559 308,0 559,250 559,559z"/>
   </g>
   <g>
    <g>
     <path class="fil1" d="M648 723c-6,-1 -11,3 -12,8 -18,108 -40,137 -50,137 -19,0 -63,-34 -66,-134 0,-26 -18,-39 -28,-44 -9,-5 -18,-5 -27,0 -10,5 -28,18 -28,44 -3,100 -47,134 -66,134 -17,0 -43,-67 -58,-190 -1,-7 -3,-13 -7,-18 -15,-22 -87,-132 -28,-208 56,-70 108,-47 168,-20 7,3 14,7 21,10 5,2 11,0 13,-6 3,-5 0,-11 -5,-13 -7,-3 -14,-6 -21,-9 -62,-28 -126,-58 -192,26 -66,84 4,198 27,231 2,3 3,6 4,9 11,95 34,208 78,208 31,0 83,-41 86,-153 0,0 0,-1 0,-1 0,-11 6,-20 18,-26 2,-2 5,-2 7,0 12,6 18,15 18,26 0,0 0,1 0,1 3,112 54,153 86,153 19,0 46,-16 70,-153 1,-6 -3,-11 -8,-12z"/>
    </g>
    <g>
     <path class="fil1" d="M901 306c-3,-2 -7,-2 -10,-1 -1,1 -83,33 -178,-52 -4,-3 -10,-3 -13,0 -95,84 -175,54 -178,52 -4,-1 -7,-1 -10,1 -3,2 -4,5 -4,9l0 119c0,226 194,283 196,284 0,0 1,0 2,0 1,0 2,0 3,0 2,-1 196,-58 196,-284l0 -119c0,-4 -2,-7 -4,-9zm-16 128l0 0c0,199 -155,256 -179,263 -23,-7 -178,-64 -178,-263l0 -106c29,7 99,13 178,-54 80,67 150,61 179,54l0 106z"/>
    </g>
    <g>
     <path class="fil1" d="M832 410c-4,-1 -8,0 -11,3l-178 177c-2,2 -3,5 -3,8 0,3 2,6 4,7 30,25 58,33 60,33 0,0 1,1 2,1 1,0 2,-1 3,-1 1,0 129,-37 129,-186l0 -32c0,-4 -2,-8 -6,-10zm-14 42l0 0c0,123 -94,160 -112,166 -6,-2 -22,-9 -40,-22l152 -152 0 8z"/>
    </g>
    <g>
     <path class="fil1" d="M793 375c-1,-4 -4,-6 -8,-7 -25,-3 -49,-15 -72,-36 -4,-3 -10,-3 -13,0 -60,53 -110,34 -112,34 -3,-2 -6,-1 -9,0 -3,2 -5,6 -5,9l0 77c0,39 10,74 27,105 2,2 5,4 8,5 0,0 1,0 1,0 3,0 5,-1 7,-3l173 -174c3,-2 4,-6 3,-10zm-180 160l0 0c-12,-25 -18,-53 -18,-83l0 -64c21,4 64,4 111,-35 18,15 37,25 57,31l-150 151z"/>
    </g>
   </g>
  </g>
 </g>
</svg>
