<?xml version="1.0" encoding="UTF-8"?>
<!DOCTYPE svg PUBLIC "-//W3C//DTD SVG 1.1//EN" "http://www.w3.org/Graphics/SVG/1.1/DTD/svg11.dtd">
<!-- Creator: CorelDRAW X8 -->
<svg xmlns="http://www.w3.org/2000/svg" xml:space="preserve" width="1.11111in" height="1.11111in" version="1.1" style="shape-rendering:geometricPrecision; text-rendering:geometricPrecision; image-rendering:optimizeQuality; fill-rule:evenodd; clip-rule:evenodd"
viewBox="0 0 556 556"
 xmlns:xlink="http://www.w3.org/1999/xlink">
 <defs>
  <style type="text/css">
   <![CDATA[
    .fil1 {fill:#1A161A;fill-rule:nonzero}
    .fil0 {fill:white;fill-rule:nonzero}
   ]]>
  </style>
 </defs>
 <g id="Layer_x0020_1">
  <metadata id="CorelCorpID_0Corel-Layer"/>
  <g id="_2324002121536">
   <g>
    <path class="fil0" d="M556 278c0,153 -125,278 -278,278 -154,0 -278,-125 -278,-278 0,-154 124,-278 278,-278 153,0 278,124 278,278z"/>
   </g>
   <g>
    <g>
     <path class="fil1" d="M178 325c1,3 3,4 5,4 1,0 1,0 1,0 3,0 5,-2 4,-5 0,-4 -1,-8 -3,-11 -9,-13 -50,-84 -16,-132 32,-45 61,-30 95,-13 2,1 4,2 6,3 -9,4 -18,6 -28,6 -2,0 -5,2 -5,5 0,3 3,5 5,5 15,0 29,-5 42,-11 0,0 0,0 0,0 6,-2 11,-5 16,-8 9,-4 18,-9 27,-12 2,-1 4,-4 3,-6 -1,-3 -4,-4 -7,-3 -9,3 -18,8 -27,12 -5,3 -9,5 -14,7 -4,-2 -9,-4 -13,-7 -35,-17 -71,-36 -108,16 -37,52 2,123 15,144 1,1 2,4 2,6z"/>
    </g>
    <g>
     <path class="fil1" d="M411 203c-3,0 -5,3 -4,6 8,43 -19,91 -27,104 -2,3 -4,7 -4,11 -9,79 -23,120 -33,120 -11,0 -36,-21 -38,-85 0,-15 -10,-23 -16,-27 -4,-2 -10,-2 -14,0 -6,4 -16,12 -16,27 -1,64 -26,85 -37,85 -2,0 -8,-1 -16,-26 -1,-3 -4,-5 -7,-4 -2,1 -4,4 -3,7 7,23 16,33 26,33 17,0 46,-25 47,-95 0,0 0,0 0,0 0,-10 6,-15 11,-18 1,-1 3,-1 4,0 5,3 11,8 11,18 0,0 0,0 0,0l0 0c0,0 0,0 0,0 2,70 30,95 48,95 24,0 36,-70 43,-129 0,-2 1,-5 2,-6 9,-15 38,-66 29,-112 -1,-3 -4,-5 -6,-4z"/>
    </g>
    <g>
     <path class="fil1" d="M432 151c-2,-2 -5,-2 -7,0l-8 8 -30 -36c-1,-1 -2,-2 -3,-2 -2,0 -3,1 -4,2l-34 33 0 0c0,0 0,0 0,0l-34 34 0 0c0,0 0,0 0,0l-17 17c-1,1 -1,3 -1,4 0,2 0,3 1,4l37 30 -11 11c-48,0 -162,113 -209,162 -8,9 -8,22 0,30 4,4 10,6 15,6 6,0 12,-2 16,-6l183 -184c1,0 1,0 1,0l105 -105c2,-2 2,-6 0,-8zm-297 290l0 0c-4,4 -11,4 -16,0 -4,-4 -4,-11 0,-16 67,-70 148,-143 190,-157l-174 173zm171 -231l0 0 10 -9 15 15c1,1 2,1 3,1 1,0 3,0 4,-1 2,-2 2,-5 0,-7l-15 -15 10 -10 14 15c1,1 3,2 4,2 1,0 3,-1 4,-2 2,-2 2,-5 0,-7l-15 -15 9 -10 15 15c1,1 3,2 4,2 1,0 3,-1 4,-2 2,-2 2,-5 0,-7l-15 -15 9 -10 15 15c1,1 3,2 4,2 1,0 3,-1 4,-2 1,-2 1,-5 0,-7l-15 -15 9 -9 27 32 -49 50 -22 22 -33 -28z"/>
    </g>
   </g>
  </g>
 </g>
</svg>
