<?xml version="1.0" encoding="UTF-8"?>
<!DOCTYPE svg PUBLIC "-//W3C//DTD SVG 1.1//EN" "http://www.w3.org/Graphics/SVG/1.1/DTD/svg11.dtd">
<!-- Creator: CorelDRAW X8 -->
<svg xmlns="http://www.w3.org/2000/svg" xml:space="preserve" width="1.11111in" height="1.11111in" version="1.1" style="shape-rendering:geometricPrecision; text-rendering:geometricPrecision; image-rendering:optimizeQuality; fill-rule:evenodd; clip-rule:evenodd"
viewBox="0 0 280 280"
 xmlns:xlink="http://www.w3.org/1999/xlink">
 <defs>
  <style type="text/css">
   <![CDATA[
    .fil1 {fill:#1A161A;fill-rule:nonzero}
    .fil0 {fill:white;fill-rule:nonzero}
   ]]>
  </style>
 </defs>
 <g id="Layer_x0020_1">
  <metadata id="CorelCorpID_0Corel-Layer"/>
  <g id="_2324002094816">
   <g>
    <path class="fil0" d="M280 140c0,78 -62,140 -140,140 -77,0 -140,-62 -140,-140 0,-77 63,-140 140,-140 78,0 140,63 140,140z"/>
   </g>
   <g>
    <g>
     <path class="fil1" d="M204 85c-19,-25 -39,-17 -57,-8 -3,1 -5,2 -8,3 -2,-1 -5,-2 -7,-3 -19,-9 -39,-17 -58,8 -20,25 1,59 8,69 1,1 1,2 1,3 3,24 10,63 23,63 2,0 3,-1 3,-2 0,-2 -1,-3 -3,-3 -6,0 -14,-25 -18,-58 0,-2 -1,-4 -2,-6 -4,-6 -27,-40 -8,-63 17,-22 33,-15 51,-7 1,1 2,1 3,2 -5,1 -9,3 -14,3 -2,0 -3,1 -3,2 0,1 1,3 3,3 7,0 15,-3 22,-6 0,0 0,0 0,0 3,-1 6,-2 9,-4 18,-8 34,-15 51,7 19,23 -3,57 -8,63 -1,2 -2,4 -2,6 -4,33 -12,58 -18,58 -2,0 -3,1 -3,3 0,1 1,2 3,2 13,0 20,-39 23,-63 0,-1 1,-2 1,-3 7,-10 28,-44 8,-69z"/>
    </g>
    <g>
     <path class="fil1" d="M173 149l0 -7c0,-5 -3,-8 -7,-8l-54 0c-4,0 -7,3 -7,8l0 7c0,4 3,8 7,8l2 0 8 65c1,8 9,14 17,14 9,0 16,-6 17,-14l0 0 8 -65 2 0c4,0 7,-4 7,-8zm-63 0l0 0 0 -7c0,-2 1,-3 2,-3l54 0c1,0 2,1 2,3l0 7c0,2 -1,3 -2,3l-4 0 -46 0 -4 0c-1,0 -2,-1 -2,-3zm41 72l0 0 0 0c-1,6 -6,10 -12,10 -6,0 -11,-4 -12,-10l-8 -64 40 0 -8 64z"/>
    </g>
    <g>
     <path class="fil1" d="M124 174c1,1 2,2 3,2 0,0 0,-1 1,-1l25 -8c1,0 2,-2 1,-3 0,-2 -2,-2 -3,-2l-25 9c-1,0 -2,1 -2,3z"/>
    </g>
    <g>
     <path class="fil1" d="M149 176l-20 6c-2,1 -2,2 -2,4 0,1 1,1 3,1 0,0 0,0 0,0l20 -6c2,-1 2,-2 2,-4 -1,-1 -2,-2 -3,-1z"/>
    </g>
    <g>
     <path class="fil1" d="M146 189l-16 6c-1,0 -2,2 -1,3 0,1 1,2 2,2 0,0 1,0 1,-1l16 -5c1,0 2,-2 2,-3 -1,-2 -2,-2 -4,-2z"/>
    </g>
    <g>
     <path class="fil1" d="M145 203l-12 3c-1,1 -2,2 -2,4 1,1 2,1 3,1 0,0 0,0 1,0l11 -4c2,0 2,-2 2,-3 -1,-1 -2,-2 -3,-1z"/>
    </g>
    <g>
     <path class="fil1" d="M143 216l-8 2c-1,1 -2,2 -1,4 0,1 1,1 2,1 0,0 1,0 1,0l7 -2c2,-1 2,-2 2,-3 -1,-2 -2,-3 -3,-2z"/>
    </g>
   </g>
  </g>
 </g>
</svg>
