<?xml version="1.0" encoding="UTF-8"?>
<!DOCTYPE svg PUBLIC "-//W3C//DTD SVG 1.1//EN" "http://www.w3.org/Graphics/SVG/1.1/DTD/svg11.dtd">
<!-- Creator: CorelDRAW X8 -->
<svg xmlns="http://www.w3.org/2000/svg" xml:space="preserve" width="1.13581in" height="1.13581in" version="1.1" style="shape-rendering:geometricPrecision; text-rendering:geometricPrecision; image-rendering:optimizeQuality; fill-rule:evenodd; clip-rule:evenodd"
viewBox="0 0 1774 1774"
 xmlns:xlink="http://www.w3.org/1999/xlink">
 <defs>
  <style type="text/css">
   <![CDATA[
    .fil0 {fill:#FEFEFE}
    .fil1 {fill:black;fill-rule:nonzero}
   ]]>
  </style>
 </defs>
 <g id="Layer_x0020_1">
  <metadata id="CorelCorpID_0Corel-Layer"/>
  <g id="_2255042849424">
   <circle class="fil0" cx="887" cy="887" r="887"/>
   <g>
    <path class="fil1" d="M1001 510c-1,0 -3,0 -4,0 -76,-21 -120,-62 -122,-64 -7,-6 -7,-17 -1,-24 7,-7 18,-8 25,-1 1,1 40,37 107,55 9,3 15,12 12,21 -2,8 -9,13 -17,13z"/>
    <path class="fil1" d="M1263 762c-1,0 -1,0 -2,0 -9,0 -16,-9 -16,-18 4,-57 4,-93 4,-93 0,-139 -99,-252 -221,-252 -47,0 -92,16 -130,48 -6,6 -16,6 -22,0 -38,-32 -83,-48 -130,-48 -122,0 -222,113 -222,252 0,0 0,34 4,88 1,9 -6,18 -16,19 -9,0 -18,-7 -19,-17 -4,-55 -4,-89 -4,-90 0,-159 115,-287 257,-287 50,0 99,16 141,47 42,-31 91,-47 141,-47 141,0 256,128 256,287 0,1 0,37 -4,95 -1,9 -8,16 -17,16z"/>
    <path class="fil1" d="M1066 1410c-6,0 -12,-1 -19,-3 -34,-9 -57,-42 -57,-80l0 -107c0,-66 -46,-119 -103,-119 -57,0 -103,53 -103,119l0 107c0,38 -23,71 -57,80 -32,9 -64,-4 -82,-33 -85,-138 -123,-318 -140,-445 -1,-5 1,-10 4,-14 4,-3 8,-6 13,-6l729 0c5,0 10,3 14,6 3,4 4,9 4,14 -17,127 -55,307 -140,445 -15,23 -38,36 -63,36zm-179 -344l0 0c76,0 138,69 138,154l0 107c0,28 17,43 32,47 16,5 32,-2 42,-19 77,-125 115,-289 132,-411l-688 0c17,122 54,286 132,411 10,17 26,24 42,19 15,-4 32,-19 32,-47l0 -107c0,-85 62,-154 138,-154z"/>
    <path class="fil1" d="M1082 853c-7,0 -13,-4 -16,-10 -33,-70 -103,-114 -179,-114 -76,0 -147,44 -179,114 -3,7 -11,11 -19,9 -73,-13 -196,-45 -196,-112 0,-84 198,-128 394,-128 196,0 394,44 394,128 0,67 -123,99 -196,112 -1,1 -2,1 -3,1zm-195 -159l0 0c85,0 164,47 204,122 106,-21 155,-54 155,-76 0,-39 -137,-94 -359,-94 -222,0 -359,55 -359,94 0,22 49,55 154,76 41,-75 120,-122 205,-122z"/>
    <path class="fil1" d="M1103 944l-432 0c-9,0 -17,-7 -17,-17 0,-129 104,-233 233,-233 128,0 233,104 233,233 0,10 -8,17 -17,17zm-413 -35l0 0 394 0c-9,-101 -94,-180 -197,-180 -103,0 -189,79 -197,180z"/>
    <path class="fil1" d="M1274 853c-5,0 -11,-3 -14,-8 -6,-7 -4,-18 4,-24l58 -42c7,-5 18,-3 24,4 6,8 4,19 -4,25l-58 41c-3,3 -6,4 -10,4z"/>
    <path class="fil1" d="M1332 916c-4,0 -7,-1 -10,-3l-22 -15c-8,-5 -10,-16 -5,-24 6,-8 16,-10 24,-5l22 15c8,5 11,16 5,24 -3,5 -9,8 -14,8z"/>
    <path class="fil1" d="M500 853c-4,0 -7,-1 -10,-4l-58 -41c-8,-6 -10,-17 -4,-25 6,-7 16,-9 24,-4l58 42c8,6 10,17 4,24 -3,5 -9,8 -14,8z"/>
    <path class="fil1" d="M442 916c-6,0 -11,-3 -14,-8 -6,-8 -4,-19 4,-24l22 -15c8,-5 19,-3 25,5 5,8 3,19 -5,24l-22 15c-3,2 -7,3 -10,3z"/>
   </g>
  </g>
 </g>
</svg>
