<?xml version="1.0" encoding="UTF-8"?>
<!DOCTYPE svg PUBLIC "-//W3C//DTD SVG 1.1//EN" "http://www.w3.org/Graphics/SVG/1.1/DTD/svg11.dtd">
<!-- Creator: CorelDRAW X8 -->
<svg xmlns="http://www.w3.org/2000/svg" xml:space="preserve" width="1.13581in" height="1.13581in" version="1.1" style="shape-rendering:geometricPrecision; text-rendering:geometricPrecision; image-rendering:optimizeQuality; fill-rule:evenodd; clip-rule:evenodd"
viewBox="0 0 231 231"
 xmlns:xlink="http://www.w3.org/1999/xlink">
 <defs>
  <style type="text/css">
   <![CDATA[
    .fil0 {fill:#FEFEFE}
    .fil1 {fill:black;fill-rule:nonzero}
   ]]>
  </style>
 </defs>
 <g id="Layer_x0020_1">
  <metadata id="CorelCorpID_0Corel-Layer"/>
  <g id="_2255042857104">
   <circle class="fil0" cx="115" cy="115" r="115"/>
   <g>
    <path class="fil1" d="M115 182c0,0 -1,0 -1,0l-39 -43c0,-1 0,-1 0,-1 -9,-10 -14,-22 -14,-36 0,-29 25,-54 54,-54 30,0 54,25 54,54 0,14 -4,26 -13,36 0,0 0,0 0,1l-39 43c0,0 -1,0 -2,0zm-36 -46l0 0 36 41 37 -41c0,0 0,0 0,0 8,-10 13,-21 13,-34 0,-27 -22,-49 -50,-49 -27,0 -49,22 -49,49 0,13 4,24 13,34 0,0 0,0 0,0z"/>
    <path class="fil1" d="M100 154c0,0 0,0 0,0 -23,-7 -39,-28 -39,-52 0,-1 1,-2 3,-2 1,0 2,1 2,2 0,22 14,41 35,48 1,0 2,1 1,3 0,1 -1,1 -2,1z"/>
    <path class="fil1" d="M131 154c-1,0 -2,0 -3,-1 0,-2 1,-3 2,-3 21,-7 35,-26 35,-48 0,-1 1,-2 2,-2 1,0 2,1 2,2 0,24 -15,45 -38,52 0,0 0,0 0,0z"/>
    <path class="fil1" d="M124 81c0,0 -1,0 -1,0 -6,-1 -9,-4 -9,-4 -1,-1 -1,-2 0,-3 0,-1 2,-1 3,0 0,0 3,2 7,3 1,0 2,2 2,3 0,1 -1,1 -2,1z"/>
    <path class="fil1" d="M128 135c0,0 -1,0 -2,0 -2,-1 -4,-3 -4,-6l0 -7c0,-4 -3,-7 -7,-7 -3,0 -6,3 -6,7l0 7c0,3 -2,5 -5,6 -2,1 -5,0 -7,-3 -11,-16 -12,-41 -12,-43 0,-10 9,-19 20,-19 4,0 7,1 10,3 3,-2 7,-3 11,-3 11,0 19,9 19,19 0,2 0,27 -11,43 -1,2 -3,3 -6,3zm-13 -24l0 0c6,0 11,5 11,11l0 7c0,1 2,1 2,2 0,0 1,0 2,-1 11,-16 11,-40 11,-41 0,-8 -7,-15 -15,-15 -4,0 -7,1 -9,3 -1,1 -2,1 -3,0 -3,-2 -6,-3 -9,-3 -8,0 -15,7 -15,15 0,1 0,25 11,41 1,1 2,1 2,1 0,-1 1,-1 1,-2l0 -7c0,-6 5,-11 11,-11z"/>
   </g>
  </g>
 </g>
</svg>
