<?xml version="1.0" encoding="utf-8"?>
<!-- Generator: Adobe Illustrator 16.0.0, SVG Export Plug-In . SVG Version: 6.00 Build 0)  -->
<!DOCTYPE svg PUBLIC "-//W3C//DTD SVG 1.1//EN" "http://www.w3.org/Graphics/SVG/1.1/DTD/svg11.dtd">
<svg version="1.1" id="Layer_1" xmlns="http://www.w3.org/2000/svg" xmlns:xlink="http://www.w3.org/1999/xlink" x="0px" y="0px"
	 width="750px" height="500px" viewBox="0 0 750 500" enable-background="new 0 0 750 500" xml:space="preserve">
<rect opacity="0.7" fill="#FFF6EE" width="750" height="500"/>
<g opacity="0.7">
	<defs>
		<rect id="SVGID_1_" opacity="0.7" width="750" height="500"/>
	</defs>
	<clipPath id="SVGID_2_">
		<use xlink:href="#SVGID_1_"  overflow="visible"/>
	</clipPath>
	<path clip-path="url(#SVGID_2_)" fill="#CACEEB" d="M494.23,14.65c-1.341,21.58-14.131,43.41-34.591,51.9
		c-26.06,10.8-53.699-3.87-80.06-5.3c-12.709-0.68-24.649,2.29-35.431,9.05c-26.792,16.626-43.334,49.955-76.179,56.25
		c-27.151,4.78-52.861-13.04-79.91-8.08c-54.813,13.462-57.385,121.17-181.333,88.559C-52.651,185.991-78.611,115.175-69.42,56.61
		c9.351-46.54,47.191-85.86,92.831-98.25c58.719-15.94,115.5,19.07,174.15,17.44c88.172-2.255,181.921-82.549,265.601-22.79
		C481.87-32.4,495.73-9.71,494.23,14.65"/>
</g>
<g opacity="0.7">
	<defs>
		<path id="SVGID_3_" opacity="0.7" d="M0,0v204.373c2.194,0.958,4.433,1.843,6.727,2.655
			c123.948,32.612,126.52-75.096,181.333-88.559c13.579-2.489,26.82,0.762,40.075,4.013c13.15,3.224,26.314,6.449,39.835,4.068
			c32.845-6.294,49.387-39.624,76.18-56.251c10.78-6.759,22.72-9.729,35.43-9.049c26.36,1.43,54,16.1,80.06,5.3
			c20.46-8.49,33.249-30.32,34.591-51.9c0.307-4.972-0.027-9.872-0.911-14.65H0z"/>
	</defs>
	<clipPath id="SVGID_4_">
		<use xlink:href="#SVGID_3_"  overflow="visible"/>
	</clipPath>
	<path clip-path="url(#SVGID_4_)" fill="#FFF6EE" d="M359.44,101.805l0.36,0.35l-1.19,1.22l-0.36-0.35
		c-9.25-9.01-23.75-9.01-33.01,0c-4.96,4.83-11.33,7.24-17.69,7.24c-6.37,0-12.73-2.41-17.69-7.24c-9.26-9.01-23.76-9.01-33.02,0
		c-4.79,4.67-11.08,7.24-17.69,7.24s-12.89-2.57-17.69-7.24c-9.26-9.02-23.76-9.02-33.01,0c-9.92,9.66-25.47,9.66-35.39,0
		c-9.25-9.01-23.76-9.01-33.01,0c-9.92,9.66-25.47,9.66-35.39,0c-9.25-9.01-23.75-9.01-33.01,0c-9.92,9.66-25.46,9.66-35.38,0
		c-9.26-9.01-23.76-9.01-33.02,0l-0.35,0.35l-1.19-1.22l0.36-0.35c9.92-9.66,25.46-9.66,35.38,0c9.26,9.01,23.76,9.01,33.02,0
		c9.92-9.66,25.46-9.66,35.38,0c9.26,9.01,23.76,9.01,33.01,0c9.92-9.66,25.47-9.66,35.39,0c9.25,9.01,23.76,9.01,33.01,0
		c9.92-9.66,25.47-9.66,35.39,0c9.25,9.01,23.75,9.01,33.01,0c9.92-9.66,25.46-9.66,35.38,0c9.26,9.01,23.76,9.01,33.02,0
		C333.97,92.145,349.52,92.145,359.44,101.805"/>
	<path clip-path="url(#SVGID_4_)" fill="#FFF6EE" d="M359.44,81.635l0.36,0.35l-1.19,1.22l-0.36-0.35c-9.25-9.01-23.75-9.01-33.01,0
		c-9.92,9.66-25.46,9.66-35.38,0c-9.26-9.01-23.76-9.01-33.02,0c-4.79,4.67-11.08,7.25-17.69,7.25s-12.89-2.58-17.69-7.25
		c-9.26-9.01-23.76-9.01-33.01,0c-4.96,4.83-11.33,7.25-17.7,7.25c-6.36,0-12.73-2.42-17.69-7.25c-9.25-9.01-23.75-9.01-33.01,0
		c-9.92,9.66-25.47,9.66-35.39,0c-9.25-9.01-23.75-9.01-33.01,0c-9.92,9.66-25.46,9.66-35.38,0c-9.26-9.01-23.76-9.01-33.02,0
		l-0.35,0.35l-1.19-1.22l0.36-0.35c9.92-9.66,25.46-9.66,35.38,0c9.26,9.02,23.76,9.02,33.02,0c9.92-9.65,25.46-9.65,35.38,0
		c9.26,9.02,23.76,9.01,33.01,0c9.92-9.66,25.47-9.66,35.39,0c9.25,9.02,23.76,9.02,33.01,0c9.92-9.66,25.47-9.66,35.39,0
		c9.25,9.02,23.75,9.02,33.01,0c9.92-9.66,25.46-9.66,35.38,0c9.26,9.02,23.76,9.02,33.02,0
		C333.97,71.975,349.52,71.975,359.44,81.635"/>
	<path clip-path="url(#SVGID_4_)" fill="#FFF6EE" d="M359.44,61.475l0.36,0.35l-1.19,1.22l-0.36-0.35c-9.25-9.01-23.75-9.01-33.01,0
		c-4.96,4.83-11.32,7.24-17.69,7.24s-12.73-2.41-17.69-7.24c-9.26-9.01-23.76-9.01-33.02,0c-4.79,4.67-11.08,7.24-17.69,7.24
		s-12.89-2.57-17.69-7.24c-9.26-9.01-23.76-9.01-33.01,0c-9.93,9.66-25.47,9.66-35.39,0c-9.25-9.01-23.75-9.01-33.01,0
		c-9.92,9.66-25.46,9.66-35.39,0c-9.25-9.01-23.75-9.01-33.01,0c-9.92,9.66-25.46,9.66-35.38,0c-9.26-9.01-23.76-9.01-33.02,0
		l-0.35,0.35l-1.19-1.22l0.36-0.35c9.92-9.66,25.46-9.66,35.38,0c9.26,9.01,23.76,9.01,33.02,0c9.92-9.66,25.46-9.66,35.38,0
		c9.26,9.01,23.76,9.01,33.01,0c9.92-9.66,25.47-9.66,35.39,0c9.25,9.01,23.76,9.01,33.01,0c9.92-9.66,25.47-9.66,35.39,0
		c9.25,9.01,23.75,9.01,33.01,0c9.92-9.66,25.46-9.66,35.38,0c9.26,9.01,23.76,9.01,33.02,0
		C333.97,51.815,349.52,51.815,359.44,61.475"/>
	<path clip-path="url(#SVGID_4_)" fill="#FFF6EE" d="M-17.1,2.545l-1.19-1.22l0.36-0.35c9.92-9.65,25.46-9.66,35.38,0
		c9.26,9.02,23.76,9.02,33.02,0c9.92-9.65,25.46-9.65,35.38,0c9.26,9.02,23.76,9.02,33.01,0c9.92-9.65,25.47-9.65,35.39,0
		c9.25,9.02,23.76,9.02,33.01,0c9.92-9.66,25.47-9.66,35.39,0c9.25,9.02,23.75,9.02,33.01,0c9.92-9.66,25.46-9.66,35.38,0
		c9.26,9.02,23.76,9.02,33.02,0c9.91-9.66,25.46-9.66,35.38,0l0.36,0.35l-1.19,1.22l-0.36-0.35c-9.25-9.01-23.75-9.01-33.01,0
		c-9.92,9.66-25.46,9.66-35.38,0c-9.26-9.01-23.76-9.01-33.02,0c-4.79,4.68-11.08,7.25-17.69,7.25s-12.89-2.57-17.69-7.25
		c-9.26-9.01-23.76-9.01-33.01,0c-4.96,4.83-11.33,7.25-17.7,7.25c-6.36,0-12.73-2.42-17.69-7.25c-9.25-9.01-23.75-9.01-33.01,0
		c-9.92,9.66-25.46,9.66-35.39,0c-9.25-9.01-23.75-9.01-33.01,0c-9.92,9.66-25.46,9.66-35.38,0c-9.26-9.01-23.76-9.01-33.02,0
		L-17.1,2.545z"/>
	<path clip-path="url(#SVGID_4_)" fill="#FFF6EE" d="M359.44,21.145l0.36,0.35l-1.19,1.22l-0.36-0.35c-9.25-9.01-23.75-9.01-33.01,0
		c-9.92,9.66-25.46,9.66-35.38,0c-9.26-9.01-23.76-9.01-33.02,0c-4.79,4.67-11.08,7.24-17.69,7.24s-12.89-2.57-17.69-7.24
		c-9.26-9.01-23.76-9.01-33.01,0c-4.96,4.83-11.33,7.24-17.7,7.24c-6.36,0-12.73-2.41-17.69-7.24c-9.25-9.01-23.75-9.01-33.01,0
		c-9.92,9.66-25.47,9.66-35.39,0c-9.25-9.01-23.75-9.01-33.01,0c-9.92,9.66-25.46,9.66-35.38,0c-9.26-9.01-23.76-9.01-33.02,0
		l-0.35,0.35l-1.19-1.22l0.36-0.35c9.92-9.66,25.46-9.66,35.38,0c9.26,9.01,23.76,9.01,33.02,0c9.92-9.66,25.46-9.66,35.38,0
		c9.26,9.01,23.76,9.01,33.01,0c9.92-9.66,25.47-9.66,35.39,0c9.25,9.01,23.76,9.01,33.01,0c9.92-9.66,25.47-9.66,35.39,0
		c9.25,9.01,23.75,9.01,33.01,0c9.92-9.66,25.46-9.66,35.38,0c9.26,9.01,23.76,9.01,33.02,0
		C333.97,11.485,349.52,11.485,359.44,21.145"/>
	<path clip-path="url(#SVGID_4_)" fill="#FFF6EE" d="M359.44,41.315l0.36,0.34l-1.19,1.22l-0.36-0.35c-9.25-9.01-23.75-9.01-33.01,0
		c-4.96,4.83-11.32,7.25-17.69,7.25s-12.73-2.42-17.69-7.25c-9.26-9.01-23.76-9.01-33.02,0c-4.79,4.67-11.08,7.25-17.69,7.25
		s-12.89-2.57-17.69-7.25c-9.26-9.01-23.76-9.01-33.01,0c-9.92,9.66-25.47,9.66-35.39,0c-9.25-9.01-23.76-9.01-33.01,0
		c-9.92,9.66-25.46,9.66-35.39,0c-9.25-9.01-23.75-9.01-33.01,0c-9.92,9.66-25.46,9.66-35.38,0c-9.26-9.01-23.76-9.01-33.02,0
		l-0.35,0.35l-1.19-1.22l0.36-0.34c9.92-9.67,25.46-9.67,35.38,0c9.26,9.01,23.76,9.01,33.02,0c9.92-9.66,25.46-9.66,35.38,0
		c9.26,9.01,23.76,9.01,33.01,0c9.92-9.67,25.47-9.67,35.39,0c9.25,9.01,23.76,9.01,33.01,0c9.92-9.67,25.46-9.66,35.39,0
		c9.25,9.01,23.75,9.01,33.01,0c9.92-9.67,25.46-9.66,35.38,0c9.26,9.01,23.76,9.01,33.02,0
		C333.98,31.645,349.52,31.645,359.44,41.315"/>
	<path clip-path="url(#SVGID_4_)" fill="#FFF6EE" d="M359.44,224.637l0.36,0.35l-1.19,1.22l-0.36-0.35
		c-9.25-9.01-23.75-9.01-33.01,0c-4.96,4.83-11.33,7.24-17.69,7.24c-6.37,0-12.73-2.41-17.69-7.24c-9.26-9.01-23.76-9.01-33.02,0
		c-4.79,4.67-11.08,7.24-17.69,7.24s-12.89-2.57-17.69-7.24c-9.26-9.02-23.76-9.02-33.01,0c-9.92,9.66-25.47,9.66-35.39,0
		c-9.25-9.01-23.76-9.01-33.01,0c-9.92,9.66-25.47,9.66-35.39,0c-9.25-9.01-23.75-9.01-33.01,0c-9.92,9.66-25.46,9.66-35.38,0
		c-9.26-9.01-23.76-9.01-33.02,0l-0.35,0.35l-1.19-1.22l0.36-0.35c9.92-9.66,25.46-9.66,35.38,0c9.26,9.01,23.76,9.01,33.02,0
		c9.92-9.66,25.46-9.66,35.38,0c9.26,9.01,23.76,9.01,33.01,0c9.92-9.66,25.47-9.66,35.39,0c9.25,9.01,23.76,9.01,33.01,0
		c9.92-9.66,25.47-9.66,35.39,0c9.25,9.01,23.75,9.01,33.01,0c9.92-9.66,25.46-9.66,35.38,0c9.26,9.01,23.76,9.01,33.02,0
		C333.97,214.977,349.52,214.977,359.44,224.637"/>
	<path clip-path="url(#SVGID_4_)" fill="#FFF6EE" d="M359.44,204.467l0.36,0.35l-1.19,1.22l-0.36-0.35
		c-9.25-9.01-23.75-9.01-33.01,0c-9.92,9.66-25.46,9.66-35.38,0c-9.26-9.01-23.76-9.01-33.02,0c-4.79,4.67-11.08,7.25-17.69,7.25
		s-12.89-2.58-17.69-7.25c-9.26-9.01-23.76-9.01-33.01,0c-4.96,4.83-11.33,7.25-17.7,7.25c-6.36,0-12.73-2.42-17.69-7.25
		c-9.25-9.01-23.75-9.01-33.01,0c-9.92,9.66-25.47,9.66-35.39,0c-9.25-9.01-23.75-9.01-33.01,0c-9.92,9.66-25.46,9.66-35.38,0
		c-9.26-9.01-23.76-9.01-33.02,0l-0.35,0.35l-1.19-1.22l0.36-0.35c9.92-9.66,25.46-9.66,35.38,0c9.26,9.02,23.76,9.02,33.02,0
		c9.92-9.65,25.46-9.65,35.38,0c9.26,9.02,23.76,9.01,33.01,0c9.92-9.66,25.47-9.66,35.39,0c9.25,9.02,23.76,9.02,33.01,0
		c9.92-9.66,25.47-9.66,35.39,0c9.25,9.02,23.75,9.02,33.01,0c9.92-9.66,25.46-9.66,35.38,0c9.26,9.02,23.76,9.02,33.02,0
		C333.97,194.807,349.52,194.807,359.44,204.467"/>
	<path clip-path="url(#SVGID_4_)" fill="#FFF6EE" d="M359.44,184.307l0.36,0.35l-1.19,1.22l-0.36-0.35
		c-9.25-9.01-23.75-9.01-33.01,0c-4.96,4.83-11.32,7.24-17.69,7.24s-12.73-2.41-17.69-7.24c-9.26-9.01-23.76-9.01-33.02,0
		c-4.79,4.67-11.08,7.24-17.69,7.24s-12.89-2.57-17.69-7.24c-9.26-9.01-23.76-9.01-33.01,0c-9.93,9.66-25.47,9.66-35.39,0
		c-9.25-9.01-23.75-9.01-33.01,0c-9.92,9.66-25.46,9.66-35.39,0c-9.25-9.01-23.75-9.01-33.01,0c-9.92,9.66-25.46,9.66-35.38,0
		c-9.26-9.01-23.76-9.01-33.02,0l-0.35,0.35l-1.19-1.22l0.36-0.35c9.92-9.66,25.46-9.66,35.38,0c9.26,9.01,23.76,9.01,33.02,0
		c9.92-9.66,25.46-9.66,35.38,0c9.26,9.01,23.76,9.01,33.01,0c9.92-9.66,25.47-9.66,35.39,0c9.25,9.01,23.76,9.01,33.01,0
		c9.92-9.66,25.47-9.66,35.39,0c9.25,9.01,23.75,9.01,33.01,0c9.92-9.66,25.46-9.66,35.38,0c9.26,9.01,23.76,9.01,33.02,0
		C333.97,174.647,349.52,174.647,359.44,184.307"/>
	<path clip-path="url(#SVGID_4_)" fill="#FFF6EE" d="M-17.1,125.377l-1.19-1.22l0.36-0.35c9.92-9.65,25.46-9.66,35.38,0
		c9.26,9.02,23.76,9.02,33.02,0c9.92-9.65,25.46-9.65,35.38,0c9.26,9.02,23.76,9.02,33.01,0c9.92-9.65,25.47-9.65,35.39,0
		c9.25,9.02,23.76,9.02,33.01,0c9.92-9.66,25.47-9.66,35.39,0c9.25,9.02,23.75,9.02,33.01,0c9.92-9.66,25.46-9.66,35.38,0
		c9.26,9.02,23.76,9.02,33.02,0c9.91-9.66,25.46-9.66,35.38,0l0.36,0.35l-1.19,1.22l-0.36-0.35c-9.25-9.01-23.75-9.01-33.01,0
		c-9.92,9.66-25.46,9.66-35.38,0c-9.26-9.01-23.76-9.01-33.02,0c-4.79,4.68-11.08,7.25-17.69,7.25s-12.89-2.57-17.69-7.25
		c-9.26-9.01-23.76-9.01-33.01,0c-4.96,4.83-11.33,7.25-17.7,7.25c-6.36,0-12.73-2.42-17.69-7.25c-9.25-9.01-23.75-9.01-33.01,0
		c-9.92,9.66-25.46,9.66-35.39,0c-9.25-9.01-23.75-9.01-33.01,0c-9.92,9.66-25.46,9.66-35.38,0c-9.26-9.01-23.76-9.01-33.02,0
		L-17.1,125.377z"/>
	<path clip-path="url(#SVGID_4_)" fill="#FFF6EE" d="M359.44,143.977l0.36,0.35l-1.19,1.22l-0.36-0.35
		c-9.25-9.01-23.75-9.01-33.01,0c-9.92,9.66-25.46,9.66-35.38,0c-9.26-9.01-23.76-9.01-33.02,0c-4.79,4.67-11.08,7.24-17.69,7.24
		s-12.89-2.57-17.69-7.24c-9.26-9.01-23.76-9.01-33.01,0c-4.96,4.83-11.33,7.24-17.7,7.24c-6.36,0-12.73-2.41-17.69-7.24
		c-9.25-9.01-23.75-9.01-33.01,0c-9.92,9.66-25.47,9.66-35.39,0c-9.25-9.01-23.75-9.01-33.01,0c-9.92,9.66-25.46,9.66-35.38,0
		c-9.26-9.01-23.76-9.01-33.02,0l-0.35,0.35l-1.19-1.22l0.36-0.35c9.92-9.66,25.46-9.66,35.38,0c9.26,9.01,23.76,9.01,33.02,0
		c9.92-9.66,25.46-9.66,35.38,0c9.26,9.01,23.76,9.01,33.01,0c9.92-9.66,25.47-9.66,35.39,0c9.25,9.01,23.76,9.01,33.01,0
		c9.92-9.66,25.47-9.66,35.39,0c9.25,9.01,23.75,9.01,33.01,0c9.92-9.66,25.46-9.66,35.38,0c9.26,9.01,23.76,9.01,33.02,0
		C333.97,134.317,349.52,134.317,359.44,143.977"/>
	<path clip-path="url(#SVGID_4_)" fill="#FFF6EE" d="M359.44,164.147l0.36,0.34l-1.19,1.22l-0.36-0.35
		c-9.25-9.01-23.75-9.01-33.01,0c-4.96,4.83-11.32,7.25-17.69,7.25s-12.73-2.42-17.69-7.25c-9.26-9.01-23.76-9.01-33.02,0
		c-4.79,4.67-11.08,7.25-17.69,7.25s-12.89-2.57-17.69-7.25c-9.26-9.01-23.76-9.01-33.01,0c-9.92,9.66-25.47,9.66-35.39,0
		c-9.25-9.01-23.76-9.01-33.01,0c-9.92,9.66-25.46,9.66-35.39,0c-9.25-9.01-23.75-9.01-33.01,0c-9.92,9.66-25.46,9.66-35.38,0
		c-9.26-9.01-23.76-9.01-33.02,0l-0.35,0.35l-1.19-1.22l0.36-0.34c9.92-9.67,25.46-9.67,35.38,0c9.26,9.01,23.76,9.01,33.02,0
		c9.92-9.66,25.46-9.66,35.38,0c9.26,9.01,23.76,9.01,33.01,0c9.92-9.67,25.47-9.67,35.39,0c9.25,9.01,23.76,9.01,33.01,0
		c9.92-9.67,25.46-9.66,35.39,0c9.25,9.01,23.75,9.01,33.01,0c9.92-9.67,25.46-9.66,35.38,0c9.26,9.01,23.76,9.01,33.02,0
		C333.98,154.477,349.52,154.477,359.44,164.147"/>
</g>
<g opacity="0.7">
	<defs>
		<rect id="SVGID_5_" opacity="0.7" width="750" height="500"/>
	</defs>
	<clipPath id="SVGID_6_">
		<use xlink:href="#SVGID_5_"  overflow="visible"/>
	</clipPath>
	<path clip-path="url(#SVGID_6_)" fill="#B7DBE5" d="M311.59,418.4c0.66,2.42,0.66,4.97-0.03,7.39c-0.7,2.51-2.04,4.79-3.54,6.89
		c-1.65,2.311-3.47,4.5-5.24,6.721c-1.95,2.449-3.91,4.899-5.86,7.35c-3.87,4.86-7.71,9.73-11.64,14.53
		c-1.87,2.29-3.76,4.58-5.72,6.8c-0.97,1.08-1.96,2.14-3,3.15c-0.03,0.02-0.04,0.06-0.06,0.09c-2.7,3.529-6.82,5.97-11.21,6.64
		c-4.83,0.74-9.78-0.59-13.88-3.16c-8.98-5.66-12.81-16.5-12.86-26.72c-0.06-9.86,3.3-19.7,9.23-27.55
		c6.05-8.011,14.72-13.67,24.43-16.17c4.86-1.25,9.94-1.721,14.94-1.33c5.08,0.39,10.25,1.59,14.76,4.01
		C306.42,409.46,310.21,413.37,311.59,418.4"/>
	<path clip-path="url(#SVGID_6_)" fill="#CACEEB" d="M466.94,536.96c0.284,0.744,1.062,4.626-0.44,2.72
		c-13.317,51.319-80.401,49.137-121.999,39.651c-77.844-19.18-81.568-127.196-3.98-149.961
		c37.929-10.547,77.929,11.146,99.389,42.22C455.322,489.519,469.562,512.398,466.94,536.96"/>
	<path clip-path="url(#SVGID_6_)" fill="#FADEDA" d="M71.66,157c0.603,48.85-54.215,86.197-36.588,136.92
		c17.49,54.391-8.288,106.569-69.134,107.45c-80.284-3.097-112.848-95.416-101.165-164.32
		c7.127-53.071,20.349-114.222,68.677-144.94c29.737-20.174,69.31-16.305,97.7,4.432C51.643,110.218,70.817,131.14,71.66,157"/>
	<path clip-path="url(#SVGID_6_)" fill="#FADEDA" d="M828.27,442.37c-31.761,103.494-136.524,173.172-243.271,173.038
		c-74.855,2.127-187.01-29.57-182.13-121.919c2.382-23.914,17.345-46.48,40.063-55.399c50.807-21.11,113.588,14.852,159.079-23.25
		c37.474-32.637,36.441-88.478,65.908-126.21c32.116-39.76,95.83-36.954,130.571-2.089
		C840.521,325.838,845.478,390.069,828.27,442.37"/>
	<path clip-path="url(#SVGID_6_)" fill="#FFE8D7" d="M713.359,415.472c0,62.18-50.407,112.587-112.587,112.587
		c-62.181,0-112.587-50.407-112.587-112.587s50.406-112.587,112.587-112.587C662.952,302.885,713.359,353.292,713.359,415.472"/>
	<path clip-path="url(#SVGID_6_)" fill="#B7DBE5" d="M343.283,404.525c0,6.046-4.901,10.946-10.946,10.946
		c-6.046,0-10.947-4.9-10.947-10.946c0-6.045,4.901-10.946,10.947-10.946C338.382,393.579,343.283,398.48,343.283,404.525"/>
	<path clip-path="url(#SVGID_6_)" fill="#B7DBE5" d="M598.797,141.821c0,20.88-16.927,37.807-37.807,37.807
		c-20.882,0-37.808-16.927-37.808-37.807s16.926-37.807,37.808-37.807C581.87,104.014,598.797,120.941,598.797,141.821"/>
	<path clip-path="url(#SVGID_6_)" fill="#F4BDC2" d="M83.534,300.625c-19.537,0-35.431-15.894-35.431-35.43
		c0-19.537,15.894-35.432,35.431-35.432s35.431,15.895,35.431,35.432C118.965,284.731,103.071,300.625,83.534,300.625
		 M83.534,240.944c-13.372,0-24.25,10.878-24.25,24.251c0,13.371,10.878,24.251,24.25,24.251s24.251-10.88,24.251-24.251
		C107.785,251.822,96.906,240.944,83.534,240.944"/>
	<path clip-path="url(#SVGID_6_)" fill="#F4BDC2" d="M708.332,35.431c-19.537,0-35.43-15.894-35.43-35.431
		s15.893-35.431,35.43-35.431c19.536,0,35.43,15.894,35.43,35.431S727.868,35.431,708.332,35.431 M708.332-24.251
		c-13.371,0-24.251,10.879-24.251,24.251s10.88,24.251,24.251,24.251S732.583,13.372,732.583,0S721.703-24.251,708.332-24.251"/>
	<path clip-path="url(#SVGID_6_)" fill="#FFF6EE" d="M356.234,535.43c-19.537,0-35.431-15.893-35.431-35.43
		s15.894-35.43,35.431-35.43s35.431,15.893,35.431,35.43S375.771,535.43,356.234,535.43 M356.234,475.749
		c-13.372,0-24.251,10.88-24.251,24.251s10.879,24.251,24.251,24.251s24.251-10.88,24.251-24.251S369.606,475.749,356.234,475.749"
		/>
	<path clip-path="url(#SVGID_6_)" fill="#B7DBE5" d="M750,343.995c-15.039,0-27.273-12.235-27.273-27.274
		s12.234-27.274,27.273-27.274s27.273,12.235,27.273,27.274S765.039,343.995,750,343.995 M750,298.053
		c-10.293,0-18.668,8.374-18.668,18.668c0,10.293,8.375,18.668,18.668,18.668s18.668-8.375,18.668-18.668
		C768.668,306.427,760.293,298.053,750,298.053"/>
</g>
<g opacity="0.7">
	<defs>
		<path id="SVGID_7_" opacity="0.7" d="M488.185,415.472c0,33.675,14.784,63.896,38.217,84.528h148.741
			c23.433-20.632,38.218-50.854,38.218-84.528c0-62.18-50.408-112.587-112.589-112.587S488.185,353.292,488.185,415.472"/>
	</defs>
	<clipPath id="SVGID_8_">
		<use xlink:href="#SVGID_7_"  overflow="visible"/>
	</clipPath>
	<path clip-path="url(#SVGID_8_)" fill="#FFF6EE" d="M796.51,459.45l0.36,0.35l-1.19,1.22l-0.359-0.35
		c-9.25-9.01-23.75-9.01-33.011,0c-4.96,4.83-11.329,7.24-17.689,7.24c-6.37,0-12.73-2.41-17.69-7.24c-9.26-9.01-23.76-9.01-33.02,0
		c-4.79,4.67-11.08,7.24-17.69,7.24c-6.609,0-12.89-2.57-17.688-7.24c-9.262-9.02-23.762-9.02-33.012,0
		c-9.92,9.66-25.47,9.66-35.39,0c-9.25-9.01-23.76-9.01-33.01,0c-9.92,9.66-25.47,9.66-35.39,0c-9.25-9.01-23.75-9.01-33.011,0
		c-9.92,9.66-25.46,9.66-35.38,0c-9.26-9.01-23.76-9.01-33.019,0l-0.352,0.35l-1.188-1.22l0.358-0.35c9.92-9.66,25.46-9.66,35.38,0
		c9.262,9.01,23.762,9.01,33.021,0c9.92-9.66,25.46-9.66,35.38,0c9.26,9.01,23.76,9.01,33.01,0c9.92-9.66,25.471-9.66,35.391,0
		c9.25,9.01,23.76,9.01,33.01,0c9.92-9.66,25.47-9.66,35.39,0c9.25,9.01,23.75,9.01,33.011,0c9.92-9.66,25.46-9.66,35.38,0
		c9.26,9.01,23.76,9.01,33.02,0C771.04,449.79,786.59,449.79,796.51,459.45"/>
	<path clip-path="url(#SVGID_8_)" fill="#FFF6EE" d="M796.51,439.28l0.36,0.35l-1.19,1.22l-0.359-0.35
		c-9.25-9.01-23.75-9.01-33.011,0c-9.92,9.66-25.46,9.66-35.38,0c-9.26-9.01-23.76-9.01-33.02,0c-4.79,4.67-11.08,7.25-17.69,7.25
		c-6.609,0-12.89-2.58-17.688-7.25c-9.262-9.01-23.762-9.01-33.012,0c-4.96,4.83-11.329,7.25-17.699,7.25
		c-6.36,0-12.73-2.42-17.69-7.25c-9.25-9.01-23.75-9.01-33.01,0c-9.92,9.66-25.47,9.66-35.39,0c-9.25-9.01-23.75-9.01-33.011,0
		c-9.92,9.66-25.46,9.66-35.38,0c-9.26-9.01-23.76-9.01-33.019,0l-0.352,0.35l-1.188-1.22l0.358-0.35c9.92-9.66,25.46-9.66,35.38,0
		c9.262,9.021,23.762,9.021,33.021,0c9.92-9.65,25.46-9.65,35.38,0c9.26,9.021,23.76,9.01,33.01,0c9.92-9.66,25.471-9.66,35.391,0
		c9.25,9.021,23.76,9.021,33.01,0c9.92-9.66,25.47-9.66,35.39,0c9.25,9.021,23.75,9.021,33.011,0c9.92-9.66,25.46-9.66,35.38,0
		c9.26,9.021,23.76,9.021,33.02,0C771.04,429.62,786.59,429.62,796.51,439.28"/>
	<path clip-path="url(#SVGID_8_)" fill="#FFF6EE" d="M796.51,419.12l0.36,0.35l-1.19,1.221l-0.359-0.351
		c-9.25-9.01-23.75-9.01-33.011,0c-4.96,4.83-11.319,7.24-17.689,7.24s-12.73-2.41-17.69-7.24c-9.26-9.01-23.76-9.01-33.02,0
		c-4.79,4.67-11.08,7.24-17.69,7.24c-6.609,0-12.89-2.57-17.688-7.24c-9.262-9.01-23.762-9.01-33.012,0
		c-9.93,9.66-25.47,9.66-35.39,0c-9.25-9.01-23.75-9.01-33.01,0c-9.92,9.66-25.46,9.66-35.39,0c-9.25-9.01-23.75-9.01-33.011,0
		c-9.92,9.66-25.46,9.66-35.38,0c-9.26-9.01-23.76-9.01-33.019,0l-0.352,0.351l-1.188-1.221l0.358-0.35
		c9.92-9.66,25.46-9.66,35.38,0c9.262,9.01,23.762,9.01,33.021,0c9.92-9.66,25.46-9.66,35.38,0c9.26,9.01,23.76,9.01,33.01,0
		c9.92-9.66,25.471-9.66,35.391,0c9.25,9.01,23.76,9.01,33.01,0c9.92-9.66,25.47-9.66,35.39,0c9.25,9.01,23.75,9.01,33.011,0
		c9.92-9.66,25.46-9.66,35.38,0c9.26,9.01,23.76,9.01,33.02,0C771.04,409.46,786.59,409.46,796.51,419.12"/>
	<path clip-path="url(#SVGID_8_)" fill="#FFF6EE" d="M419.97,360.19l-1.189-1.221l0.359-0.35c9.92-9.65,25.46-9.66,35.38,0
		c9.261,9.02,23.761,9.02,33.021,0c9.92-9.65,25.46-9.65,35.38,0c9.26,9.02,23.76,9.02,33.01,0c9.92-9.65,25.471-9.65,35.391,0
		c9.25,9.02,23.76,9.02,33.01,0c9.92-9.66,25.47-9.66,35.39,0c9.25,9.02,23.75,9.02,33.011,0c9.92-9.66,25.46-9.66,35.38,0
		c9.26,9.02,23.76,9.02,33.02,0c9.91-9.66,25.46-9.66,35.38,0l0.36,0.35l-1.19,1.221l-0.359-0.351c-9.25-9.01-23.75-9.01-33.011,0
		c-9.92,9.66-25.46,9.66-35.38,0c-9.26-9.01-23.76-9.01-33.02,0c-4.79,4.68-11.08,7.25-17.69,7.25c-6.609,0-12.89-2.57-17.689-7.25
		c-9.261-9.01-23.761-9.01-33.011,0c-4.96,4.829-11.329,7.25-17.699,7.25c-6.36,0-12.73-2.421-17.69-7.25
		c-9.25-9.01-23.75-9.01-33.01,0c-9.921,9.66-25.46,9.66-35.39,0c-9.25-9.01-23.75-9.01-33.011,0c-9.92,9.66-25.46,9.66-35.38,0
		c-9.26-9.01-23.76-9.01-33.02,0L419.97,360.19z"/>
	<path clip-path="url(#SVGID_8_)" fill="#FFF6EE" d="M796.51,378.79l0.36,0.35l-1.19,1.221l-0.359-0.351
		c-9.25-9.01-23.75-9.01-33.011,0c-9.92,9.66-25.46,9.66-35.38,0c-9.26-9.01-23.76-9.01-33.02,0c-4.79,4.67-11.08,7.24-17.69,7.24
		c-6.609,0-12.89-2.57-17.688-7.24c-9.262-9.01-23.762-9.01-33.012,0c-4.96,4.83-11.329,7.24-17.699,7.24
		c-6.36,0-12.73-2.41-17.69-7.24c-9.25-9.01-23.75-9.01-33.01,0c-9.92,9.66-25.47,9.66-35.39,0c-9.25-9.01-23.75-9.01-33.011,0
		c-9.92,9.66-25.46,9.66-35.38,0c-9.26-9.01-23.76-9.01-33.019,0l-0.352,0.351l-1.188-1.221l0.358-0.35
		c9.92-9.66,25.46-9.66,35.38,0c9.262,9.01,23.762,9.01,33.021,0c9.92-9.66,25.46-9.66,35.38,0c9.26,9.01,23.76,9.01,33.01,0
		c9.92-9.66,25.471-9.66,35.391,0c9.25,9.01,23.76,9.01,33.01,0c9.92-9.66,25.47-9.66,35.39,0c9.25,9.01,23.75,9.01,33.011,0
		c9.92-9.66,25.46-9.66,35.38,0c9.26,9.01,23.76,9.01,33.02,0C771.04,369.13,786.59,369.13,796.51,378.79"/>
	<path clip-path="url(#SVGID_8_)" fill="#FFF6EE" d="M796.51,398.96l0.36,0.34l-1.19,1.22l-0.359-0.35
		c-9.25-9.01-23.75-9.01-33.011,0c-4.96,4.83-11.319,7.25-17.689,7.25s-12.73-2.42-17.69-7.25c-9.26-9.01-23.76-9.01-33.02,0
		c-4.79,4.67-11.08,7.25-17.69,7.25c-6.609,0-12.89-2.57-17.688-7.25c-9.262-9.01-23.762-9.01-33.012,0
		c-9.92,9.66-25.47,9.66-35.39,0c-9.25-9.01-23.76-9.01-33.01,0c-9.92,9.66-25.46,9.66-35.39,0c-9.25-9.01-23.75-9.01-33.011,0
		c-9.92,9.66-25.46,9.66-35.38,0c-9.26-9.01-23.76-9.01-33.019,0l-0.352,0.35l-1.188-1.22l0.358-0.34c9.92-9.67,25.46-9.67,35.38,0
		c9.262,9.01,23.762,9.01,33.021,0c9.92-9.66,25.46-9.66,35.38,0c9.26,9.01,23.76,9.01,33.01,0c9.92-9.67,25.471-9.67,35.391,0
		c9.25,9.01,23.76,9.01,33.01,0c9.92-9.67,25.46-9.66,35.39,0c9.25,9.01,23.75,9.01,33.011,0c9.92-9.67,25.46-9.66,35.38,0
		c9.26,9.01,23.76,9.01,33.02,0C771.05,389.29,786.59,389.29,796.51,398.96"/>
</g>
<g opacity="0.7">
	<defs>
		<rect id="SVGID_9_" opacity="0.7" width="750" height="500"/>
	</defs>
	<clipPath id="SVGID_10_">
		<use xlink:href="#SVGID_9_"  overflow="visible"/>
	</clipPath>
	<path clip-path="url(#SVGID_10_)" fill="#B7DBE5" d="M656.057,33.764c-3.42,16.88-12.931,31.97-26.431,42.62
		c-6.37,5.02-13.52,9.03-21.159,11.78c-8.711,3.13-17.78,4.22-27,4.42c-10.601,0.22-21.301-0.48-31.82,1.24
		c-9.71,1.59-18.641,5.64-27.021,10.68c-16.47,9.92-31.31,23.36-50.3,28.37c-8.96,2.36-18.31,2.36-27.09-0.74
		c-8.35-2.95-15.71-8.16-22.3-14c-14.09-12.5-25.03-28.84-41.86-38.04c-15.709-8.59-34.8-10.65-47.569-24.22
		c-8.79-9.35-13.35-21.83-14.6-34.49c-0.22-1.07-0.42-2.15-0.59-3.24c-2.96-19.21,1.67-39,9.74-56.43
		c7.49-16.18,18.709-31.16,34-40.67c15.148-9.44,34.029-13.25,51.3-7.87c15.77,4.91,28.56,15.96,41.84,25.3
		c6.83,4.8,13.94,9.34,21.73,12.43c8.489,3.37,17.579,4.7,26.689,4.56c18.99-0.29,37.33-6.15,55.91-9.39
		c9.07-1.58,18.3-2.6,27.52-2.05c8.421,0.51,16.681,2.44,24.449,5.71c15.151,6.38,28.29,17.67,36.451,31.98
		C656.856-2.676,659.606,16.194,656.057,33.764"/>
	<path clip-path="url(#SVGID_10_)" fill="#FADEDA" d="M364.147-0.152c0,23.184-18.794,41.979-41.978,41.979
		S280.19,23.032,280.19-0.152s18.795-41.978,41.979-41.978S364.147-23.336,364.147-0.152"/>
</g>
<g opacity="0.7">
	<defs>
		<rect id="SVGID_11_" opacity="0.7" width="750" height="500"/>
	</defs>
	<clipPath id="SVGID_12_">
		<use xlink:href="#SVGID_11_"  overflow="visible"/>
	</clipPath>
	<path clip-path="url(#SVGID_12_)" fill="#B7DBE5" d="M25.548,480.02c0,1.059-0.884,1.916-1.974,1.916s-1.974-0.857-1.974-1.916
		c0-1.058,0.884-1.916,1.974-1.916S25.548,478.962,25.548,480.02"/>
	<path clip-path="url(#SVGID_12_)" fill="#B7DBE5" d="M41.339,480.02c0,1.059-0.883,1.916-1.974,1.916
		c-1.09,0-1.974-0.857-1.974-1.916c0-1.058,0.884-1.916,1.974-1.916C40.456,478.104,41.339,478.962,41.339,480.02"/>
	<path clip-path="url(#SVGID_12_)" fill="#B7DBE5" d="M57.13,480.02c0,1.059-0.884,1.916-1.974,1.916
		c-1.09,0-1.974-0.857-1.974-1.916c0-1.058,0.884-1.916,1.974-1.916C56.246,478.104,57.13,478.962,57.13,480.02"/>
	<path clip-path="url(#SVGID_12_)" fill="#B7DBE5" d="M72.921,480.02c0,1.059-0.884,1.916-1.974,1.916
		c-1.09,0-1.974-0.857-1.974-1.916c0-1.058,0.884-1.916,1.974-1.916C72.037,478.104,72.921,478.962,72.921,480.02"/>
	<path clip-path="url(#SVGID_12_)" fill="#B7DBE5" d="M88.711,480.02c0,1.059-0.884,1.916-1.974,1.916
		c-1.09,0-1.974-0.857-1.974-1.916c0-1.058,0.884-1.916,1.974-1.916C87.828,478.104,88.711,478.962,88.711,480.02"/>
	<path clip-path="url(#SVGID_12_)" fill="#B7DBE5" d="M104.502,480.02c0,1.059-0.884,1.916-1.974,1.916s-1.974-0.857-1.974-1.916
		c0-1.058,0.884-1.916,1.974-1.916S104.502,478.962,104.502,480.02"/>
	<path clip-path="url(#SVGID_12_)" fill="#B7DBE5" d="M25.548,466.765c0,1.059-0.884,1.916-1.974,1.916s-1.974-0.857-1.974-1.916
		s0.884-1.916,1.974-1.916S25.548,465.706,25.548,466.765"/>
	<path clip-path="url(#SVGID_12_)" fill="#B7DBE5" d="M41.339,466.765c0,1.059-0.883,1.916-1.974,1.916
		c-1.09,0-1.974-0.857-1.974-1.916s0.884-1.916,1.974-1.916C40.456,464.849,41.339,465.706,41.339,466.765"/>
	<path clip-path="url(#SVGID_12_)" fill="#B7DBE5" d="M57.13,466.765c0,1.059-0.884,1.916-1.974,1.916
		c-1.09,0-1.974-0.857-1.974-1.916s0.884-1.916,1.974-1.916C56.246,464.849,57.13,465.706,57.13,466.765"/>
	<path clip-path="url(#SVGID_12_)" fill="#B7DBE5" d="M72.921,466.765c0,1.059-0.884,1.916-1.974,1.916
		c-1.09,0-1.974-0.857-1.974-1.916s0.884-1.916,1.974-1.916C72.037,464.849,72.921,465.706,72.921,466.765"/>
	<path clip-path="url(#SVGID_12_)" fill="#B7DBE5" d="M88.711,466.765c0,1.059-0.884,1.916-1.974,1.916
		c-1.09,0-1.974-0.857-1.974-1.916s0.884-1.916,1.974-1.916C87.828,464.849,88.711,465.706,88.711,466.765"/>
	<path clip-path="url(#SVGID_12_)" fill="#B7DBE5" d="M104.502,466.765c0,1.059-0.884,1.916-1.974,1.916s-1.974-0.857-1.974-1.916
		s0.884-1.916,1.974-1.916S104.502,465.706,104.502,466.765"/>
	<path clip-path="url(#SVGID_12_)" fill="#B7DBE5" d="M25.548,453.525c0,1.058-0.884,1.916-1.974,1.916s-1.974-0.858-1.974-1.916
		c0-1.059,0.884-1.916,1.974-1.916S25.548,452.467,25.548,453.525"/>
	<path clip-path="url(#SVGID_12_)" fill="#B7DBE5" d="M41.339,453.525c0,1.058-0.883,1.916-1.974,1.916
		c-1.09,0-1.974-0.858-1.974-1.916c0-1.059,0.884-1.916,1.974-1.916C40.456,451.609,41.339,452.467,41.339,453.525"/>
	<path clip-path="url(#SVGID_12_)" fill="#B7DBE5" d="M57.13,453.525c0,1.058-0.884,1.916-1.974,1.916
		c-1.09,0-1.974-0.858-1.974-1.916c0-1.059,0.884-1.916,1.974-1.916C56.246,451.609,57.13,452.467,57.13,453.525"/>
	<path clip-path="url(#SVGID_12_)" fill="#B7DBE5" d="M72.921,453.525c0,1.058-0.884,1.916-1.974,1.916
		c-1.09,0-1.974-0.858-1.974-1.916c0-1.059,0.884-1.916,1.974-1.916C72.037,451.609,72.921,452.467,72.921,453.525"/>
	<path clip-path="url(#SVGID_12_)" fill="#B7DBE5" d="M88.711,453.525c0,1.058-0.884,1.916-1.974,1.916
		c-1.09,0-1.974-0.858-1.974-1.916c0-1.059,0.884-1.916,1.974-1.916C87.828,451.609,88.711,452.467,88.711,453.525"/>
	<path clip-path="url(#SVGID_12_)" fill="#B7DBE5" d="M104.502,453.525c0,1.058-0.884,1.916-1.974,1.916s-1.974-0.858-1.974-1.916
		c0-1.059,0.884-1.916,1.974-1.916S104.502,452.467,104.502,453.525"/>
	<path clip-path="url(#SVGID_12_)" fill="#B7DBE5" d="M25.548,440.27c0,1.059-0.884,1.916-1.974,1.916s-1.974-0.857-1.974-1.916
		c0-1.058,0.884-1.916,1.974-1.916S25.548,439.212,25.548,440.27"/>
	<path clip-path="url(#SVGID_12_)" fill="#B7DBE5" d="M41.339,440.27c0,1.059-0.883,1.916-1.974,1.916
		c-1.09,0-1.974-0.857-1.974-1.916c0-1.058,0.884-1.916,1.974-1.916C40.456,438.354,41.339,439.212,41.339,440.27"/>
	<path clip-path="url(#SVGID_12_)" fill="#B7DBE5" d="M57.13,440.27c0,1.059-0.884,1.916-1.974,1.916
		c-1.09,0-1.974-0.857-1.974-1.916c0-1.058,0.884-1.916,1.974-1.916C56.246,438.354,57.13,439.212,57.13,440.27"/>
	<path clip-path="url(#SVGID_12_)" fill="#B7DBE5" d="M72.921,440.27c0,1.059-0.884,1.916-1.974,1.916
		c-1.09,0-1.974-0.857-1.974-1.916c0-1.058,0.884-1.916,1.974-1.916C72.037,438.354,72.921,439.212,72.921,440.27"/>
	<path clip-path="url(#SVGID_12_)" fill="#B7DBE5" d="M88.711,440.27c0,1.059-0.884,1.916-1.974,1.916
		c-1.09,0-1.974-0.857-1.974-1.916c0-1.058,0.884-1.916,1.974-1.916C87.828,438.354,88.711,439.212,88.711,440.27"/>
	<path clip-path="url(#SVGID_12_)" fill="#B7DBE5" d="M104.502,440.27c0,1.059-0.884,1.916-1.974,1.916s-1.974-0.857-1.974-1.916
		c0-1.058,0.884-1.916,1.974-1.916S104.502,439.212,104.502,440.27"/>
	<path clip-path="url(#SVGID_12_)" fill="#B7DBE5" d="M120.484,480.667c0,1.059-0.884,1.916-1.974,1.916
		c-1.09,0-1.974-0.857-1.974-1.916s0.884-1.916,1.974-1.916C119.601,478.751,120.484,479.608,120.484,480.667"/>
	<path clip-path="url(#SVGID_12_)" fill="#B7DBE5" d="M136.275,480.667c0,1.059-0.884,1.916-1.974,1.916
		c-1.09,0-1.974-0.857-1.974-1.916s0.884-1.916,1.974-1.916C135.391,478.751,136.275,479.608,136.275,480.667"/>
	<path clip-path="url(#SVGID_12_)" fill="#B7DBE5" d="M152.066,480.667c0,1.059-0.884,1.916-1.974,1.916
		c-1.09,0-1.974-0.857-1.974-1.916s0.884-1.916,1.974-1.916C151.182,478.751,152.066,479.608,152.066,480.667"/>
	<path clip-path="url(#SVGID_12_)" fill="#B7DBE5" d="M167.856,480.667c0,1.059-0.883,1.916-1.974,1.916
		c-1.09,0-1.974-0.857-1.974-1.916s0.884-1.916,1.974-1.916C166.974,478.751,167.856,479.608,167.856,480.667"/>
	<path clip-path="url(#SVGID_12_)" fill="#B7DBE5" d="M183.647,480.667c0,1.059-0.884,1.916-1.974,1.916
		c-1.09,0-1.974-0.857-1.974-1.916s0.884-1.916,1.974-1.916C182.764,478.751,183.647,479.608,183.647,480.667"/>
	<path clip-path="url(#SVGID_12_)" fill="#B7DBE5" d="M199.438,480.667c0,1.059-0.884,1.916-1.974,1.916
		c-1.09,0-1.974-0.857-1.974-1.916s0.884-1.916,1.974-1.916C198.555,478.751,199.438,479.608,199.438,480.667"/>
	<path clip-path="url(#SVGID_12_)" fill="#B7DBE5" d="M120.484,467.412c0,1.058-0.884,1.916-1.974,1.916
		c-1.09,0-1.974-0.858-1.974-1.916c0-1.059,0.884-1.916,1.974-1.916C119.601,465.496,120.484,466.354,120.484,467.412"/>
	<path clip-path="url(#SVGID_12_)" fill="#B7DBE5" d="M136.275,467.412c0,1.058-0.884,1.916-1.974,1.916
		c-1.09,0-1.974-0.858-1.974-1.916c0-1.059,0.884-1.916,1.974-1.916C135.391,465.496,136.275,466.354,136.275,467.412"/>
	<path clip-path="url(#SVGID_12_)" fill="#B7DBE5" d="M152.066,467.412c0,1.058-0.884,1.916-1.974,1.916
		c-1.09,0-1.974-0.858-1.974-1.916c0-1.059,0.884-1.916,1.974-1.916C151.182,465.496,152.066,466.354,152.066,467.412"/>
	<path clip-path="url(#SVGID_12_)" fill="#B7DBE5" d="M167.856,467.412c0,1.058-0.883,1.916-1.974,1.916
		c-1.09,0-1.974-0.858-1.974-1.916c0-1.059,0.884-1.916,1.974-1.916C166.974,465.496,167.856,466.354,167.856,467.412"/>
	<path clip-path="url(#SVGID_12_)" fill="#B7DBE5" d="M183.647,467.412c0,1.058-0.884,1.916-1.974,1.916
		c-1.09,0-1.974-0.858-1.974-1.916c0-1.059,0.884-1.916,1.974-1.916C182.764,465.496,183.647,466.354,183.647,467.412"/>
	<path clip-path="url(#SVGID_12_)" fill="#B7DBE5" d="M199.438,467.412c0,1.058-0.884,1.916-1.974,1.916
		c-1.09,0-1.974-0.858-1.974-1.916c0-1.059,0.884-1.916,1.974-1.916C198.555,465.496,199.438,466.354,199.438,467.412"/>
	<path clip-path="url(#SVGID_12_)" fill="#B7DBE5" d="M120.484,454.172c0,1.059-0.884,1.916-1.974,1.916
		c-1.09,0-1.974-0.857-1.974-1.916c0-1.058,0.884-1.916,1.974-1.916C119.601,452.256,120.484,453.114,120.484,454.172"/>
	<path clip-path="url(#SVGID_12_)" fill="#B7DBE5" d="M136.275,454.172c0,1.059-0.884,1.916-1.974,1.916
		c-1.09,0-1.974-0.857-1.974-1.916c0-1.058,0.884-1.916,1.974-1.916C135.391,452.256,136.275,453.114,136.275,454.172"/>
	<path clip-path="url(#SVGID_12_)" fill="#B7DBE5" d="M152.066,454.172c0,1.059-0.884,1.916-1.974,1.916
		c-1.09,0-1.974-0.857-1.974-1.916c0-1.058,0.884-1.916,1.974-1.916C151.182,452.256,152.066,453.114,152.066,454.172"/>
	<path clip-path="url(#SVGID_12_)" fill="#B7DBE5" d="M167.856,454.172c0,1.059-0.883,1.916-1.974,1.916
		c-1.09,0-1.974-0.857-1.974-1.916c0-1.058,0.884-1.916,1.974-1.916C166.974,452.256,167.856,453.114,167.856,454.172"/>
	<path clip-path="url(#SVGID_12_)" fill="#B7DBE5" d="M183.647,454.172c0,1.059-0.884,1.916-1.974,1.916
		c-1.09,0-1.974-0.857-1.974-1.916c0-1.058,0.884-1.916,1.974-1.916C182.764,452.256,183.647,453.114,183.647,454.172"/>
	<path clip-path="url(#SVGID_12_)" fill="#B7DBE5" d="M199.438,454.172c0,1.059-0.884,1.916-1.974,1.916
		c-1.09,0-1.974-0.857-1.974-1.916c0-1.058,0.884-1.916,1.974-1.916C198.555,452.256,199.438,453.114,199.438,454.172"/>
	<path clip-path="url(#SVGID_12_)" fill="#B7DBE5" d="M120.484,440.917c0,1.059-0.884,1.916-1.974,1.916
		c-1.09,0-1.974-0.857-1.974-1.916s0.884-1.916,1.974-1.916C119.601,439.001,120.484,439.858,120.484,440.917"/>
	<path clip-path="url(#SVGID_12_)" fill="#B7DBE5" d="M136.275,440.917c0,1.059-0.884,1.916-1.974,1.916
		c-1.09,0-1.974-0.857-1.974-1.916s0.884-1.916,1.974-1.916C135.391,439.001,136.275,439.858,136.275,440.917"/>
	<path clip-path="url(#SVGID_12_)" fill="#B7DBE5" d="M152.066,440.917c0,1.059-0.884,1.916-1.974,1.916
		c-1.09,0-1.974-0.857-1.974-1.916s0.884-1.916,1.974-1.916C151.182,439.001,152.066,439.858,152.066,440.917"/>
	<path clip-path="url(#SVGID_12_)" fill="#B7DBE5" d="M167.856,440.917c0,1.059-0.883,1.916-1.974,1.916
		c-1.09,0-1.974-0.857-1.974-1.916s0.884-1.916,1.974-1.916C166.974,439.001,167.856,439.858,167.856,440.917"/>
	<path clip-path="url(#SVGID_12_)" fill="#B7DBE5" d="M183.647,440.917c0,1.059-0.884,1.916-1.974,1.916
		c-1.09,0-1.974-0.857-1.974-1.916s0.884-1.916,1.974-1.916C182.764,439.001,183.647,439.858,183.647,440.917"/>
	<path clip-path="url(#SVGID_12_)" fill="#B7DBE5" d="M199.438,440.917c0,1.059-0.884,1.916-1.974,1.916
		c-1.09,0-1.974-0.857-1.974-1.916s0.884-1.916,1.974-1.916C198.555,439.001,199.438,439.858,199.438,440.917"/>
	<path clip-path="url(#SVGID_12_)" fill="#F4BDC2" d="M693.808,66.815c-1.059,0-1.916-0.884-1.916-1.974
		c0-1.09,0.857-1.974,1.916-1.974s1.916,0.884,1.916,1.974C695.724,65.931,694.866,66.815,693.808,66.815"/>
	<path clip-path="url(#SVGID_12_)" fill="#F4BDC2" d="M693.808,82.606c-1.059,0-1.916-0.884-1.916-1.974
		c0-1.09,0.857-1.974,1.916-1.974s1.916,0.884,1.916,1.974C695.724,81.722,694.866,82.606,693.808,82.606"/>
	<path clip-path="url(#SVGID_12_)" fill="#F4BDC2" d="M693.808,98.396c-1.059,0-1.916-0.884-1.916-1.974
		c0-1.09,0.857-1.974,1.916-1.974s1.916,0.884,1.916,1.974C695.724,97.513,694.866,98.396,693.808,98.396"/>
	<path clip-path="url(#SVGID_12_)" fill="#F4BDC2" d="M693.808,114.188c-1.059,0-1.916-0.884-1.916-1.974
		c0-1.09,0.857-1.974,1.916-1.974s1.916,0.884,1.916,1.974C695.724,113.304,694.866,114.188,693.808,114.188"/>
	<path clip-path="url(#SVGID_12_)" fill="#F4BDC2" d="M693.808,129.979c-1.059,0-1.916-0.884-1.916-1.974
		c0-1.09,0.857-1.974,1.916-1.974s1.916,0.884,1.916,1.974C695.724,129.095,694.866,129.979,693.808,129.979"/>
	<path clip-path="url(#SVGID_12_)" fill="#F4BDC2" d="M693.808,145.769c-1.059,0-1.916-0.884-1.916-1.974
		c0-1.09,0.857-1.974,1.916-1.974s1.916,0.884,1.916,1.974C695.724,144.885,694.866,145.769,693.808,145.769"/>
	<path clip-path="url(#SVGID_12_)" fill="#F4BDC2" d="M707.063,66.815c-1.058,0-1.916-0.884-1.916-1.974
		c0-1.09,0.858-1.974,1.916-1.974c1.059,0,1.916,0.884,1.916,1.974C708.979,65.931,708.121,66.815,707.063,66.815"/>
	<path clip-path="url(#SVGID_12_)" fill="#F4BDC2" d="M707.063,82.606c-1.058,0-1.916-0.884-1.916-1.974
		c0-1.09,0.858-1.974,1.916-1.974c1.059,0,1.916,0.884,1.916,1.974C708.979,81.722,708.121,82.606,707.063,82.606"/>
	<path clip-path="url(#SVGID_12_)" fill="#F4BDC2" d="M707.063,98.396c-1.058,0-1.916-0.884-1.916-1.974
		c0-1.09,0.858-1.974,1.916-1.974c1.059,0,1.916,0.884,1.916,1.974C708.979,97.513,708.121,98.396,707.063,98.396"/>
	<path clip-path="url(#SVGID_12_)" fill="#F4BDC2" d="M707.063,114.188c-1.058,0-1.916-0.884-1.916-1.974
		c0-1.09,0.858-1.974,1.916-1.974c1.059,0,1.916,0.884,1.916,1.974C708.979,113.304,708.121,114.188,707.063,114.188"/>
	<path clip-path="url(#SVGID_12_)" fill="#F4BDC2" d="M707.063,129.979c-1.058,0-1.916-0.884-1.916-1.974
		c0-1.09,0.858-1.974,1.916-1.974c1.059,0,1.916,0.884,1.916,1.974C708.979,129.095,708.121,129.979,707.063,129.979"/>
	<path clip-path="url(#SVGID_12_)" fill="#F4BDC2" d="M707.063,145.769c-1.058,0-1.916-0.884-1.916-1.974
		c0-1.09,0.858-1.974,1.916-1.974c1.059,0,1.916,0.884,1.916,1.974C708.979,144.885,708.121,145.769,707.063,145.769"/>
	<path clip-path="url(#SVGID_12_)" fill="#F4BDC2" d="M720.303,66.815c-1.059,0-1.916-0.884-1.916-1.974
		c0-1.09,0.857-1.974,1.916-1.974c1.058,0,1.916,0.884,1.916,1.974C722.219,65.931,721.36,66.815,720.303,66.815"/>
	<path clip-path="url(#SVGID_12_)" fill="#F4BDC2" d="M720.303,82.606c-1.059,0-1.916-0.884-1.916-1.974
		c0-1.09,0.857-1.974,1.916-1.974c1.058,0,1.916,0.884,1.916,1.974C722.219,81.722,721.36,82.606,720.303,82.606"/>
	<path clip-path="url(#SVGID_12_)" fill="#F4BDC2" d="M720.303,98.396c-1.059,0-1.916-0.884-1.916-1.974
		c0-1.09,0.857-1.974,1.916-1.974c1.058,0,1.916,0.884,1.916,1.974C722.219,97.513,721.36,98.396,720.303,98.396"/>
	<path clip-path="url(#SVGID_12_)" fill="#F4BDC2" d="M720.303,114.188c-1.059,0-1.916-0.884-1.916-1.974
		c0-1.09,0.857-1.974,1.916-1.974c1.058,0,1.916,0.884,1.916,1.974C722.219,113.304,721.36,114.188,720.303,114.188"/>
	<path clip-path="url(#SVGID_12_)" fill="#F4BDC2" d="M720.303,129.979c-1.059,0-1.916-0.884-1.916-1.974
		c0-1.09,0.857-1.974,1.916-1.974c1.058,0,1.916,0.884,1.916,1.974C722.219,129.095,721.36,129.979,720.303,129.979"/>
	<path clip-path="url(#SVGID_12_)" fill="#F4BDC2" d="M720.303,145.769c-1.059,0-1.916-0.884-1.916-1.974
		c0-1.09,0.857-1.974,1.916-1.974c1.058,0,1.916,0.884,1.916,1.974C722.219,144.885,721.36,145.769,720.303,145.769"/>
	<path clip-path="url(#SVGID_12_)" fill="#F4BDC2" d="M733.558,66.815c-1.059,0-1.916-0.884-1.916-1.974
		c0-1.09,0.857-1.974,1.916-1.974s1.916,0.884,1.916,1.974C735.474,65.931,734.616,66.815,733.558,66.815"/>
	<path clip-path="url(#SVGID_12_)" fill="#F4BDC2" d="M733.558,82.606c-1.059,0-1.916-0.884-1.916-1.974
		c0-1.09,0.857-1.974,1.916-1.974s1.916,0.884,1.916,1.974C735.474,81.722,734.616,82.606,733.558,82.606"/>
	<path clip-path="url(#SVGID_12_)" fill="#F4BDC2" d="M733.558,98.396c-1.059,0-1.916-0.884-1.916-1.974
		c0-1.09,0.857-1.974,1.916-1.974s1.916,0.884,1.916,1.974C735.474,97.513,734.616,98.396,733.558,98.396"/>
	<path clip-path="url(#SVGID_12_)" fill="#F4BDC2" d="M733.558,114.188c-1.059,0-1.916-0.884-1.916-1.974
		c0-1.09,0.857-1.974,1.916-1.974s1.916,0.884,1.916,1.974C735.474,113.304,734.616,114.188,733.558,114.188"/>
	<path clip-path="url(#SVGID_12_)" fill="#F4BDC2" d="M733.558,129.979c-1.059,0-1.916-0.884-1.916-1.974
		c0-1.09,0.857-1.974,1.916-1.974s1.916,0.884,1.916,1.974C735.474,129.095,734.616,129.979,733.558,129.979"/>
	<path clip-path="url(#SVGID_12_)" fill="#F4BDC2" d="M733.558,145.769c-1.059,0-1.916-0.884-1.916-1.974
		c0-1.09,0.857-1.974,1.916-1.974s1.916,0.884,1.916,1.974C735.474,144.885,734.616,145.769,733.558,145.769"/>
	<path clip-path="url(#SVGID_12_)" fill="#F4BDC2" d="M693.16,161.751c-1.058,0-1.916-0.884-1.916-1.974
		c0-1.09,0.858-1.974,1.916-1.974c1.059,0,1.916,0.884,1.916,1.974C695.076,160.867,694.219,161.751,693.16,161.751"/>
	<path clip-path="url(#SVGID_12_)" fill="#F4BDC2" d="M693.16,177.542c-1.058,0-1.916-0.884-1.916-1.974
		c0-1.09,0.858-1.974,1.916-1.974c1.059,0,1.916,0.884,1.916,1.974C695.076,176.658,694.219,177.542,693.16,177.542"/>
	<path clip-path="url(#SVGID_12_)" fill="#F4BDC2" d="M693.16,193.333c-1.058,0-1.916-0.884-1.916-1.974
		c0-1.09,0.858-1.974,1.916-1.974c1.059,0,1.916,0.884,1.916,1.974C695.076,192.449,694.219,193.333,693.16,193.333"/>
	<path clip-path="url(#SVGID_12_)" fill="#F4BDC2" d="M693.16,209.124c-1.058,0-1.916-0.884-1.916-1.974
		c0-1.09,0.858-1.974,1.916-1.974c1.059,0,1.916,0.884,1.916,1.974C695.076,208.24,694.219,209.124,693.16,209.124"/>
	<path clip-path="url(#SVGID_12_)" fill="#F4BDC2" d="M693.16,224.914c-1.058,0-1.916-0.884-1.916-1.974
		c0-1.09,0.858-1.974,1.916-1.974c1.059,0,1.916,0.884,1.916,1.974C695.076,224.03,694.219,224.914,693.16,224.914"/>
	<path clip-path="url(#SVGID_12_)" fill="#F4BDC2" d="M693.16,240.705c-1.058,0-1.916-0.884-1.916-1.974
		c0-1.09,0.858-1.974,1.916-1.974c1.059,0,1.916,0.884,1.916,1.974C695.076,239.821,694.219,240.705,693.16,240.705"/>
	<path clip-path="url(#SVGID_12_)" fill="#F4BDC2" d="M706.416,161.751c-1.059,0-1.916-0.884-1.916-1.974
		c0-1.09,0.857-1.974,1.916-1.974c1.058,0,1.916,0.884,1.916,1.974C708.332,160.867,707.474,161.751,706.416,161.751"/>
	<path clip-path="url(#SVGID_12_)" fill="#F4BDC2" d="M706.416,177.542c-1.059,0-1.916-0.884-1.916-1.974
		c0-1.09,0.857-1.974,1.916-1.974c1.058,0,1.916,0.884,1.916,1.974C708.332,176.658,707.474,177.542,706.416,177.542"/>
	<path clip-path="url(#SVGID_12_)" fill="#F4BDC2" d="M706.416,193.333c-1.059,0-1.916-0.884-1.916-1.974
		c0-1.09,0.857-1.974,1.916-1.974c1.058,0,1.916,0.884,1.916,1.974C708.332,192.449,707.474,193.333,706.416,193.333"/>
	<path clip-path="url(#SVGID_12_)" fill="#F4BDC2" d="M706.416,209.124c-1.059,0-1.916-0.884-1.916-1.974
		c0-1.09,0.857-1.974,1.916-1.974c1.058,0,1.916,0.884,1.916,1.974C708.332,208.24,707.474,209.124,706.416,209.124"/>
	<path clip-path="url(#SVGID_12_)" fill="#F4BDC2" d="M706.416,224.914c-1.059,0-1.916-0.884-1.916-1.974
		c0-1.09,0.857-1.974,1.916-1.974c1.058,0,1.916,0.884,1.916,1.974C708.332,224.03,707.474,224.914,706.416,224.914"/>
	<path clip-path="url(#SVGID_12_)" fill="#F4BDC2" d="M706.416,240.705c-1.059,0-1.916-0.884-1.916-1.974
		c0-1.09,0.857-1.974,1.916-1.974c1.058,0,1.916,0.884,1.916,1.974C708.332,239.821,707.474,240.705,706.416,240.705"/>
	<path clip-path="url(#SVGID_12_)" fill="#F4BDC2" d="M719.655,161.751c-1.059,0-1.916-0.884-1.916-1.974
		c0-1.09,0.857-1.974,1.916-1.974s1.916,0.884,1.916,1.974C721.571,160.867,720.714,161.751,719.655,161.751"/>
	<path clip-path="url(#SVGID_12_)" fill="#F4BDC2" d="M719.655,177.542c-1.059,0-1.916-0.884-1.916-1.974
		c0-1.09,0.857-1.974,1.916-1.974s1.916,0.884,1.916,1.974C721.571,176.658,720.714,177.542,719.655,177.542"/>
	<path clip-path="url(#SVGID_12_)" fill="#F4BDC2" d="M719.655,193.333c-1.059,0-1.916-0.884-1.916-1.974
		c0-1.09,0.857-1.974,1.916-1.974s1.916,0.884,1.916,1.974C721.571,192.449,720.714,193.333,719.655,193.333"/>
	<path clip-path="url(#SVGID_12_)" fill="#F4BDC2" d="M719.655,209.124c-1.059,0-1.916-0.884-1.916-1.974
		c0-1.09,0.857-1.974,1.916-1.974s1.916,0.884,1.916,1.974C721.571,208.24,720.714,209.124,719.655,209.124"/>
	<path clip-path="url(#SVGID_12_)" fill="#F4BDC2" d="M719.655,224.914c-1.059,0-1.916-0.884-1.916-1.974
		c0-1.09,0.857-1.974,1.916-1.974s1.916,0.884,1.916,1.974C721.571,224.03,720.714,224.914,719.655,224.914"/>
	<path clip-path="url(#SVGID_12_)" fill="#F4BDC2" d="M719.655,240.705c-1.059,0-1.916-0.884-1.916-1.974
		c0-1.09,0.857-1.974,1.916-1.974s1.916,0.884,1.916,1.974C721.571,239.821,720.714,240.705,719.655,240.705"/>
	<path clip-path="url(#SVGID_12_)" fill="#F4BDC2" d="M732.91,161.751c-1.058,0-1.916-0.884-1.916-1.974
		c0-1.09,0.858-1.974,1.916-1.974c1.059,0,1.916,0.884,1.916,1.974C734.826,160.867,733.969,161.751,732.91,161.751"/>
	<path clip-path="url(#SVGID_12_)" fill="#F4BDC2" d="M732.91,177.542c-1.058,0-1.916-0.884-1.916-1.974
		c0-1.09,0.858-1.974,1.916-1.974c1.059,0,1.916,0.884,1.916,1.974C734.826,176.658,733.969,177.542,732.91,177.542"/>
	<path clip-path="url(#SVGID_12_)" fill="#F4BDC2" d="M732.91,193.333c-1.058,0-1.916-0.884-1.916-1.974
		c0-1.09,0.858-1.974,1.916-1.974c1.059,0,1.916,0.884,1.916,1.974C734.826,192.449,733.969,193.333,732.91,193.333"/>
	<path clip-path="url(#SVGID_12_)" fill="#F4BDC2" d="M732.91,209.124c-1.058,0-1.916-0.884-1.916-1.974
		c0-1.09,0.858-1.974,1.916-1.974c1.059,0,1.916,0.884,1.916,1.974C734.826,208.24,733.969,209.124,732.91,209.124"/>
	<path clip-path="url(#SVGID_12_)" fill="#F4BDC2" d="M732.91,224.914c-1.058,0-1.916-0.884-1.916-1.974
		c0-1.09,0.858-1.974,1.916-1.974c1.059,0,1.916,0.884,1.916,1.974C734.826,224.03,733.969,224.914,732.91,224.914"/>
	<path clip-path="url(#SVGID_12_)" fill="#F4BDC2" d="M732.91,240.705c-1.058,0-1.916-0.884-1.916-1.974
		c0-1.09,0.858-1.974,1.916-1.974c1.059,0,1.916,0.884,1.916,1.974C734.826,239.821,733.969,240.705,732.91,240.705"/>
	<polygon clip-path="url(#SVGID_12_)" fill="#FFF6EE" points="523.5,21.08 516.21,21.08 516.21,28.38 510.31,28.38 510.31,21.08 
		503.02,21.08 503.02,15.19 510.31,15.19 510.31,7.9 516.21,7.9 516.21,15.19 523.5,15.19 	"/>
	<polygon clip-path="url(#SVGID_12_)" fill="#FFF6EE" points="539.3,21.08 532,21.08 532,15.19 539.3,15.19 539.3,7.9 545.2,7.9 
		545.2,15.19 552.49,15.19 552.49,21.08 545.2,21.08 545.2,28.38 539.3,28.38 	"/>
	<polygon clip-path="url(#SVGID_12_)" fill="#FFF6EE" points="559.69,38.8 566.98,38.8 566.98,44.7 559.69,44.7 559.69,52 
		553.79,52 553.79,44.7 546.5,44.7 546.5,38.8 553.79,38.8 553.79,31.51 559.69,31.51 	"/>
	<polygon clip-path="url(#SVGID_12_)" fill="#FFF6EE" points="581.48,15.19 581.48,21.08 574.18,21.08 574.18,28.38 568.28,28.38 
		568.28,21.08 560.99,21.08 560.99,15.19 568.28,15.19 568.28,7.9 574.18,7.9 574.18,15.19 	"/>
	<polygon clip-path="url(#SVGID_12_)" fill="#FFF6EE" points="538,44.7 530.7,44.7 530.7,52 524.8,52 524.8,44.7 517.51,44.7 
		517.51,38.8 524.8,38.8 524.8,31.51 530.7,31.51 530.7,38.8 538,38.8 	"/>
	<polygon clip-path="url(#SVGID_12_)" fill="#FFF6EE" points="545.2,60.35 552.49,60.35 552.49,66.25 545.2,66.25 545.2,73.55 
		539.3,73.55 539.3,66.25 532,66.25 532,60.35 539.3,60.35 539.3,53.06 545.2,53.06 	"/>
	<polygon clip-path="url(#SVGID_12_)" fill="#F4BDC2" points="71.932,410.196 79.222,410.196 79.222,402.896 85.122,402.896 
		85.122,410.196 92.412,410.196 92.412,416.086 85.122,416.086 85.122,423.376 79.222,423.376 79.222,416.086 71.932,416.086 	"/>
	<polygon clip-path="url(#SVGID_12_)" fill="#F4BDC2" points="56.132,410.196 63.432,410.196 63.432,416.086 56.132,416.086 
		56.132,423.376 50.232,423.376 50.232,416.086 42.942,416.086 42.942,410.196 50.232,410.196 50.232,402.896 56.132,402.896 	"/>
	<polygon clip-path="url(#SVGID_12_)" fill="#F4BDC2" points="35.742,392.477 28.452,392.477 28.452,386.576 35.742,386.576 
		35.742,379.276 41.642,379.276 41.642,386.576 48.932,386.576 48.932,392.477 41.642,392.477 41.642,399.767 35.742,399.767 	"/>
	<polygon clip-path="url(#SVGID_12_)" fill="#F4BDC2" points="13.952,416.086 13.952,410.196 21.252,410.196 21.252,402.896 
		27.152,402.896 27.152,410.196 34.442,410.196 34.442,416.086 27.152,416.086 27.152,423.376 21.252,423.376 21.252,416.086 	"/>
	<polygon clip-path="url(#SVGID_12_)" fill="#F4BDC2" points="57.432,386.576 64.732,386.576 64.732,379.276 70.632,379.276 
		70.632,386.576 77.922,386.576 77.922,392.477 70.632,392.477 70.632,399.767 64.732,399.767 64.732,392.477 57.432,392.477 	"/>
	<polygon clip-path="url(#SVGID_12_)" fill="#F4BDC2" points="50.232,370.927 42.942,370.927 42.942,365.026 50.232,365.026 
		50.232,357.727 56.132,357.727 56.132,365.026 63.432,365.026 63.432,370.927 56.132,370.927 56.132,378.217 50.232,378.217 	"/>
</g>
</svg>
