<?xml version="1.0" encoding="utf-8"?>
<!-- Generator: Adobe Illustrator 16.0.0, SVG Export Plug-In . SVG Version: 6.00 Build 0)  -->
<!DOCTYPE svg PUBLIC "-//W3C//DTD SVG 1.1//EN" "http://www.w3.org/Graphics/SVG/1.1/DTD/svg11.dtd">
<svg version="1.1" xmlns="http://www.w3.org/2000/svg" xmlns:xlink="http://www.w3.org/1999/xlink" x="0px" y="0px" width="750px"
	 height="500px" viewBox="0 0 750 500" enable-background="new 0 0 750 500" xml:space="preserve">
<g id="BACKGROUND">
</g>
<g id="OBJECTS">
	<g opacity="0.4">
		<path fill="#FFF6F3" d="M362.363,500c-0.043-0.808,105.063,1.417,105.071,0c0.032-5.576-28.493-33.119-45.719-47.451
			c-2.04-1.697-4.114-3.353-6.208-4.983c0.009-0.005,0.019-0.011,0.027-0.016c0.497-0.307,0.796-0.935,1.185-1.415
			c-0.347,0.115-0.76,0.146-1.028,0.359c-0.33,0.262-0.645,0.408-0.948,0.473c-1.335-1.031-2.68-2.051-4.035-3.055
			c-2.184-1.966-4.607-3.67-6.641-5.863c-3.046-3.286-7.133-5.553-11.079-7.763c-3.358-1.881-6.924-3.39-10.384-5.092
			c-4.538-2.231-9.171-4.302-13.559-6.8c-3.408-1.939-6.504-4.426-9.735-6.674c-0.054-0.038-0.07-0.13-0.104-0.196
			c-0.88,1.066-12.642-7.621-12.556-8.052c-0.332-0.56-0.57-1.209-1.01-1.664c-2.639-2.726-5.165-5.488-7.115-8.819
			c-1.806-3.084-3.539-6.174-4.985-9.442c-2.448-5.533-3.478-11.343-3.482-17.346c-0.001-2.225,0.31-4.448,0.415-6.676
			c0.104-2.207-0.075-4.447,0.233-6.621c0.445-3.142,0.745-6.244,0.252-9.402c-0.1-0.637,0.124-1.323,0.19-1.987
			c0.081-0.813,0.319-1.651,0.196-2.434c-0.356-2.269-0.765-4.539-1.336-6.762c-0.421-1.64-1.241-3.175-1.691-4.81
			c-1.119-4.068-3.726-7.316-6.853-9.667c-4.838-3.636-10.184-6.584-16.16-8.262c-2.549-0.715-5.12-1.061-7.674-1.234
			c-4.269-0.29-8.574-0.135-12.843,0.383c-1.104,0.134-2.202,0.333-3.309,0.426c-2.296,0.193-4.635,0.13-6.889,0.54
			c-5.546,1.008-11.07,2.151-16.571,3.381c-3.987,0.891-7.917,2.037-11.887,3.008c-1.727,0.423-3.51,0.614-5.234,1.046
			c-5.897,1.475-11.779,3.009-17.667,4.522c-1.506,0.387-3.017,0.759-4.514,1.181c-2.201,0.618-4.381,1.316-6.592,1.896
			c-0.925,0.242-1.914,0.226-2.862,0.393c-2.838,0.501-5.654,1.321-8.509,1.479c-3.179,0.176-6.39-0.234-9.586-0.406
			c-0.291-0.016-0.581-0.131-0.861-0.229c-3.545-1.258-7.114-2.382-10.449-4.246c-4.028-2.252-7.497-5.111-10.669-8.391
			c-3.575-3.696-7.162-7.383-10.674-11.138c-2.826-3.021-6.125-5.434-9.532-7.72c-1.039-0.697-2.171-1.255-3.254-1.886
			c-3.197-1.863-6.253-3.967-9.762-5.279c-2.216-0.829-4.404-1.784-6.495-2.89c-2.621-1.386-5.388-2.221-8.25-2.894
			c-3.417-0.805-6.835-1.34-10.361-1.111c-1.713,0.111-3.479-0.184-5.15,0.11c-3.42,0.603-6.69,1.854-10.17,2.334
			c-2.092,0.288-4.089,1.288-6.12,1.993c-1.325,0.461-2.636,0.962-3.949,1.456c-3.27,1.231-6.683,2.184-9.772,3.768
			c-5.279,2.707-10.391,5.749-15.501,8.771c-3.478,2.057-6.84,4.312-10.243,6.494c-2.244,1.439-4.448,2.942-6.706,4.357
			c-2.311,1.448-4.57,3.025-7.021,4.191c-5.752,2.737-11.609,5.256-17.415,7.882c-0.81,0.366-1.525,0.979-2.358,1.249
			c-3.956,1.278-7.976,2.371-11.892,3.758c-1.521,0.538-2.977,0.898-4.564,0.8V500H362.363z"/>
		<path fill="#FEF6F3" d="M679.52,286c-4.48-0.037-8.888-0.751-13.323-1.288c-5.837-0.707-11.193-2.961-16.664-4.76
			c-3.966-1.305-7.647-3.543-11.35-5.561c-2.247-1.225-4.265-2.864-6.434-4.241c-3.419-2.171-6.149-5.041-8.608-8.209
			c-0.203-0.262-0.44-0.501-0.683-0.729c-3.43-3.223-5.791-7.175-7.806-11.37c-0.215-0.445-0.507-0.857-0.793-1.263
			c-3.001-4.259-4.76-9.073-6.049-14.049c-0.66-2.548-0.893-5.207-1.318-7.815c-0.053-0.327-0.043-0.68-0.169-0.976
			c-1.368-3.23-1.321-6.626-1.354-10.048c-0.039-4.146-0.293-8.29-0.483-12.433c-0.137-2.979-0.705-5.995-0.412-8.927
			c0.863-8.646,0.319-17.295,0.366-25.938c0.026-4.872-0.952-9.62-2.779-14.242c-1.411-3.57-3.279-6.717-6.066-9.252
			c-2.878-2.617-5.837-5.191-9.021-7.41c-1.919-1.337-4.274-2.164-6.544-2.861c-3.614-1.111-7.29-2.075-10.997-2.814
			c-2.982-0.596-5.907-1.735-9.054-1.339c-0.461,0.058-0.961-0.175-1.44-0.282c-1.025-0.228-2.039-0.573-3.077-0.673
			c-4.441-0.425-8.869-0.837-13.191-2.082c-1.785-0.515-3.721-0.484-5.533-0.926c-4.985-1.214-9.957-2.492-14.905-3.847
			c-5.968-1.634-11.517-4.305-16.657-7.67c-3.418-2.237-6.844-4.544-9.289-8.062c-1.967-2.83-4.505-5.255-6.64-7.978
			c-2.374-3.028-3.804-6.575-5.305-10.101c-2.232-5.247-2.835-10.841-3.941-16.333c0.979,0.13,1.958,0.267,2.938,0.389
			c2.87,0.357,5.754,1.084,8.607,0.979c4.78-0.178,9.533-1.18,14.312-1.298c5.312-0.132,10.063-2.095,14.873-3.819
			c4.821-1.728,9.481-3.914,14.169-5.995c3.238-1.438,6.407-3.035,9.602-4.572c1.844-0.888,3.678-1.797,5.517-2.697
			c1.5,1.516,2.565,1.731,4.307,0.978c1.783-0.772,2.237-2.211,2.125-3.974c3.381-0.987,6.757-1.994,10.147-2.95
			c0.938-0.265,1.916-0.382,2.875-0.567c0.222,1.372,0.613,2.645,2.211,2.956c1.569,0.306,2.85-0.409,3.644-1.626
			c0.499-0.766,0.477-1.871,0.688-2.824c2.237-0.134,4.475-0.268,6.712-0.401c-0.379,0.902-0.931,1.775-1.096,2.715
			c-0.233,1.333,1.033,3.095,2.384,3.409c1.176,0.272,2.172-0.328,2.716-1.322c0.58-1.062,0.914-2.258,1.355-3.396
			c0.964-0.385,1.91-0.37,2.866,0.059c2.263,1.014,4.536,2.007,6.805,3.008c-0.285,0.59-0.587,1.172-0.852,1.771
			c-0.457,1.033-0.634,2.075,0.28,2.959c0.931,0.899,1.954,1.346,3.332,0.883c1.439-0.483,2.342-1.437,3.033-2.693
			c5.016,0.373,9.848,1.855,14.902,2.198c5.481,0.371,10.796,0.296,16.203-0.886c3.989-0.873,7.783-1.944,11.226-4.141
			c3.894,0.629,7.741,0.489,11.535-0.674c4.746-1.455,9.461-2.978,13.841-5.381c0.859-0.471,1.822-0.752,2.736-1.121
			c0.257,2.165,1.953,3.44,3.275,4.813c4.175,4.333,8.925,8.002,14.018,11.208c0.74,0.466,1.631,0.693,2.453,1.031
			c-0.069,1.73-0.242,3.465-0.158,5.188c0.035,0.721,0.426,1.707,0.982,2.072c2.601,1.708,5.342,2.612,8.119,0.282
			c0.723-0.606,1.391-1.277,2.084-1.918c4.307,0.775,8.613,1.551,12.92,2.327c-0.085,0.406-0.11,0.836-0.263,1.215
			c-2.493,6.251-3.13,12.837-3.472,19.466c-0.223,4.329-0.081,8.646,1.569,12.742c2.195,5.447,4.887,10.615,8.745,15.109
			c3.555,4.14,7.969,6.909,13.209,8.368c1.912,0.532,3.832,1.057,5.774,1.457c2.235,0.46,4.499,0.778,6.751,1.158
			c0,38.667,0,77.333,0,116c-1.809,1.783-3.609,3.573-5.428,5.345c-0.932,0.908-1.895,1.784-2.844,2.673
			c-0.292,0.273-0.653,0.499-0.87,0.821c-2.618,3.894-6.096,6.925-9.683,9.876c-2.095,1.725-3.94,3.751-6.033,5.478
			c-4.132,3.407-8.308,6.761-13.19,9.102c-2.246,1.076-4.321,2.561-6.637,3.428c-2.693,1.008-5.564,1.542-8.358,2.281
			c-1.052-1.151-2.05-2.359-3.167-3.443c-2.357-2.286-6.072-2.751-8.967-1.221c-2.586,1.368-4.696,3.104-4.991,6.292
			C679.819,285.763,679.627,285.877,679.52,286z M680.141,63.074l-0.077,0.042c-1.064-0.036-1.128,0.614-0.969,1.416
			c-0.093,0.092-0.157,0.201-0.193,0.327c-1.632,2.003-1.607,3.024,0.108,4.623c0.553,0.969,1.076,1.972,2.372,2.102
			c0.859,1.313,1.985,0.983,3.136,0.51c1.88,0.009,3.021-1.147,4.01-2.544c1.024-0.966,2.016-3.708,1.68-4.782
			c-0.057-0.181-0.367-0.282-0.561-0.42c-0.15-0.167-0.3-0.333-0.451-0.5c-0.449-0.963-0.737-2.144-2.251-1.685
			c-0.142-0.08-0.293-0.132-0.453-0.159c-1.18-1.212-2.387-1.272-4.229-0.208c-0.408,0.103-0.816,0.206-1.226,0.309
			C680.738,62.428,680.439,62.751,680.141,63.074z M687.953,258.662c0-0.665,0.152-1.377-0.034-1.984
			c-0.313-1.024-0.849-1.98-1.28-2.969c-0.677-1.55-3.154-2.904-4.814-2.575c-2.226,0.442-4.313,1.138-5.793,3.049
			c-0.502,0.648-1.164,1.191-1.817,1.699c-1.046,0.813-1.399,1.782-1.001,3.063c0.17,0.546,0.21,1.135,0.279,1.707
			c0.488,4.02,3.954,6.605,7.867,5.769c1.26-0.27,2.799-0.471,3.621-1.293C686.701,263.408,688.138,261.346,687.953,258.662z
			 M674.979,277.897c0-0.498,0.057-1.003-0.009-1.493c-0.383-2.88-2.128-4.242-4.989-3.871c-0.649,0.084-1.305,0.271-1.909,0.525
			c-2.047,0.859-3.773,3.281-3.521,5.146c0.391,2.887,2.64,4.956,6.202,4.8C673.209,282.896,674.988,280.795,674.979,277.897z
			 M527.339,84.377c-2.969-1.297-6.383-0.498-8.31,1.898c-0.246,0.305-0.427,0.712-0.498,1.098c-0.513,2.776,1.067,4.583,3.86,4.666
			c1.374,0.041,2.338-0.447,3.255-1.401C527.333,88.884,527.871,86.863,527.339,84.377z M534.506,93.402
			c-0.01,2.197,1.71,4.076,3.736,4.082c1.921,0.005,3.663-1.671,3.743-3.599c0.086-2.066-1.488-3.898-3.323-3.868
			C535.753,90.065,534.517,91.072,534.506,93.402z M532.282,81.987c2.021-0.002,3.688-1.754,3.72-3.908
			c0.029-1.94-1.214-3.506-2.792-3.518c-2.424-0.018-4.251,1.825-4.194,4.231C529.05,80.244,530.834,81.988,532.282,81.987z
			 M592.029,68.512c1.946-0.011,3.687-1.832,3.674-3.843c-0.01-1.524-1.281-2.729-2.913-2.761c-1.602-0.031-4.097,2.265-4.044,3.722
			C588.812,67.447,590.037,68.523,592.029,68.512z M581.206,75.488c1.54-0.026,3.127-1.546,3.093-2.963
			c-0.036-1.542-1.899-3.352-3.451-3.353c-1.612,0-3.233,1.673-3.145,3.247C577.809,74.28,579.227,75.521,581.206,75.488z
			 M566.908,56.35c-0.029-1.63-1.071-3.01-2.283-3.022c-1.928-0.02-3.582,1.668-3.575,3.65c0.006,1.967,1.013,3.083,2.759,3.059
			C565.701,60.012,566.946,58.53,566.908,56.35z M638.854,106.441c2.334-0.058,4.108-1.442,4.467-3.003
			c0.324-1.417,0.047-1.963-1.281-2.523c-1.486-0.627-3.442,0.01-4.584,1.489c-0.722,0.934-1.013,1.999-0.229,2.938
			C637.735,105.954,638.596,106.275,638.854,106.441z M652.605,100.297c-1.861-0.041-3.516,1.555-3.535,3.411
			c-0.017,1.562,0.816,2.446,2.399,2.547c1.896,0.122,3.887-1.818,3.843-3.744C655.28,101.137,654.3,100.334,652.605,100.297z
			 M569.716,73.143c0.015-1.541-1.271-2.846-2.803-2.847c-1.716-0.002-3.221,1.713-3.241,3.694
			c-0.014,1.269,1.211,2.649,2.358,2.658C568.084,76.665,569.698,75.13,569.716,73.143z M555.283,62.949
			c-1.777,0.039-2.839,1.17-2.824,3.011c0.015,1.705,1.132,2.66,3.151,2.694c1.602,0.027,2.948-1.383,2.885-3.02
			C558.434,64.052,557.067,62.911,555.283,62.949z M645.861,94.201c1.766,0.197,3.454-1.025,3.604-2.609
			c0.143-1.505-0.83-2.62-2.469-2.833c-1.676-0.217-3.338,1.121-3.475,2.796C643.404,93.001,644.312,94.028,645.861,94.201z
			 M575.49,67.397c1.708,0.027,2.998-1.249,2.984-2.953c-0.011-1.38-1.348-2.854-2.58-2.845c-1.591,0.012-2.951,1.415-2.964,3.058
			C572.917,66.307,573.913,67.372,575.49,67.397z M578.98,56.352c0.053-1.65-0.753-2.668-2.192-2.77
			c-1.821-0.128-3.195,1.139-3.229,2.978c-0.029,1.562,0.851,2.441,2.441,2.438C577.736,58.995,578.929,57.937,578.98,56.352z
			 M699.996,169.283c-0.021,1.636,1.006,2.714,2.566,2.697c1.5-0.017,2.748-1.371,2.719-2.952c-0.028-1.561-1.063-2.214-3.13-2.379
			C700.71,166.534,700.215,167.241,699.996,169.283z M588.607,60.02c1.417-0.045,2.791-1.348,2.773-2.63
			c-0.02-1.457-1.308-2.853-2.589-2.806c-1.385,0.051-3.175,1.76-3.173,3.029C585.622,58.771,587.228,60.064,588.607,60.02z"/>
		<path fill="#FEDBD0" d="M623,500c-63.833,0-127.667,0-191.5,0c0.109-1.4,0.038-2.844,0.364-4.191
			c0.775-3.195,1.715-6.353,2.637-9.512c0.602-2.062,1.084-4.194,1.979-6.129c2.32-5.011,3.543-10.484,6.466-15.235
			c0.125-0.204,0.181-0.471,0.206-0.716c0.161-1.56,1.197-2.669,1.938-3.946c1.587-2.735,3.482-5.229,5.479-7.668
			c1.135-1.386,2.091-2.918,3.127-4.385c0.878,0.766,1.792,1.494,2.627,2.304c3.598,3.485,7.44,6.676,11.787,9.17
			c6.411,3.678,13.17,5.353,20.6,3.493c4.237-1.062,8.191-2.676,12.041-4.69c7.178-3.756,13.324-8.74,18.465-14.989
			c0.938-1.14,1.95-2.219,2.933-3.33c1.704,0.771,3.2,1.503,4.736,2.136c5.843,2.404,11.936,3.646,18.246,3.399
			c5.454-0.214,10.695-1.65,15.701-3.762c10.854-4.578,21.031-10.344,30.22-17.775c0.769-0.622,1.628-1.131,2.445-1.692
			c2.325-0.514,4.693-0.884,6.967-1.568c6.536-1.97,12.432-5.303,18.193-8.878c2.296-1.424,4.525-2.953,6.786-4.435
			c2.575-0.065,5.169-0.354,7.723-0.146c4.5,0.369,8.903,1.307,12.737,3.908c2.238,1.52,3.938,3.496,4.736,6.04
			c-0.141,0.221-0.168,0.323-0.228,0.35c-1.063,0.465-2.144,0.893-3.194,1.383c-6.056,2.821-10.479,7.337-13.26,13.349
			c-2.423,5.241-1.382,10.402,1.048,15.387c1.189,2.441,3.619,3.714,6.339,3.293c4.946-0.766,8.461-3.775,11.243-7.64
			c3.751-5.209,4.59-11.136,3.601-17.373c-0.335-2.117-0.785-4.215-1.231-6.582c4.976-0.537,9.83-1.131,14.698-1.569
			c6.829-0.614,13.517-1.964,19.931-4.322c7.326-2.693,14.531-5.719,21.76-8.672c7.811-3.19,14.894-7.747,22.164-11.948
			c6.272-3.625,11.79-8.086,15.927-14.115c0.129-0.188,0.372-0.296,0.563-0.441c0,14.833,0,29.667,0,44.5
			c-2.472,0.148-4.942,0.406-7.415,0.424c-6.998,0.048-13.85,1.276-20.659,2.646c-6.183,1.243-12.156,3.318-18.031,5.599
			c-4.171,1.619-8.171,3.69-12.377,5.197c-6.223,2.229-11.55,6.109-17.404,9.01c-6.342,3.142-11.549,7.948-17.087,12.288
			c-6.143,4.813-11.179,10.667-16.644,16.129c-2.605,2.604-4.496,5.695-6.592,8.625c-3.688,5.156-7.003,10.579-10.453,15.904
			C623.126,499.15,623.108,499.604,623,500z"/>
		<path fill="#DAF1FF" d="M645.881,51.659c-3.443,2.198-7.237,3.269-11.227,4.142c-5.407,1.183-10.722,1.257-16.203,0.886
			c-5.055-0.342-9.887-1.825-14.902-2.198c-0.856-3.399-2.841-4.399-5.794-2.92c-2.269-1.001-4.542-1.994-6.805-3.008
			c-0.956-0.429-1.902-0.444-2.866-0.059c-1.489-2.235-1.988-2.422-4.426-1.665c-0.309,0.096-0.623,0.173-0.934,0.259
			c-2.237,0.134-4.475,0.268-6.712,0.402c-0.738-1.253-1.692-2.499-3.206-2.389c-1.606,0.117-2.477,1.491-3.06,2.929
			c-0.124,0.305-0.186,0.635-0.276,0.954c-0.959,0.185-1.938,0.303-2.875,0.567c-3.391,0.957-6.767,1.963-10.147,2.95
			c-1.414-2.314-3.32-2.549-5.366-0.809c-1.271,1.081-1.104,2.429-1.065,3.805c-1.839,0.9-3.673,1.81-5.517,2.697
			c-3.194,1.537-6.363,3.134-9.602,4.572c-4.688,2.082-9.348,4.268-14.169,5.995c-4.811,1.724-9.562,3.687-14.873,3.819
			c-4.778,0.119-9.531,1.12-14.312,1.298c-2.854,0.106-5.737-0.621-8.607-0.979c-0.98-0.122-1.959-0.259-2.938-0.389
			c-2.363-0.368-4.721-0.78-7.092-1.09c-2-0.261-3.926-0.803-5.825-1.424c-3.394-1.11-6.982-1.584-10.151-3.46
			c-1.592-0.943-3.536-1.27-5.239-2.054c-1.543-0.709-3.048-1.556-4.438-2.53c-2.127-1.492-3.957-3.517-6.243-4.645
			c-3.517-1.734-6.063-4.565-8.865-7.057c-3.401-3.025-6.384-6.527-9.484-9.88c-1.283-1.387-2.404-2.925-3.6-4.394
			c-0.378-2.33,0.786-4.375,1.219-6.554c0.725-3.649,1.875-7.265,2.137-10.945C422.896,11.746,420.94,5.538,417,0
			c20.5,0,41,0,61.5,0c-0.334,0.744-0.55,1.574-1.021,2.215c-1.668,2.265-3.487,4.419-5.126,6.705
			c-1.188,1.657-2.929,2.972-3.304,5.167c-0.288,1.686,0.126,2.97,1.294,3.722c1.494,0.961,2.961,0.907,4.359-0.297
			c0.683-0.588,1.252-1.321,1.812-2.037c2.652-3.387,5.32-6.763,7.908-10.2C485.698,3.58,486.813,1.762,488,0c4.5,0,9,0,13.5,0
			c0.123,1.5-1.015,2.382-1.715,3.473c-2.413,3.756-4.933,7.449-7.207,11.288c-0.569,0.96-0.59,2.397-0.471,3.575
			c0.133,1.304,1.368,1.894,2.524,2.077c1.09,0.173,2.344,0.474,3.225-0.676c1.207-1.577,2.49-3.101,3.623-4.729
			c1.464-2.104,2.748-4.335,4.227-6.428c1.671-2.366,3.494-4.624,5.198-6.966c0.324-0.446,0.403-1.071,0.596-1.613c5,0,10,0,15,0
			c-0.231,0.611-0.347,1.305-0.714,1.819c-2.735,3.831-5.445,7.683-8.324,11.404c-1.283,1.659-1.603,3.413-1.419,5.355
			c0.106,1.125,0.814,1.749,1.948,1.928c2.662,0.42,4.178-0.294,5.571-2.684c0.501-0.859,0.897-1.794,1.492-2.581
			c3.287-4.359,6.64-8.669,9.921-13.033C535.452,1.574,535.665,0.741,536,0c34,0,68,0,102,0c0.491,0.561,0.98,1.123,1.473,1.682
			c4.428,5.028,4.185,12.375-0.241,16.761c-0.212-0.087-0.469-0.137-0.655-0.279c-2.769-2.106-5.977-2.397-9.267-2.137
			c-1.728,0.136-3.142,1.059-4.202,2.437c-1.645,2.136-1.148,4.628,1.264,5.86c0.855,0.438,1.892,0.643,2.862,0.713
			c2.694,0.194,5.313-0.153,7.75-1.452c0.534-0.285,1.154-0.408,2.152-0.748c0,1.712,0.061,3.033-0.012,4.347
			c-0.222,4.07-0.547,8.135-0.728,12.207c-0.118,2.663-0.042,5.303,1.412,7.73C641.23,49.496,643.467,50.67,645.881,51.659z
			 M505.11,29.489c-0.256,0.137-1.162,0.397-1.751,0.979c-1.644,1.623-3.498,3.063-4.524,5.257
			c-0.551,1.178-1.229,2.391-2.149,3.279c-1.557,1.504-1.816,3.266-1.701,5.241c0.087,1.485,0.856,2.751,1.985,3.143
			c1.424,0.494,2.874-0.019,3.813-1.384c1.122-1.632,2.276-3.246,3.315-4.93c1.392-2.255,2.824-4.503,3.984-6.878
			C509.283,31.735,508.074,29.505,505.11,29.489z M470.871,45.496c3.931-2.956,6.278-6.95,8.522-11.002
			c0.42-0.76,0.546-1.745,0.592-2.637c0.115-2.215-1.124-3.274-3.26-2.789c-0.698,0.159-1.432,0.522-1.961,1.001
			c-3.154,2.854-5.823,6.098-7.631,9.99c-1.079,2.325-0.087,4.407,2.387,5.027C469.919,45.187,470.308,45.324,470.871,45.496z
			 M483.452,50.507c-0.306,0.179-1.145,0.442-1.649,1.005c-2.047,2.282-4.107,4.57-5.925,7.033c-0.959,1.3-1.567,2.919-2.059,4.481
			c-0.239,0.762-0.129,1.908,0.306,2.559c1.552,2.329,3.447,2.759,6.063-0.173c1.369-1.534,2.541-3.288,3.561-5.079
			c1.105-1.941,2.089-3.986,2.833-6.089C487.303,52.206,485.934,50.448,483.452,50.507z M597.483,46.377
			c2.103-0.022,2.929-0.841,2.868-2.844c-0.057-1.853-1.607-3.491-3.254-3.438c-1.658,0.054-3.03,1.374-3.052,2.937
			C594.016,45.133,595.318,46.4,597.483,46.377z M561.771,44.979c1.663-0.011,3.404-1.567,3.36-3
			c-0.043-1.369-1.98-3.188-3.381-3.174c-1.53,0.016-2.99,1.541-2.947,3.077C558.865,44.084,559.735,44.992,561.771,44.979z
			 M578.863,36.717c-0.01-1.883-1.526-3.421-3.295-3.34c-1.232,0.056-2.813,1.778-2.813,3.065c-0.001,1.306,1.752,2.963,3.161,2.987
			C578.062,39.467,578.873,38.72,578.863,36.717z M588.879,36.267c0.019-1.723-1.127-2.82-3.005-2.876
			c-1.633-0.048-3.337,1.692-3.285,3.355c0.045,1.431,1.489,2.712,3.024,2.684C587.146,39.402,588.862,37.74,588.879,36.267z"/>
		<path fill="#FFF6F3" d="M408.532,58.479c-1.797,1.317-3.54,2.718-5.404,3.934c-4.276,2.791-8.624,5.473-12.917,8.238
			c-1.318,0.85-2.504,1.91-3.841,2.728c-3.321,2.033-6.663,4.039-10.056,5.95c-4.422,2.49-9.039,4.543-13.92,5.997
			c-1.251,0.373-2.369,1.453-3.606,1.564c-3.596,0.324-6.705,2.239-10.194,2.823c-2.65,0.442-5.321,0.782-7.949,1.326
			c-2.188,0.453-4.305,1.146-6.604,0.991c-2.043-0.138-4.111,0.076-6.156-0.053c-3.711-0.235-7.408-0.74-11.121-0.897
			c-6.035-0.257-11.639-2.472-17.477-3.603c-0.082-0.016-0.172-0.011-0.245-0.045c-4.718-2.176-9.729-3.572-14.331-6.159
			c-4.786-2.689-9.472-5.47-13.768-8.848c-3.828-3.01-7.697-6.056-10.006-10.542c-0.076-0.147-0.161-0.299-0.275-0.415
			c-3.238-3.251-5.741-7.057-8.315-10.825c-2.801-4.099-5.896-8.071-7.86-12.606c-1.689-3.898-3.863-7.633-4.614-11.963
			c-0.731-4.218-2.033-8.334-2.924-12.53C236.001,9.088,235.15,4.603,235.5,0c40.333,0,80.667,0,121,0
			c-1.292,1.925-2.708,3.779-3.849,5.79c-2.4,4.23-3.022,8.88-2.741,13.661c0.332,5.63-0.091,11.171-2.82,16.188
			c-1.488,2.735-3.597,5.14-5.482,7.651c-3.375,4.494-7.508,7.921-13.143,9.225c-1.399,0.324-2.042,1.155-1.927,2.188
			c0.113,1.028,0.971,1.667,2.328,1.799c3.949,0.387,7.744-0.653,11.507-1.497c2.204-0.494,4.342-1.663,6.275-2.896
			c3.62-2.309,7.354-4.551,9.807-8.272c1.273-1.932,2.426-3.959,3.85-5.774c3.284-4.188,4.09-9.141,4.696-14.187
			c0.237-1.967,0.279-3.993,0.806-5.882c1.375-4.927,3.913-9.306,6.887-13.439C373.789,3.032,374.897,1.518,376,0
			c0.333,0,0.667,0,1,0c-0.329,1.449-0.902,2.892-0.938,4.348c-0.081,3.205-0.866,6.349-0.147,9.641
			c0.896,4.105,1.202,8.336,1.848,12.499c0.521,3.347,1.199,6.668,1.752,10.011c0.296,1.792,0.551,3.599,0.683,5.409
			c0.113,1.551,0.278,3.168-0.024,4.666c-0.9,4.458-2.036,8.868-3.048,13.305c-0.404,1.773-0.746,3.562-1.077,5.352
			c-0.2,1.081,0.098,2.042,1.134,2.532c0.968,0.458,1.953,0.366,2.756-0.455c0.465-0.476,0.985-0.921,1.348-1.469
			c2.832-4.282,5.744-8.516,8.411-12.899c3.175-5.218,4.931-11.033,6.229-16.944c0.67-3.049,0.736-6.233,1.052-9.358
			c0.05-0.492,0.017-1.003-0.056-1.494c-0.457-3.104-0.869-6.218-1.424-9.306C394.549,10.549,393.505,5.278,392.5,0
			c1.667,0,3.333,0,5,0c0.782,1.536,1.581,3.063,2.344,4.608c1.24,2.515,2.622,4.977,3.646,7.578
			c1.597,4.056,1.215,8.276,0.595,12.49c-0.3,2.039-0.427,4.105-0.578,6.164c-0.188,2.552-0.335,5.108-0.468,7.665
			c-0.029,0.573,0.056,1.154,0.118,1.729c0.099,0.9,0.325,1.797,0.318,2.694c-0.034,4.595,1.39,8.792,3.424,12.824
			C407.376,56.695,407.984,57.571,408.532,58.479z M276.632,42.652c-0.272-0.678-0.444-1.137-0.639-1.586
			c-0.597-1.378-2.087-2.422-3.211-2.259c-1.504,0.218-2.581,1.558-2.661,3.383c-0.043,0.994-0.086,1.999,0.007,2.986
			c0.121,1.272-0.402,1.949-1.547,2.479c-1.267,0.587-2.528,1.301-3.586,2.202c-1.931,1.644-1.602,3.844,0.659,5.025
			c0.65,0.34,1.407,0.475,2.111,0.715c0.918,0.313,1.832,0.639,2.789,0.973c-0.052,0.866-0.003,1.539-0.147,2.167
			c-0.301,1.305-0.002,2.43,0.663,3.563c0.606,1.033,1.134,2.076,2.539,2.058c1.467-0.019,2.16-1.031,2.763-2.182
			c0.487-0.929,1.041-1.823,1.891-3.299c0.617,0.898,0.875,1.634,1.389,1.938c0.802,0.474,1.795,0.953,2.675,0.9
			c2.02-0.121,2.896-2.671,1.707-4.659c-0.68-1.136-1.353-2.283-2.121-3.358c-0.733-1.025-0.681-1.987-0.056-2.997
			c1.266-2.044,2.51-4.103,3.81-6.125c0.924-1.438,1.006-2.486,0.154-3.646c-0.952-1.297-1.593-1.48-3.479-0.738
			C280.495,40.918,278.695,41.757,276.632,42.652z"/>
		<path fill="#548099" d="M623,500c0.108-0.396,0.126-0.85,0.338-1.178c3.45-5.325,6.766-10.748,10.453-15.904
			c2.096-2.93,3.986-6.021,6.592-8.625c5.465-5.462,10.501-11.315,16.644-16.129c5.538-4.34,10.745-9.146,17.087-12.288
			c5.854-2.9,11.182-6.78,17.404-9.01c4.206-1.507,8.206-3.578,12.377-5.197c5.875-2.28,11.849-4.355,18.031-5.599
			c6.81-1.37,13.661-2.599,20.659-2.646c2.473-0.018,4.943-0.275,7.415-0.424c0,25.667,0,51.333,0,77
			C707.667,500,665.333,500,623,500z M676.375,463.035c1.14-0.251,2.619-0.442,3.985-0.942c0.563-0.206,1.229-1.084,1.215-1.641
			c-0.013-0.519-0.836-1.415-1.355-1.454c-2.358-0.18-4.741-0.217-7.104-0.089c-0.962,0.052-1.502,0.973-1.519,1.987
			c-0.016,0.989,0.656,1.518,1.505,1.71C674.055,462.823,675.045,462.87,676.375,463.035z M707.814,457.402
			c-1.287,0.122-2.369,0.146-3.416,0.35c-0.971,0.188-1.705,0.855-1.603,1.896c0.107,1.091,0.798,1.832,2.005,1.764
			c2.389-0.135,4.776-0.287,7.159-0.498c0.801-0.07,1.394-0.547,1.424-1.444c0.03-0.915-0.549-1.354-1.359-1.482
			C710.56,457.755,709.086,457.576,707.814,457.402z M726.254,439.961c1.112-0.216,2.701-0.371,4.167-0.88
			c0.614-0.213,1.277-1.134,1.369-1.808c0.134-0.982-0.882-1.442-1.701-1.451c-2.231-0.024-4.479,0.014-6.689,0.279
			c-0.592,0.07-1.399,0.978-1.532,1.62c-0.188,0.906,0.367,1.814,1.446,2.01C724.121,439.877,724.957,439.867,726.254,439.961z
			 M698.203,450.972c0.011,0.05,0.021,0.1,0.03,0.149c1.375-0.248,2.772-0.412,4.117-0.772c0.882-0.237,1.452-1.042,1.088-1.923
			c-0.233-0.566-0.959-1.235-1.525-1.298c-1.552-0.169-3.138-0.088-4.705-0.005c-0.552,0.029-1.29,0.195-1.585,0.577
			c-0.46,0.595-0.889,1.461-0.801,2.145c0.055,0.438,1.021,0.872,1.654,1.091C696.994,451.114,697.624,450.972,698.203,450.972z
			 M715.076,480.338c0.595-0.073,1.654-0.193,2.711-0.339c1.003-0.139,1.889-0.673,1.714-1.707
			c-0.109-0.646-0.849-1.376-1.491-1.706c-1.902-0.976-3.899-0.309-5.789,0.144c-0.52,0.124-1.159,1.292-1.087,1.903
			c0.072,0.618,0.87,1.313,1.519,1.65C713.17,480.554,713.941,480.338,715.076,480.338z M652.97,478.637
			c0.991-0.141,2.333-0.218,3.6-0.564c0.519-0.143,1.203-0.862,1.214-1.334c0.011-0.437-0.738-1.228-1.219-1.282
			c-2.214-0.249-4.455-0.412-6.676-0.329c-0.544,0.021-1.336,1.018-1.501,1.691c-0.23,0.941,0.639,1.491,1.508,1.637
			C650.792,478.605,651.719,478.572,652.97,478.637z M709.683,489.446c-0.95,0.101-1.623,0.106-2.263,0.255
			c-0.974,0.227-1.67,0.849-1.698,1.889c-0.03,1.088,0.735,1.636,1.697,1.86c1.885,0.441,3.648-0.083,5.244-1.002
			c0.951-0.548,0.864-1.726-0.146-2.2C711.564,489.8,710.47,489.657,709.683,489.446z M735.998,451.943
			c0.766-0.263,1.911-0.507,2.907-1.033c1.329-0.703,1.286-2.119-0.137-2.549c-1.368-0.412-2.889-0.43-4.34-0.418
			c-1.059,0.009-1.958,0.585-1.938,1.817c0.019,1.175,0.898,1.694,1.903,1.984C734.784,451.858,735.208,451.852,735.998,451.943z
			 M736.344,471.154c0.952-0.19,1.981-0.219,2.828-0.628c0.533-0.257,1.056-1.068,1.09-1.659c0.026-0.455-0.629-1.207-1.134-1.38
			c-0.901-0.31-1.919-0.375-2.889-0.377c-2.054-0.002-3.156,0.782-3.078,2.047C733.246,470.543,734.07,471.028,736.344,471.154z
			 M685.329,480.831c1.121-0.151,2.125-0.188,3.072-0.439c1.06-0.282,1.274-1.31,0.548-2.125c-0.84-0.942-4.41-1.793-5.578-1.337
			c-0.85,0.332-1.374,0.897-1.335,1.856c0.038,0.958,0.583,1.514,1.481,1.721C684.156,480.654,684.81,480.74,685.329,480.831z
			 M740.005,492.591c-1.539-1.97-3.595-2.067-5.637-1.96c-0.518,0.026-1.346,0.675-1.414,1.13c-0.09,0.604,0.254,1.474,0.712,1.921
			C735.185,495.163,738.521,494.628,740.005,492.591z M676.727,493.932c0.587-0.146,1.677-0.286,2.637-0.716
			c0.486-0.217,1.047-0.983,1.011-1.458c-0.039-0.508-0.657-1.215-1.173-1.388c-0.918-0.307-1.947-0.334-2.934-0.373
			c-1.422-0.057-2.584,0.753-2.604,1.715C673.642,492.718,675.015,493.893,676.727,493.932z M645.367,489.611
			c-0.518,0.079-1.188,0.107-1.81,0.294c-0.819,0.245-1.502,0.673-1.465,1.719c0.042,1.148,0.805,1.673,1.744,1.719
			c1.049,0.052,2.16-0.065,3.151-0.39c0.58-0.189,1.252-0.858,1.4-1.436c0.244-0.953-0.6-1.458-1.413-1.727
			C646.519,489.64,646.001,489.675,645.367,489.611z"/>
		<path fill="#FEDBD0" d="M0,167c0-26.167,0-52.333,0-78.5c0.655-0.054,1.348,0.012,1.957-0.184c2.916-0.939,5.824-1.904,8.703-2.95
			c2.025-0.735,4.049-1.507,5.985-2.446c7.362-3.57,14.189-7.963,20.285-13.455c0.977-0.88,2.019-1.687,3.031-2.527
			c0.166,0.179,0.303,0.467,0.502,0.52c2.616,0.692,5.08,1.823,7.844,2.137c2.246,0.254,4.413-0.067,6.612-0.105
			c1.973-0.034,3.95-0.216,5.91-0.455c2.203-0.269,4.38-0.885,6.583-0.967c2.481-0.093,4.64-1.106,6.921-1.79
			c1.481-0.444,2.984-0.823,4.445-1.322c1.438-0.492,2.836-1.099,4.251-1.654c2.793,2.133,6.002,3.297,9.37,4.16
			c1.409,0.361,2.738,1.032,4.103,1.562c0.266,2.54,0.588,5.076,0.777,7.622c0.115,1.554,0.345,3.212-0.054,4.664
			c-0.516,1.874-0.792,3.708-0.737,5.622c-1.573,3.32-3.654,6.326-6.088,9.04c-3.324,3.707-6.727,7.357-10.291,10.831
			c-3.92,3.821-7.962,7.531-12.132,11.076c-4.86,4.131-10.081,7.837-14.271,12.729c-2.655,3.1-5.309,6.215-7.058,9.913
			c-1.381,2.918-2.466,5.988-3.514,9.048c-0.934,2.729-1.636,5.537-2.437,8.3c-0.516,0.024-0.845,0.064-1.171,0.051
			c-3.396-0.132-6.816-0.595-10.184-0.349c-9.322,0.68-18.082,3.377-26.199,8.083C2.165,166.221,1.051,166.557,0,167z"/>
		<path fill="#DAF1FF" d="M346.954,489.987c0.806,1.415,1.73,2.778,2.389,4.259c0.832,1.867,1.448,3.831,2.157,5.754
			c-43.5,0-87,0-130.5,0c0.664-4.842,1.467-9.669,1.949-14.528c0.409-4.123,0.447-8.283,0.649-12.427
			c0.655-0.291,1.496-0.416,1.932-0.902c1.935-2.161,4.26-3.809,6.56-5.537c3.753-2.82,7.508-5.604,11.694-7.767
			c0.521-0.269,0.858-0.895,1.28-1.355c1.969-0.804,3.904-1.705,5.914-2.389c2.802-0.953,5.66-1.745,8.494-2.605
			c0.444,0.781,0.854,1.585,1.34,2.338c1.035,1.603,3.777,1.039,4.439-0.312c0.597-1.22,1.348-2.508,0.685-3.985
			c1.22-0.01,2.44-0.019,3.659-0.028c0.702,1.528,1.924,2.014,3.551,1.953c1.667-0.062,1.744-1.442,2.288-2.46
			c1.394-0.16,2.786-0.342,4.183-0.475c0.906-0.086,1.406,0.366,1.468,1.282c-0.581,0.457-1.236,0.848-1.726,1.389
			c-0.997,1.1-1.005,2.435-0.49,3.729c0.443,1.112,1.448,1.554,2.592,1.627c1.41,0.091,3.026-0.986,3.526-2.301
			c0.455-1.196,0.04-2.505-1.157-3.528c-0.437-0.374-0.922-0.689-1.385-1.031c0.254-0.166,0.511-0.479,0.762-0.475
			c1.561,0.031,3.12,0.133,4.678,0.211c1.094,0.857,2.293,1.005,3.583,0.518c0.516,0.348,0.986,0.863,1.554,1.015
			c2.989,0.798,5.976,1.653,9.016,2.189c2.214,0.391,4.217,1.308,6.307,1.99c2.187,0.715,4.316,1.674,6.363,2.734
			c2.392,1.237,4.669,2.696,6.993,4.065c3.399,2.002,6.29,4.674,9.358,7.11c-0.825,0.879-1.669,1.741-2.471,2.642
			c-2.811,3.157-5.61,6.324-8.407,9.493c-0.931,1.056-1.882,2.098-2.752,3.202c-1.282,1.629-1.073,4.988,0.312,5.918
			c1.948,1.306,4.248,0.856,5.649-1.118c0.623-0.878,1.155-1.829,1.845-2.649c3.565-4.239,7.427-8.242,10.272-13.047
			c2.732,1.785,4.457,4.533,6.55,6.923c0.331,0.378,0.315,1.06,0.46,1.601c-0.496,0.652-1.051,1.269-1.474,1.965
			c-0.803,1.321-0.775,3.932-0.021,4.694c1.143,1.153,3.035,1.425,4.767,0.7C346.165,490.212,346.565,490.113,346.954,489.987z
			 M274.546,464.028c0.019-2.027-1.098-3.298-2.884-3.284c-1.896,0.015-4.097,2.688-4.097,4.976c0,1.415,1.258,2.597,2.755,2.588
			C272.798,468.292,274.522,466.546,274.546,464.028z M300.5,458.117c0.014-1.961-1.734-3.933-3.438-3.88
			c-1.956,0.062-3.375,1.637-3.444,3.82c-0.054,1.74,1.356,2.825,3.628,2.789C298.99,460.818,300.49,459.561,300.5,458.117z
			 M288.982,464.155c0.038-2.048-0.319-2.983-1.43-3.368c-1.199-0.414-2.281-0.054-3.198,0.771
			c-1.084,0.975-1.515,2.592-1.055,3.791c0.589,1.54,1.254,2.057,2.702,2.103C287.991,467.513,288.94,466.464,288.982,464.155z"/>
		<path fill="#FEDBD0" d="M703.429,358.623c0.503-1.426,1.928-1.133,2.946-1.45c1.315-0.41,2.747-0.447,4.128-0.646
			c-0.073,1.037-0.284,2.088-0.18,3.107c0.102,0.994,0.945,1.465,1.892,1.687c1.03,0.242,1.717-0.193,2.277-1.027
			c0.839-1.25,1.542-2.521,1.195-4.107c2.697-0.336,5.388-0.788,8.097-0.966c1.797-0.118,3.674,0.48,5.423,0.193
			c4.629-0.763,9.263-0.295,13.889-0.385c2.298-0.044,4.603,0.302,6.904,0.471c0,6,0,12,0,18c-0.168,0.168-0.379,0.311-0.499,0.507
			c-3.606,5.916-8.196,10.898-14.101,14.566c-9.541,5.927-19.201,11.641-29.712,15.749c-4.874,1.905-9.688,3.974-14.602,5.769
			c-6.176,2.255-12.495,3.984-19.078,4.65c-6.024,0.609-12.035,1.35-18.086,2.035c-0.09-0.077-0.245-0.163-0.332-0.294
			c-0.23-0.345-0.45-0.7-0.642-1.068c-2.945-5.662-7.74-8.766-13.873-9.97c-2.517-0.494-5.059-0.863-7.59-1.289
			c0.122-1.387,1.372-1.852,2.257-2.453c3.107-2.111,5.83-4.583,8.397-7.337c2.641-2.832,5.637-5.351,8.607-7.852
			c3.085-2.597,6.282-5.065,9.509-7.485c4.242-3.181,8.98-5.539,13.649-8.011c1.312-0.695,2.499-1.623,3.798-2.347
			c2.435-1.356,4.861-2.745,7.38-3.931c3.057-1.438,5.85-3.482,9.246-4.157c1.208-0.239,2.427-0.418,3.641-0.625
			c0.039,0.747,0.085,1.494,0.113,2.241c0.048,1.278,0.794,1.688,1.971,1.713C703.511,363.987,704.945,361.76,703.429,358.623z"/>
		<path fill="#56819B" d="M57.51,457.612c7.145-2.064,14.546-3.315,21.271-6.71c0.293-0.148,0.596-0.312,0.913-0.376
			c1.115-0.226,1.846,0.462,1.457,1.539c-0.502,1.392-1.12,2.772-1.899,4.026c-1.747,2.812-3.623,5.542-5.446,8.306
			c-3.48,3.206-6.708,6.758-10.503,9.533c-5.403,3.951-11.477,6.727-18.266,7.475c-3.77,0.415-7.528,1.343-11.356,0.469
			c-0.543-0.124-1.099-0.197-1.702-0.304c-2.741,5.966-4.551,12.065-5.48,18.43c-0.667,0-1.333,0-2,0
			c0.047-0.996-0.041-2.021,0.163-2.984c1.855-8.752,4.84-17.1,9.313-24.86c2.197-3.813,4.602-7.51,7.008-11.196
			c1.629-2.498,3.424-4.888,5.145-7.325c0.707-0.794,1.414-1.587,1.826-2.05c-1.337-4.444-2.733-8.452-3.722-12.558
			c-0.906-3.763-0.301-7.588,0.281-11.383c0.427-2.786,0.69-5.603,0.898-8.414c0.539-7.304,1.029-14.61,1.49-21.919
			c0.142-2.242,0.072-4.498,0.198-6.741c0.083-1.469-0.072-3.422,1.695-3.793c1.798-0.378,2.727,1.387,3.382,2.777
			c1.878,3.985,3.742,7.986,4.607,12.361c0.5,2.527,1.048,5.048,1.682,7.544c1.66,6.54,1.353,13.035-0.341,19.504
			c-1.01,3.856-2.083,7.696-3.115,11.548c-0.081,0.302-0.06,0.632-0.139,1.602c4.488-4.461,7.787-9.186,11.478-13.554
			c3.756-4.444,7.3-9.081,10.746-13.773c3.441-4.686,6.086-9.859,8.756-15.053c-1.95-0.825-3.721-1.493-5.418-2.314
			c-1.996-0.965-3.474-2.515-4.659-4.396c-2.917-4.634-4.822-9.683-6.083-14.97c-1.099-4.606-2.018-9.257-2.983-13.895
			c-0.371-1.781,0.934-2.944,2.664-2.336c0.675,0.237,1.308,0.734,1.829,1.246c5.293,5.196,10.216,10.716,14.295,16.931
			c0.951,1.448,1.61,3.09,2.377,4.656c0.715,1.461,1.396,2.94,2.091,4.412c0.185-0.025,0.369-0.05,0.553-0.074
			c0.57-2.137,1.031-4.311,1.741-6.4c0.686-2.019,0.513-3.75-0.461-5.691c-1.933-3.851-2.263-8.14-2.788-12.352
			c-0.267-2.143-0.713-4.277-0.791-6.426c-0.243-6.719,2.212-12.722,5.395-18.432c1.779-3.192,3.947-6.169,5.951-9.235
			c0.226-0.347,0.484-0.688,0.79-0.962c1.019-0.914,1.987-0.691,2.548,0.593c0.197,0.453,0.33,0.948,0.404,1.438
			c0.771,5.099,1.548,10.195,1.283,15.386c-0.242,4.729-0.409,9.461-0.621,14.191c-0.264,5.86-1.892,11.295-5.25,16.133
			c-0.69,0.994-1.642,1.891-2.657,2.549c-0.904,0.586-1.381,1.11-1.026,2.166c0.173,0.033,0.378,0.141,0.461,0.08
			c4.238-3.07,9.004-4.967,13.999-6.39c3.119-0.888,6.216-1.852,9.315-2.809c0.708-0.219,1.533-0.754,1.975,0.119
			c0.211,0.419-0.073,1.317-0.43,1.757c-3.838,4.724-7.825,9.27-13.147,12.472c-4.12,2.479-8.495,3.239-13.181,2.756
			c-0.401-0.042-0.801-0.095-1.403-0.165c-0.513,1.27-1.061,2.461-1.48,3.695c-1.126,3.313-2.51,6.489-4.453,9.421
			c-0.589,0.89-0.936,1.939-1.392,2.917c-0.092,0.178-0.184,0.354-0.277,0.531c0.237-0.025,0.475-0.05,0.712-0.074
			c8.519-4.686,17.852-5.489,27.302-5.727c4.238-0.105,8.496,0.056,12.66-0.996c0.32-0.081,0.688-0.208,0.977-0.122
			c0.431,0.129,0.934,0.345,1.166,0.688c0.134,0.198-0.127,0.769-0.346,1.075c-0.233,0.326-0.62,0.546-0.949,0.8
			c-4.471,3.456-8.852,7.038-13.447,10.319c-3.093,2.21-6.334,4.342-9.788,5.883c-4.479,2-9.254,2.422-14.099,0.841
			c-3.231-1.054-6.578-1.774-9.11-4.411c-5.55,7.004-10.925,13.789-16.3,20.573c0.101,0.131,0.201,0.262,0.301,0.394
			c1.158-0.542,2.28-1.184,3.48-1.604c2.105-0.735,4.22-1.533,6.399-1.951c4.669-0.897,9.384-1.167,14.146-0.602
			c2.304,0.273,4.653,0.156,6.981,0.232c0.495,0.016,1.018,0.013,1.476,0.172c0.932,0.322,1.159,1.218,0.561,1.997
			c-0.15,0.194-0.349,0.363-0.554,0.5c-5.39,3.603-10.583,7.572-16.826,9.66c-4.521,1.513-9.105,2.595-13.958,1.561
			c-2.985-0.636-6.029-0.992-9.407-1.531c-1.229,1.621-2.828,3.433-4.061,5.465c-0.787,1.297-1.522,2.518-2.777,3.401
			c-0.313,0.221-0.453,0.687-0.671,1.039c-2.79,3.854-5.6,7.693-8.352,11.573c-0.505,0.713-0.774,1.592-1.15,2.396
			c-0.148,0.188-0.298,0.372-0.447,0.559c-0.048,0.137-0.098,0.272-0.147,0.409c0.084-0.102,0.169-0.202,0.254-0.304
			c0.175-0.159,0.349-0.317,0.524-0.477c0.359-0.195,0.757-0.343,1.072-0.594c4.498-3.578,9.142-6.9,14.687-8.726
			C56.097,458.5,56.785,457.999,57.51,457.612z M54.425,441.943c-0.544,0.543-0.931,1.13-0.545,2.46
			c0.525-0.893,0.821-1.396,1.117-1.897C54.806,442.318,54.615,442.131,54.425,441.943z"/>
		<path fill="#B2CDDD" d="M203.5,500c-28.167,0-56.333,0-84.5,0c1.579-2.024,3.197-4.021,4.731-6.079
			c6.246-8.378,11.41-17.326,14.302-27.453c0.29-1.015,0.785-1.708,1.872-2.113c1.625-0.605,3.261-1.3,4.708-2.241
			c2.703-1.757,5.273-3.718,7.899-5.595c0.724,0.842,1.492,0.323,2.277,0.105c1.509-0.42,3.015-0.962,4.557-1.123
			c1.518-0.159,2.939-0.342,4.211-1.261c0.459-0.332,1.027-0.601,1.581-0.702c3.083-0.564,6.171-1.099,9.267-1.587
			c3.506-0.553,7.013-1.126,10.537-1.545c4.593-0.547,9.198-1.016,13.808-1.395c3.383-0.278,6.784-0.345,10.175-0.546
			c0.372-0.022,0.728-0.309,1.091-0.473c0.772,0.859,1.621,1.664,2.302,2.59c1.619,2.199,3.404,4.325,4.683,6.716
			c3.164,5.915,4.317,12.338,4.11,19.02c-1.822,1.284-3.545,2.656-4.742,4.601c-0.692,1.125-1.486,2.191-2.282,3.248
			c-1.578,2.094-3.217,4.142-4.778,6.247c-1.37,1.847-2.75,3.695-3.969,5.642C204.576,497.276,204.103,498.679,203.5,500z"/>
		<path fill="#B2CDDD" d="M0,31.5C0,21.027,0,10.555,0,0c21.333,0,42.667,0,64,0c-0.151,1.149-0.362,2.294-0.445,3.449
			c-0.456,6.311-1.958,12.421-3.71,18.458c-1.083,3.73-2.348,7.439-3.917,10.987c-1.836,4.15-3.841,8.271-6.224,12.125
			c-3.708,6-8.317,11.342-13.31,16.328c-1.152,1.15-2.46,2.144-3.697,3.21c-1.915-1.117-3.945-2.078-5.721-3.385
			c-3.388-2.494-6.481-5.412-9.98-7.724c-2.959-1.956-5.241-4.524-7.551-7.058c-3.626-3.977-6.692-8.376-8.461-13.556
			C0.813,32.336,0.335,31.942,0,31.5z"/>
		<path fill="#54809A" d="M0,367c1.953,0.858,4.022,1.523,5.837,2.613c4.339,2.605,8.422,5.589,12.183,9.001
			c7.607,6.902,12.85,15.189,15.549,25.179c1.135,4.2,1.898,8.407,2.177,12.703c0.491,7.553-0.901,14.815-3.643,21.862
			c-1.81,4.652-4.022,9.069-6.872,13.17c-0.178,0.257-0.213,0.613-0.314,0.923c-0.706,0.696-1.407,1.398-2.12,2.089
			c-1.599,1.548-3.107,3.208-4.825,4.611c-4.805,3.928-9.685,7.763-14.564,11.598C2.401,471.542,1.516,472.661,0,472.5
			C0,437.333,0,402.167,0,367z"/>
		<path fill="#B2CDDD" d="M26.5,500c0.929-6.364,2.74-12.464,5.48-18.43c0.603,0.106,1.158,0.18,1.702,0.304
			c3.828,0.874,7.586-0.054,11.356-0.469c6.789-0.748,12.863-3.523,18.266-7.475c3.795-2.775,7.023-6.327,10.503-9.533
			c3.102,2.025,6.631,2.88,10.186,3.581c4.458,0.88,8.946,1.606,13.421,2.397c0.164,0.028,0.331,0.077,0.493,0.065
			c5.706-0.411,11.501,0.316,17.093-1.611c2.083-0.719,4.354-0.881,6.518-1.383c0.978-0.228,2.248-0.094,2.554-1.511
			c3.712,1.092,7.464,0.778,11.604,0.017c-0.403,1.372-0.663,2.386-0.997,3.374c-3.081,9.089-8.229,17.02-13.851,24.686
			c-1.457,1.985-2.886,3.991-4.328,5.987C86.5,500,56.5,500,26.5,500z"/>
		<path fill="#54809A" d="M750,129c-2.252-0.38-4.516-0.698-6.751-1.158c-1.942-0.4-3.862-0.924-5.774-1.457
			c-5.24-1.459-9.654-4.229-13.209-8.368c-3.858-4.494-6.55-9.662-8.745-15.109c-1.65-4.096-1.792-8.414-1.569-12.742
			c0.342-6.628,0.979-13.214,3.472-19.466c0.152-0.379,0.178-0.809,0.262-1.215c0.56-0.912,1.104-1.835,1.685-2.735
			c1.165-1.807,2.239-3.687,3.552-5.381c2.026-2.616,4.08-5.24,6.39-7.598c2.017-2.059,4.198-4.116,6.677-5.523
			c3.272-1.858,6.883-3.141,10.398-4.542c1.12-0.446,2.405-0.482,3.614-0.706C750,71.667,750,100.333,750,129z"/>
		<path fill="#B2CDDD" d="M750,43c-1.209,0.224-2.494,0.259-3.614,0.706c-3.516,1.401-7.126,2.684-10.398,4.542
			c-2.479,1.407-4.66,3.464-6.677,5.523c-2.31,2.358-4.363,4.982-6.39,7.598c-1.313,1.694-2.387,3.574-3.552,5.381
			c-0.581,0.9-1.125,1.823-1.685,2.735c-4.306-0.775-8.612-1.551-12.917-2.325c0.281-0.771,0.446-1.614,0.864-2.303
			c1.523-2.51,0.799-4.808-0.781-6.845c-1.046-1.348-2.575-2.473-4.375-2.397c-1.699,0.071-3.363,0.746-4.436,2.211
			c-0.856,1.171-1.541,2.468-2.302,3.708c-0.822-0.338-1.713-0.565-2.453-1.031c-5.093-3.207-9.843-6.875-14.018-11.208
			c-1.322-1.373-3.019-2.648-3.275-4.813c3.419-2.466,6.886-4.87,10.243-7.417c3.138-2.38,5.853-5.197,7.599-8.785
			c0.75-1.541,1.906-2.135,3.526-2.326c3.125-0.368,6.224-0.984,9.354-1.277c3.795-0.354,7.61-0.627,11.418-0.641
			c1.76-0.006,3.606,0.42,5.303,1.61c-0.364,0.614-0.681,1.166-1.014,1.708c-1.778,2.894-3.569,5.78-5.338,8.68
			c-0.655,1.076-0.79,2.241-0.042,3.293c0.763,1.074,1.961,0.805,2.981,0.542c3.378-0.871,5.962-2.942,7.831-5.808
			c1.399-2.147,1.55-4.513,0.374-6.888c-0.915-1.848-0.917-1.878,0.562-3.315c2.935-2.854,6.223-5.239,9.781-7.256
			C741.046,14.066,745.523,11.534,750,9C750,20.333,750,31.667,750,43z"/>
		<path fill="#FEF6F3" d="M453.697,448.218c-1.036,1.467-1.992,2.999-3.127,4.385c-1.997,2.439-3.893,4.933-5.479,7.668
			c-0.741,1.277-1.777,2.387-1.938,3.946c-0.025,0.245-0.081,0.512-0.206,0.716c-2.923,4.751-4.146,10.225-6.466,15.235
			c-0.896,1.935-1.378,4.067-1.979,6.129c-0.922,3.159-1.861,6.316-2.637,9.512c-0.326,1.348-0.255,2.791-0.364,4.191
			c-8.333,0-16.667,0-25,0c-0.063-0.492-0.127-0.984-0.191-1.477c-0.786-6.001-1.833-11.981-2.289-18.008
			c-0.5-6.617-0.296-13.268,0.94-19.837c1.29-6.856,3.538-13.302,7.993-18.813c1.804-2.231,3.905-4.057,6.617-5.126
			c7.007-2.763,13.851-2.132,20.495,1.109C445.279,440.392,449.524,444.273,453.697,448.218z"/>
		<path fill="#B2CDDD" d="M83.031,63.301c-1.416,0.556-2.813,1.164-4.251,1.655c-1.461,0.5-2.964,0.878-4.445,1.322
			c-2.282,0.684-4.44,1.697-6.921,1.79c-2.203,0.082-4.381,0.698-6.583,0.967c-1.96,0.239-3.937,0.421-5.91,0.455
			c-2.199,0.038-4.366,0.359-6.612,0.105c-2.764-0.314-5.229-1.445-7.844-2.137c-0.199-0.053-0.336-0.341-0.502-0.52
			c1.979-2.224,4.006-4.405,5.921-6.682c2.343-2.786,4.779-5.523,6.841-8.511c3.819-5.535,6.768-11.561,9.313-17.785
			c2.326-5.688,4.254-11.511,5.402-17.54C68.473,10.981,69.16,5.476,70,0c6.667,0,13.333,0,20,0c0.208,5.189,1.581,9.927,5.012,14
			c1.433,1.7,2.7,3.601,3.715,5.579c1.446,2.821,2.437,5.754,1.288,9.064c-1.492,4.298-4.563,6.224-8.889,6.84
			c-7.756,1.105-12.076,6.899-12.529,14.455C78.297,54.936,79.795,59.43,83.031,63.301z"/>
		<path fill="#5D859D" d="M453.697,448.218c-4.173-3.944-8.418-7.826-13.632-10.369c-6.645-3.241-13.488-3.872-20.495-1.109
			c-2.712,1.069-4.813,2.895-6.617,5.126c-4.455,5.512-6.703,11.957-7.993,18.813c-1.236,6.569-1.44,13.22-0.94,19.837
			c0.456,6.026,1.503,12.007,2.289,18.008c0.064,0.492,0.128,0.984,0.191,1.477c-1,0-2,0-3,0c-0.048-0.899-0.047-1.804-0.151-2.696
			c-0.637-5.436-1.441-10.856-1.901-16.308c-0.334-3.965-0.413-7.975-0.271-11.952c0.276-7.714,1.882-15.169,5.327-22.127
			c2.157-4.356,4.886-8.252,9.026-11.079c4.653-3.178,9.791-4.007,15.209-3.6c7.091,0.533,12.977,3.859,18.324,8.305
			c2.235,1.859,4.459,3.733,6.688,5.6c3.79,3.227,7.338,6.808,11.422,9.604c7.432,5.091,15.641,6.851,24.394,3.671
			c4.211-1.53,8.286-3.37,12.08-5.846c5.414-3.533,10.19-7.729,14.25-12.748c0.604-0.745,1.156-1.531,1.8-2.389
			c-4.866-3.29-8.587-7.267-11.563-11.948c-1.978-4.036-3.754-8.145-4.246-12.674c-0.617-5.685,0.519-10.881,4.307-15.343
			c7.45-8.777,17.131-4.119,20.673,1.988c3.02,5.207,4.006,10.856,2.952,16.788c-0.521,2.936-1.291,5.827-1.947,8.738
			c-1.193,2.637-2.331,5.302-3.604,7.9c-0.639,1.302-1.527,2.481-2.352,3.794c1.173,0.622,2.086,1.221,3.08,1.615
			c10.465,4.144,20.983,4.634,31.596,0.487c5.979-2.336,11.682-5.231,17.15-8.551c3.608-2.19,6.999-4.739,10.487-7.127
			c2.396-1.769,4.814-3.508,7.186-5.311c7.254-5.519,15.14-9.814,23.882-12.489c3.983-1.22,8.052-1.863,12.21-1.993
			c0.661-0.021,1.32-0.104,1.98-0.157c2.531,0.427,5.073,0.796,7.59,1.29c6.133,1.204,10.928,4.308,13.873,9.97
			c0.191,0.368,0.411,0.724,0.642,1.068c0.087,0.131,0.242,0.217,0.332,0.294c6.051-0.686,12.062-1.426,18.086-2.035
			c6.583-0.666,12.902-2.396,19.078-4.65c4.914-1.795,9.728-3.863,14.602-5.769c10.511-4.108,20.171-9.822,29.712-15.749
			c5.904-3.668,10.494-8.65,14.101-14.566c0.12-0.196,0.331-0.339,0.499-0.507c0,1.667,0,3.333,0,5
			c-0.19,0.146-0.434,0.254-0.563,0.441c-4.137,6.029-9.654,10.49-15.927,14.115c-7.271,4.201-14.354,8.758-22.164,11.948
			c-7.229,2.953-14.434,5.979-21.76,8.672c-6.414,2.358-13.102,3.708-19.931,4.322c-4.868,0.438-9.723,1.032-14.698,1.569
			c0.446,2.367,0.896,4.465,1.231,6.582c0.989,6.237,0.15,12.164-3.601,17.373c-2.782,3.864-6.297,6.874-11.243,7.64
			c-2.72,0.421-5.149-0.852-6.339-3.293c-2.43-4.984-3.471-10.146-1.048-15.387c2.78-6.012,7.204-10.527,13.26-13.349
			c1.051-0.49,2.131-0.918,3.194-1.383c0.06-0.026,0.087-0.129,0.228-0.35c-0.798-2.544-2.498-4.521-4.736-6.04
			c-3.834-2.602-8.237-3.539-12.737-3.908c-2.554-0.209-5.147,0.08-7.723,0.146c-2.839,0.556-5.759,0.857-8.5,1.723
			c-5.474,1.727-10.671,4.173-15.496,7.29c-2.762,1.783-5.308,3.901-7.95,5.868c-0.817,0.562-1.677,1.07-2.445,1.692
			c-9.188,7.432-19.365,13.197-30.22,17.775c-5.006,2.111-10.247,3.548-15.701,3.762c-6.311,0.247-12.403-0.995-18.246-3.399
			c-1.536-0.633-3.032-1.364-4.736-2.136c-0.982,1.111-1.995,2.19-2.933,3.33c-5.141,6.249-11.287,11.233-18.465,14.989
			c-3.85,2.015-7.804,3.629-12.041,4.69c-7.43,1.859-14.188,0.185-20.6-3.493c-4.347-2.494-8.189-5.685-11.787-9.17
			C455.489,449.712,454.575,448.983,453.697,448.218z M526.765,426.136c1.719-5.217,2.952-10.54,2.418-16.06
			c-0.419-4.321-1.933-8.262-5.475-11.092c-3.886-3.104-8.374-3.952-12.441,0.361c-3.003,3.185-4.69,7.101-4.646,11.502
			c0.057,5.679,1.696,10.943,5.001,15.628c2.475,4.007,5.761,7.16,9.9,9.72C523.819,432.936,525.687,429.747,526.765,426.136z
			 M651.961,420.462c-5.95,1.561-10.07,5.142-13.571,9.624c-2.339,2.995-2.872,6.521-2.83,10.113
			c0.026,2.223,0.639,4.441,1.956,6.348c1.279,1.852,2.618,2.386,4.71,1.598c1.374-0.518,2.772-1.182,3.905-2.097
			c6.705-5.413,8.435-12.613,7.132-20.786C653.008,423.66,652.418,422.111,651.961,420.462z"/>
		<path fill="#B2CDDD" d="M672.5,0c25.833,0,51.667,0,77.5,0c0,2,0,4,0,6c-2.637,1.576-5.247,3.196-7.914,4.719
			c-6.207,3.544-12.479,6.991-17.597,12.111c-0.684,0.684-1.335,0.84-2.22,0.388c-2.897-1.481-6.038-1.904-9.217-1.663
			c-3.88,0.294-7.744,0.816-11.609,1.282c-2.434,0.293-4.858,0.664-7.489,1.027c0-1.338,0.025-2.403-0.004-3.468
			c-0.129-4.654-3.48-7.969-8.168-7.842c-4.167,0.113-7.354,2.221-9.952,5.386c-2.562,3.122-1.009,8.06,2.848,9.014
			c1.118,0.276,2.282,0.515,3.425,0.512c2.366-0.006,4.732-0.185,7.128-0.294c-0.782,2.385-2.385,4.504-4.955,6.776
			c-3.935,3.477-8.104,6.612-12.785,9.029c-0.766-2.242-1.354-4.567-2.346-6.704c-1.109-2.388-2.811-4.53-2.354-7.403
			c0.016-0.099-0.202-0.235-0.312-0.354c0.232-1.208,0.388-2.438,0.724-3.615c0.265-0.925,0.861-1.755,1.124-2.68
			c1.165-4.099,1.729-8.329,2.987-12.434C672.261,6.693,672.144,3.274,672.5,0z"/>
		<path fill="#FEDBD0" d="M42.168,189.071c-1.874,1.14-3.728,2.315-5.626,3.412c-3.345,1.934-6.678,3.896-10.088,5.709
			c-4.384,2.332-8.965,4.231-13.837,5.266c-3.137,0.666-6.353,0.967-9.481,1.663C2,205.374,1.037,205.208,0,205c0-11.5,0-23,0-34.5
			c0.38-0.167,0.792-0.284,1.136-0.507c8.979-5.797,18.757-9.17,29.452-9.879c3.164-0.21,6.234,0.103,9.454,0.694
			c-0.395,3.045-0.763,5.83-1.117,8.616C38.053,176.294,39.233,182.828,42.168,189.071z"/>
		<path fill="#B2CDDD" d="M127.5,0c0.601,3.539,0.765,7.014-0.352,10.551c-0.583,1.848-0.435,3.926-0.617,5.9
			c-1.15,0.03-2.318-0.058-3.447,0.113c-2.206,0.333-3.168,2.513-2.162,4.492c0.782,1.538,2.124,1.938,3.648,2.099
			c-0.942,2.443-1.815,4.887-3.363,7.081c-1.366,1.937-2.156,4.284-3.544,6.201c-2.128,2.94-4.613,5.619-6.833,8.497
			c-2.201,2.854-5.031,4.996-7.824,7.171c-2.801,2.182-5.725,4.206-8.594,6.3c-2.652,1.208-5.306,2.416-7.959,3.624
			c-1.906-1.209-3.236-2.859-3.752-5.079c-0.375-1.614-0.684-3.244-0.989-4.873c-1.05-5.606,2.715-12.21,8.694-13.599
			c0.969-0.226,1.951-0.394,2.924-0.599c7.724-1.627,12.285-9.465,9.489-16.483c-1.17-2.937-2.7-5.701-4.775-8.146
			C94.813,9.439,93.133,5.006,93,0C104.5,0,116,0,127.5,0z"/>
		<path fill="#B2CDDD" d="M0,472.5c1.516,0.161,2.401-0.958,3.409-1.751c4.879-3.835,9.759-7.67,14.564-11.598
			c1.717-1.403,3.226-3.063,4.825-4.611c0.712-0.69,1.414-1.393,2.12-2.089c0.999,0.956,2.175,0.507,3.297,0.397
			c2.798-0.272,5.591-0.607,8.392-0.847c3.306-0.282,6.367,0.969,9.521,1.631c-1.72,2.438-3.515,4.828-5.144,7.326
			c-2.406,3.687-4.811,7.384-7.008,11.196c-4.473,7.761-7.458,16.108-9.313,24.86c-0.204,0.963-0.116,1.988-0.163,2.984
			c-8.167,0-16.333,0-24.5,0C0,490.833,0,481.667,0,472.5z"/>
		<path fill="#DAF1FF" d="M672.5,0c-0.356,3.274-0.239,6.693-1.187,9.786c-1.258,4.105-1.822,8.335-2.987,12.434
			c-0.263,0.925-0.859,1.755-1.124,2.68c-0.336,1.178-0.491,2.408-0.724,3.615c-1.861,1.537-2.636,3.738-3.492,5.861
			c-1.933,4.796-4.845,8.833-8.999,11.941c-1.519,1.135-3.061,2.238-4.592,3.355c-6.474-0.234-9.245-4.455-8.882-9.647
			c0.214-3.064,0.566-6.12,0.736-9.186c0.129-2.317,0.472-4.735-0.021-6.943c-0.511-2.283-0.123-4.009,1.237-5.71
			c0.155-0.194,0.295-0.405,0.413-0.624c2.695-4.982,2.817-9.958-0.021-14.938C642.371,1.77,641.951,0.876,641.5,0
			C651.833,0,662.167,0,672.5,0z"/>
		<path fill="#FFDBD0" d="M408.532,58.479c-0.548-0.908-1.156-1.784-1.633-2.728c-2.034-4.032-3.458-8.229-3.424-12.824
			c0.007-0.897-0.22-1.794-0.318-2.694c-0.063-0.574-0.147-1.156-0.118-1.729c0.133-2.556,0.279-5.112,0.468-7.665
			c0.151-2.058,0.278-4.125,0.578-6.164c0.62-4.214,1.002-8.434-0.595-12.49c-1.024-2.602-2.406-5.063-3.646-7.578
			C399.081,3.063,398.282,1.536,397.5,0c6.5,0,13,0,19.5,0c3.94,5.538,5.896,11.746,5.417,18.487
			c-0.262,3.68-1.412,7.295-2.137,10.945c-0.433,2.179-1.597,4.224-1.219,6.554c-0.601,2.61-0.512,5.28,0.02,7.828
			c0.706,3.381,1.838,6.677,2.847,9.991c0.313,1.024,0.806,1.994,1.243,2.977c0.812,1.824,1.753,3.528,3.258,4.939
			c1.694,1.589,1.185,3.385-1.11,3.683c-3.144,0.408-6.239,0.143-9.163-1.433C413.359,62.465,410.882,60.576,408.532,58.479z"/>
		<path fill="#FFDBD0" d="M392.5,0c1.005,5.278,2.049,10.549,2.998,15.836c0.555,3.087,0.967,6.201,1.424,9.306
			c0.072,0.491,0.105,1.002,0.056,1.494c-0.315,3.125-0.382,6.309-1.052,9.358c-1.299,5.911-3.055,11.726-6.229,16.944
			c-2.667,4.383-5.579,8.617-8.411,12.899c-0.362,0.547-0.883,0.993-1.348,1.469c-0.803,0.82-1.788,0.912-2.756,0.455
			c-1.036-0.49-1.333-1.451-1.134-2.532c0.331-1.79,0.673-3.578,1.077-5.352c1.012-4.437,2.147-8.847,3.048-13.305
			c0.303-1.498,0.138-3.115,0.024-4.666c-0.132-1.81-0.387-3.617-0.683-5.409c-0.553-3.342-1.231-6.664-1.752-10.011
			c-0.646-4.163-0.952-8.394-1.848-12.499c-0.719-3.292,0.066-6.436,0.147-9.641C376.098,2.892,376.671,1.449,377,0
			C382.167,0,387.333,0,392.5,0z"/>
		<path fill="#5D859D" d="M93,0c0.133,5.006,1.813,9.439,5.045,13.249c2.075,2.445,3.605,5.209,4.775,8.146
			c2.795,7.018-1.765,14.855-9.489,16.483c-0.974,0.205-1.956,0.374-2.924,0.599c-5.979,1.389-9.744,7.993-8.694,13.599
			c0.305,1.629,0.614,3.259,0.989,4.873c0.517,2.22,1.846,3.87,3.753,5.079c2.799,2.163,6.234,2.614,9.497,3.529
			c1.089,0.586,2.274,1.045,3.248,1.783c3.07,2.326,3.934,5.557,3.597,9.261c-0.5,5.5-2.487,10.421-5.609,14.931
			c-0.516,0.744-0.907,1.574-1.355,2.365c-4.73,6.583-10.581,12.14-16.408,17.696c-3.476,3.314-7.243,6.323-10.851,9.501
			c-4.105,3.615-8.377,7.069-12.221,10.946c-6.698,6.756-10.098,15.295-12.229,24.403c-0.166,0.706-0.136,1.457-0.2,2.216
			c2.02,0.831,3.974,1.527,5.833,2.42c5.615,2.697,10.335,6.331,12.531,12.479c0.773,6.582-1.432,12.062-6.04,16.728
			c-3.81,3.858-9.32,4.558-13.412-0.471c-0.21-0.258-0.445-0.495-0.668-0.743c-2.935-6.245-4.114-12.778-3.243-19.648
			c0.354-2.786,0.722-5.571,1.117-8.616c-3.219-0.591-6.29-0.904-9.454-0.694c-10.695,0.709-20.474,4.083-29.452,9.879
			C0.792,170.216,0.38,170.333,0,170.5c0-1.167,0-2.333,0-3.5c1.051-0.443,2.165-0.779,3.144-1.347
			c8.117-4.706,16.877-7.404,26.199-8.083c3.368-0.246,6.788,0.217,10.184,0.349c0.327,0.013,0.655-0.027,1.171-0.051
			c0.801-2.763,1.502-5.571,2.437-8.3c1.047-3.06,2.133-6.13,3.514-9.048c1.749-3.698,4.403-6.813,7.058-9.913
			c4.189-4.892,9.411-8.598,14.271-12.729c4.17-3.545,8.212-7.255,12.132-11.076c3.564-3.474,6.967-7.124,10.291-10.831
			c2.434-2.714,4.515-5.719,6.088-9.039c2.323-3.537,3.511-7.456,3.416-11.65c-0.058-2.539-0.405-5.19-3.401-6.258
			c-1.365-0.53-2.694-1.201-4.103-1.562c-3.368-0.863-6.577-2.027-9.37-4.16c-3.235-3.873-4.733-8.366-4.433-13.365
			c0.453-7.555,4.772-13.35,12.529-14.455c4.325-0.616,7.397-2.542,8.889-6.84c1.149-3.31,0.159-6.244-1.288-9.064
			C97.712,17.601,96.445,15.7,95.012,14C91.581,9.927,90.208,5.189,90,0C91,0,92,0,93,0z M44.946,187.536
			c1.9,3.274,4.275,3.984,7.384,2.063c4.716-2.914,6.973-7.287,7.311-12.738c0.212-2.39-0.75-4.391-2.133-6.224
			c-3.618-4.795-8.645-7.352-14.401-9.103c-0.349,1.349-0.724,2.534-0.958,3.746c-0.944,4.877-0.759,9.796,0.049,14.636
			C42.639,182.553,42.931,185.399,44.946,187.536z"/>
		<path fill="#FFDBD0" d="M376,0c-1.103,1.518-2.211,3.032-3.307,4.555c-2.974,4.133-5.511,8.512-6.887,13.439
			c-0.527,1.889-0.569,3.915-0.806,5.882c-0.606,5.046-1.412,9.999-4.696,14.187c-1.424,1.814-2.577,3.842-3.85,5.774
			c-2.452,3.722-6.187,5.963-9.807,8.272c-1.933,1.233-4.072,2.402-6.275,2.896c-3.764,0.843-7.559,1.883-11.507,1.497
			c-1.356-0.133-2.214-0.771-2.328-1.799c-0.114-1.034,0.528-1.864,1.927-2.188c5.635-1.304,9.769-4.73,13.143-9.225
			c1.885-2.511,3.994-4.916,5.482-7.651c2.729-5.016,3.152-10.558,2.82-16.188c-0.281-4.781,0.34-9.431,2.741-13.661
			c1.141-2.011,2.558-3.865,3.849-5.79C363,0,369.5,0,376,0z"/>
		<path fill="#FEDAD0" d="M0,31.5c0.335,0.442,0.813,0.836,0.983,1.335c1.77,5.179,4.835,9.579,8.461,13.556
			c2.311,2.534,4.592,5.103,7.551,7.058c3.5,2.312,6.592,5.23,9.98,7.724c1.775,1.307,3.806,2.268,5.72,3.384
			c-3.99,4.65-9.291,7.486-14.551,10.317c-3.417,1.839-6.982,3.436-10.584,4.886C5.133,80.738,2.526,81.269,0,82
			C0,65.167,0,48.333,0,31.5z"/>
		<path fill="#57829B" d="M0,82c2.526-0.731,5.133-1.262,7.561-2.24c3.602-1.45,7.167-3.047,10.584-4.886
			c5.26-2.831,10.562-5.667,14.551-10.317c1.237-1.065,2.546-2.059,3.698-3.209c4.993-4.986,9.602-10.328,13.31-16.328
			c2.382-3.855,4.388-7.975,6.224-12.125c1.569-3.548,2.834-7.257,3.917-10.987c1.753-6.038,3.254-12.147,3.71-18.458
			C63.638,2.294,63.849,1.149,64,0c2,0,4,0,6,0c-0.84,5.476-1.527,10.981-2.562,16.42c-1.147,6.029-3.076,11.852-5.402,17.54
			c-2.545,6.224-5.493,12.25-9.313,17.785c-2.062,2.988-4.498,5.725-6.841,8.511c-1.915,2.277-3.943,4.458-5.921,6.682
			c-1.012,0.84-2.055,1.647-3.031,2.527c-6.095,5.492-12.923,9.884-20.285,13.455c-1.936,0.939-3.96,1.711-5.985,2.446
			c-2.879,1.045-5.788,2.011-8.703,2.95C1.348,88.512,0.655,88.446,0,88.5C0,86.333,0,84.167,0,82z"/>
		<path fill="#5C869F" d="M641.5,0c0.451,0.876,0.871,1.77,1.358,2.625c2.838,4.979,2.716,9.956,0.021,14.938
			c-0.118,0.218-0.258,0.429-0.413,0.624c-1.36,1.701-1.748,3.427-1.237,5.71c0.493,2.208,0.15,4.625,0.021,6.943
			c-0.17,3.066-0.522,6.122-0.736,9.186c-0.363,5.192,2.408,9.414,8.882,9.647c0.816,0.026,1.649,0.176,2.444,0.061
			c6.972-1.015,13.509-3.315,19.65-6.756c4.681-2.417,8.851-5.552,12.785-9.029c2.57-2.272,4.173-4.391,4.955-6.776
			c-2.396,0.109-4.762,0.289-7.128,0.294c-1.143,0.002-2.307-0.236-3.425-0.512c-3.856-0.954-5.409-5.892-2.848-9.014
			c2.598-3.165,5.785-5.273,9.952-5.386c4.688-0.127,8.039,3.188,8.168,7.842c0.029,1.064,0.004,2.13,0.004,3.468
			c2.631-0.363,5.056-0.733,7.489-1.027c3.865-0.466,7.729-0.988,11.609-1.282c3.179-0.241,6.319,0.182,9.217,1.663
			c0.885,0.453,1.536,0.296,2.22-0.388c5.118-5.12,11.39-8.567,17.597-12.111C744.753,9.196,747.363,7.576,750,6c0,1,0,2,0,3
			c-4.477,2.534-8.954,5.066-13.429,7.604c-3.559,2.017-6.847,4.402-9.781,7.256c-1.479,1.438-1.477,1.467-0.562,3.315
			c1.176,2.375,1.025,4.741-0.374,6.888c-1.869,2.866-4.453,4.937-7.831,5.808c-1.021,0.263-2.219,0.532-2.981-0.542
			c-0.748-1.052-0.613-2.218,0.042-3.293c1.769-2.9,3.56-5.786,5.338-8.68c0.333-0.542,0.649-1.094,1.014-1.708
			c-1.696-1.19-3.543-1.616-5.303-1.61c-3.808,0.014-7.623,0.287-11.418,0.641c-3.131,0.292-6.229,0.909-9.354,1.277
			c-1.62,0.191-2.776,0.785-3.526,2.326c-1.746,3.587-4.461,6.404-7.599,8.785c-3.357,2.547-6.824,4.951-10.243,7.417
			c-0.914,0.368-1.877,0.649-2.736,1.121c-4.38,2.403-9.095,3.926-13.841,5.381c-3.794,1.163-7.642,1.304-11.535,0.674
			c-2.413-0.989-4.649-2.164-6.071-4.538c-1.454-2.427-1.53-5.067-1.412-7.73c0.181-4.072,0.506-8.137,0.728-12.207
			c0.072-1.314,0.012-2.635,0.012-4.347c-0.998,0.34-1.618,0.463-2.152,0.748c-2.438,1.299-5.056,1.646-7.75,1.452
			c-0.971-0.07-2.007-0.275-2.862-0.713c-2.412-1.232-2.908-3.724-1.264-5.86c1.061-1.378,2.475-2.301,4.202-2.437
			c3.29-0.26,6.498,0.031,9.267,2.137c0.187,0.142,0.443,0.192,0.655,0.279c4.426-4.386,4.669-11.733,0.241-16.761
			C638.98,1.123,638.491,0.561,638,0C639.167,0,640.333,0,641.5,0z M691.081,24.59c0.176-1.756,0.457-3.061,0.405-4.352
			c-0.131-3.248-2.407-5.32-5.661-5.286c-3.446,0.036-5.865,2.001-8.005,4.403c-1.534,1.721-1.155,3.971,0.914,4.948
			c1.016,0.479,2.228,0.768,3.346,0.755C684.953,25.025,687.823,24.776,691.081,24.59z M637.089,20.335
			c-2.009-2.095-6.403-2.927-8.877-1.657c-0.359,0.185-0.692,0.458-0.976,0.751c-1.154,1.194-0.915,2.489,0.564,3.179
			C630.182,23.719,635.18,22.496,637.089,20.335z M717.067,36.946c0.171,0.17,0.343,0.341,0.514,0.512
			c2.96-0.849,5.212-2.653,6.622-5.428c0.829-1.631,0.419-3.117-1.154-4.533C721.036,30.677,719.052,33.812,717.067,36.946z"/>
		<path fill="#5E879F" d="M116.5,500c1.442-1.996,2.872-4.002,4.328-5.987c5.622-7.666,10.77-15.597,13.851-24.686
			c0.334-0.988,0.594-2.002,0.997-3.374c-4.141,0.762-7.893,1.075-11.604-0.017c-2.444-2.026-4.795-4.112-5.824-7.287
			c-2.189-6.757-0.875-12.83,3.686-18.161c2.091-2.444,5.436-2.988,8.48-1.804c4.269,1.661,6.988,4.729,8.105,9.135
			c0.942,3.72,1.461,7.501,0.999,11.361c-0.087,0.727-0.013,1.472-0.013,2.421c0.622-0.123,1.191-0.129,1.66-0.349
			c1.126-0.53,2.259-1.08,3.295-1.765c5.63-3.723,11.032-7.752,15.879-12.467c8.534-8.303,18.933-11.766,30.552-10.835
			c8.313,0.667,15.79,3.901,21.214,10.745c0.508,0.641,1.186,1.146,1.784,1.715c1.658,2.364,3.475,4.635,4.939,7.113
			c3.137,5.308,4.259,11.225,4.771,17.285c-0.202,4.144-0.24,8.304-0.649,12.427c-0.482,4.859-1.285,9.687-1.949,14.528
			c-0.667,0-1.333,0-2,0c0.064-0.902,0.077-1.811,0.199-2.704c0.954-6.964,1.935-13.925,1.911-20.978
			c0.208-6.682-0.946-13.104-4.11-19.02c-1.278-2.391-3.063-4.517-4.683-6.716c-0.682-0.926-1.53-1.73-2.302-2.59
			c-1.733-2.164-3.651-4.182-6.227-5.273c-3.279-1.39-6.602-2.749-10.019-3.724c-4.067-1.161-8.248-0.644-12.392-0.075
			c-6.705,0.921-12.55,3.703-17.688,8.032c-3.75,3.159-7.453,6.375-11.178,9.565c-2.625,1.877-5.196,3.838-7.899,5.595
			c-1.447,0.941-3.083,1.636-4.708,2.241c-1.087,0.405-1.582,1.099-1.872,2.113c-2.892,10.127-8.056,19.075-14.302,27.453
			c-1.534,2.058-3.152,4.055-4.731,6.079C118.167,500,117.333,500,116.5,500z M137.585,455.925c-0.226-1.841-0.346-3.67-0.69-5.455
			c-0.703-3.641-2.383-6.701-5.587-8.785c-3.248-2.112-6.703-1.67-8.715,1.514c-2.71,4.287-3.974,9.005-2.48,14.042
			c1.149,3.876,3.626,6.344,7.888,6.959c2.418,0.35,4.596-0.35,6.874-0.68c1.263-0.184,1.865-0.953,2.018-2.164
			C137.119,459.545,137.354,457.734,137.585,455.925z"/>
		<path fill="#DAF1FF" d="M221.11,476.318c0.023,7.053-0.957,14.014-1.911,20.978c-0.123,0.894-0.135,1.802-0.199,2.704
			c-5.167,0-10.333,0-15.5,0c0.603-1.321,1.076-2.724,1.839-3.944c1.218-1.946,2.599-3.795,3.969-5.642
			c1.561-2.105,3.2-4.153,4.778-6.247c0.796-1.057,1.59-2.123,2.282-3.248C217.565,478.975,219.288,477.603,221.11,476.318z"/>
		<path fill="#B4CFDE" d="M511.5,0c-0.192,0.542-0.271,1.167-0.596,1.613c-1.704,2.343-3.527,4.601-5.198,6.966
			c-1.479,2.093-2.763,4.324-4.227,6.428c-1.133,1.628-2.416,3.152-3.623,4.729c-0.881,1.15-2.135,0.849-3.225,0.676
			c-1.156-0.183-2.392-0.772-2.524-2.077c-0.119-1.178-0.099-2.615,0.471-3.575c2.274-3.839,4.794-7.532,7.207-11.288
			c0.7-1.09,1.838-1.973,1.715-3.473C504.833,0,508.167,0,511.5,0z"/>
		<path fill="#B4CFDE" d="M536,0c-0.335,0.741-0.548,1.574-1.024,2.208c-3.281,4.364-6.634,8.674-9.921,13.033
			c-0.595,0.787-0.991,1.722-1.492,2.581c-1.394,2.39-2.909,3.104-5.571,2.684c-1.134-0.179-1.842-0.803-1.948-1.928
			c-0.184-1.942,0.136-3.696,1.419-5.355c2.879-3.721,5.589-7.574,8.324-11.404c0.367-0.514,0.482-1.208,0.714-1.819
			C529.667,0,532.833,0,536,0z"/>
		<path fill="#B4CFDE" d="M488,0c-1.188,1.762-2.302,3.58-3.578,5.275c-2.588,3.437-5.256,6.813-7.908,10.2
			c-0.56,0.715-1.129,1.449-1.812,2.037c-1.398,1.205-2.865,1.258-4.359,0.297c-1.168-0.752-1.582-2.037-1.294-3.722
			c0.375-2.195,2.115-3.51,3.304-5.167c1.639-2.285,3.458-4.44,5.126-6.705C477.95,1.574,478.166,0.744,478.5,0
			C481.667,0,484.833,0,488,0z"/>
		<path fill="#FEDBD0" d="M62.288,173.559c-2.195-6.149-6.916-9.783-12.531-12.479c-1.859-0.893-3.813-1.589-5.833-2.42
			c0.063-0.759,0.034-1.51,0.2-2.216c2.131-9.108,5.53-17.646,12.229-24.403c3.844-3.877,8.116-7.331,12.221-10.946
			c3.608-3.178,7.375-6.187,10.851-9.501c5.827-5.556,11.677-11.113,16.408-17.696c1.332,1.529,0.671,3.347,0.529,4.984
			c-0.292,3.366-0.681,6.754-1.433,10.041c-0.914,3.998-1.523,8.05-2.656,12.027c-0.945,3.318-2.242,6.503-3.188,9.812
			c-0.735,2.571-1.961,5-2.943,7.502c-0.747,1.903-1.403,3.843-2.2,5.724c-0.306,0.723-1.063,1.269-1.313,1.999
			c-1.835,5.34-5.134,9.865-7.998,14.636c-2.666,4.44-6.44,7.895-10.049,11.496C63.959,172.74,63.06,173.086,62.288,173.559z"/>
		<path fill="#FEDBD0" d="M508.133,426.487c2.977,4.682,6.697,8.658,11.563,11.948c-0.644,0.857-1.196,1.644-1.8,2.389
			c-4.06,5.019-8.836,9.215-14.25,12.748c-3.794,2.476-7.869,4.315-12.08,5.846c-8.753,3.18-16.962,1.42-24.394-3.671
			c-4.084-2.797-7.632-6.378-11.422-9.604c0.51-0.232,1.208-0.327,1.499-0.722c1.406-1.904,3.563-2.658,5.458-3.826
			c0.554-0.341,0.886-1.04,1.319-1.575c2.188-1.133,4.354-2.31,6.567-3.392c5.425-2.651,10.837-5.318,16.666-7.044
			c1.653-0.489,3.333-0.605,4.975-0.975C497.479,427.432,502.816,427.058,508.133,426.487z"/>
		<path fill="#FEDAD0" d="M586.229,424.104c-3.488,2.388-6.879,4.937-10.487,7.127c-5.469,3.319-11.172,6.215-17.15,8.551
			c-10.612,4.146-21.131,3.656-31.596-0.487c-0.994-0.395-1.907-0.993-3.08-1.615c0.824-1.313,1.713-2.492,2.352-3.794
			c1.273-2.599,2.411-5.264,3.604-7.9c5.574,0.006,11.15,0.062,16.726-0.004c2.523-0.029,5.043-0.372,7.568-0.427
			c1.561-0.034,3.128,0.21,4.692,0.321c0.579,0.041,1.162,0.111,1.738,0.083c2.645-0.133,5.286-0.381,7.932-0.431
			c5.193-0.097,10.348-0.521,15.467-1.418C584.717,423.983,585.482,424.101,586.229,424.104z"/>
		<path fill="#57829B" d="M595.508,384.933c1.814-0.429,3.266-0.769,4.715-1.114c1.426-0.341,2.628-0.045,3.518,1.196
			c0.932,1.301,0.613,2.648-0.25,3.691c-1.258,1.521-2.76,2.844-4.187,4.221c-0.476,0.459-1.03,0.838-1.563,1.234
			c-0.678,0.504-1.005,1.151-0.636,1.947c0.771,1.658,0.228,2.937-1.149,3.892c-1.168,0.81-2.503,0.376-4.104-1.156
			c-0.05-0.047-0.146-0.046-0.414-0.123c-1.113,0.772-2.35,1.596-3.549,2.47c-1.041,0.758-2.034,0.943-3.203,0.203
			c-1.14-0.721-1.505-1.711-1.397-2.964c0.128-1.487,0.271-2.973,0.428-4.684c-0.666-0.272-1.328-0.553-1.998-0.815
			c-0.692-0.271-1.439-0.442-2.076-0.807c-0.871-0.497-1.611-2.211-1.29-3.032c0.402-1.03,1.054-1.878,2.306-2.007
			c1.484-0.154,2.961-0.413,4.448-0.496c1.311-0.073,2.229-0.56,2.663-1.83c0.614-1.798,1.3-3.576,1.817-5.401
			c0.549-1.934,1.235-2.706,2.723-2.679c1.553,0.027,2.468,0.811,2.643,2.366C595.164,380.935,595.313,382.83,595.508,384.933z"/>
		<path fill="#FFDBD0" d="M679.52,286c0.107-0.123,0.3-0.237,0.313-0.369c0.295-3.188,2.405-4.924,4.991-6.292
			c2.895-1.53,6.609-1.065,8.967,1.221c1.117,1.084,2.115,2.292,3.167,3.443c0.21,2.047,0.38,4.056-0.499,6.05
			c-0.792,1.797-1.886,3.301-3.361,4.563c-3.053,2.614-8.671,1.698-11.324-1.696C680.193,290.899,679.247,288.64,679.52,286z"/>
		<path fill="#FFDBD0" d="M399.983,401.479c-0.979,1.188-1.773,2.454-3.038,3.493c-3.249,2.67-9.556,2.281-12.174-3.489
			c-0.102-0.224-0.264-0.498-0.211-0.701c0.58-2.245-0.561-4.766,1.131-6.85c0.272-0.336,0.216-0.939,0.311-1.419
			c2.229-1.387,4.446-2.753,7.141-3.131c2.257-0.316,5.278,1.324,6.532,3.238c1.119,1.709,1.57,3.454,1.299,5.379
			C400.808,399.183,400.324,400.321,399.983,401.479z"/>
		<path fill="#FFDCD2" d="M213.509,40.912c-0.043,3.296-1.593,5.273-5.226,6.667c-2.498,0.958-5.382,0.277-7.226-1.831
			c-1.748-1.998-1.297-4.292-0.21-6.285c1.409-2.583,3.453-4.706,6.524-5.318c1.683-0.336,3.218-0.432,4.408,1.725
			C213.271,38.574,213.538,38.724,213.509,40.912z"/>
		<path fill="#FFDCD2" d="M226.521,27.307c-0.077,3.788-1.543,6.037-4.228,7.485c-1.964,1.059-3.927,0.452-5.076-1.49
			c-0.29-0.491-0.386-1.137-0.762-1.531c-1.249-1.31-2.376-2.716-1.689-4.604c1.03-2.831,2.776-5.034,6.02-5.512
			c1.621-0.239,4.07,0.974,4.756,2.527C226.066,25.368,226.328,26.671,226.521,27.307z"/>
		<path fill="#5C869F" d="M152.43,22.413c-1.103-0.104-3.091-0.212-5.051-0.501c-1.318-0.194-2.347-1.472-2.428-2.753
			c-0.084-1.342,0.679-2.156,1.813-2.698c0.15-0.071,0.306-0.146,0.466-0.175c3.945-0.723,7.914-1.087,11.871-0.226
			c1.708,0.372,2.185,1.17,2.234,2.828c0.052,1.729-0.542,2.696-2.314,3.001C157.153,22.21,155.229,22.208,152.43,22.413z"/>
		<path fill="#5C869F" d="M124.57,23.154c-1.525-0.161-2.867-0.561-3.648-2.099c-1.006-1.979-0.044-4.159,2.162-4.492
			c1.129-0.17,2.297-0.083,3.447-0.113c2.488,0.067,4.981,0.065,7.462,0.234c0.943,0.064,2.08,0.279,2.725,0.868
			c0.648,0.591,1.211,1.808,1.065,2.615c-0.24,1.323-1.357,2.318-2.769,2.55c-1.469,0.241-2.975,0.295-4.468,0.348
			C128.556,23.137,126.563,23.128,124.57,23.154z"/>
		<path fill="#5E879F" d="M176.701,23.182c-1.883-0.176-3.793-0.21-5.64-0.568c-1.749-0.339-2.467-1.418-2.414-2.954
			c0.047-1.363,0.819-2.302,2.393-2.75c0.707-0.201,1.458-0.28,2.195-0.338c2.39-0.19,4.784-0.49,7.174-0.472
			c2.375,0.019,4.077,2.479,3.483,4.667c-0.312,1.148-0.943,1.934-2.204,2.011c-1.653,0.1-3.308,0.17-4.962,0.253
			C176.717,23.081,176.709,23.131,176.701,23.182z"/>
		<path fill="#5E879F" d="M136.796,28.81c0.967-0.186,1.929-0.476,2.904-0.534c1.708-0.101,3.445-0.225,5.127-0.009
			c0.874,0.112,1.954,0.673,1.975,1.921c0.024,1.419,0.037,2.869-1.414,3.739c-0.355,0.213-0.725,0.528-1.104,0.556
			c-3.042,0.223-6.101,0.645-9.127,0.484c-2.105-0.112-3.408-2.712-2.75-4.444c0.472-1.243,1.358-1.851,2.628-1.935
			c0.573-0.038,1.154,0.042,1.732,0.069C136.776,28.708,136.786,28.759,136.796,28.81z"/>
		<path fill="#5C869F" d="M160.194,35.075c-2.225-0.082-4.37-0.296-6.201-1.655c-1.802-1.338-1.842-3.448-0.132-4.86
			c0.306-0.252,0.699-0.499,1.078-0.549c2.888-0.386,5.778-0.542,8.578,0.503c0.529,0.197,1.049,0.529,1.455,0.922
			c1.774,1.718,1.392,4.094-0.898,4.945C162.862,34.831,161.493,34.857,160.194,35.075z"/>
		<path fill="#FFDCD2" d="M229.836,41.268c-0.774,3.881-1.918,5.51-3.868,5.577c-2.86,0.098-4.626-1.261-5.31-4.087
			c-0.427-1.763,0.54-3.845,2.128-4.582C225.228,37.042,227.084,37.833,229.836,41.268z"/>
		<path fill="#FCDACF" d="M95.952,65.557c-3.263-0.915-6.698-1.366-9.497-3.529c2.653-1.208,5.306-2.415,7.958-3.624
			C94.925,60.789,95.438,63.173,95.952,65.557z"/>
		<path fill="#648CA3" d="M92.031,187.654c-0.29,1.991-0.518,3.458-2.136,4.172c-1.599,0.706-3.064-0.047-3.279-1.759
			c-0.181-1.439,0.107-2.785,1.023-3.964c0.764-0.983,2.039-1.334,2.852-0.847C91.316,185.75,91.666,187.039,92.031,187.654z"/>
		<path fill="#648CA3" d="M474.7,391.795c-0.27,2.254-2.196,4.159-3.992,3.949c-1.37-0.161-2.263-1.252-2.086-2.55
			c0.268-1.962,2.36-3.849,4.079-3.679C474.095,389.653,474.853,390.519,474.7,391.795z"/>
		<path fill="#648CA3" d="M79.951,192.555c-0.054,1.803-1.449,3.546-2.855,3.568c-1.423,0.022-2.733-1.599-2.673-3.307
			c0.061-1.716,1.422-3.423,2.688-3.371C78.838,189.517,80.003,190.792,79.951,192.555z"/>
		<path fill="#6F92A7" d="M83.86,178.463c-0.064,1.99-0.618,2.681-2.153,3.191c-1.638,0.543-3.504,0.239-4.187-0.683
			c-0.67-0.904-0.313-2.784,0.688-3.625c1.044-0.876,3.598-1.055,4.703-0.193C83.425,177.554,83.71,178.247,83.86,178.463z"/>
		<path fill="#648CA3" d="M715.688,356.187c0.347,1.587-0.356,2.857-1.195,4.107c-0.561,0.834-1.247,1.27-2.277,1.027
			c-0.946-0.222-1.79-0.692-1.892-1.687c-0.104-1.02,0.106-2.07,0.18-3.107c0.054-0.063,0.104-0.13,0.16-0.189
			C712.825,354.041,713.395,354.024,715.688,356.187z"/>
		<path fill="#6F92A7" d="M706.431,353.246c-1.644,0.036-3.16-1.439-3.191-3.104c-0.028-1.5,1.197-2.548,3.001-2.567
			c1.618-0.017,3.153,1.284,3.199,2.789C709.497,352.23,708.324,352.956,706.431,353.246z"/>
		<path fill="#6F92A7" d="M165.25,85.484c0.012,1.779-1.184,2.75-3.364,2.728c-1.812-0.018-2.755-0.96-2.733-2.73
			c0.02-1.614,1.113-2.598,2.934-2.641C164.046,82.795,165.238,83.791,165.25,85.484z"/>
		<path fill="#6F92A7" d="M168.011,77.848c-1.383-0.051-2.715-1.28-2.637-2.431c0.128-1.881,1.706-3.128,3.859-3.054
			c1.592,0.055,2.279,0.878,2.197,2.633C171.352,76.698,169.889,77.917,168.011,77.848z"/>
		<path fill="#6F92A7" d="M703.429,358.623c1.517,3.137,0.082,5.364-3.374,5.289c-1.177-0.025-1.923-0.435-1.971-1.713
			c-0.028-0.747-0.074-1.494-0.113-2.241c1.107-1.124,2.482-1.564,4.025-1.576c0.175,0.01,0.35,0.02,0.525,0.029
			C702.823,358.481,703.126,358.553,703.429,358.623z"/>
		<path fill="#89A4B5" d="M467.434,86.104c0.02,1.261-1.188,2.626-2.369,2.682c-1.417,0.067-2.813-1.272-2.896-2.78
			c-0.075-1.345,0.843-2.313,2.232-2.352C466.232,83.604,467.41,84.554,467.434,86.104z"/>
		<path fill="#FEDBD0" d="M702.521,358.411c-0.176-0.01-0.351-0.02-0.525-0.029C702.171,358.392,702.346,358.401,702.521,358.411z"
			/>
		<path fill="#B2CDDD" d="M223.598,473.045c-0.512-6.061-1.634-11.978-4.771-17.285c-1.465-2.479-3.282-4.749-4.939-7.113
			c4.654-0.328,9.281-0.386,13.788,1.146c0.932,0.316,1.925,0.509,2.906,0.615c4.351,0.468,7.965,2.621,11.503,4.952
			c1.017,0.671,1.987,1.414,2.979,2.123c-0.421,0.461-0.758,1.087-1.279,1.355c-4.187,2.163-7.941,4.946-11.694,7.767
			c-2.3,1.729-4.625,3.376-6.56,5.537C225.093,472.629,224.252,472.754,223.598,473.045z"/>
		<path fill="#FFDBD0" d="M374.574,414.469c4.314,0.007,7.099,1.846,9.195,4.716c1.265,1.729,1.051,3.882,0.425,5.764
			c-1.144,3.437-3.162,6.184-6.931,7.218c-1.106,0.304-2.104,1.063-3.217,1.279c-3.452,0.671-5.844-1.374-7.021-4.184
			c-1.933-4.612-0.308-10.55,3.652-13.647C371.989,414.587,373.549,414.407,374.574,414.469z"/>
		<path fill="#B4CFDE" d="M335.508,474.486c-2.846,4.805-6.708,8.808-10.272,13.047c-0.69,0.82-1.222,1.771-1.845,2.649
			c-1.401,1.975-3.702,2.424-5.649,1.118c-1.385-0.93-1.594-4.289-0.312-5.918c0.87-1.104,1.821-2.146,2.752-3.202
			c2.797-3.169,5.596-6.336,8.407-9.493c0.802-0.9,1.646-1.763,2.471-2.642c0.73-0.128,1.456-0.312,2.191-0.373
			c1.829-0.152,2.837,0.824,2.697,2.636C335.89,473.042,335.66,473.762,335.508,474.486z"/>
		<path fill="#FFDCD2" d="M362.353,396.023c3.625,0.147,7.328,3.708,7.553,7.025c0.017,0.24,0.029,0.542-0.093,0.722
			c-1.588,2.341-2.648,5.124-5.925,5.903c-1.34,0.319-2.413,0.079-3.215-0.684c-1.426-1.356-2.685-2.909-3.882-4.479
			c-1.141-1.496-1.042-3.148,0.051-4.64C358.286,397.9,360.089,396.395,362.353,396.023z"/>
		<path fill="#B7D0DE" d="M365.213,491.997c-2.923,0.011-4.062-1.133-3.662-3.835c0.188-1.269,0.596-2.692,1.385-3.648
			c2.256-2.732,4.501-5.508,7.437-7.602c2.437-1.737,4.98-1.037,5.309,1.618c0.102,0.82-0.158,1.866-0.631,2.545
			c-2.264,3.244-4.637,6.413-7.017,9.574C367.307,491.614,366.344,492.265,365.213,491.997z"/>
		<path fill="#B7D0DE" d="M345.5,467.459c-2.653,0.058-4.406-1.23-4.777-3.208c-0.121-0.642,0.009-1.577,0.414-2.029
			c2.596-2.898,5.285-5.716,7.985-8.519c0.445-0.463,1.105-0.714,1.651-1.086c1.131-0.771,2.18-0.518,3.214,0.207
			c1.044,0.73,1.135,1.807,0.958,2.897c-0.359,2.215-1.79,3.89-3.09,5.585c-1.255,1.637-2.622,3.204-4.082,4.659
			C347.014,466.725,345.947,467.176,345.5,467.459z"/>
		<path fill="#B7D0DE" d="M362.953,467.481c-2.727-0.059-4.533-2.69-3.744-5.102c0.43-1.314,1.096-2.661,2.005-3.683
			c1.368-1.539,2.89-3.059,4.636-4.102c1.254-0.748,3.001-1.021,4.494-0.931c1.82,0.109,2.8,2.638,1.747,4.33
			c-0.991,1.595-1.889,3.259-3.579,4.395c-1.045,0.702-1.697,2-2.499,3.05C365.122,466.607,364.051,467.438,362.953,467.481z"/>
		<path fill="#B7D0DE" d="M346.954,489.987c-0.389,0.126-0.789,0.225-1.164,0.382c-1.732,0.725-3.624,0.453-4.767-0.7
			c-0.754-0.763-0.782-3.373,0.021-4.694c0.423-0.696,0.979-1.313,1.474-1.965c0.473-0.289,1.11-0.468,1.391-0.886
			c1.733-2.582,4.36-3.985,6.856-5.494c2.881,1.421,3.464,2.328,2.74,4.45c-0.288,0.844-0.712,1.688-1.258,2.389
			C350.53,485.678,348.725,487.82,346.954,489.987z"/>
		<path fill="#B2CDDD" d="M57.51,457.612c-0.726,0.387-1.413,0.888-2.182,1.142c-5.545,1.825-10.189,5.147-14.687,8.726
			c-0.315,0.251-0.713,0.398-1.073,0.594c-0.061-0.064-0.123-0.127-0.185-0.188c0.378-0.803,0.647-1.682,1.152-2.395
			c2.752-3.88,5.562-7.72,8.352-11.573c0.195,1.119,1.068,0.989,1.89,1.103C53.216,455.354,55.594,455.897,57.51,457.612z"/>
		<path fill="#FFDCD2" d="M258.519,404.351c-0.265,1.012-0.55,2.651-1.131,4.179c-0.644,1.69-2.78,2.253-4.319,1.322
			c-3.838-2.322-3.906-7.223-0.076-9.474c1.2-0.705,2.55-0.561,3.807,0.046C258.187,401.095,258.522,402.327,258.519,404.351z"/>
		<path fill="#FFDCD2" d="M58.6,332.178c1.029,0.544,1.983,0.791,2.559,1.397c2.161,2.277,1.034,7.392-1.866,8.697
			c-0.412,0.186-1.03,0.255-1.425,0.083c-2.466-1.07-4.116-2.687-3.115-5.783c0.278-0.859,0.5-1.846,1.077-2.47
			C56.563,333.31,57.632,332.825,58.6,332.178z"/>
		<path fill="#FFDCD2" d="M250.5,389.063c-0.033,2.043-2.689,4.411-4.94,4.402c-1.479-0.005-3.362-2.436-3.41-4.4
			c-0.053-2.167,1.768-3.615,4.485-3.568C249.058,385.537,250.534,386.9,250.5,389.063z"/>
		<path fill="#FFDCD2" d="M61.601,327.004c-2.101-0.055-3.632-1.703-3.596-3.867c0.028-1.676,1.79-4.093,2.954-4.054
			c3.071,0.105,4.961,1.734,5.002,4.312C65.986,324.993,63.497,327.054,61.601,327.004z"/>
		<path fill="#5E879F" d="M270.464,437.199c-0.074,1.703-1.733,3.846-3.338,4.195c-1.004,0.219-1.98,0.173-2.694-0.786
			c-0.887-1.189-1.42-2.497-0.845-3.92c0.328-0.813,0.931-1.583,1.586-2.177c0.994-0.901,2.15-1.678,3.602-0.953
			C269.888,434.115,270.534,435.583,270.464,437.199z"/>
		<path fill="#FFDCD2" d="M49.443,328.503c-2.106-0.014-3.967-1.719-3.908-3.582c0.054-1.672,2.226-3.872,3.86-3.909
			c2.15-0.048,4.112,1.764,4.089,3.775C53.461,326.891,51.693,328.517,49.443,328.503z"/>
		<path fill="#5D859D" d="M286.407,433.003c-0.038,2.103-1.875,3.799-4.098,3.782c-1.9-0.014-3.265-1.56-3.191-3.616
			c0.07-1.971,2.164-4.021,4.041-3.956C284.739,429.267,286.438,431.25,286.407,433.003z"/>
		<path fill="#FCF4F2" d="M241.5,406.32c-0.008,2.273-1.79,4.135-3.976,4.153c-1.799,0.016-2.975-1.393-3.037-3.477
			c-0.072-2.409,0.676-3.852,4.173-3.983C240.957,402.927,241.509,403.623,241.5,406.32z"/>
		<path fill="#5E879F" d="M265.936,450.53c0.663,1.478-0.088,2.766-0.685,3.985c-0.662,1.351-3.405,1.914-4.439,0.312
			c-0.486-0.753-0.896-1.557-1.34-2.338c0.027-0.16,0.077-0.321,0.078-0.481c0.005-1.562,0.793-2.748,2.171-3.216
			c1.382-0.47,2.73,0.014,3.716,1.205C265.592,450.185,265.769,450.354,265.936,450.53z"/>
		<path fill="#5E879F" d="M298.765,440.674c1.714-0.007,3.078,1.376,3.142,3.187c0.065,1.862-1.576,3.437-3.52,3.378
			c-1.716-0.052-3.134-1.535-3.103-3.246C295.313,442.394,297.109,440.682,298.765,440.674z"/>
		<path fill="#5E879F" d="M282.445,450.688c0.463,0.342,0.949,0.657,1.385,1.031c1.197,1.023,1.612,2.332,1.157,3.528
			c-0.5,1.314-2.117,2.392-3.526,2.301c-1.144-0.073-2.149-0.515-2.592-1.627c-0.515-1.295-0.507-2.63,0.49-3.729
			c0.49-0.541,1.145-0.932,1.726-1.389C281.539,450.765,281.992,450.727,282.445,450.688z"/>
		<path fill="#5E879F" d="M155.608,367.115c-0.458,1.725-0.716,3.109-2,3.99c-1.334,0.915-2.514,0.871-3.589-0.167
			c-1.084-1.047-1.238-2.259-0.306-3.554c0.523-0.729,1.173-1.396,1.873-1.959c0.812-0.652,1.865-1.011,2.735-0.271
			C154.944,365.685,155.266,366.569,155.608,367.115z"/>
		<path fill="#648CA3" d="M275.434,449.995c-0.544,1.018-0.621,2.398-2.288,2.46c-1.626,0.061-2.849-0.425-3.551-1.953
			c-0.009-0.574-0.08-1.155-0.016-1.721c0.219-1.934,1.62-3.182,3.424-3.108c1.562,0.063,2.446,1.248,2.477,3.335
			C275.485,449.337,275.45,449.666,275.434,449.995z"/>
		<path fill="#648CA3" d="M291.468,450.941c-1.29,0.487-2.489,0.34-3.583-0.518c-0.97-2.771-0.614-3.836,1.426-5.153
			c1.211-0.782,2.179-0.419,3.161,0.28c1.001,0.714,1.324,1.786,0.844,2.838C292.889,449.325,292.099,450.097,291.468,450.941z"/>
		<path fill="#648CA3" d="M281.535,440.653c1.544-0.013,2.727,1.274,2.695,2.933c-0.03,1.558-1.463,2.836-3.168,2.825
			c-1.485-0.01-2.853-1.174-2.926-2.491C278.046,442.311,279.755,440.667,281.535,440.653z"/>
		<path fill="#648CA3" d="M293.736,431.111c1.644,0.208,2.646,1.506,2.404,3.111c-0.277,1.839-1.462,3.037-2.796,2.827
			c-1.772-0.278-3.009-1.846-2.752-3.487C290.845,431.948,292.171,430.914,293.736,431.111z"/>
		<path fill="#6F92A7" d="M144.978,362.46c-1.284,0.003-2.211-1.013-2.219-2.432c-0.009-1.629,1.94-3.392,3.673-3.32
			c1.078,0.044,2.325,1.345,2.372,2.474C148.859,360.548,146.633,362.455,144.978,362.46z"/>
		<path fill="#89A4B5" d="M142.337,373.385c-1.274-0.011-2.612-1.275-2.632-2.488c-0.019-1.145,1.787-2.758,3.071-2.743
			c1.145,0.013,2.597,1.261,2.59,2.226C145.354,371.979,143.923,373.398,142.337,373.385z"/>
		<path fill="#89A4B5" d="M260.284,351.387c1.441-1.797,2.326-2.231,3.551-1.71c1.015,0.432,1.566,1.309,1.519,2.357
			c-0.054,1.195-1.082,1.622-2.067,1.854C261.961,354.201,261.245,353.576,260.284,351.387z"/>
		<path fill="#FFDBD0" d="M687.953,258.662c0.185,2.684-1.252,4.746-2.973,6.466c-0.822,0.822-2.361,1.023-3.621,1.293
			c-3.913,0.837-7.379-1.749-7.867-5.769c-0.069-0.572-0.109-1.161-0.279-1.707c-0.398-1.281-0.045-2.251,1.001-3.063
			c0.653-0.508,1.315-1.051,1.817-1.699c1.48-1.911,3.567-2.606,5.793-3.049c1.66-0.329,4.138,1.025,4.814,2.575
			c0.432,0.988,0.967,1.944,1.28,2.969C688.105,257.285,687.953,257.997,687.953,258.662z"/>
		<path fill="#5C869F" d="M693.738,61.536c0.761-1.241,1.445-2.537,2.302-3.708c1.072-1.466,2.736-2.14,4.436-2.211
			c1.8-0.076,3.329,1.049,4.375,2.397c1.58,2.037,2.305,4.334,0.781,6.845c-0.418,0.689-0.583,1.533-0.864,2.303
			c-0.695,0.639-1.363,1.31-2.086,1.916c-2.777,2.33-5.519,1.426-8.119-0.282c-0.557-0.365-0.947-1.351-0.982-2.072
			C693.496,65,693.669,63.266,693.738,61.536z"/>
		<path fill="#FFDCD2" d="M674.979,277.897c0.009,2.897-1.771,4.999-4.227,5.107c-3.563,0.156-5.812-1.913-6.202-4.8
			c-0.252-1.865,1.475-4.287,3.521-5.146c0.604-0.254,1.26-0.441,1.909-0.525c2.861-0.371,4.606,0.991,4.989,3.871
			C675.036,276.895,674.979,277.399,674.979,277.897z"/>
		<path fill="#5E879F" d="M689.196,63.848c0.15,0.167,0.3,0.333,0.45,0.5c-0.374,1.734-0.746,3.469-1.119,5.203
			c-0.988,1.397-2.13,2.553-4.01,2.543c-0.907-1.018-2.066-0.49-3.136-0.51c-1.296-0.13-1.819-1.133-2.372-2.102
			c-0.48-1.53-0.229-3.078-0.108-4.623c0.036-0.125,0.101-0.234,0.193-0.327c0.893-0.081,0.915-0.759,0.969-1.416
			c0,0,0.077-0.042,0.076-0.042c0.299-0.323,0.598-0.646,0.896-0.969c0.409-0.103,0.817-0.206,1.227-0.307
			c1.41,0.07,2.819,0.138,4.229,0.207c0.16,0.026,0.312,0.079,0.453,0.158c0.354,0.614,0.709,1.228,1.063,1.842
			c-0.229,0.211-0.46,0.421-0.689,0.632c0.103,0.07,0.205,0.141,0.308,0.211c0.122-0.286,0.244-0.572,0.366-0.858
			C688.394,63.943,688.795,63.896,689.196,63.848z"/>
		<path fill="#FFDCD2" d="M527.339,84.377c0.532,2.486-0.006,4.507-1.692,6.261c-0.917,0.954-1.881,1.441-3.255,1.401
			c-2.793-0.083-4.373-1.89-3.86-4.666c0.071-0.386,0.252-0.793,0.498-1.098C520.956,83.879,524.37,83.08,527.339,84.377z"/>
		<path fill="#FFDCD2" d="M534.506,93.402c0.011-2.33,1.247-3.337,4.156-3.385c1.835-0.03,3.409,1.801,3.323,3.868
			c-0.08,1.928-1.822,3.604-3.743,3.599C536.216,97.478,534.496,95.599,534.506,93.402z"/>
		<path fill="#FFDCD2" d="M532.282,81.987c-1.448,0.001-3.232-1.743-3.267-3.194c-0.057-2.407,1.771-4.25,4.194-4.231
			c1.578,0.012,2.821,1.578,2.792,3.518C535.971,80.233,534.303,81.985,532.282,81.987z"/>
		<path fill="#5E879F" d="M592.029,68.512c-1.992,0.012-3.218-1.065-3.283-2.882c-0.053-1.457,2.442-3.753,4.044-3.722
			c1.632,0.032,2.903,1.236,2.913,2.761C595.716,66.68,593.976,68.5,592.029,68.512z"/>
		<path fill="#5E879F" d="M597.755,51.569c2.953-1.479,4.938-0.479,5.794,2.92c-0.691,1.256-1.594,2.21-3.033,2.693
			c-1.378,0.463-2.401,0.017-3.332-0.883c-0.914-0.884-0.737-1.926-0.28-2.959C597.168,52.741,597.47,52.159,597.755,51.569z"/>
		<path fill="#5E879F" d="M569.471,48.992c0.091-0.318,0.152-0.648,0.276-0.954c0.583-1.438,1.453-2.813,3.06-2.929
			c1.514-0.11,2.468,1.136,3.206,2.389c-0.211,0.953-0.188,2.058-0.688,2.823c-0.794,1.217-2.074,1.932-3.644,1.626
			C570.084,51.636,569.692,50.363,569.471,48.992z"/>
		<path fill="#648CA3" d="M582.725,47.096c0.311-0.086,0.625-0.164,0.934-0.259c2.438-0.757,2.937-0.57,4.426,1.665
			c-0.441,1.138-0.775,2.334-1.355,3.396c-0.544,0.995-1.54,1.595-2.716,1.322c-1.351-0.313-2.617-2.076-2.384-3.409
			C581.794,48.871,582.346,47.999,582.725,47.096z"/>
		<path fill="#648CA3" d="M550.017,55.505c-0.038-1.376-0.206-2.724,1.065-3.805c2.046-1.74,3.952-1.505,5.366,0.809
			c0.112,1.763-0.342,3.202-2.125,3.974C552.582,57.237,551.517,57.021,550.017,55.505z"/>
		<path fill="#648CA3" d="M581.206,75.488c-1.979,0.033-3.397-1.208-3.503-3.069c-0.089-1.573,1.532-3.247,3.145-3.247
			c1.552,0,3.415,1.811,3.451,3.353C584.333,73.942,582.746,75.462,581.206,75.488z"/>
		<path fill="#648CA3" d="M566.908,56.35c0.038,2.18-1.207,3.662-3.1,3.687c-1.746,0.023-2.753-1.092-2.759-3.059
			c-0.007-1.981,1.647-3.67,3.575-3.65C565.837,53.34,566.879,54.72,566.908,56.35z"/>
		<path fill="#6F92A7" d="M638.854,106.441c-0.259-0.166-1.119-0.487-1.628-1.099c-0.783-0.94-0.492-2.004,0.229-2.938
			c1.142-1.479,3.098-2.116,4.584-1.489c1.328,0.561,1.605,1.107,1.281,2.523C642.963,104.999,641.188,106.383,638.854,106.441z"/>
		<path fill="#648CA3" d="M652.605,100.297c1.694,0.037,2.675,0.84,2.707,2.215c0.044,1.926-1.946,3.865-3.843,3.744
			c-1.583-0.102-2.416-0.986-2.399-2.547C649.09,101.852,650.744,100.256,652.605,100.297z"/>
		<path fill="#5E879F" d="M569.716,73.143c-0.018,1.987-1.632,3.522-3.686,3.505c-1.147-0.009-2.372-1.39-2.358-2.658
			c0.021-1.981,1.525-3.696,3.241-3.694C568.445,70.297,569.73,71.602,569.716,73.143z"/>
		<path fill="#648CA3" d="M555.283,62.949c1.784-0.038,3.15,1.104,3.212,2.685c0.063,1.637-1.283,3.047-2.885,3.02
			c-2.02-0.034-3.137-0.989-3.151-2.694C552.444,64.119,553.506,62.987,555.283,62.949z"/>
		<path fill="#648CA3" d="M645.861,94.201c-1.55-0.173-2.457-1.2-2.34-2.646c0.137-1.676,1.799-3.013,3.475-2.796
			c1.639,0.212,2.611,1.328,2.469,2.833C649.315,93.175,647.627,94.398,645.861,94.201z"/>
		<path fill="#6F92A7" d="M575.49,67.397c-1.577-0.026-2.573-1.091-2.56-2.739c0.013-1.644,1.373-3.046,2.964-3.058
			c1.232-0.01,2.569,1.464,2.58,2.845C578.488,66.149,577.198,67.425,575.49,67.397z"/>
		<path fill="#6F92A7" d="M578.98,56.352c-0.052,1.584-1.244,2.643-2.98,2.646c-1.591,0.003-2.471-0.876-2.441-2.438
			c0.034-1.839,1.408-3.106,3.229-2.978C578.228,53.684,579.033,54.702,578.98,56.352z"/>
		<path fill="#6F92A7" d="M699.996,169.283c0.219-2.042,0.714-2.749,2.155-2.634c2.066,0.165,3.102,0.818,3.13,2.379
			c0.029,1.581-1.219,2.936-2.719,2.952C701.002,171.997,699.976,170.919,699.996,169.283z"/>
		<path fill="#89A4B5" d="M588.607,60.02c-1.38,0.044-2.985-1.249-2.988-2.407c-0.002-1.269,1.788-2.978,3.173-3.029
			c1.281-0.047,2.569,1.349,2.589,2.806C591.398,58.672,590.024,59.975,588.607,60.02z"/>
		<path fill="#89A4B5" d="M688.527,69.551c0.373-1.734,0.745-3.468,1.119-5.203c0.193,0.138,0.504,0.239,0.561,0.42
			C690.543,65.843,689.552,68.585,688.527,69.551z"/>
		<path fill="#89A4B5" d="M678.901,64.859c-0.121,1.545-0.372,3.093,0.108,4.623C677.294,67.883,677.27,66.862,678.901,64.859z"/>
		<path fill="#89A4B5" d="M686.491,62.005c-1.409-0.069-2.818-0.137-4.229-0.207C684.104,60.733,685.312,60.793,686.491,62.005z"/>
		<path fill="#89A4B5" d="M688.008,64.005c-0.354-0.614-0.709-1.228-1.063-1.842c1.514-0.458,1.802,0.722,2.252,1.685
			c-0.401,0.047-0.803,0.095-1.204,0.143L688.008,64.005z"/>
		<path fill="#89A4B5" d="M681.382,71.584c1.069,0.02,2.229-0.508,3.136,0.51C683.367,72.568,682.241,72.898,681.382,71.584z"/>
		<path fill="#89A4B5" d="M680.063,63.117c-0.054,0.657-0.076,1.334-0.969,1.416C678.936,63.73,678.999,63.081,680.063,63.117z"/>
		<path fill="#89A4B5" d="M681.036,62.105c-0.299,0.323-0.598,0.646-0.896,0.969C680.439,62.751,680.738,62.428,681.036,62.105z"/>
		<path fill="#FDFDFE" d="M593.498,422.48c2.643-1.967,5.188-4.085,7.95-5.868c4.825-3.117,10.022-5.563,15.496-7.29
			c2.741-0.865,5.661-1.167,8.5-1.723c-2.261,1.481-4.49,3.011-6.786,4.435c-5.762,3.575-11.657,6.908-18.193,8.878
			C598.191,421.597,595.823,421.967,593.498,422.48z"/>
		<path fill="#B4CFDE" d="M505.11,29.489c2.964,0.016,4.173,2.247,2.972,4.708c-1.16,2.375-2.593,4.623-3.984,6.878
			c-1.039,1.684-2.193,3.298-3.315,4.93c-0.938,1.365-2.389,1.878-3.813,1.384c-1.129-0.392-1.898-1.658-1.985-3.143
			c-0.115-1.975,0.145-3.737,1.701-5.241c0.92-0.888,1.599-2.102,2.149-3.279c1.026-2.194,2.881-3.634,4.524-5.257
			C503.948,29.886,504.854,29.625,505.11,29.489z"/>
		<path fill="#B4CFDE" d="M470.871,45.496c-0.563-0.172-0.952-0.31-1.351-0.41c-2.474-0.62-3.466-2.702-2.387-5.027
			c1.808-3.892,4.477-7.135,7.631-9.99c0.529-0.479,1.263-0.842,1.961-1.001c2.136-0.486,3.375,0.574,3.26,2.789
			c-0.046,0.892-0.172,1.877-0.592,2.637C477.149,38.546,474.802,42.541,470.871,45.496z"/>
		<path fill="#B4CFDE" d="M483.452,50.507c2.481-0.059,3.851,1.699,3.13,3.737c-0.744,2.104-1.728,4.148-2.833,6.089
			c-1.02,1.791-2.191,3.544-3.561,5.079c-2.616,2.932-4.512,2.501-6.063,0.173c-0.435-0.651-0.545-1.797-0.306-2.559
			c0.491-1.562,1.1-3.181,2.059-4.481c1.817-2.462,3.878-4.75,5.925-7.033C482.308,50.949,483.146,50.686,483.452,50.507z"/>
		<path fill="#648CA3" d="M597.483,46.377c-2.165,0.022-3.468-1.244-3.438-3.344c0.021-1.563,1.394-2.883,3.052-2.937
			c1.646-0.053,3.197,1.585,3.254,3.438C600.412,45.536,599.586,46.355,597.483,46.377z"/>
		<path fill="#648CA3" d="M561.771,44.979c-2.035,0.014-2.905-0.895-2.968-3.097c-0.043-1.537,1.417-3.062,2.947-3.077
			c1.4-0.014,3.338,1.805,3.381,3.174C565.175,43.412,563.434,44.967,561.771,44.979z"/>
		<path fill="#648CA3" d="M578.863,36.717c0.01,2.003-0.802,2.75-2.947,2.712c-1.409-0.024-3.162-1.681-3.161-2.987
			c0-1.287,1.581-3.009,2.813-3.065C577.337,33.296,578.854,34.834,578.863,36.717z"/>
		<path fill="#648CA3" d="M588.879,36.267c-0.017,1.473-1.732,3.136-3.266,3.164c-1.535,0.028-2.979-1.253-3.024-2.684
			c-0.052-1.664,1.652-3.404,3.285-3.355C587.752,33.447,588.897,34.543,588.879,36.267z"/>
		<path fill="#57829B" d="M276.632,42.652c2.063-0.895,3.863-1.734,5.708-2.459c1.886-0.742,2.527-0.559,3.479,0.738
			c0.852,1.161,0.77,2.208-0.154,3.646c-1.3,2.022-2.544,4.081-3.81,6.125c-0.625,1.009-0.677,1.972,0.056,2.997
			c0.768,1.076,1.441,2.222,2.121,3.358c1.189,1.988,0.313,4.538-1.707,4.659c-0.88,0.053-1.873-0.426-2.675-0.9
			c-0.513-0.304-0.771-1.04-1.389-1.938c-0.85,1.476-1.404,2.37-1.891,3.299c-0.603,1.15-1.295,2.163-2.763,2.182
			c-1.405,0.018-1.933-1.025-2.539-2.058c-0.665-1.133-0.963-2.258-0.663-3.563c0.145-0.628,0.096-1.302,0.147-2.167
			c-0.957-0.334-1.871-0.659-2.789-0.973c-0.704-0.24-1.461-0.375-2.111-0.715c-2.26-1.182-2.589-3.381-0.659-5.025
			c1.058-0.901,2.319-1.615,3.586-2.202c1.145-0.53,1.668-1.207,1.547-2.479c-0.094-0.987-0.051-1.992-0.007-2.986
			c0.081-1.825,1.157-3.165,2.661-3.383c1.124-0.163,2.614,0.881,3.211,2.259C276.188,41.516,276.359,41.974,276.632,42.652z"/>
		<path fill="#EDD1CA" d="M676.375,463.035c-1.33-0.165-2.32-0.212-3.272-0.429c-0.849-0.192-1.521-0.721-1.505-1.71
			c0.017-1.015,0.557-1.936,1.519-1.987c2.362-0.128,4.745-0.091,7.104,0.089c0.52,0.039,1.343,0.936,1.355,1.454
			c0.014,0.557-0.651,1.435-1.215,1.641C678.994,462.593,677.515,462.784,676.375,463.035z"/>
		<path fill="#EDD1CA" d="M707.814,457.402c1.271,0.174,2.745,0.353,4.21,0.585c0.811,0.129,1.39,0.567,1.359,1.482
			c-0.03,0.897-0.623,1.374-1.424,1.444c-2.383,0.211-4.771,0.363-7.159,0.498c-1.207,0.068-1.897-0.673-2.005-1.764
			c-0.103-1.041,0.632-1.708,1.603-1.896C705.445,457.548,706.527,457.524,707.814,457.402z"/>
		<path fill="#EDD1CA" d="M726.254,439.961c-1.297-0.094-2.133-0.084-2.94-0.229c-1.079-0.195-1.634-1.104-1.446-2.01
			c0.133-0.643,0.94-1.55,1.532-1.62c2.211-0.266,4.458-0.304,6.689-0.279c0.819,0.009,1.835,0.469,1.701,1.451
			c-0.092,0.674-0.755,1.595-1.369,1.808C728.955,439.59,727.366,439.745,726.254,439.961z"/>
		<path fill="#EDD1CA" d="M698.203,450.972c-0.579,0-1.209,0.143-1.727-0.036c-0.633-0.219-1.6-0.652-1.654-1.091
			c-0.088-0.684,0.341-1.55,0.801-2.145c0.295-0.382,1.033-0.548,1.585-0.577c1.567-0.083,3.153-0.164,4.705,0.005
			c0.566,0.063,1.292,0.731,1.525,1.298c0.364,0.881-0.206,1.686-1.088,1.923c-1.345,0.36-2.742,0.524-4.117,0.772
			C698.224,451.071,698.214,451.021,698.203,450.972z"/>
		<path fill="#EDD1CA" d="M715.076,480.338c-1.135,0-1.906,0.216-2.424-0.055c-0.648-0.337-1.446-1.032-1.519-1.65
			c-0.072-0.611,0.567-1.779,1.087-1.903c1.89-0.452,3.887-1.119,5.789-0.144c0.643,0.33,1.382,1.061,1.491,1.706
			c0.175,1.034-0.711,1.568-1.714,1.707C716.73,480.145,715.671,480.265,715.076,480.338z"/>
		<path fill="#EDD1CA" d="M652.97,478.637c-1.251-0.064-2.178-0.031-3.074-0.182c-0.869-0.146-1.738-0.695-1.508-1.637
			c0.165-0.674,0.957-1.671,1.501-1.691c2.221-0.083,4.462,0.08,6.676,0.329c0.48,0.055,1.229,0.846,1.219,1.282
			c-0.011,0.472-0.695,1.191-1.214,1.334C655.303,478.419,653.961,478.496,652.97,478.637z"/>
		<path fill="#EDD1CA" d="M709.683,489.446c0.787,0.211,1.882,0.354,2.834,0.802c1.011,0.475,1.098,1.652,0.146,2.2
			c-1.596,0.919-3.359,1.443-5.244,1.002c-0.962-0.225-1.728-0.772-1.697-1.86c0.028-1.04,0.725-1.662,1.698-1.889
			C708.06,489.553,708.732,489.547,709.683,489.446z"/>
		<path fill="#EDD1CA" d="M735.998,451.943c-0.79-0.092-1.214-0.085-1.604-0.198c-1.005-0.29-1.885-0.81-1.903-1.984
			c-0.021-1.232,0.879-1.809,1.938-1.817c1.451-0.012,2.972,0.006,4.34,0.418c1.423,0.43,1.466,1.846,0.137,2.549
			C737.909,451.437,736.764,451.681,735.998,451.943z"/>
		<path fill="#EDD1CA" d="M736.344,471.154c-2.273-0.126-3.098-0.611-3.183-1.997c-0.078-1.265,1.024-2.049,3.078-2.047
			c0.97,0.002,1.987,0.067,2.889,0.377c0.505,0.173,1.16,0.925,1.134,1.38c-0.034,0.591-0.557,1.402-1.09,1.659
			C738.325,470.936,737.296,470.964,736.344,471.154z"/>
		<path fill="#EDD1CA" d="M685.329,480.831c-0.52-0.091-1.173-0.177-1.812-0.324c-0.898-0.207-1.443-0.763-1.481-1.721
			c-0.039-0.959,0.485-1.524,1.335-1.856c1.168-0.456,4.738,0.395,5.578,1.337c0.727,0.815,0.512,1.843-0.548,2.125
			C687.454,480.644,686.45,480.68,685.329,480.831z"/>
		<path fill="#EDD1CA" d="M740.005,492.591c-1.484,2.037-4.82,2.572-6.339,1.091c-0.458-0.447-0.802-1.317-0.712-1.921
			c0.068-0.455,0.896-1.104,1.414-1.13C736.41,490.523,738.466,490.621,740.005,492.591z"/>
		<path fill="#EDD1CA" d="M676.727,493.932c-1.712-0.039-3.085-1.214-3.063-2.22c0.021-0.962,1.183-1.771,2.604-1.715
			c0.986,0.039,2.016,0.066,2.934,0.373c0.516,0.173,1.134,0.88,1.173,1.388c0.036,0.475-0.524,1.241-1.011,1.458
			C678.403,493.646,677.313,493.785,676.727,493.932z"/>
		<path fill="#EDD1CA" d="M645.367,489.611c0.634,0.063,1.151,0.028,1.608,0.18c0.813,0.269,1.657,0.773,1.413,1.727
			c-0.148,0.577-0.82,1.246-1.4,1.436c-0.991,0.324-2.103,0.441-3.151,0.39c-0.939-0.046-1.702-0.57-1.744-1.719
			c-0.037-1.046,0.646-1.474,1.465-1.719C644.18,489.719,644.85,489.69,645.367,489.611z"/>
		<path fill="#FCF4F2" d="M96.503,69.024c2.997,1.067,3.344,3.719,3.401,6.258c0.095,4.194-1.093,8.114-3.416,11.65
			c-0.054-1.915,0.222-3.749,0.737-5.622c0.399-1.452,0.169-3.11,0.054-4.664C97.091,74.1,96.769,71.564,96.503,69.024z"/>
		<path fill="#5C869F" d="M274.546,464.028c-0.023,2.518-1.748,4.264-4.226,4.279c-1.497,0.009-2.755-1.173-2.755-2.588
			c0-2.288,2.2-4.961,4.097-4.976C273.448,460.73,274.564,462.001,274.546,464.028z"/>
		<path fill="#5C869F" d="M300.5,458.117c-0.01,1.443-1.51,2.701-3.253,2.729c-2.272,0.036-3.683-1.049-3.628-2.789
			c0.068-2.184,1.488-3.759,3.444-3.82C298.766,454.185,300.514,456.156,300.5,458.117z"/>
		<path fill="#5E879F" d="M288.982,464.155c-0.042,2.309-0.991,3.357-2.981,3.296c-1.448-0.046-2.113-0.563-2.702-2.103
			c-0.459-1.199-0.029-2.816,1.055-3.791c0.917-0.824,2-1.185,3.198-0.771C288.663,461.172,289.02,462.107,288.982,464.155z"/>
		<path fill="#B7D0DE" d="M54.997,442.506c-0.296,0.502-0.592,1.005-1.117,1.897c-0.385-1.33,0.001-1.917,0.546-2.46
			C54.616,442.131,54.806,442.318,54.997,442.506z"/>
		<path fill="#FFF6F3" d="M54.997,442.506c-0.19-0.188-0.381-0.375-0.571-0.563C54.615,442.131,54.806,442.318,54.997,442.506z"/>
		<path fill="#FFF6F3" d="M85.732,406.261c-0.237,0.024-0.475,0.049-0.712,0.074c0.093-0.177,0.185-0.354,0.277-0.531
			C85.441,405.956,85.587,406.108,85.732,406.261z"/>
		<path fill="#B2CDDD" d="M38.938,468.443c0.149-0.186,0.299-0.37,0.447-0.558c0.061,0.061,0.122,0.123,0.183,0.188
			c-0.174,0.159-0.349,0.317-0.523,0.477L38.938,468.443z"/>
		<path fill="#B2CDDD" d="M39.045,468.55c-0.084,0.102-0.169,0.202-0.254,0.304c0.05-0.137,0.099-0.272,0.147-0.409
			C38.938,468.443,39.045,468.55,39.045,468.55z"/>
		<path fill="#FCF4F2" d="M152.512,456.519c3.725-3.19,7.428-6.406,11.178-9.565c5.138-4.329,10.983-7.111,17.688-8.032
			c4.145-0.568,8.325-1.086,12.392,0.075c3.417,0.975,6.74,2.334,10.019,3.724c2.576,1.092,4.494,3.109,6.227,5.273
			c-0.363,0.164-0.719,0.45-1.091,0.473c-3.391,0.201-6.792,0.268-10.175,0.546c-4.61,0.379-9.215,0.848-13.808,1.395
			c-3.524,0.419-7.03,0.992-10.537,1.545c-3.096,0.488-6.185,1.022-9.267,1.587c-0.554,0.102-1.122,0.37-1.581,0.702
			c-1.272,0.919-2.694,1.102-4.211,1.261c-1.542,0.161-3.048,0.703-4.557,1.123C154.003,456.842,153.236,457.36,152.512,456.519z"/>
		<path fill="#FDFDFE" d="M511.621,426.476c-3.305-4.685-4.944-9.949-5.001-15.628c-0.044-4.401,1.644-8.317,4.646-11.502
			c4.067-4.313,8.556-3.465,12.441-0.361c3.542,2.83,5.056,6.771,5.475,11.092c0.534,5.52-0.699,10.843-2.418,16.06
			c-0.983-0.041-1.967-0.142-2.947-0.111C519.751,426.153,515.687,426.322,511.621,426.476z"/>
		<path fill="#FCDACF" d="M651.961,420.462c0.457,1.649,1.047,3.198,1.302,4.8c1.303,8.173-0.427,15.373-7.132,20.786
			c-1.133,0.915-2.531,1.579-3.905,2.097c-2.092,0.788-3.431,0.254-4.71-1.598c-1.317-1.906-1.93-4.125-1.956-6.348
			c-0.042-3.592,0.491-7.118,2.83-10.113C641.891,425.604,646.011,422.022,651.961,420.462z"/>
		<path fill="#FCDACF" d="M511.621,426.476c4.065-0.153,8.13-0.322,12.196-0.451c0.98-0.03,1.964,0.07,2.947,0.111
			c-1.078,3.611-2.945,6.8-5.243,10.06C517.382,433.636,514.096,430.482,511.621,426.476z"/>
		<path fill="#FCF4F2" d="M671.49,42.976c-6.142,3.441-12.679,5.742-19.65,6.756c-0.795,0.115-1.628-0.035-2.444-0.061
			c1.531-1.117,3.073-2.22,4.592-3.355c4.154-3.107,7.066-7.145,8.999-11.941c0.856-2.123,1.631-4.325,3.492-5.861
			c0.109,0.119,0.327,0.255,0.312,0.354c-0.456,2.874,1.245,5.016,2.354,7.403C670.137,38.409,670.725,40.734,671.49,42.976z"/>
		<path fill="#FCDACF" d="M44.946,187.536c-2.015-2.137-2.307-4.983-2.747-7.619c-0.808-4.84-0.994-9.759-0.049-14.636
			c0.234-1.212,0.609-2.397,0.958-3.746c5.756,1.751,10.783,4.308,14.401,9.103c1.383,1.833,2.345,3.833,2.132,6.225
			c-3.913,2.994-7.808,6.008-11.749,8.963C46.99,186.502,45.932,186.971,44.946,187.536z"/>
		<path fill="#FDFDFE" d="M44.946,187.536c0.986-0.565,2.044-1.034,2.946-1.71c3.94-2.955,7.836-5.969,11.749-8.963
			c-0.338,5.45-2.595,9.823-7.311,12.737C49.221,191.52,46.846,190.81,44.946,187.536z"/>
		<path fill="#B2CDDD" d="M691.081,24.59c-3.258,0.186-6.128,0.435-9.001,0.468c-1.118,0.013-2.33-0.276-3.346-0.755
			c-2.069-0.977-2.448-3.227-0.914-4.948c2.14-2.402,4.559-4.367,8.005-4.403c3.254-0.035,5.53,2.038,5.661,5.286
			C691.538,21.53,691.257,22.834,691.081,24.59z"/>
		<path fill="#DAF1FF" d="M637.089,20.335c-1.909,2.161-6.907,3.384-9.288,2.273c-1.479-0.69-1.719-1.984-0.564-3.179
			c0.283-0.293,0.616-0.567,0.976-0.751C630.686,17.409,635.08,18.241,637.089,20.335z"/>
		<path fill="#B2CDDD" d="M717.067,36.946c1.984-3.134,3.969-6.269,5.981-9.449c1.573,1.416,1.983,2.902,1.154,4.533
			c-1.41,2.775-3.662,4.579-6.622,5.428C717.41,37.287,717.238,37.116,717.067,36.946z"/>
		<path fill="#FCF4F2" d="M137.585,455.925c-0.231,1.81-0.466,3.62-0.694,5.431c-0.152,1.211-0.755,1.98-2.018,2.164
			c-2.278,0.33-4.456,1.029-6.874,0.68c-4.262-0.615-6.739-3.083-7.888-6.959c-1.494-5.037-0.23-9.755,2.48-14.042
			c2.013-3.184,5.467-3.626,8.715-1.514c3.205,2.084,4.885,5.145,5.587,8.785C137.24,452.255,137.36,454.084,137.585,455.925z"/>
		<path fill="#89A4B5" d="M687.992,63.991c-0.122,0.286-0.244,0.572-0.366,0.858c-0.103-0.07-0.205-0.141-0.308-0.211
			c0.229-0.211,0.46-0.421,0.689-0.632L687.992,63.991z"/>
	</g>
</g>
</svg>
