<?xml version="1.0" encoding="UTF-8"?>
<!DOCTYPE svg PUBLIC "-//W3C//DTD SVG 1.1//EN" "http://www.w3.org/Graphics/SVG/1.1/DTD/svg11.dtd">
<!-- Creator: CorelDRAW X8 -->
<svg xmlns="http://www.w3.org/2000/svg" xml:space="preserve" width="1.11111in" height="1.11111in" version="1.1" style="shape-rendering:geometricPrecision; text-rendering:geometricPrecision; image-rendering:optimizeQuality; fill-rule:evenodd; clip-rule:evenodd"
viewBox="0 0 222 222"
 xmlns:xlink="http://www.w3.org/1999/xlink">
 <defs>
  <style type="text/css">
   <![CDATA[
    .fil1 {fill:#1A161A;fill-rule:nonzero}
    .fil0 {fill:white;fill-rule:nonzero}
   ]]>
  </style>
 </defs>
 <g id="Layer_x0020_1">
  <metadata id="CorelCorpID_0Corel-Layer"/>
  <g id="_2323888697520">
   <g>
    <path class="fil0" d="M222 111c0,62 -49,111 -111,111 -61,0 -111,-49 -111,-111 0,-61 50,-111 111,-111 62,0 111,50 111,111z"/>
   </g>
   <g>
    <g>
     <path class="fil1" d="M170 124c-2,-2 -6,-3 -9,-4 5,-8 8,-16 8,-26 0,-22 -13,-46 -39,-46 -7,0 -12,1 -17,3 -3,-1 -7,-1 -12,-1 -19,0 -32,11 -32,28 0,3 1,5 1,8 -1,1 -1,4 -1,6 0,3 2,6 3,8 1,1 2,1 3,1 2,7 6,13 12,17 -1,3 -2,6 -5,8 -3,1 -6,1 -6,1 -2,1 -3,1 -6,2 -4,2 -8,3 -12,5 -7,4 -11,10 -11,18l0 5c0,5 3,10 7,12 9,4 24,10 47,10 23,0 38,-6 47,-10 2,-1 4,-3 5,-5 9,-2 16,-4 21,-7 4,-2 7,-7 7,-11l0 -5c0,-7 -4,-14 -11,-17zm-40 -72l0 0c24,0 35,22 35,42 0,9 -3,18 -8,24 -1,0 -3,0 -4,-1 -2,0 -4,-1 -6,-1 -2,-2 -3,-4 -4,-7 5,-4 8,-9 10,-15 1,0 1,0 2,-1 2,-1 3,-4 3,-7 1,-5 -1,-8 -4,-9 -1,0 -2,0 -3,0 -1,-2 -3,-5 -6,-7 -3,-3 -8,-3 -14,-1 -2,-7 -6,-12 -12,-15 3,-1 7,-2 11,-2zm2 77l0 0c-2,-1 -4,-1 -6,-2 -2,0 -4,-1 -6,-1 -2,-2 -4,-5 -4,-8 2,-1 4,-3 5,-5 3,1 6,1 8,1 4,0 8,-1 11,-3 1,3 2,5 4,7 0,3 -3,8 -6,13 -2,0 -4,-1 -6,-2zm1 -37l0 0c0,-2 0,-4 -1,-6 1,-3 1,-5 1,-8 0,-2 0,-4 -1,-5 5,-2 8,-2 11,0 3,2 5,6 5,7 0,0 0,1 0,1 1,0 2,0 2,0 0,0 1,0 1,0 0,0 1,0 2,0 0,0 1,2 1,5 0,2 -1,3 -1,4 -1,0 -1,0 -1,0 -1,0 -1,0 -2,0 0,0 -1,1 -1,1 -1,7 -5,13 -10,16 -4,3 -10,4 -16,2 2,-2 3,-5 4,-8 1,0 2,0 3,-1 2,-2 3,-5 3,-8zm-32 -38l0 0c17,0 28,9 28,24 0,2 0,3 0,4 -1,0 -1,0 -1,0 -1,0 -2,0 -3,0 0,-1 -1,-4 -2,-7 -1,0 -1,0 -1,0 0,0 0,-1 0,-1 0,0 0,0 0,0 0,0 0,0 0,0 0,0 0,0 -1,0 -6,-5 -15,-5 -21,0 -5,3 -13,3 -17,0 0,0 0,0 0,0 -1,0 -1,0 -1,0 0,0 0,0 0,0 0,0 0,0 0,0 0,-1 -1,-1 -1,-1 0,1 0,1 0,1 0,0 0,0 0,0 0,0 -1,0 -1,0 0,0 0,0 0,0 0,0 0,0 0,0 0,0 0,0 0,1 0,0 0,0 0,0 -2,3 -2,6 -3,7 -1,0 -2,0 -3,0 0,0 0,0 0,0 0,-1 -1,-2 -1,-4 0,-15 11,-24 28,-24zm-22 44l0 0c0,0 -1,-1 -1,-1 -1,0 -2,0 -2,0 -1,0 -1,0 -1,0 -1,-1 -2,-3 -2,-5 0,-4 1,-6 2,-6 1,0 2,0 2,0 0,1 1,1 1,1 0,0 1,0 2,-1 0,0 0,0 0,-1 1,-1 2,-3 3,-7 2,2 5,2 8,2 4,0 8,-1 11,-3 5,-3 12,-3 17,0 1,3 3,7 3,8 0,1 0,1 1,1 0,1 1,1 1,1 0,0 1,0 1,-1 0,0 1,0 2,0 1,0 2,2 2,6 0,2 -1,4 -2,5 0,0 0,0 -1,0 0,0 -1,0 -1,0 -1,0 -1,1 -2,1 -1,8 -5,14 -11,18 -6,5 -15,5 -22,0 -5,-4 -9,-10 -11,-18zm11 23l0 0c4,2 7,3 11,3 4,0 8,-1 11,-3 1,3 2,5 4,8 -1,3 -8,9 -15,13 -7,-4 -14,-10 -15,-13 2,-3 3,-5 4,-8zm-39 36l0 0 0 -5c0,-6 4,-11 9,-14 3,-2 7,-4 12,-5 2,-1 3,-1 5,-2 0,0 2,0 5,-1 3,6 13,13 17,16l0 29c-22,-1 -36,-6 -43,-10 -3,-1 -5,-4 -5,-8zm100 0l0 0c0,4 -2,7 -5,8 -6,4 -20,9 -43,10l0 -29c4,-3 15,-10 17,-16 2,0 3,1 5,1 2,1 3,1 6,2 4,1 8,3 11,5 6,3 9,8 9,14l0 5zm26 -11l0 0c0,3 -2,6 -5,7 -3,2 -9,5 -17,7 0,-1 0,-2 0,-3l0 -5c0,-1 0,-3 0,-4 3,-1 7,-2 10,-3 1,0 1,-1 1,-2 0,-1 -1,-2 -3,-1 -3,1 -6,2 -10,2 -1,-4 -5,-8 -9,-10 -1,0 -2,-1 -2,-1 2,-5 5,-9 6,-13 1,0 3,1 4,1 2,1 3,1 5,2 4,1 8,3 12,4 5,3 8,8 8,14l0 5z"/>
    </g>
    <g>
     <path class="fil1" d="M139 153c-5,2 -10,3 -16,4 -1,0 -2,1 -2,3 1,1 1,1 2,1 1,0 1,0 1,0 6,-1 12,-2 17,-4 1,0 1,-2 1,-3 0,-1 -2,-1 -3,-1z"/>
    </g>
   </g>
  </g>
 </g>
</svg>
