<?xml version="1.0" encoding="utf-8"?>
<!-- Generator: Adobe Illustrator 16.0.0, SVG Export Plug-In . SVG Version: 6.00 Build 0)  -->
<!DOCTYPE svg PUBLIC "-//W3C//DTD SVG 1.1//EN" "http://www.w3.org/Graphics/SVG/1.1/DTD/svg11.dtd">
<svg version="1.1" id="Layer_1" xmlns="http://www.w3.org/2000/svg" xmlns:xlink="http://www.w3.org/1999/xlink" x="0px" y="0px"
	 width="283.46px" height="283.46px" viewBox="0 0 283.46 283.46" enable-background="new 0 0 283.46 283.46" xml:space="preserve">
<path fill="#E1F3FD" d="M141.73,40.375c-77.976,0-141.188,63.211-141.188,141.186c0,40.051,16.679,76.203,43.465,101.898h16.965
	c2.745-0.039,5.489-0.031,8.234,0h18.29c0.499-0.025,1-0.039,1.503-0.039s1.004,0.014,1.503,0.039h5.994
	c0.499-0.025,1-0.039,1.503-0.039s1.004,0.014,1.503,0.039h22.704c2.928-0.401,5.872-0.4,8.747,0h35.472
	c7.023-0.251,14.046-0.515,21.074-0.539c1.938-0.007,3.835,0.184,5.681,0.539h18.175c0.381-0.018,0.761-0.036,1.145-0.039
	c9.453-0.085,18.852-1.37,28.319-1.307c25.98-25.604,42.098-61.192,42.098-100.553C282.917,103.587,219.705,40.375,141.73,40.375z"
	/>
<g>
	<linearGradient id="SVGID_1_" gradientUnits="userSpaceOnUse" x1="117.2139" y1="136.7344" x2="168.5166" y2="136.7344">
		<stop  offset="0" style="stop-color:#1F77D1"/>
		<stop  offset="1" style="stop-color:#0686C9"/>
	</linearGradient>
	<path fill="url(#SVGID_1_)" d="M168.517,131.207c-26.419-5.115-26.316-5.219-51.303-0.609c0,0,0.271,14.438,25.274,15.564
		C167.493,147.289,168.517,131.207,168.517,131.207z"/>
	<linearGradient id="SVGID_2_" gradientUnits="userSpaceOnUse" x1="141.7939" y1="139.4189" x2="146.2534" y2="121.6301">
		<stop  offset="0" style="stop-color:#D5CDF8"/>
		<stop  offset="1" style="stop-color:#F3EDFB"/>
	</linearGradient>
	<path fill="url(#SVGID_2_)" d="M118.703,124.426c0,0,19.396-10.934,47.163,0l5.858,10.246h-57.479L118.703,124.426z"/>
	<linearGradient id="SVGID_3_" gradientUnits="userSpaceOnUse" x1="141.7939" y1="139.4189" x2="146.2534" y2="121.6301">
		<stop  offset="0" style="stop-color:#B1D4F7"/>
		<stop  offset="1" style="stop-color:#637EC9"/>
	</linearGradient>
	<path opacity="0.5" fill="url(#SVGID_3_)" d="M118.703,124.426c0,0,19.396-10.934,47.163,0l5.858,10.246h-57.479L118.703,124.426z"
		/>
	<linearGradient id="SVGID_4_" gradientUnits="userSpaceOnUse" x1="117.2139" y1="136.7344" x2="168.5166" y2="136.7344">
		<stop  offset="0" style="stop-color:#CCEDFF"/>
		<stop  offset="1" style="stop-color:#9D68C2"/>
	</linearGradient>
	<path opacity="0.5" fill="url(#SVGID_4_)" d="M168.517,131.207c-26.419-5.115-26.316-5.219-51.303-0.609
		c0,0,0.271,14.438,25.274,15.564C167.493,147.289,168.517,131.207,168.517,131.207z"/>
	
		<linearGradient id="SVGID_5_" gradientUnits="userSpaceOnUse" x1="1709.4805" y1="155.0801" x2="1711.1996" y2="109.0943" gradientTransform="matrix(-1 0 0 1 1860 0)">
		<stop  offset="0.016" style="stop-color:#FFC2A9"/>
		<stop  offset="1" style="stop-color:#FF9595"/>
	</linearGradient>
	<path fill="url(#SVGID_5_)" d="M100.841,143.594c1.304,3.207,2.731,6.359,4.155,9.545c3.322,7.434,6.532,14.971,11.954,20.619
		c11.749,12.242,29.196,18.422,44.521,14.463c17.741-4.582,29.416-18.879,38.192-36.033c-19.248-9.988-45.788-24.09-45.782-25.896
		c0.01-2.834,1.747-23.488,1.747-23.488h-27.131c0,0,1.738,20.654,1.748,23.488C130.248,127.615,116.018,135.529,100.841,143.594z"
		/>
	
		<linearGradient id="SVGID_6_" gradientUnits="userSpaceOnUse" x1="1715.0801" y1="130.7988" x2="1718.0344" y2="103.6185" gradientTransform="matrix(-1 0 0 1 1860 0)">
		<stop  offset="0" style="stop-color:#FF817F"/>
		<stop  offset="1" style="stop-color:#CF6074"/>
	</linearGradient>
	<path fill="url(#SVGID_6_)" d="M154.325,119.103c-8.231,2.04-17.039,0.922-24.76-3.064c-0.491-6.361-1.069-13.235-1.069-13.235
		h27.131C155.627,102.803,154.843,112.125,154.325,119.103z"/>
	
		<linearGradient id="SVGID_7_" gradientUnits="userSpaceOnUse" x1="1691.4834" y1="145.7715" x2="1742.7861" y2="145.7715" gradientTransform="matrix(-1 0 0 1 1860 0)">
		<stop  offset="0.016" style="stop-color:#FFA58B"/>
		<stop  offset="1" style="stop-color:#FF9595"/>
	</linearGradient>
	<path fill="url(#SVGID_7_)" d="M168.517,131.207c0,0-20.379,26.775-26.241,27.037c-4.668,0.211-25.062-27.646-25.062-27.646
		s7.621,30.396,25.062,30.348C158.78,160.9,168.517,131.207,168.517,131.207z"/>
	<path fill="#25ACE0" d="M168.517,131.207c0,0-21.763,28.725-26.241,28.48c-4.759-0.258-25.062-29.09-25.062-29.09
		s7.621,32.027,25.062,31.977C158.78,162.523,168.517,131.207,168.517,131.207z"/>
	<g>
		
			<linearGradient id="SVGID_8_" gradientUnits="userSpaceOnUse" x1="1619.0176" y1="265.2021" x2="1619.0793" y2="264.8978" gradientTransform="matrix(-1 0 0 1 1860 0)">
			<stop  offset="0" style="stop-color:#9D68C2"/>
			<stop  offset="1" style="stop-color:#CCEDFF"/>
		</linearGradient>
		<polygon opacity="0.3" fill="url(#SVGID_8_)" points="241.12,265.209 240.772,264.84 240.772,264.84 241.12,265.209 		"/>
		<linearGradient id="SVGID_9_" gradientUnits="userSpaceOnUse" x1="141.4429" y1="374.4092" x2="140.6703" y2="220.6553">
			<stop  offset="0" style="stop-color:#1F77D1"/>
			<stop  offset="1" style="stop-color:#0686C9"/>
		</linearGradient>
		<path fill="url(#SVGID_9_)" d="M203.29,170.473l8-13.691l-42.773-25.574c0,0-20.017,30.637-26.242,30.484
			c-7.414-0.18-25.061-31.094-25.061-31.094l-0.034,0.166c0.021-0.102,0.034-0.166,0.034-0.166s-24.757,13.027-33.852,18.826
			c-3.777,2.408-10.085,7.357-10.085,7.357l8,13.691L69.724,283.468c4.775,0.06,9.55,0.205,14.325,0.374
			c1.615-0.272,3.268-0.421,4.951-0.421c1.508,0,2.989,0.129,4.443,0.351c1.489-0.229,3.011-0.351,4.557-0.351
			c1.763,0,3.491,0.164,5.179,0.462c2.564-0.022,5.125,0.041,7.686,0.124c0.707-0.051,1.418-0.086,2.136-0.086
			c0.112,0,0.223,0.007,0.334,0.009c0.056-0.001,0.11-0.008,0.166-0.009c1.358-0.013,2.694-0.026,4.023-0.04
			c0.833-0.045,1.665-0.063,2.496-0.051c4.611-0.957,9.317-0.88,13.78,0.169c4.514-0.249,9.027-0.435,13.57-0.262
			c1.144,0.043,2.287,0.1,3.431,0.154c12.238-0.167,24.461-0.928,36.701-0.971c2.051-0.007,4.059,0.2,6.005,0.598
			c1.13-0.017,2.26-0.031,3.39-0.026c3.51,0.016,7.008,0.176,10.502,0.41c1.584-0.282,3.204-0.445,4.853-0.473L203.29,170.473z"/>
		<linearGradient id="SVGID_10_" gradientUnits="userSpaceOnUse" x1="90.9365" y1="342.834" x2="134.329" y2="169.7414">
			<stop  offset="0" style="stop-color:#CCEDFF"/>
			<stop  offset="1" style="stop-color:#9D68C2"/>
		</linearGradient>
		<path opacity="0.5" fill="url(#SVGID_10_)" d="M113,283.921c0.112,0,0.223,0.007,0.334,0.009c0.056-0.001,0.11-0.008,0.166-0.009
			c1.358-0.013,2.694-0.026,4.022-0.04c0.833-0.045,1.665-0.063,2.496-0.051c4.616-0.958,9.327-0.88,13.793,0.172
			c0.524-0.028,1.049-0.059,1.574-0.085l2.152-9.45c0,0-25.837-84.084-22.428-136.41c0,0-7.806,3.689-7.78,39.422
			c0.013,17.432,2.021,63.677,4.074,106.486C111.933,283.937,112.465,283.921,113,283.921z"/>
		
			<linearGradient id="SVGID_11_" gradientUnits="userSpaceOnUse" x1="1649.9229" y1="342.835" x2="1693.3154" y2="169.742" gradientTransform="matrix(-1 0 0 1 1843.5566 0)">
			<stop  offset="0" style="stop-color:#CCEDFF"/>
			<stop  offset="1" style="stop-color:#9D68C2"/>
		</linearGradient>
		<path opacity="0.5" fill="url(#SVGID_11_)" d="M149.158,283.814c0.528,0.023,1.058,0.053,1.586,0.078
			c7.488-0.101,14.971-0.421,22.455-0.67c2.042-42.601,4.025-88.414,4.039-105.744c0.025-35.732-7.78-39.422-7.78-39.422
			c3.408,52.326-22.429,136.41-22.429,136.41L149.158,283.814z"/>
	</g>
	<g>
		<path fill="#131163" d="M113.58,64.777c0.617,0.143,1.142,0.63,1.33,1.234C114.309,65.847,113.927,65.293,113.58,64.777z
			 M114.991,67.106c-0.25-0.582-0.793-1.029-1.413-1.163C113.865,66.587,114.3,66.96,114.991,67.106z"/>
		<path fill="#131163" d="M169.658,66.011c0.188-0.604,0.712-1.092,1.329-1.234C170.641,65.293,170.259,65.847,169.658,66.011z
			 M170.989,65.943c-0.619,0.134-1.162,0.581-1.413,1.163C170.268,66.96,170.703,66.587,170.989,65.943z"/>
		<g>
			
				<linearGradient id="SVGID_12_" gradientUnits="userSpaceOnUse" x1="423.1543" y1="76.7495" x2="434.8905" y2="65.469" gradientTransform="matrix(1 0 0 1 -328.793 0)">
				<stop  offset="0.016" style="stop-color:#FFAC8B"/>
				<stop  offset="1" style="stop-color:#FF9595"/>
			</linearGradient>
			<path fill="url(#SVGID_12_)" d="M108.156,62.537c0,0-5.558-9.9-13.639-4.27S95.39,84.54,104.2,84.174
				c4.372-0.182,5.963-6.724,5.963-6.724L108.156,62.537z"/>
			
				<linearGradient id="SVGID_13_" gradientUnits="userSpaceOnUse" x1="423.9551" y1="72.4937" x2="434.376" y2="72.4937" gradientTransform="matrix(1 0 0 1 -328.793 0)">
				<stop  offset="0" style="stop-color:#FF817F"/>
				<stop  offset="1" style="stop-color:#CF6074"/>
			</linearGradient>
			<path fill="url(#SVGID_13_)" d="M95.162,64.229c5.349,1.813,9.666,6.858,10.378,12.515c0.122,0.967-0.001,1.998-0.536,2.812
				c-0.534,0.813-1.534,1.354-2.485,1.165c-1.342-0.268-2.054-1.746-2.376-3.083c-0.553-2.298-0.562-4.726-0.023-7.025
				C99.011,68.626,96.966,65.604,95.162,64.229z"/>
			
				<linearGradient id="SVGID_14_" gradientUnits="userSpaceOnUse" x1="433.623" y1="65.4199" x2="427.4865" y2="59.8515" gradientTransform="matrix(1 0 0 1 -328.793 0)">
				<stop  offset="0" style="stop-color:#FFA795"/>
				<stop  offset="0.984" style="stop-color:#FFC2A9"/>
			</linearGradient>
			<path fill="url(#SVGID_14_)" d="M108.157,62.537c0,0-5.559-9.9-13.64-4.27c-0.964,0.673-1.68,1.563-2.188,2.603
				c1.724-0.657,3.608-0.966,5.431-0.899c3.649,0.133,7.108,1.436,10.452,2.979L108.157,62.537z"/>
		</g>
		<g>
			
				<linearGradient id="SVGID_15_" gradientUnits="userSpaceOnUse" x1="1669.793" y1="76.749" x2="1681.5287" y2="65.4691" gradientTransform="matrix(-1 0 0 1 1860 0)">
				<stop  offset="0.016" style="stop-color:#FFAC8B"/>
				<stop  offset="1" style="stop-color:#FF9595"/>
			</linearGradient>
			<path fill="url(#SVGID_15_)" d="M176.411,62.537c0,0,5.559-9.9,13.639-4.27c8.081,5.631-0.872,26.272-9.683,25.907
				c-4.372-0.182-5.963-6.724-5.963-6.724L176.411,62.537z"/>
			
				<linearGradient id="SVGID_16_" gradientUnits="userSpaceOnUse" x1="1670.5938" y1="72.4937" x2="1681.0156" y2="72.4937" gradientTransform="matrix(-1 0 0 1 1860 0)">
				<stop  offset="0" style="stop-color:#FF817F"/>
				<stop  offset="1" style="stop-color:#CF6074"/>
			</linearGradient>
			<path fill="url(#SVGID_16_)" d="M189.406,64.229c-5.349,1.813-9.666,6.858-10.379,12.515c-0.121,0.967,0.001,1.998,0.536,2.812
				c0.534,0.813,1.534,1.354,2.485,1.165c1.342-0.268,2.054-1.746,2.376-3.083c0.553-2.298,0.562-4.726,0.022-7.025
				C185.557,68.626,187.602,65.604,189.406,64.229z"/>
			
				<linearGradient id="SVGID_17_" gradientUnits="userSpaceOnUse" x1="1680.2637" y1="65.4204" x2="1674.1266" y2="59.8516" gradientTransform="matrix(-1 0 0 1 1860 0)">
				<stop  offset="0" style="stop-color:#FFA795"/>
				<stop  offset="0.984" style="stop-color:#FFC2A9"/>
			</linearGradient>
			<path fill="url(#SVGID_17_)" d="M176.411,62.537c0,0,5.559-9.9,13.64-4.27c0.964,0.673,1.68,1.563,2.188,2.603
				c-1.724-0.657-3.608-0.966-5.431-0.899c-3.648,0.133-7.107,1.436-10.452,2.979L176.411,62.537z"/>
		</g>
		
			<linearGradient id="SVGID_18_" gradientUnits="userSpaceOnUse" x1="453.0762" y1="115.9912" x2="453.0762" y2="23.0968" gradientTransform="matrix(1 0 0 1 -310.793 0)">
			<stop  offset="0.016" style="stop-color:#FFC2A9"/>
			<stop  offset="1" style="stop-color:#FF9595"/>
		</linearGradient>
		<path fill="url(#SVGID_18_)" d="M142.293,8.13c31.821,0,40.044,34.755,40.044,34.755s-4.46,44.817-8.832,52.958
			c-1.306,2.432-12.587,20.903-31.212,20.903h-0.018c-18.626,0-29.907-18.472-31.213-20.903c-4.372-8.141-8.832-52.958-8.832-52.958
			S110.453,8.13,142.275,8.13H142.293z"/>
		<linearGradient id="SVGID_19_" gradientUnits="userSpaceOnUse" x1="120.0527" y1="138.605" x2="136.4824" y2="78.754">
			<stop  offset="0" style="stop-color:#FF817F"/>
			<stop  offset="1" style="stop-color:#CF6074"/>
		</linearGradient>
		<path fill="url(#SVGID_19_)" d="M109.579,77.964l-4.47-20.177c0,0,17.013-12.044,36.598-12.044
			c19.584,0,37.735,11.572,37.735,11.572l-5.434,25.969l6.935-27.85c0,0-17.695-11.154-39.541-12.521
			c-21.846-1.368-37.63,13.755-37.63,13.755L109.579,77.964z"/>
		<g>
			
				<linearGradient id="SVGID_20_" gradientUnits="userSpaceOnUse" x1="-1151.8311" y1="175.4121" x2="-1149.3098" y2="147.2193" gradientTransform="matrix(0.9971 0.0762 -0.0762 0.9971 1283.3999 -8.665)">
				<stop  offset="0.016" style="stop-color:#FFA58B"/>
				<stop  offset="1" style="stop-color:#FF9595"/>
			</linearGradient>
			<path fill="url(#SVGID_20_)" d="M118.008,56.549c-3.292,1.126-5.165,3.243-5.165,3.243c-0.271,0.908-0.887,3.281-1.2,4.885
				c-1.481,7.588-0.149,12.047-0.149,12.047s17.153,2.248,22.487-4.256c0,0,3.943-6.457,1.367-22.432L118.008,56.549z"/>
			<linearGradient id="SVGID_21_" gradientUnits="userSpaceOnUse" x1="122.5112" y1="78.6899" x2="122.9013" y2="74.3278">
				<stop  offset="0.016" style="stop-color:#FFA58B"/>
				<stop  offset="1" style="stop-color:#FF9595"/>
			</linearGradient>
			<path fill="url(#SVGID_21_)" d="M113.9,70.835c0,0,3.378,4.674,9.683,5.08s8.838-3.905,8.838-3.905L113.9,70.835z"/>
			<path fill="#131163" d="M131.948,55.848c2.762,0.456,4.411-3.474,3.401-5.812c-9.293-1.112-16.547,1.443-21.323,7.088
				c-0.454,0.875-0.728,1.793-1.182,2.668C118.528,57.058,124.245,54.578,131.948,55.848z"/>
			
				<linearGradient id="SVGID_22_" gradientUnits="userSpaceOnUse" x1="-1160.5991" y1="162.5508" x2="-1140.9712" y2="162.5508" gradientTransform="matrix(0.9971 0.0762 -0.0762 0.9971 1283.3999 -8.665)">
				<stop  offset="0" style="stop-color:#CF6074"/>
				<stop  offset="1" style="stop-color:#FF817F"/>
			</linearGradient>
			<path fill="url(#SVGID_22_)" d="M113.381,70.199c0,0,3.582-8.322,10.83-9.305c7.248-0.983,9.203,2.735,9.2,4.778
				C133.408,67.716,113.381,70.199,113.381,70.199z"/>
			<path fill="#FFEBED" d="M113.381,70.199c0,0,4.521,4.617,11.786,4.727c7.16,0.107,7.913-4.03,8.049-5.293
				c0.136-1.264-1.014-5.348-4.186-5.875C125.858,63.229,119.913,60.845,113.381,70.199z"/>
			<g>
				<g>
					
						<linearGradient id="SVGID_23_" gradientUnits="userSpaceOnUse" x1="797.2148" y1="74.8628" x2="798.3245" y2="61.0539" gradientTransform="matrix(-1 0 0 1 923.2148 0)">
						<stop  offset="0" style="stop-color:#1852A0"/>
						<stop  offset="1" style="stop-color:#067ED3"/>
					</linearGradient>
					<circle fill="url(#SVGID_23_)" cx="125.506" cy="68.709" r="5.835"/>
					
						<linearGradient id="SVGID_24_" gradientUnits="userSpaceOnUse" x1="124.2012" y1="68.7095" x2="132.2661" y2="68.7095" gradientTransform="matrix(-1 0 0 1 253.7393 0)">
						<stop  offset="0" style="stop-color:#0E1B6D"/>
						<stop  offset="1" style="stop-color:#002538"/>
					</linearGradient>
					<circle fill="url(#SVGID_24_)" cx="125.506" cy="68.709" r="4.032"/>
				</g>
				<path fill="#FFFFFF" d="M121.02,73.906c-0.592-0.658,1.639-3.423,2.651-2.748C124.683,71.833,121.887,74.869,121.02,73.906z
					 M128.104,65.535c-0.693,0-1.255,0.562-1.255,1.254c0,0.693,0.562,1.256,1.255,1.256s1.255-0.563,1.255-1.256
					C129.359,66.096,128.797,65.535,128.104,65.535z"/>
			</g>
			
				<linearGradient id="SVGID_25_" gradientUnits="userSpaceOnUse" x1="-1152.3955" y1="179.6943" x2="-1149.5128" y2="157.2596" gradientTransform="matrix(0.9971 0.0762 -0.0762 0.9971 1283.3999 -8.665)">
				<stop  offset="0" style="stop-color:#0E1B6D"/>
				<stop  offset="1" style="stop-color:#002538"/>
			</linearGradient>
			<path fill="url(#SVGID_25_)" d="M133.411,65.672c-2.865-4.126-8.151-5.655-13.648-3.108c-1.978,0.916-4.342,3.199-6.382,7.635
				c4.642-6.317,10.413-7.461,15.489-5.723c1.624,0.557,3.896,1.94,4.346,5.156C133.216,69.632,133.621,66.404,133.411,65.672z"/>
		</g>
		<g>
			
				<linearGradient id="SVGID_26_" gradientUnits="userSpaceOnUse" x1="402.6162" y1="56.6182" x2="405.1375" y2="28.4258" gradientTransform="matrix(-0.9971 0.0762 0.0762 0.9971 560.1577 -8.665)">
				<stop  offset="0.016" style="stop-color:#FFA58B"/>
				<stop  offset="1" style="stop-color:#FF9595"/>
			</linearGradient>
			<path fill="url(#SVGID_26_)" d="M166.56,56.549c3.292,1.126,5.164,3.243,5.164,3.243c0.271,0.908,0.887,3.281,1.2,4.885
				c1.48,7.588,0.148,12.047,0.148,12.047s-17.152,2.248-22.486-4.256c0,0-3.943-6.457-1.367-22.432L166.56,56.549z"/>
			
				<linearGradient id="SVGID_27_" gradientUnits="userSpaceOnUse" x1="1681.499" y1="78.6909" x2="1681.8892" y2="74.3283" gradientTransform="matrix(-1 0 0 1 1843.5566 0)">
				<stop  offset="0.016" style="stop-color:#FFA58B"/>
				<stop  offset="1" style="stop-color:#FF9595"/>
			</linearGradient>
			<path fill="url(#SVGID_27_)" d="M170.667,70.835c0,0-3.378,4.674-9.683,5.08s-8.839-3.905-8.839-3.905L170.667,70.835z"/>
			<path fill="#131163" d="M152.62,55.848c-2.763,0.456-4.411-3.474-3.401-5.812c9.293-1.112,16.548,1.443,21.323,7.088
				c0.454,0.875,0.728,1.793,1.182,2.668C166.039,57.058,160.323,54.578,152.62,55.848z"/>
			
				<linearGradient id="SVGID_28_" gradientUnits="userSpaceOnUse" x1="393.8477" y1="43.7568" x2="413.4756" y2="43.7568" gradientTransform="matrix(-0.9971 0.0762 0.0762 0.9971 560.1577 -8.665)">
				<stop  offset="0" style="stop-color:#CF6074"/>
				<stop  offset="1" style="stop-color:#FF817F"/>
			</linearGradient>
			<path fill="url(#SVGID_28_)" d="M171.187,70.199c0,0-3.582-8.322-10.83-9.305c-7.247-0.983-9.202,2.735-9.2,4.778
				C151.159,67.716,171.187,70.199,171.187,70.199z"/>
			<path fill="#FFEBED" d="M171.187,70.199c0,0-4.521,4.617-11.785,4.727c-7.16,0.107-7.913-4.03-8.05-5.293
				c-0.137-1.264,1.015-5.348,4.187-5.875C158.71,63.229,164.654,60.845,171.187,70.199z"/>
			<g>
				<g>
					
						<linearGradient id="SVGID_29_" gradientUnits="userSpaceOnUse" x1="2353.4766" y1="74.8638" x2="2354.5864" y2="61.0538" gradientTransform="matrix(-1 0 0 1 2513.0332 0)">
						<stop  offset="0" style="stop-color:#1852A0"/>
						<stop  offset="1" style="stop-color:#067ED3"/>
					</linearGradient>
					<circle fill="url(#SVGID_29_)" cx="159.062" cy="68.709" r="5.835"/>
					
						<linearGradient id="SVGID_30_" gradientUnits="userSpaceOnUse" x1="1680.4619" y1="68.7095" x2="1688.5273" y2="68.7095" gradientTransform="matrix(-1 0 0 1 1843.5566 0)">
						<stop  offset="0" style="stop-color:#0E1B6D"/>
						<stop  offset="1" style="stop-color:#002538"/>
					</linearGradient>
					<circle fill="url(#SVGID_30_)" cx="159.062" cy="68.709" r="4.033"/>
				</g>
				<path fill="#FFFFFF" d="M154.575,73.906c-0.592-0.658,1.64-3.423,2.651-2.748C158.239,71.833,155.443,74.869,154.575,73.906z
					 M161.66,65.535c-0.693,0-1.255,0.562-1.255,1.254c0,0.693,0.562,1.256,1.255,1.256s1.255-0.563,1.255-1.256
					C162.915,66.096,162.354,65.535,161.66,65.535z"/>
			</g>
			
				<linearGradient id="SVGID_31_" gradientUnits="userSpaceOnUse" x1="402.0498" y1="60.9023" x2="404.9327" y2="38.4656" gradientTransform="matrix(-0.9971 0.0762 0.0762 0.9971 560.1577 -8.665)">
				<stop  offset="0" style="stop-color:#0E1B6D"/>
				<stop  offset="1" style="stop-color:#002538"/>
			</linearGradient>
			<path fill="url(#SVGID_31_)" d="M151.156,65.672c2.865-4.126,8.151-5.655,13.648-3.108c1.979,0.916,4.343,3.199,6.382,7.635
				c-4.642-6.317-10.412-7.461-15.489-5.723c-1.624,0.557-3.896,1.94-4.346,5.156C151.352,69.632,150.947,66.404,151.156,65.672z"/>
		</g>
		<g>
			<path fill="#FFB398" d="M140.736,70.658c1.905-5.429,7.542,9.534,7.542,9.534s-2.512,3.987-5.994,3.987s-6.041-4.262-6.041-4.262
				S137.792,79.049,140.736,70.658z"/>
			
				<linearGradient id="SVGID_32_" gradientUnits="userSpaceOnUse" x1="1711.7188" y1="82.0483" x2="1723.7607" y2="82.0483" gradientTransform="matrix(-1 0 0 1 1860 0)">
				<stop  offset="0" style="stop-color:#E1616A"/>
				<stop  offset="1" style="stop-color:#FF8883"/>
			</linearGradient>
			<path fill="url(#SVGID_32_)" d="M136.239,79.919c0,0,1.73,2.873,4.283,3.898c0.013,0,0.013,0.013,0.025,0.013
				c0.539,0.218,1.116,0.347,1.731,0.347c3.488,0,6.002-3.988,6.002-3.988c-4.386,2.18-8.721,1.076-10.785,0.281
				C136.7,80.175,136.239,79.919,136.239,79.919z"/>
			<path fill="#CB4D7A" d="M136.239,79.919c0,0,1.73,2.873,4.283,3.898c-2.424-1.642-3.026-3.348-3.026-3.348
				s2.869-4.412,3.906-14.459C139.726,75.576,136.329,79.278,136.239,79.919z"/>
			<path fill="#9F4A8B" d="M145.582,82.391c0.382-0.219,0.805-0.343,1.237-0.435c-0.64,0.635-1.463,1.295-2.422,1.73
				C144.653,83.149,145.065,82.687,145.582,82.391z"/>
		</g>
		
			<linearGradient id="SVGID_33_" gradientUnits="userSpaceOnUse" x1="1694.5879" y1="77.0234" x2="1694.4681" y2="86.7195" gradientTransform="matrix(-1 0 0 1 1860 0)">
			<stop  offset="0.016" style="stop-color:#FFA58B"/>
			<stop  offset="1" style="stop-color:#FF9595"/>
		</linearGradient>
		<ellipse fill="url(#SVGID_33_)" cx="165.478" cy="82.316" rx="5.746" ry="4.031"/>
		
			<linearGradient id="SVGID_34_" gradientUnits="userSpaceOnUse" x1="1740.9697" y1="77.5967" x2="1740.8501" y2="87.2915" gradientTransform="matrix(-1 0 0 1 1860 0)">
			<stop  offset="0.016" style="stop-color:#FFA58B"/>
			<stop  offset="1" style="stop-color:#FF9595"/>
		</linearGradient>
		<ellipse fill="url(#SVGID_34_)" cx="119.089" cy="82.316" rx="5.745" ry="4.031"/>
		<g>
			<linearGradient id="SVGID_35_" gradientUnits="userSpaceOnUse" x1="142.0781" y1="118.0396" x2="142.0781" y2="79.9113">
				<stop  offset="0" style="stop-color:#D5CDF8"/>
				<stop  offset="1" style="stop-color:#F3EDFB"/>
			</linearGradient>
			<path fill="url(#SVGID_35_)" d="M107.535,85.837c0.96,4.721,1.969,8.504,2.974,10.375c1.329,2.475,12.812,21.275,31.77,21.275
				h0.019c18.958,0,30.441-18.801,31.77-21.275c0.859-1.602,1.722-4.604,2.555-8.391c-0.038-0.018-27.603-12.587-33.745-12.568
				C136.733,75.271,107.576,85.822,107.535,85.837z"/>
			<polygon fill="#FFFFFF" points="103.624,57.788 110.163,85.249 111.393,84.826 103.624,55.435 			"/>
			<polygon fill="#FFFFFF" points="180.943,57.788 174.079,86.914 172.849,86.492 180.943,55.435 			"/>
			<path fill="#FFFFFF" d="M142.876,77.1c5.725-0.017,30.049,10.896,33.361,12.394c0.128-0.54,0.256-1.094,0.384-1.672
				c-0.037-0.018-27.603-12.587-33.745-12.568c-6.143,0.018-35.3,10.568-35.341,10.583c0.12,0.588,0.24,1.161,0.361,1.718
				C111.241,86.352,137.129,77.117,142.876,77.1z"/>
			<linearGradient id="SVGID_36_" gradientUnits="userSpaceOnUse" x1="138.1641" y1="111.1211" x2="142.4577" y2="89.9595">
				<stop  offset="0" style="stop-color:#9D68C2"/>
				<stop  offset="1" style="stop-color:#CCEDFF"/>
			</linearGradient>
			<path opacity="0.3" fill="url(#SVGID_36_)" d="M174.066,96.212c0.129-0.24,0.259-0.522,0.388-0.824
				c-2.205,0.808-4.513,1.367-6.833,1.692c-5.393,0.755-10.87,0.415-16.304,0.075c-8.104-0.508-16.208-1.016-24.312-1.523
				c10.943-3.967,23.103-5.725,34.582-3.793c-15.674-5.416-33.921-3.288-48.528,4.562c-1.614-1.237-2.998-2.766-4.099-4.476
				c0.513,1.846,1.031,3.322,1.548,4.287c1.329,2.475,12.812,21.275,31.77,21.275h0.019
				C161.255,117.488,172.738,98.687,174.066,96.212z"/>
			<linearGradient id="SVGID_37_" gradientUnits="userSpaceOnUse" x1="139.2183" y1="52.4849" x2="148.0184" y2="9.1124">
				<stop  offset="0" style="stop-color:#1852A0"/>
				<stop  offset="1" style="stop-color:#067ED3"/>
			</linearGradient>
			<path fill="url(#SVGID_37_)" d="M103.624,57.788c0,0,16.132-12.938,39.241-12.938s38.078,12.938,38.078,12.938
				s5.939-15.298,5.196-25.003c-0.743-9.703-16.21-28.663-43.274-28.663s-40.634,17.401-43.942,29.704
				C96.849,41.542,103.624,57.788,103.624,57.788z"/>
			<linearGradient id="SVGID_38_" gradientUnits="userSpaceOnUse" x1="144.1777" y1="20.2837" x2="138.282" y2="72.5032">
				<stop  offset="0" style="stop-color:#CCEDFF"/>
				<stop  offset="1" style="stop-color:#9D68C2"/>
			</linearGradient>
			<path opacity="0.5" fill="url(#SVGID_38_)" d="M180.943,57.788c0,0,5.939-15.298,5.196-25.003
				c-0.079-1.029-0.333-2.168-0.74-3.372c-1.64,2.748-4.597,4.755-7.821,4.63c-3.217-0.125-6.075-1.951-9.045-3.195
				c-8.939-3.744-19.167-2.232-28.55,0.198c-9.382,2.431-18.757,5.748-28.445,5.44c-2.829-0.09-5.933-0.643-7.72-2.838
				c-2.635-3.237-1.024-8.107,1.205-11.637c0.574-0.909,1.19-1.791,1.833-2.652c-4.125,4.77-6.721,9.959-7.933,14.467
				c-2.074,7.717,4.701,23.962,4.701,23.962s16.132-12.938,39.241-12.938S180.943,57.788,180.943,57.788z"/>
			<linearGradient id="SVGID_39_" gradientUnits="userSpaceOnUse" x1="149.6855" y1="32.6406" x2="154.2478" y2="16.0211">
				<stop  offset="0" style="stop-color:#1F77D1"/>
				<stop  offset="1" style="stop-color:#0686C9"/>
			</linearGradient>
			<path fill="url(#SVGID_39_)" d="M182.27,23.846c-0.012-0.216-0.05-0.429-0.066-0.644c-6.257-9.161-19.761-19.081-39.338-19.081
				c-5.51,0-10.451,0.73-14.87,1.983c-0.514,0.363-1.018,0.739-1.507,1.136c11.324,0.046,22.637,1.919,33.372,5.524
				c-5.793,0.619-11.586,1.238-17.379,1.857C156.266,13.639,170.323,16.898,182.27,23.846z"/>
			<linearGradient id="SVGID_40_" gradientUnits="userSpaceOnUse" x1="111.3633" y1="43.3848" x2="117.3239" y2="21.6711">
				<stop  offset="0" style="stop-color:#1F77D1"/>
				<stop  offset="1" style="stop-color:#0686C9"/>
			</linearGradient>
			<path fill="url(#SVGID_40_)" d="M129,10.767c-8.005,0.088-15.856,4.295-20.363,10.912C115.745,20.892,124.947,16.658,129,10.767z
				"/>
		</g>
	</g>
	<linearGradient id="SVGID_41_" gradientUnits="userSpaceOnUse" x1="193.6426" y1="204.1357" x2="191.1609" y2="364.2132">
		<stop  offset="0" style="stop-color:#CCEDFF"/>
		<stop  offset="1" style="stop-color:#9D68C2"/>
	</linearGradient>
	<path opacity="0.5" fill="url(#SVGID_41_)" d="M187.5,282.921c2.051-0.007,4.059,0.2,6.005,0.598c1.13-0.017,2.26-0.031,3.39-0.026
		c3.51,0.016,7.009,0.176,10.503,0.41c1.603-0.285,3.242-0.45,4.913-0.475l-7.788-99.074c-4.509,31.949-14.094,63.18-28.32,92.141
		c-1.116,2.271-2.337,4.558-3.683,6.752C177.512,283.078,182.504,282.938,187.5,282.921z"/>
	<linearGradient id="SVGID_42_" gradientUnits="userSpaceOnUse" x1="110.8608" y1="202.8496" x2="108.3791" y2="362.9271">
		<stop  offset="0" style="stop-color:#CCEDFF"/>
		<stop  offset="1" style="stop-color:#9D68C2"/>
	</linearGradient>
	<path opacity="0.5" fill="url(#SVGID_42_)" d="M89,283.421c1.508,0,2.99,0.129,4.444,0.351c1.119-0.173,2.257-0.276,3.409-0.32
		c-2.515-4.297-4.708-8.838-6.507-13.615c5.148,4.983,10.588,9.655,16.24,14.058c1.45,0.021,2.898,0.061,4.348,0.107
		c0.684-0.047,1.372-0.08,2.066-0.08c0.112,0,0.222,0.007,0.334,0.009c0.056-0.001,0.11-0.008,0.166-0.009
		c1.417-0.013,2.811-0.027,4.195-0.042c0.73-0.032,1.46-0.035,2.189-0.024c0.143-0.03,0.287-0.05,0.43-0.078
		c-5.45-3.649-10.57-7.795-15.224-12.415c-7.813-7.76-18.126-19.24-21.051-30.168c-2.317-8.662,3.433-4.975,7.99-2.111
		c6.034,3.793,12.271,7.262,18.673,10.391c6.402,3.131,12.97,5.922,19.667,8.355c5.659,2.059,14.564,2.805,19.5,5.986
		c-29.75-19.18-54.206-46.422-70.314-77.928l-9.9,97.58c4.799,0.06,9.598,0.205,14.397,0.374
		C85.667,283.569,87.318,283.421,89,283.421z"/>
	<g opacity="0.19">
		<path fill="#001200" d="M117.835,131.627c0.255,2.596,0.404,5.398,1.088,7.922c0.054,0.199,0.375,0.164,0.367-0.049
			c-0.098-2.613-0.789-5.336-1.319-7.893C117.955,131.533,117.828,131.549,117.835,131.627L117.835,131.627z"/>
	</g>
	<linearGradient id="SVGID_43_" gradientUnits="userSpaceOnUse" x1="85.3794" y1="361.5215" x2="111.6372" y2="140.0413">
		<stop  offset="0" style="stop-color:#D5CDF8"/>
		<stop  offset="1" style="stop-color:#F3EDFB"/>
	</linearGradient>
	<path fill="url(#SVGID_43_)" d="M84.056,283.84c1.613-0.271,3.264-0.419,4.944-0.419c1.508,0,2.99,0.129,4.444,0.351
		c1.489-0.229,3.011-0.351,4.556-0.351c1.763,0,3.491,0.164,5.179,0.462c2.564-0.022,5.125,0.041,7.686,0.124
		c0.707-0.051,1.418-0.086,2.136-0.086c0.112,0,0.223,0.007,0.334,0.009c0.056-0.001,0.11-0.008,0.166-0.009
		c1.358-0.013,2.694-0.026,4.023-0.04c0.833-0.045,1.665-0.063,2.496-0.051c4.611-0.957,9.318-0.88,13.781,0.169
		c0.789-3.516,1.6-7.118,2.444-10.845c0,0-19.208-46.375-23.067-66.365c-9.403-48.695,1.815-75.162,1.815-75.162
		S76.368,151.24,71.81,154.32c-4.559,3.078-1.924,5.703-1.924,5.703l5.263,65.313l-6.493,58.116
		C73.789,283.503,78.922,283.658,84.056,283.84z"/>
	<linearGradient id="SVGID_44_" gradientUnits="userSpaceOnUse" x1="75.3887" y1="357.416" x2="110.019" y2="219.2754">
		<stop  offset="0" style="stop-color:#9D68C2"/>
		<stop  offset="1" style="stop-color:#CCEDFF"/>
	</linearGradient>
	<path opacity="0.3" fill="url(#SVGID_44_)" d="M84.056,283.84c1.613-0.271,3.264-0.419,4.944-0.419c1.508,0,2.99,0.129,4.444,0.351
		c1.489-0.229,3.011-0.351,4.556-0.351c1.763,0,3.491,0.164,5.179,0.462c2.564-0.022,5.125,0.041,7.686,0.124
		c0.707-0.051,1.418-0.086,2.136-0.086c0.112,0,0.223,0.007,0.334,0.009c0.056-0.001,0.11-0.008,0.166-0.009
		c1.358-0.013,2.694-0.026,4.023-0.04c0.833-0.045,1.665-0.063,2.496-0.051c4.611-0.957,9.318-0.88,13.781,0.169
		c0.789-3.516,1.6-7.118,2.444-10.845c0,0-11.17-26.971-18.186-48.643l-19.831-29.635c1.613,18.811,7.844,37.205,17.992,53.123
		c-18.487-8.92-33.618-24.361-42.689-42.748l1.618,20.084l-6.493,58.116C73.789,283.503,78.922,283.658,84.056,283.84z"/>
	<linearGradient id="SVGID_45_" gradientUnits="userSpaceOnUse" x1="77.8574" y1="363.7158" x2="100.6517" y2="272.7892">
		<stop  offset="0" style="stop-color:#B1D4F7"/>
		<stop  offset="1" style="stop-color:#637EC9"/>
	</linearGradient>
	<path opacity="0.5" fill="url(#SVGID_45_)" d="M89,283.421c1.508,0,2.99,0.129,4.444,0.351c1.489-0.229,3.011-0.351,4.556-0.351
		c1.776,0,3.517,0.167,5.217,0.469c2.566-0.021,5.13,0.032,7.693,0.113c0.692-0.049,1.387-0.082,2.09-0.082
		c0.094,0,0.186,0.01,0.279,0.011c0.074-0.001,0.146-0.01,0.221-0.011c0.601-0.006,1.191-0.012,1.785-0.018
		c6.292-3.378,12.584-6.755,18.876-10.132L72.22,251.547l-3.564,31.905c5.133,0.051,10.266,0.206,15.4,0.388
		C85.669,283.568,87.319,283.421,89,283.421z"/>
	<linearGradient id="SVGID_46_" gradientUnits="userSpaceOnUse" x1="90.1079" y1="198.79" x2="136.2432" y2="198.79">
		<stop  offset="0" style="stop-color:#FFFFFF"/>
		<stop  offset="1" style="stop-color:#F3EDFB"/>
	</linearGradient>
	<path fill="url(#SVGID_46_)" d="M136.243,273.154c-8.758-23.484-14.522-48.463-18.372-73.42
		c-4.292-27.826-7.512-51.648,0.832-75.309c0,0-24.922,29.904-26.629,37.215c-1.707,7.309,12.603,15.688,12.603,15.688
		s-11.316,7.725-14.426,13.637C87.139,196.877,136.243,273.154,136.243,273.154z"/>
	
		<linearGradient id="SVGID_47_" gradientUnits="userSpaceOnUse" x1="1644.3691" y1="361.5215" x2="1670.627" y2="140.0409" gradientTransform="matrix(-1 0 0 1 1843.5566 0)">
		<stop  offset="0" style="stop-color:#D5CDF8"/>
		<stop  offset="1" style="stop-color:#F3EDFB"/>
	</linearGradient>
	<path fill="url(#SVGID_47_)" d="M148.324,273.154c0.834,3.684,1.639,7.252,2.419,10.73c0.041,0.002,0.081,0.004,0.122,0.006
		c12.216-0.169,24.416-0.927,36.635-0.97c2.051-0.007,4.059,0.2,6.005,0.598c1.13-0.017,2.26-0.031,3.39-0.026
		c3.509,0.016,7.008,0.177,10.502,0.411c1.664-0.297,3.367-0.467,5.104-0.482c1.134-0.01,2.267-0.041,3.399-0.081l-6.48-58.004
		l5.263-65.313c0,0,2.635-2.625-1.924-5.703c-4.559-3.08-43.182-22.693-43.182-22.693s11.219,26.467,1.815,75.162
		C167.531,226.779,148.324,273.154,148.324,273.154z"/>
	<linearGradient id="SVGID_48_" gradientUnits="userSpaceOnUse" x1="164.4609" y1="348.6563" x2="197.2392" y2="217.9037">
		<stop  offset="0" style="stop-color:#9D68C2"/>
		<stop  offset="1" style="stop-color:#CCEDFF"/>
	</linearGradient>
	<path opacity="0.3" fill="url(#SVGID_48_)" d="M149.435,278.07c0.19,0.84,0.38,1.68,0.566,2.51
		c0.099,0.439,0.196,0.873,0.294,1.309c0.15,0.669,0.3,1.334,0.448,1.996c0.041,0.002,0.081,0.004,0.122,0.006
		c12.216-0.169,24.416-0.927,36.635-0.97c2.051-0.007,4.059,0.2,6.005,0.598c1.13-0.017,2.26-0.031,3.39-0.026
		c3.509,0.016,7.008,0.177,10.502,0.411c1.664-0.297,3.367-0.467,5.104-0.482c1.134-0.01,2.267-0.041,3.399-0.081l-6.48-58.004
		l1.618-20.084c-9.071,18.387-24.202,33.828-42.688,42.748c10.148-15.918,16.379-34.313,17.992-53.123l-19.83,29.635
		c-0.219,0.674-0.441,1.354-0.667,2.037l-0.005,0.016c-2.041,6.176-4.372,12.689-6.653,18.828c-0.001,0.004-0.003,0.008-0.004,0.01
		c-1.52,4.086-3.015,8.004-4.389,11.543c-0.004,0.008-0.008,0.018-0.011,0.027c-0.457,1.176-0.899,2.309-1.325,3.393l-0.003,0.008
		c-1.065,2.713-2.022,5.115-2.813,7.084c-0.007,0.016-0.013,0.031-0.02,0.049c-0.617,1.535-1.132,2.805-1.517,3.748
		c-0.019,0.045-0.036,0.086-0.054,0.131c-0.069,0.17-0.135,0.33-0.195,0.479c-0.021,0.051-0.042,0.104-0.063,0.152
		c-0.058,0.141-0.109,0.268-0.157,0.383c-0.02,0.049-0.038,0.092-0.056,0.137c-0.04,0.096-0.075,0.182-0.105,0.256
		c-0.026,0.064-0.046,0.111-0.065,0.16c-0.014,0.031-0.026,0.063-0.036,0.088c-0.014,0.031-0.021,0.047-0.027,0.064
		c-0.013,0.031-0.021,0.051-0.021,0.051c0.284,1.254,0.564,2.494,0.842,3.723C149.257,277.277,149.346,277.672,149.435,278.07z"/>
	
		<linearGradient id="SVGID_49_" gradientUnits="userSpaceOnUse" x1="1649.0967" y1="198.79" x2="1695.2324" y2="198.79" gradientTransform="matrix(-1 0 0 1 1843.5566 0)">
		<stop  offset="0" style="stop-color:#FFFFFF"/>
		<stop  offset="1" style="stop-color:#F3EDFB"/>
	</linearGradient>
	<path fill="url(#SVGID_49_)" d="M148.324,273.154c8.758-23.484,14.522-48.463,18.372-73.42c4.293-27.826,7.512-51.648-0.831-75.309
		c0,0,24.922,29.904,26.629,37.215c1.707,7.309-12.603,15.688-12.603,15.688s11.316,7.725,14.427,13.637
		S148.324,273.154,148.324,273.154z"/>
	<g>
		<linearGradient id="SVGID_50_" gradientUnits="userSpaceOnUse" x1="157.3711" y1="304.3867" x2="165.5874" y2="271.6119">
			<stop  offset="0" style="stop-color:#B1D4F7"/>
			<stop  offset="1" style="stop-color:#637EC9"/>
		</linearGradient>
		<path opacity="0.5" fill="url(#SVGID_50_)" d="M152.985,281.203c3.505,0.782,7.009,1.571,10.512,2.36
			c8-0.277,15.997-0.614,24.003-0.643c2.051-0.007,4.059,0.2,6.005,0.598c1.13-0.017,2.26-0.031,3.39-0.026
			c3.509,0.016,7.008,0.177,10.502,0.411c1.664-0.297,3.367-0.467,5.104-0.482c1.134-0.01,2.267-0.041,3.399-0.081l-0.283-2.539
			c-14.152-5.799-29.114-9.623-44.32-11.271c-19.454-2.109-39.099-0.703-58.617,0.703l6.383,3.393
			C130.37,276.15,141.677,278.676,152.985,281.203z"/>
	</g>
	<g>
		<path fill="#131163" d="M173.535,133.889c10.876,8.121,13.265,39.699,12.954,49.541h3.719c0,0-0.208-15.875-4.892-34.006
			c-2.979-11.537-10.813-20.01-13.924-18.131L173.535,133.889z"/>
		<linearGradient id="SVGID_51_" gradientUnits="userSpaceOnUse" x1="188.3672" y1="175.0439" x2="189.463" y2="199.4244">
			<stop  offset="0" style="stop-color:#C8BDF6"/>
			<stop  offset="1" style="stop-color:#F3EDFB"/>
		</linearGradient>
		<path fill="url(#SVGID_51_)" d="M185.712,175.498c0.119,2.031,0.238,4.064,0.357,6.098c1.976,0.123,3.317,0.473,5.293,0.598
			c-0.337-2.424-0.655-4.799-0.985-7.205C188.817,175.113,187.262,175.277,185.712,175.498z"/>
		<linearGradient id="SVGID_52_" gradientUnits="userSpaceOnUse" x1="188.4854" y1="177.3799" x2="189.2291" y2="193.9272">
			<stop  offset="0" style="stop-color:#9D68C2"/>
			<stop  offset="1" style="stop-color:#CCEDFF"/>
		</linearGradient>
		<path opacity="0.3" fill="url(#SVGID_52_)" d="M187.037,178.215c-0.427-0.178-0.832-0.418-1.207-0.693
			c0.08,1.357,0.159,2.715,0.239,4.074c1.976,0.123,3.317,0.473,5.293,0.598c-0.135-0.973-0.266-1.934-0.397-2.896
			c-0.208-0.059-0.416-0.119-0.625-0.17C189.229,178.855,188.092,178.658,187.037,178.215z"/>
		<linearGradient id="SVGID_53_" gradientUnits="userSpaceOnUse" x1="173.8506" y1="194.3887" x2="201.2324" y2="194.3887">
			<stop  offset="0" style="stop-color:#9D68C2"/>
			<stop  offset="1" style="stop-color:#CCEDFF"/>
		</linearGradient>
		<circle opacity="0.3" fill="url(#SVGID_53_)" cx="187.542" cy="194.389" r="13.691"/>
		<circle fill="#FFFFFF" cx="188.1" cy="193.383" r="13.051"/>
		<linearGradient id="SVGID_54_" gradientUnits="userSpaceOnUse" x1="184.1924" y1="205.2451" x2="190.1068" y2="187.2908">
			<stop  offset="0" style="stop-color:#9D68C2"/>
			<stop  offset="1" style="stop-color:#FFFFFF"/>
		</linearGradient>
		<circle opacity="0.3" fill="url(#SVGID_54_)" cx="188.1" cy="193.383" r="11.709"/>
		<g>
			<path fill="#131163" d="M188.1,202.375c-4.957,0-8.99-4.033-8.99-8.992c0-4.957,4.033-8.99,8.99-8.99s8.99,4.033,8.99,8.99
				C197.09,198.342,193.057,202.375,188.1,202.375z M188.1,186.283c-3.916,0-7.102,3.184-7.102,7.1s3.186,7.102,7.102,7.102
				s7.101-3.186,7.101-7.102S192.016,186.283,188.1,186.283z"/>
		</g>
		<linearGradient id="SVGID_55_" gradientUnits="userSpaceOnUse" x1="186.5752" y1="198.791" x2="189.3517" y2="188.9342">
			<stop  offset="0" style="stop-color:#9D68C2"/>
			<stop  offset="1" style="stop-color:#CCEDFF"/>
		</linearGradient>
		<circle opacity="0.3" fill="url(#SVGID_55_)" cx="188.099" cy="193.383" r="2.82"/>
	</g>
	<g>
		<linearGradient id="SVGID_56_" gradientUnits="userSpaceOnUse" x1="85.2461" y1="181.6602" x2="117.022" y2="181.6602">
			<stop  offset="0" style="stop-color:#9D68C2"/>
			<stop  offset="1" style="stop-color:#CCEDFF"/>
		</linearGradient>
		<path opacity="0.3" fill="url(#SVGID_56_)" d="M116.993,221.604c-0.667-7.287-2.33-21.084-5.958-32.131l0.526-0.07
			c-2.086-6.375-4.82-11.877-8.396-14.768c-1.886-1.523-3.925-2.273-6.072-2.252c-0.092-7.598-0.655-16.521,3.44-25.975
			c4.764-10.996,10.827-12.934,10.827-12.934l1.358-1.699c-15.559,2.361-19.397,28.111-17.759,40.873
			c-2.129,0.529-3.943,1.807-5.4,3.813c-2.709,3.73-3.936,9.766-4.313,16.471l0.527-0.07c-0.664,11.623,1.274,25.383,2.5,32.594
			c0.625,3.668,4.033,6.191,7.652,5.705c0.063-0.008,0.125-0.018,0.187-0.027l0.292-0.047c1.592,0.811,4.699,0.715,4.388-1.666
			c-0.313-2.393-3.368-1.672-4.689-0.471l-0.329,0.053c-2.579,0.451-4.965-1.344-5.403-3.914
			c-0.976-5.736-3.178-20.477-2.447-32.516l0.55-0.074c0.64-8.949,2.689-12.785,3.658-14.119c1.161-1.598,2.549-2.486,4.245-2.713
			c1.695-0.229,3.264,0.264,4.795,1.5c2.815,2.275,5.186,6.869,7.131,12.674l0.579-0.078c3.799,11.43,5.458,26.242,5.989,32.041
			c0.238,2.596-1.634,4.959-4.21,5.201l-0.332,0.035c-1.583-0.811-4.719-0.701-4.406,1.691c0.311,2.383,3.335,1.654,4.665,0.453
			l0.294-0.031c0.063-0.008,0.125-0.016,0.188-0.023C114.69,228.645,117.333,225.309,116.993,221.604z"/>
		<g>
			<g opacity="0.5">
				
					<linearGradient id="SVGID_57_" gradientUnits="userSpaceOnUse" x1="176.8594" y1="104.9438" x2="175.29" y2="190.8645" gradientTransform="matrix(0.9913 -0.1313 0.1313 0.9913 -92.1318 93.1001)">
					<stop  offset="0" style="stop-color:#B1D4F7"/>
					<stop  offset="1" style="stop-color:#637EC9"/>
				</linearGradient>
				<path fill="url(#SVGID_57_)" d="M111.071,227.869c-0.063,0.008-0.125,0.016-0.188,0.021l-1.242,0.131
					c-0.585,0.061-1.109-0.365-1.171-0.949c-0.06-0.576,0.35-1.092,0.919-1.166c0.01-0.002,0.021-0.004,0.03-0.004l1.242-0.131
					c2.577-0.24,4.448-2.572,4.21-5.135c-0.795-8.568-4.111-37.092-13.367-44.475c-1.65-1.316-3.351-1.838-5.197-1.592
					c-1.847,0.244-3.354,1.189-4.604,2.891c-7.013,9.533-2.792,37.941-1.332,46.42c0.438,2.537,2.824,4.309,5.403,3.861l1.232-0.197
					c0.009-0.002,0.02-0.002,0.03-0.004c0.569-0.076,1.098,0.316,1.191,0.887c0.092,0.582-0.303,1.129-0.884,1.221l-1.232,0.199
					c-0.063,0.008-0.125,0.018-0.188,0.025c-3.619,0.48-7.027-2.01-7.652-5.631c-1.918-11.137-5.592-38.111,1.715-48.045
					c1.591-2.16,3.623-3.42,6.041-3.74c2.418-0.32,4.708,0.367,6.805,2.039c9.643,7.691,13.114,34.691,14.159,45.943
					C117.333,224.098,114.69,227.389,111.071,227.869z"/>
			</g>
			<path fill="#FFFFFF" d="M95.502,228.834c-0.213-1.609,4.882-3.762,5.291-0.678C101.201,231.238,95.715,230.443,95.502,228.834z"
				/>
			<path fill="#FFFFFF" d="M111.208,226.754c-0.213-1.609-5.693-2.361-5.284,0.723C106.333,230.561,111.421,228.363,111.208,226.754
				z"/>
		</g>
		<path fill="#131163" d="M103.166,174.08c-1.886-1.504-3.925-2.244-6.072-2.225c-0.092-7.498-0.655-16.307,3.44-25.637
			c4.764-10.854,10.827-12.744,10.827-12.744l1.358-1.699c-15.559,2.33-19.397,27.748-17.759,40.344
			c-2.129,0.523-3.943,1.783-5.4,3.762c-2.709,3.684-3.936,9.641-4.313,16.26l3.229-0.428c0.64-8.834,2.689-12.619,3.658-13.938
			c1.161-1.576,2.549-2.453,4.245-2.678c1.695-0.225,3.264,0.26,4.795,1.48c2.815,2.246,5.186,6.779,7.131,12.51l3.258-0.432
			C109.475,182.363,106.741,176.932,103.166,174.08z"/>
	</g>
	<g>
		
			<linearGradient id="SVGID_58_" gradientUnits="userSpaceOnUse" x1="1637.6152" y1="224.5264" x2="1576.983" y2="237.9638" gradientTransform="matrix(-1 0 0 1 1843.5566 0)">
			<stop  offset="0" style="stop-color:#D5CDF8"/>
			<stop  offset="0.2527" style="stop-color:#E2DBF9"/>
			<stop  offset="0.6167" style="stop-color:#EFE8FB"/>
			<stop  offset="0.9412" style="stop-color:#F3EDFB"/>
		</linearGradient>
		<path fill="url(#SVGID_58_)" d="M257.178,262.256c-9.628-29.613-42.496-102.232-42.496-102.232l-5.263,65.313l2.851,25.514
			l-97.871-13.252l-14.128,29.18c0,0,36.467,8.605,71.029,16.512c5.398-0.188,10.798-0.349,16.2-0.368
			c2.051-0.007,4.059,0.2,6.005,0.598c1.13-0.017,2.26-0.031,3.39-0.026c3.517,0.016,7.023,0.172,10.524,0.406
			c1.657-0.294,3.353-0.462,5.081-0.478c9.718-0.087,19.376-1.454,29.113-1.309c5.188,0.078,10.79,0.448,16.317,1.403
			C259.996,278.433,260.193,271.532,257.178,262.256z"/>
		<linearGradient id="SVGID_59_" gradientUnits="userSpaceOnUse" x1="193.2959" y1="335.7754" x2="250.4436" y2="288.5051">
			<stop  offset="0" style="stop-color:#9D68C2"/>
			<stop  offset="1" style="stop-color:#CCEDFF"/>
		</linearGradient>
		<path opacity="0.3" fill="url(#SVGID_59_)" d="M257.908,283.512c0.291-0.711,0.56-1.443,0.771-2.229
			c-1.032,0.655-2.092,1.268-3.168,1.851C256.311,283.248,257.11,283.374,257.908,283.512z"/>
		<linearGradient id="SVGID_60_" gradientUnits="userSpaceOnUse" x1="139.8457" y1="271.1563" x2="196.9934" y2="223.886">
			<stop  offset="0" style="stop-color:#9D68C2"/>
			<stop  offset="1" style="stop-color:#CCEDFF"/>
		</linearGradient>
		<path opacity="0.3" fill="url(#SVGID_60_)" d="M187.5,282.921c1.3-0.005,2.58,0.086,3.841,0.247
			c-6.604-2.842-12.975-6.336-19.076-10.236c-0.871-8.834,3.043-17.996,10.028-23.477l-14.827-4.672l-53.067-7.186l-14.128,29.18
			c0,0,36.467,8.605,71.029,16.512C176.698,283.102,182.098,282.94,187.5,282.921z"/>
		<linearGradient id="SVGID_61_" gradientUnits="userSpaceOnUse" x1="-118.8809" y1="381.5869" x2="247.3749" y2="214.8281">
			<stop  offset="0" style="stop-color:#B1D4F7"/>
			<stop  offset="1" style="stop-color:#637EC9"/>
		</linearGradient>
		<path opacity="0.5" fill="url(#SVGID_61_)" d="M135.169,274.945c14.457-8.752,29.718-16.178,45.539-22.117
			c3.28,1.42,6.937,2.209,10.387,1.273c3.073-0.834,5.873-2.625,7.942-5.043l-32.946-4.461c-4.388,0.262-8.762,0.822-13.095,1.736
			c-10.902,2.303-21.52,6.447-30.519,13.018c-3.982,2.906-7.633,6.309-10.776,10.113
			C117.81,270.896,125.967,272.805,135.169,274.945z"/>
		
			<linearGradient id="SVGID_62_" gradientUnits="userSpaceOnUse" x1="1658.4033" y1="299.9971" x2="1612.861" y2="199.153" gradientTransform="matrix(-1 0 0 1 1843.5566 0)">
			<stop  offset="0" style="stop-color:#9D68C2"/>
			<stop  offset="1" style="stop-color:#CCEDFF"/>
		</linearGradient>
		<path opacity="0.3" fill="url(#SVGID_62_)" d="M217.209,253.32l-4.939-2.471l-2.851-25.514l3.995-49.57
			c0.022,13.156,0.147,42.529,0.788,52.418c0.835,12.895,16.789,31.969,16.789,31.969L217.209,253.32z"/>
		<g>
			<linearGradient id="SVGID_63_" gradientUnits="userSpaceOnUse" x1="79.9233" y1="225.0195" x2="18.5602" y2="218.6095">
				<stop  offset="0" style="stop-color:#D5CDF8"/>
				<stop  offset="0.2527" style="stop-color:#E2DBF9"/>
				<stop  offset="0.6167" style="stop-color:#EFE8FB"/>
				<stop  offset="0.9412" style="stop-color:#F3EDFB"/>
			</linearGradient>
			<path fill="url(#SVGID_63_)" d="M84.064,283.839c1.61-0.271,3.258-0.418,4.936-0.418c1.19,0,2.365,0.079,3.523,0.217
				c37.353-13.149,87.383-31.894,87.383-31.894l-14.428-24.396L72.298,250.85l2.851-25.514l-5.263-65.313
				c0,0-32.868,72.619-42.497,102.232c-2.99,9.196-2.83,16.067-0.816,21.139c6.969-0.474,13.789,0.08,21.052,0.659
				c0.458-0.047,0.913-0.103,1.375-0.133C60.69,283.146,72.376,283.417,84.064,283.839z"/>
			<linearGradient id="SVGID_64_" gradientUnits="userSpaceOnUse" x1="99.9229" y1="301.123" x2="53.9298" y2="199.2811">
				<stop  offset="0" style="stop-color:#9D68C2"/>
				<stop  offset="1" style="stop-color:#CCEDFF"/>
			</linearGradient>
			<path opacity="0.3" fill="url(#SVGID_64_)" d="M80.344,248.82l-8.046,2.029l2.851-25.514l-3.995-49.57
				c-0.023,13.156-0.148,42.529-0.788,52.418c-0.835,12.895-16.789,31.969-16.789,31.969L80.344,248.82z"/>
			<g opacity="0.5">
				<linearGradient id="SVGID_65_" gradientUnits="userSpaceOnUse" x1="69.9492" y1="241.0371" x2="70.2133" y2="218.8581">
					<stop  offset="0" style="stop-color:#B1D4F7"/>
					<stop  offset="1" style="stop-color:#637EC9"/>
				</linearGradient>
				<path opacity="0.5" fill="url(#SVGID_65_)" d="M65.31,215.953c-0.368,3.043,0.382,6.209,2.076,8.766
					c1.688,2.547,4.302,4.463,7.237,5.313l0.525-4.695l-0.445-5.523c-1.645-1.236-3.485-2.207-5.447-2.828L65.31,215.953z"/>
				<linearGradient id="SVGID_66_" gradientUnits="userSpaceOnUse" x1="62.4644" y1="277.9092" x2="62.9704" y2="235.4036">
					<stop  offset="0" style="stop-color:#B1D4F7"/>
					<stop  offset="1" style="stop-color:#637EC9"/>
				</linearGradient>
				<path opacity="0.5" fill="url(#SVGID_66_)" d="M57.376,255.475c5.398-3.707,10.827-7.461,15.722-11.787l1.52-13.602
					c-1.485,1.924-3.009,3.918-4.494,5.842c-3.748,4.859-10.471,6.268-15.638,9.578c-0.894,0.572-1.804,1.164-2.459,2
					c-0.656,0.834-1.021,1.975-0.675,2.979c0.298,0.865,1.055,1.48,1.803,2.008c-0.637,0.52-0.788,1.705-0.583,2.5
					c0.205,0.795,0.9,1.441,1.708,1.588C55.387,256.781,56.448,256.113,57.376,255.475z"/>
			</g>
			<g>
				<radialGradient id="SVGID_67_" cx="98.019" cy="206.2422" r="74.8459" gradientUnits="userSpaceOnUse">
					<stop  offset="0" style="stop-color:#7DFFCF"/>
					<stop  offset="1" style="stop-color:#47C7F4"/>
				</radialGradient>
				<path fill="url(#SVGID_67_)" d="M98.914,239.977c0,0-13.455-14.988-15.552-17.756c-2.098-2.768-16.809-11.096-18.082-11.096
					c-1.274,0-1.092,6.002,1.818,9.275c2.91,3.275,5.457,3.045,5.457,3.045l5.275,7.361c0,0-12.369,2.652-14.915,3.672
					c-2.547,1.02-9.789,11.559-10.442,12.475c-0.653,0.914,2.516,3.08,2.516,3.08s-3.615,2.947-0.391,4.846
					C57.822,256.779,98.914,239.977,98.914,239.977z"/>
				<linearGradient id="SVGID_68_" gradientUnits="userSpaceOnUse" x1="75.5137" y1="254.9883" x2="75.7613" y2="234.1912">
					<stop  offset="0" style="stop-color:#755CBB"/>
					<stop  offset="1" style="stop-color:#CCEDFF"/>
				</linearGradient>
				<path opacity="0.5" fill="url(#SVGID_68_)" d="M91.147,231.258c-1.446,3.43-3.729,6.508-6.628,8.846
					c-4.556,3.676-10.407,5.451-16.234,6.008c-4.978,0.477-9.987,0.121-14.972-0.354c-0.43,0.609-0.73,1.041-0.84,1.195
					c-0.653,0.914,2.516,3.08,2.516,3.08s-3.615,2.947-0.391,4.846c3.224,1.9,44.316-14.902,44.316-14.902
					S95.054,235.676,91.147,231.258z"/>
				<linearGradient id="SVGID_69_" gradientUnits="userSpaceOnUse" x1="78.3901" y1="230.7627" x2="78.4347" y2="227.0159">
					<stop  offset="0" style="stop-color:#755CBB"/>
					<stop  offset="1" style="stop-color:#CCEDFF"/>
				</linearGradient>
				<path opacity="0.5" fill="url(#SVGID_69_)" d="M74.68,226.41l3.15,4.396c2.276-0.48,4.328-0.463,4.328-0.463L74.68,226.41z"/>
			</g>
			<linearGradient id="SVGID_70_" gradientUnits="userSpaceOnUse" x1="125.5225" y1="298.4209" x2="99.9723" y2="241.8453">
				<stop  offset="0" style="stop-color:#D5CDF8"/>
				<stop  offset="0.2527" style="stop-color:#E2DBF9"/>
				<stop  offset="0.6167" style="stop-color:#EFE8FB"/>
				<stop  offset="0.9412" style="stop-color:#F3EDFB"/>
			</linearGradient>
			<path fill="url(#SVGID_70_)" d="M47.624,284.054c0.458-0.047,0.914-0.103,1.376-0.133c8.536-0.566,17.07-0.57,25.604-0.37
				c37.916-11.014,99.449-41.705,99.449-41.705l-9.1-16.807l-92.099,20.832c-31.843,10.474-33.643,30.222-27.645,37.991
				C46.009,283.925,46.815,283.989,47.624,284.054z"/>
		</g>
		<radialGradient id="SVGID_71_" cx="211.4209" cy="223.1201" r="45.796" gradientUnits="userSpaceOnUse">
			<stop  offset="0" style="stop-color:#7DFFCF"/>
			<stop  offset="1" style="stop-color:#47C7F4"/>
		</radialGradient>
		<path fill="url(#SVGID_71_)" d="M168.146,230.938c0,0,15.276-4.098,18.811-4.816s25.313,24.729,25.313,24.729l-13.785-1.867
			c0,0-10.515,6.648-18.578,2.762L168.146,230.938z"/>
		<path fill="#7CFBD2" d="M68.853,215.016c1.17,1.268,2.612,2.25,4.04,3.221c5.148,3.5,10.305,7.004,15.693,10.113
			c-2.416-2.754-4.499-5.172-5.224-6.129c-1.747-2.305-12.233-8.461-16.431-10.457C67.287,212.971,67.993,214.082,68.853,215.016z"
			/>
		<linearGradient id="SVGID_72_" gradientUnits="userSpaceOnUse" x1="69.1099" y1="251.666" x2="69.25" y2="239.8938">
			<stop  offset="0" style="stop-color:#755CBB"/>
			<stop  offset="1" style="stop-color:#CCEDFF"/>
		</linearGradient>
		<path opacity="0.5" fill="url(#SVGID_72_)" d="M78.01,238.486c-6.633,0.539-12.762,2.803-17.573,7.205
			C65.956,242.594,71.865,239.998,78.01,238.486z"/>
		<linearGradient id="SVGID_73_" gradientUnits="userSpaceOnUse" x1="189.8555" y1="270.4502" x2="190.2716" y2="235.494">
			<stop  offset="0" style="stop-color:#755CBB"/>
			<stop  offset="1" style="stop-color:#CCEDFF"/>
		</linearGradient>
		<path opacity="0.5" fill="url(#SVGID_73_)" d="M212.27,250.85c0,0-9.585-11.197-17.07-18.527
			c-0.419-0.107-0.835-0.225-1.258-0.318c2.073,1.66,3.041,4.107,3.181,6.76c2.41,0.779,3.938,3.617,3.262,6.059
			c-5.749-0.777-11.445-0.154-16.803,2.072c-4.913-5.381-9.827-10.762-14.741-16.143c-0.441,0.119-0.693,0.186-0.693,0.186
			l11.76,20.807c8.063,3.887,18.578-2.762,18.578-2.762L212.27,250.85z"/>
		<linearGradient id="SVGID_74_" gradientUnits="userSpaceOnUse" x1="193.4795" y1="240.0723" x2="249.2163" y2="214.6949">
			<stop  offset="0" style="stop-color:#D5CDF8"/>
			<stop  offset="0.2527" style="stop-color:#E2DBF9"/>
			<stop  offset="0.6167" style="stop-color:#EFE8FB"/>
			<stop  offset="0.9412" style="stop-color:#F3EDFB"/>
		</linearGradient>
		<path fill="url(#SVGID_74_)" d="M258.556,267.303c-0.351-1.6-0.803-3.277-1.378-5.047c-7.285-22.406-27.871-69.428-37.462-90.988
			c1.173,13.689-1.05,27.951,3.911,40.73c5.227,13.463,17.667,23.113,23.008,36.531c1.709,4.297,2.668,8.932,5.072,12.883
			C253.288,264.012,255.76,266.293,258.556,267.303z"/>
		<linearGradient id="SVGID_75_" gradientUnits="userSpaceOnUse" x1="143.0176" y1="291.0098" x2="241.4579" y2="246.1892">
			<stop  offset="0" style="stop-color:#D5CDF8"/>
			<stop  offset="0.2527" style="stop-color:#E2DBF9"/>
			<stop  offset="0.6167" style="stop-color:#EFE8FB"/>
			<stop  offset="0.9412" style="stop-color:#F3EDFB"/>
		</linearGradient>
		<path fill="url(#SVGID_75_)" d="M232.03,263.217c-9.023-6.48-19.75-10.568-30.798-11.736c1.395,6.244,5.54,11.887,11.482,14.256
			C218.656,268.107,226.721,266.787,232.03,263.217z"/>
	</g>
</g>
</svg>
